<svg xmlns="http://www.w3.org/2000/svg" height="80pt" width="80pt" version="1.1" viewBox="0 0 80 80"><path d="M20.8473 11.2389C16.8845 11.2389 13.0435 11.9924 9.44552 13.2439 8.18663 13.6818 7.03629 14.1488 6.03395 14.6205 5.42245 14.9083 4.99177 15.1391 4.74713 15.2789 4.25457 15.5603 3.93913 16.0882 3.93913 16.6555 3.93913 18.2116 3.93913 64.8962 3.93913 66.4524 3.93913 67.7008 5.31079 68.4706 6.36314 67.7991 6.50293 67.7098 6.83129 67.526 7.29085 67.2903 8.07766 66.8868 8.98159 66.4735 10.0141 66.0933 13.0535 64.9741 16.4379 64.323 20.0393 64.3576 23.6188 64.3919 26.1388 64.9336 29.4062 66.1232 29.772 66.2564 30.9939 66.7191 31.082 66.7516 31.7447 66.9963 32.2579 67.1616 32.7579 67.3202 33.9166 67.6879 34.9507 67.9334 36.0198 68.0385 37.0692 68.6015 38.4583 68.9732 40.0299 68.9662 41.6524 68.9589 43.0707 68.5726 44.0999 67.9786 45.3349 67.9958 46.5042 67.8454 47.7808 67.41 48.3152 67.2277 48.8658 67.0243 49.5763 66.7217 49.5665 66.7259 50.9331 66.1135 51.342 65.9436 54.3483 64.6947 56.8973 64.1271 60.4993 64.1182 63.9483 64.1096 67.1538 64.7803 70.0457 65.9436 71.0482 66.3469 71.9476 66.8025 72.7092 67.2305 73.1534 67.4801 73.4436 67.6456 73.577 67.7392 74.6247 68.4738 76.0609 67.7319 76.0609 66.4524L76.0609 16.6555C76.0609 16.0882 75.7454 15.5603 75.2529 15.2789 75.0082 15.1391 74.5776 14.9083 73.966 14.6205 72.9637 14.1488 71.8134 13.6818 70.5545 13.2439 67.4547 12.1657 64.1517 11.5641 60.7687 11.3885 60.7485 11.6366 60.7387 14.5606 60.7387 14.5606L60.7387 39.6387C60.7387 40.8139 59.4856 41.5708 58.4344 41.0452L51.4916 37.5738 44.5488 41.0452C43.4976 41.5708 42.2445 40.8139 42.2445 39.6387L42.2445 17.5532C42.2445 17.5533 42.2439 14.374 42.2445 14.2913 41.9395 14.385 41.5796 14.467 41.2868 14.5606 40.9333 14.6738 40.4282 14.8336 40 14.9796 39.5718 14.8336 39.0667 14.6738 38.7132 14.5606 37.283 14.103 35.699 13.6409 34.0447 13.214 30.9641 12.419 27.9484 11.8272 25.0968 11.5082 23.6075 11.3416 22.1843 11.2389 20.8473 11.2389Z" opacity="1" fill="#000000"/></svg>