<svg xmlns="http://www.w3.org/2000/svg" height="80pt" width="80pt" version="1.1" viewBox="0 0 80 80"><path d="M30.4624 17.9448C30.4624 19.7592 30.4624 27.8576 30.4624 27.8576L23.2 27.8576 23.2 39.9792 30.4624 39.9792 30.4624 76 45.3816 76 45.3816 39.98 55.392 39.98C55.392 39.98 56.3296 34.168 56.784 27.8128 55.4808 27.8128 45.4376 27.8128 45.4376 27.8128 45.4376 27.8128 45.4376 20.7608 45.4376 19.5248 45.4376 18.2864 47.064 16.62 48.672 16.62 50.2768 16.62 53.6632 16.62 56.8 16.62 56.8 14.9696 56.8 9.2672 56.8 4.0008 52.612 4.0008 47.8488 4.0008 45.7488 4.0008 30.0936 4 30.4624 16.1336 30.4624 17.9448Z" opacity="1" fill="#000000"/></svg>