<?xml version="1.0" encoding="utf-8"?>
<!-- Generator: Adobe Illustrator 16.0.0, SVG Export Plug-In . SVG Version: 6.00 Build 0)  -->
<!DOCTYPE svg PUBLIC "-//W3C//DTD SVG 1.1//EN" "http://www.w3.org/Graphics/SVG/1.1/DTD/svg11.dtd">
<svg version="1.1" id="bch" xmlns:inkpad="http://taptrix.com/inkpad/svg_extensions"
	 xmlns="http://www.w3.org/2000/svg" xmlns:xlink="http://www.w3.org/1999/xlink" x="0px" y="0px" width="435.333px"
	 height="493.333px" viewBox="103.167 -10.167 435.333 493.333" enable-background="new 103.167 -10.167 435.333 493.333"
	 xml:space="preserve">
<path id="bch4" fill="none" stroke="#000000" stroke-miterlimit="10" d="M390.085,133.468h27.514v68.784h0.744
	c2.974-4.462,6.32-7.808,10.41-10.783c4.09-2.974,9.295-4.09,15.616-4.09c3.346,0,7.063,0.744,10.41,1.859
	c3.346,1.116,6.32,2.975,9.295,5.949s4.834,6.321,6.692,10.411c1.859,4.09,2.603,9.295,2.603,15.616v105.593h-27.514v-95.554
	c0-5.205-1.115-8.923-3.346-11.898c-2.23-2.974-5.949-4.461-10.039-4.461c-5.205,0-8.923,1.487-10.782,4.833
	c-2.975,3.718-4.09,8.18-4.09,14.5v92.58h-27.514V133.468z"/>
<path id="bch3" fill="none" stroke="#000000" stroke-miterlimit="10" d="M330.802,187.379c6.321,0,11.897,1.116,17.103,3.346
	c5.205,2.231,9.668,5.206,13.014,8.923c3.346,3.718,6.32,8.552,8.18,14.129c1.859,5.577,2.975,11.154,2.975,17.847h-27.886
	c0-5.577-1.115-9.667-3.718-12.27c-2.603-2.603-5.577-4.09-10.039-4.09c-4.09,0-7.436,1.487-10.039,4.09
	c-2.602,2.603-3.717,6.321-3.717,11.898v56.142c0,4.462,1.115,7.809,3.717,10.039c2.604,2.23,5.949,3.719,10.039,3.719
	c5.205,0,8.924-1.488,10.41-4.834c1.859-2.975,2.604-5.949,2.975-9.295H371.7c0,5.949-1.115,11.154-2.975,16.359
	c-1.858,5.205-4.462,9.295-7.808,12.642c-3.719,3.718-7.809,6.692-13.014,8.923s-10.781,3.347-17.103,3.347
	c-8.552,0-15.988-1.859-21.937-5.577c-5.949-3.719-10.782-8.18-14.128-14.129c-1.859-3.719-3.346-7.809-4.09-12.642
	s-1.116-9.667-1.116-15.616v-44.988c0-5.577,0.372-10.782,1.116-15.616s2.23-8.923,4.09-12.642
	c3.346-5.949,7.808-10.782,14.128-14.5C314.814,189.238,322.25,187.379,330.802,187.379z"/>
<path id="bch2" fill="none" stroke="#000000" stroke-miterlimit="10" d="M187.08,133.468h27.514v68.041h0.744
	c2.975-4.462,6.692-8.18,10.782-10.411c4.09-2.603,8.923-3.718,14.5-3.718c6.692,0,11.898,1.116,15.616,3.346
	c3.718,2.231,6.692,5.206,8.923,8.923c1.859,2.975,2.975,6.693,3.346,11.526c0.372,4.833,0.744,11.898,0.744,21.937v52.425
	c0,7.437-0.372,13.757-1.115,18.218c-0.744,4.462-1.859,8.181-3.346,11.526c-4.833,8.552-12.642,13.014-24.167,13.014
	c-6.692,0-12.27-1.487-15.988-4.09c-3.718-2.603-7.064-5.949-10.41-10.039v12.27H187.08V133.468z M228.722,215.265
	c-4.09,0-7.436,1.487-10.039,4.09c-2.603,2.975-4.09,6.321-4.09,10.783v53.54c0,5.206,1.116,9.296,3.718,12.27
	c2.603,3.347,5.949,4.833,10.039,4.833c4.833,0,8.18-1.858,10.411-5.205c2.231-3.346,3.346-7.808,3.346-13.385v-50.937
	c0-4.461-1.115-8.18-2.975-11.526C237.645,216.752,233.927,215.265,228.722,215.265z"/>
<path id="bch1" fill="none" stroke="#000000" stroke-miterlimit="10" d="M136.514,298.921H164.4v27.514h-27.886V298.921z"/>
<path id="Hex" fill="none" stroke="#000000" stroke-miterlimit="10" d="M320.186,7.054L121.271,121.942v229.775l199.287,114.888
	l199.287-114.888V121.942L320.186,7.054z"/>
</svg>
