<?xml version="1.0" encoding="utf-8"?>
<!-- Generator: Adobe Illustrator 16.0.0, SVG Export Plug-In . SVG Version: 6.00 Build 0)  -->
<!DOCTYPE svg PUBLIC "-//W3C//DTD SVG 1.1//EN" "http://www.w3.org/Graphics/SVG/1.1/DTD/svg11.dtd">
<svg version="1.1" id="bch" xmlns:inkpad="http://taptrix.com/inkpad/svg_extensions"
	 xmlns="http://www.w3.org/2000/svg" xmlns:xlink="http://www.w3.org/1999/xlink" x="0px" y="0px" width="435.333px"
	 height="493.333px" viewBox="103.167 -10.167 435.333 493.333" enable-background="new 103.167 -10.167 435.333 493.333"
	 xml:space="preserve">
<path id="Hex" fill="none" stroke="#000000" stroke-miterlimit="10" d="M320.186,7.054L121.271,121.942v229.775l199.287,114.888
	l199.287-114.888V121.942L320.186,7.054z"/>
<path id="bike1" fill="none" stroke="#000000" stroke-miterlimit="10" d="M383.997,159.594l0.636,15.881l-10.485,0.396
	l19.454,39.546c4.795-1.545,9.698-2.954,15.014-2.939c27.181,0.076,48.989,22.202,48.91,49.386
	c-0.08,27.188-21.968,48.99-49.148,48.918c-27.188-0.08-49.148-22.054-49.076-49.235c0.051-16.067,8.239-29.723,20.169-38.67
	l-0.556-1.112l-66.855,38.034l-3.098,0.954l-28.979,3.972c-1.914,25.498-22.545,45.653-48.517,45.581
	c-27.185-0.08-49.148-22.047-49.073-49.235c0.08-27.181,22.126-49.148,49.311-49.069c9.983,0.029,18.779,3.604,26.521,8.734
	c5.946-6.362,13.114-14.172,15.085-16.28l-11.669-23.343l-15.168,0.397l-0.08-15.88l20.09-0.397l18.819-0.318l0.159,15.881
	l-6.113,0.238l9.684,19.532l74.878-8.973l-9.685-19.771l6.983-11.435L383.997,159.594z M369.786,206.838l-73.21,8.817l13.576,26.993
	l60.428-34.301L369.786,206.838z M280.935,219.782c-2.289,2.438-7.333,7.878-11.042,11.832c3.95,5.12,6.651,10.876,8.341,17.31
	l16.118-2.145L280.935,219.782z M231.703,228.755c-17.935-0.051-32.507,14.464-32.558,32.395
	c-0.047,17.931,14.472,32.345,32.398,32.402c15.865,0.044,28.413-11.489,31.287-26.524l-32.478,4.211l-6.987-13.259
	c2.925-3.127,13.143-14.104,23.343-25.015C242.127,230.466,237.285,228.769,231.703,228.755z M408.615,229.231
	c-2.665-0.007-5.229,0.91-7.705,1.509l15.244,30.965l-14.133,6.99l-15.244-31.048c-6.514,5.917-10.773,14.49-10.803,23.978
	c-0.051,17.931,14.472,32.345,32.402,32.402c17.931,0.044,32.424-14.312,32.475-32.243
	C440.901,243.854,426.546,229.282,408.615,229.231z M258.541,243.84c-3.242,3.459-5.073,5.416-8.257,8.817l11.752-1.509
	C261.184,248.556,259.982,246.101,258.541,243.84z"/>
</svg>
