<?xml version="1.0" encoding="utf-8"?>
<!-- Generator: Adobe Illustrator 16.0.0, SVG Export Plug-In . SVG Version: 6.00 Build 0)  -->
<!DOCTYPE svg PUBLIC "-//W3C//DTD SVG 1.1//EN" "http://www.w3.org/Graphics/SVG/1.1/DTD/svg11.dtd">
<svg version="1.1" id="bch" xmlns:inkpad="http://taptrix.com/inkpad/svg_extensions"
	 xmlns="http://www.w3.org/2000/svg" xmlns:xlink="http://www.w3.org/1999/xlink" x="0px" y="0px" width="435.333px"
	 height="493.333px" viewBox="103.167 -10.167 435.333 493.333" enable-background="new 103.167 -10.167 435.333 493.333"
	 xml:space="preserve">
<path id="Hex" fill="none" stroke="#000000" stroke-miterlimit="10" d="M320.186,7.054L121.271,121.942v229.775l199.287,114.888
	l199.287-114.888V121.942L320.186,7.054z"/>
<path id="code2_1_" fill="none" stroke="#000000" stroke-miterlimit="10" d="M302.062,173.978c6.73,0,13.238,0.754,19.483,2.324
	c6.245,1.571,12.472,4.006,18.677,7.297v30.064c-4.783-4.112-10.069-7.255-15.793-9.46c-5.717-2.206-11.667-3.287-17.799-3.287
	c-10.689,0-18.856,3.377-24.609,10.181c-5.76,6.807-8.662,16.464-8.662,29.027s2.902,22.209,8.662,28.94
	c5.753,6.73,13.919,10.105,24.609,10.105c6.358,0,12.348-1.079,17.879-3.208c5.534-2.136,10.784-5.366,15.713-9.705v30.23
	c-5.534,3.216-11.521,5.607-17.875,7.212c-6.354,1.611-13.198,2.406-20.525,2.406c-19.366,0-34.463-5.812-45.379-17.479
	c-10.915-11.666-16.435-27.867-16.435-48.502c0-20.715,5.523-36.888,16.515-48.588C267.516,179.833,282.696,173.978,302.062,173.978
	z"/>
<path id="code3_1_" fill="none" stroke="#000000" stroke-miterlimit="10" d="M384.481,175.58h23.493l-36.479,130.846h-23.413
	L384.481,175.58z"/>
<path id="code1_1_" fill="none" stroke="#000000" stroke-miterlimit="10" d="M230.388,189.05v27.02l-32.793,24.295l32.793,24.528
	v27.022l-53.075-39.367v-24.135L230.388,189.05z"/>
<path id="code4_1_" fill="none" stroke="#000000" stroke-miterlimit="10" d="M410.622,189.05l53.074,39.364v24.135l-53.074,39.367
	v-27.022l32.79-24.528l-32.79-24.295V189.05z"/>
</svg>
