<?xml version="1.0" encoding="utf-8"?>
<!-- Generator: Adobe Illustrator 16.0.0, SVG Export Plug-In . SVG Version: 6.00 Build 0)  -->
<!DOCTYPE svg PUBLIC "-//W3C//DTD SVG 1.1//EN" "http://www.w3.org/Graphics/SVG/1.1/DTD/svg11.dtd">
<svg version="1.1" id="bch" xmlns:inkpad="http://taptrix.com/inkpad/svg_extensions"
	 xmlns="http://www.w3.org/2000/svg" xmlns:xlink="http://www.w3.org/1999/xlink" x="0px" y="0px" width="435.333px"
	 height="493.333px" viewBox="103.167 -10.167 435.333 493.333" enable-background="new 103.167 -10.167 435.333 493.333"
	 xml:space="preserve">
<path id="Hex" fill="none" stroke="#000000" stroke-miterlimit="10" d="M320.186,7.054L121.271,121.942v229.775l199.287,114.888
	l199.287-114.888V121.942L320.186,7.054z"/>
<path id="data3" fill="none" stroke="#000000" stroke-miterlimit="10" d="M239.772,268.106h158.311c9.626,0,17.5,7.866,17.5,17.5
	v13.328c0,9.626-7.874,17.5-17.5,17.5H239.772c-9.634,0-17.384-7.866-17.384-17.5v-13.328
	C222.388,275.973,230.138,268.106,239.772,268.106z M251.245,277.842c-5.334,0-9.619,4.281-9.619,9.619
	c0,5.331,4.285,9.735,9.619,9.735c5.331,0,9.735-4.404,9.735-9.735C260.98,282.123,256.576,277.842,251.245,277.842z"/>
<path id="data2_1_" fill="none" stroke="#000000" stroke-miterlimit="10" d="M239.772,210.16h158.311c9.626,0,17.5,7.75,17.5,17.384
	v7.301v6.142c0,9.634-7.874,17.5-17.5,17.5H239.772c-9.634,0-17.384-7.866-17.384-17.5v-6.722v-6.722
	C222.388,217.91,230.138,210.16,239.772,210.16z M251.245,219.895c-5.334,0-9.619,4.281-9.619,9.619c0,1.76,0.565,3.328,1.391,4.751
	c1.666,2.875,4.658,4.868,8.229,4.868c3.557,0,6.534-2.01,8.229-4.868c0.848-1.427,1.507-2.977,1.507-4.751
	C260.98,224.176,256.576,219.895,251.245,219.895z"/>
<path id="data1" fill="none" stroke="#000000" stroke-miterlimit="10" d="M239.772,152.095h158.311c9.626,0,17.5,7.868,17.5,17.5
	v13.444c0,9.63-7.874,17.501-17.5,17.501H239.772c-9.634,0-17.384-7.87-17.384-17.501v-13.444
	C222.388,159.963,230.138,152.095,239.772,152.095z M251.361,161.83c-5.335,0-9.735,4.4-9.735,9.735c0,5.334,4.4,9.619,9.735,9.619
	c5.331,0,9.735-4.285,9.735-9.619C261.096,166.23,256.692,161.83,251.361,161.83z"/>
</svg>
