<?xml version="1.0" encoding="utf-8"?>
<!-- Generator: Adobe Illustrator 16.0.0, SVG Export Plug-In . SVG Version: 6.00 Build 0)  -->
<!DOCTYPE svg PUBLIC "-//W3C//DTD SVG 1.1//EN" "http://www.w3.org/Graphics/SVG/1.1/DTD/svg11.dtd">
<svg version="1.1" id="bch" xmlns:inkpad="http://taptrix.com/inkpad/svg_extensions"
	 xmlns="http://www.w3.org/2000/svg" xmlns:xlink="http://www.w3.org/1999/xlink" x="0px" y="0px" width="435.333px"
	 height="493.333px" viewBox="103.167 -10.167 435.333 493.333" enable-background="new 103.167 -10.167 435.333 493.333"
	 xml:space="preserve">
<path id="Hex" fill="none" stroke="#000000" stroke-miterlimit="10" d="M320.186,7.054L121.271,121.942v229.775l199.287,114.888
	l199.287-114.888V121.942L320.186,7.054z"/>
<path id="Globe" fill="none" stroke="#000000" stroke-miterlimit="10" d="M317.975,127.221c21.582,0,41.65,6.338,58.6,17.125
	c-1.495-0.698-2.899-1.275-4.312-1.398c0.307-1.011-3.224-0.407-2.213-0.233c-1.405,0.208-2.977-0.208-4.311,0.233
	c0.161,0.058,0.029,0.046,0.233,0.117c-0.496-0.062-0.925-0.042-1.398,0.117c-0.64-0.04-1.434,0.104-1.863,0.233
	c-0.14,0.019-0.539,0.148-0.7,0.233c0.876,0.048,1.101-0.219,1.982-0.233c-0.219,0.669-6.415,3.218-7.224,3.262
	c0.356,0.062,0.496,0.148,0.932,0.233c-1.244-0.152-6.705,0.929-3.844,2.911c-0.248,0.125-0.554,0.346-0.7,0.584
	c0.474-0.083,0.481-0.161,1.049-0.117c0.072,0.673-0.625,0.279-0.582,0.698c0.146,1.476,4.193,0.398,4.66,0.117
	c1.42-0.859,1.849,0.064,2.679,1.281c0.314,0.471,1.579,3.077,2.213,3.145c0.736,0.059,4.012-0.798,3.962-1.863
	c-2.724-0.473,1.573-2.224,1.516-2.447c-0.329-1.278-2.105-0.928-2.33-2.33c-0.219-1.351,4.251-0.865,3.96-1.747
	c0.379-0.519,3.43-2.259,4.193-0.35c0.066,0.158-3.866,1.54-4.193,1.513c0.399,0.5,0.356,1.167,1.165,1.398
	c-1.435,1.773,8.104,1.509,8.853,2.33c-2,0.748-4.295-0.74-6.173,0.233c-0.604,0.316,1.615,1.098,1.63,1.746
	c-0.015-0.729-4.929,0.332-4.543,3.03c-0.503-0.022-1.011-0.096-1.514-0.116c-0.015-0.057,0.059-0.125,0.117-0.234
	c-1.232-0.446-6.284,1.303-6.059-0.233c-1.332-0.229-2.876-0.119-4.193-0.231c-0.117,0.314-0.009-0.117,0.116-0.701
	c0.29,0.113,0.749-0.096,0.815,0.35c0.102-0.638-0.312-0.852-0.815-0.931c0.13-0.519,0.363-0.949,0.465-0.934
	c-0.167-0.329-0.581-0.64-0.698-1.396c-2.593,1.023-2.593,1.044-1.165,3.495c0.648,1.105-1.959,0.992-2.68,0.932
	c-2.433-0.196-2.185,2.014-4.193,2.447c-2.44,0.525-2.885,1.507-5.709,1.281c0.021,0.461,0.22,0.863,0.233,1.28
	c-0.438,0.056-3.977-0.796-3.962,0c0,1.157,6.117,1.849,4.777,4.079c0.029-0.017,0.088,0.017,0.116,0
	c0.152,3.081-0.691,2.27-2.913,2.562c-1.995-0.156-3.96-0.656-5.939-0.815c-2.324-0.169-1.282,1.319-1.282,2.447
	c0,0.807-1.676,6.74,0.117,6.874c1.754,0.125,2.518-0.54,3.609,1.165c0.86,1.338,3.445-0.786,4.894-0.233
	c1.224-0.479,2.622-1.449,3.495-2.678c-2.883-1.257,3.772-4.054,3.845-4.312c-1.252-3.201,3.452-0.667,4.892-1.396
	c2.949-1.494,3.357-0.582,5.592,1.747c-0.415-0.904,9.671,6.949,6.525,6.64c0.219,1.342,1.937-1.313,1.98-1.048
	c-0.371-2.19-1.492-1.961,1.515-1.165c-0.044-1.855-3.197-1.367-3.495-3.028c-2.09-0.204-5.434-2.982-5.708-5.01
	c-0.189-1.298,6.094,3.093,6.64,3.145c0.255,1.446,3.326,1.753,3.729,3.962c0.24,1.301,2.854,3.945,4.077,4.077
	c-0.669,1.354,0.283,2.038,1.862,2.213c-0.26-0.14-0.522-1.807-0.581-2.097c0.663,0.585,1.419,0.996,2.214,0.583
	c-1.347-1.129-2.091-2.251-3.262-3.378c-0.198-1,1.842,0.348,1.863,0.348c0.022-0.332-0.065-0.583-0.234-0.932
	c1.159-0.212,1.349-0.748,2.564,0.117c1.573,1.121,1.36-0.321,2.797-0.117c-0.009,0.196,0.392,0.444,0.464,0.583
	c-0.633,0.242-4.26-0.442-3.959,0.932c0.216,0.981,1.761,0.417,0.233,1.98c1.396,0.71,2.205,1.548,3.376,2.563
	c-0.027,0.085-0.211,0.202-0.349,0.233c3.969,0.394,7.274,1.986,11.184,0.932c0.481,1.815-0.008,3.183-0.116,5.008
	c-0.029,0.536,0.102,2.447-0.351,2.797c-0.166,0.129,1.72,3.472,1.749,4.193c0.21,4.818,7.391,7.374,8.387,11.767
	c0.598,2.657,2.768,4.329,4.312,6.407c2.067,2.793,2.78,4.816,4.311,7.805c2.861,5.604,6.625,1.082,11.184-0.231
	c0.756,5.202,1.281,10.546,1.281,15.96c0,60.429-48.965,109.278-109.392,109.278c-14.583,0-28.515-2.862-41.239-8.039
	c-0.823-1.34-5.262-2.359-2.447-4.076c1.916-0.904,0.353-3.519-0.117-4.544c0.356-0.102,2.12,0.503,1.63-0.583
	c0.321,0.691-4.637-1.449-2.678-1.98c1.055-0.283,3.656,0.561,2.912-1.165c0.044-0.888-1.711-2.753-0.117-3.145
	c1.359-0.336,3.649-0.729,4.312-2.214c1.859-4.195-2.076-3.051-3.147-5.825c0.227,0.59,5.946-0.169,6.292-1.979
	c0.513-2.695,1.375-5.031,1.747-7.69c-0.006-0.021,0.008-0.103,0-0.117c-0.002-1.019,0.39-1.913,1.048-2.678
	c-0.4-1.18-0.698-2.301-1.048-3.495c-0.248-1.375,1.559-3.451,2.563-4.078c3.633-2.293,4.304-3.771,5.358-7.922
	c0.35-2.438-2.247-7.929-1.396-9.552c1.142-2.163,5.777-11.075,0.932-12.115c-2.257-0.461-3.449-1.851-5.592-2.447
	c-2.148-0.604-4.566,0.051-6.409,0.233c-0.406-1.704-0.844-1.596-2.33-2.215c-3.931-1.645-2.176,1.909-4.193,2.099
	c-2.038,0.231-4.274-2.31-2.68-4.427c1.053-1.398-2.759-6.932-5.008-6.759c-1.94,0.059-7.063-0.444-8.272-2.214
	c-1.503-2.277-6.967-2.847-7.455-5.357c-1.407,0.312-3.12,1.275-4.079,0.932c-0.8-0.29-3.166-0.059-3.729-0.698
	c-0.761-0.874-2.313-1.916-3.61-1.863c0.127,0.684,0.83,0.245,1.165,0.932c-3.656,0.219-1.057,3.916-1.749,3.96
	c-1.613,0.096-1.157-3.233-1.165-3.96c0.463-0.365,0.573-0.809,0.233-1.165c-0.654-0.926-1.244,0.713-1.747,0.932
	c-2.24,0.989-5.936,3.051-5.36,6.059c-2.81,1.15,0,4.812,0.467,6.987c-0.258,0.496-0.04,0.736,0.582,0.935
	c0.044,2.286-2.976,4.745-3.028,6.987c-0.058,2.616-0.877,3.008,1.515,4.312c0.031,1.571-1.617,2.286-1.165,4.076
	c0.478,1.887,2.072,1.995,2.912,3.146c1.646,2.417,3.875,4.987,5.942,7.224c2.465,2.657,3.066,6.05,7.107,6.757
	c3.151,0.429,6.661,2.417,7.922,5.357c1.15,2.681,1.482,5.534,2.447,8.272c0.458,2.891,0.221,7.937,1.98,10.252
	c1.634,4.004,1.849,6.43,1.863,10.485c0.008,2.073,1.179,2.359,1.863,3.843c0.546,1.159,0.3,2.236,1.165,3.262
	c-32.087-19.067-53.587-53.981-53.587-94.015c0-6.686,0.717-13.22,1.863-19.572c0.867-0.025,1.136,3.441,2.213,3.727
	c0.902,0.233,1.921-2.384,2.446-0.348c0.728,0.177,0.288,3.716,0.582,4.427c0.744,1.867,2.159,2.91,3.612,3.378
	c-0.448,1.599-0.225,2.938-0.117,4.543c0.125,1.761-1.346,3.579-0.932,5.242c0.14,0.048,0.328,0.069,0.467,0.117
	c-0.019-0.207,0.171-0.571,0.348-0.815c1.646,0.556,0.486,9.003,2.68,9.906c1.115,0.473,1.315-4.996,3.612-4.193
	c1.136,0.421,0.248,3.385,0.35,4.193c0.015,0.029,1.82-1.734,1.98-1.979c-0.379-1.37-0.342-5.025-2.797-3.962
	c-5.162,2.222-3.018-6.874-1.98-9.556c1.19-3.076,5.615-8.604-0.35-8.97c-4.948-0.302,0.769-4.956,1.398-6.059
	c0.467-0.536,0.83-1.015,1.282-1.98c0.677-1.448,1.863-2.515,2.563-3.962c-5.592-1.015-5.679,6.138-10.835,5.01
	c-3.778-0.779,4.354-14.397,4.777-15.379c1.605-2.809,3.641-3.98,6.407-5.475c1.865-1.005,3.183,1.773,4.543,1.165
	c-0.196-0.461,0.434-0.851,0.934-1.63c-0.314,0.14-0.198,0.071-0.467-0.117c0.805-0.265,1.492-0.071,2.213-0.233
	c-0.254,0.448,4.402,1.071,4.427,1.165c0.208,0.686-2.97,8.974-1.282,9.204c1.882,0.25,3.364-5.492,3.495-6.757
	c0.54-5.021,4.329-6.794,8.505-8.622c-0.023-0.031-0.096-0.085-0.117-0.115c1.04-0.69,2.388-0.74,3.378-1.515
	c-0.761-0.865,0.377-0.688,0.815-1.282c-0.192-0.059-0.356-0.008-0.35-0.35c0.583-0.146,0.977-0.64,1.165-1.165
	c-0.085,0-0.259,0.004-0.348,0c-0.125-0.354,1.2-2.482,1.513-2.795c-0.061,0.163-0.604,2.332-0.698,2.33
	c1.471,0.031,1.828-2.468,2.563-2.914c-0.242-0.588,3.829-2.084,4.774-2.33c-0.235-0.273-1.186,0.004-1.513,0
	c1.659-0.721,3.831-0.6,5.358-1.165c-2.472,0.058,2.126-3.695,3.612-3.378c1.415,0.302,4.285-1.807,6.059-1.863
	c-0.354,0.467-0.271,0.675,0.348,0.582c-2.345,0.117-4.1,3.143-2.33,2.215c1.071-0.561,5.84-1.309,6.292-2.215
	c0.254-0.519-5.265-0.102-2.797-3.145c-0.219,0-0.765-0.231-1.165-0.231c0.7-0.446,2.097-0.217,2.563-1.05
	c0.554-0.973-6.407,0.665-6.757,0.7c2.855-2.284,16.629-1.898,15.262-6.523c-0.408,0.123-4.923,1.361-5.01,0.815
	c1.034-0.312,3.539-0.65,4.077-1.165c0.335-0.4-3.451,0.002-2.678-1.282c-0.917,0.015-1.252-0.348-1.632-0.582
	c2.345-0.748-0.502-4.748-1.863-2.914c-0.058-0.216-0.189-0.383,0.117-0.931c-1.121,2.071-5.698,0.729-7.224,0
	c-5.329-2.556-3.687,0.958-7.688,1.863c0.08,1.917,2.755,1.794-0.931,3.262c-2.972,1.186-1.155,1.926-2.68,3.612
	c-0.869,0.019-1.107-0.019-1.399-0.117c0.179-0.327-0.319-0.436-0.698-0.348c0.131-0.575,1.74-1.588,0.698-2.33
	c-3.122,0.104-2.77-2.15-6.64-1.982c1.062-1.09,1.275-1.665-0.35-1.396c2.09-1.416,6.023-2.795,7.69-4.312
	c-0.14-0.129-0.184-0.173-0.351-0.231c1.922,0.173,5.148-0.179,6.407-1.282c-0.894-0.092-2.097,0.006-1.98-0.467
	c0.888,0.279,1.999,0.392,3.145,0.233c-1.019,0.423-2.409,1.09-2.912,1.515c0.269-0.029,0.972-0.05,1.398,0
	c-0.256,0.179-0.5,0.365-0.116,0.348c1.511-0.071,3.968-0.271,5.475-0.698c-0.079-0.198-0.742-0.159-1.048-0.351
	c-0.087-0.06,0.152-0.235,0.117-0.348c-0.146-0.384-1.636-0.619-1.982-0.467c0.023-0.108-0.006-0.131,0-0.233
	c0.358-0.073,0.7-0.134,1.05-0.234c-0.014,0.013,0.127-0.012,0.115,0c2.113-0.592,4.118-1.578,5.127-2.444
	c-0.525,0.019-1.215-0.302-1.749-0.35c0.75-0.029,1.378-0.006,1.749,0c-0.488,0.373,1.788-0.15,2.563,0.117
	c0.2,0.031,0.4,0.175,0.582,0.348c-0.263,0.073-0.552,0.16-0.815,0.233c0.048-0.055,1.63-0.052,1.98,0.116
	c-0.633-0.077-1.328,0.111-1.863,0.467c-0.038,0.033,2.184,0.621,2.213-0.233c1.311,0.944-2.599,1.611-1.515,1.98
	c-1.375,0.6-4.047,0.223-5.008,1.515c-0.168,0.226,4.346-0.329,4.775-0.116c1.046,0.523,2.979,1.761,4.66,1.398
	c1.336-0.313-1.18-1.534-1.165-1.516c2.286-0.379,2.309,0.803,2.914-1.165c-0.802,0.104-1.177-0.642-1.749-0.581
	c0.131-0.382,0.452-0.211,0.583-0.467c1.053,0.158,3.185,0.769,3.378-0.582c0.01-0.088-2.935-0.982-3.145-1.05
	c0.246-0.182,0.475-0.246,0.815-0.348c-0.254-0.123-0.525-0.182-0.815-0.117c0.21-0.14,0.421-0.075,0.698-0.117
	c-0.215-0.215-0.415-0.411-0.698-0.35c0.029-0.059-0.023-0.059,0-0.117c-2.388-0.094-4.473-0.792-6.99-0.814
	c0.127,0,0.494-0.625,0.465-0.698c-0.356-1.011-6.286,1.088-4.892,0.465c-0.667,0.002,1.396-0.603,1.863-0.698
	c-1.244-0.067-2.351-0.017-3.612,0.233c0.444-0.15,0.874-0.25,1.282-0.467c-1.657,0.068-2.511,0.585-3.495,0.932
	c0.638-0.106,1.38-0.194,1.863-0.348c-0.4,0.212-2.813,0.542-2.445,1.28c0,0,1.667-0.082,1.863,0
	c-0.531,0.441-1.217,0.552-1.98,0.233c-0.671,0.54,4.744,0.585,4.777,0.583c-0.661,0.179-3.289,2.597-4.195,1.747
	c-0.131-0.571,0.165-0.849,0.932-0.815c0.623-0.513-2.595,0.121-2.447,0.117c0.794-0.65-0.617-0.353,0.583-0.7
	c-0.283-0.117-1.092,0.075-1.165-0.115c0.382-0.121,0.784-0.231,1.165-0.35c0.867-0.659-2.826-0.642-3.845,0.117
	c-0.265,0.198,1.34,0.36,1.048,0.582c-0.254,0.154-0.546,0.327-0.815,0.467c0.277-0.067,0.511-0.046,0.815-0.117
	c-0.392,0.581-1.854,0.308-2.795,1.048c-0.583,0.094-0.571,0.025-0.35-0.117c-1.328,0.356-4.929-0.033-7.221-0.116
	c-0.853,0.71-2.403,0.758-2.914,0.583c-2.249-0.771-4.056,0.454-5.708,1.747C265.741,137.675,290.54,127.221,317.975,127.221z
	 M309.472,141.435c-2.901,0.061-5.877,0.296-8.622,0.932c0.062,0.048,0.252,0.186,0.35,0.233c-0.288-0.006-0.546-0.106-0.815,0
	c0.265,0.188,0.479,0.25,0.815,0.231c-0.458,0.029-2.651-0.425-2.912,0c-0.044,0.066,0.102,0.171,0.117,0.233
	c-0.432-0.159-1.065-0.265-1.282,0.117c-0.802,0.052-6.288,0.252-6.874,1.398c0.327,0.133,0.577,0.183,0.932,0.117
	c-0.594,1.131-3.028,0.165-3.495,1.165c-0.165,0.339,2.228,0.127,2.447,0.117c-0.481,0.552-1.807-0.033-2.213,0.582
	c0.342-0.065,0.611-0.017,0.932,0.117c-0.092,0.087-0.196,0.171-0.35,0.233c0.342,0.188,0.7,0.087,1.048,0
	c1.129-0.279,4.918-0.244,4.195,1.63c0.502,0.119,0.508,0.329,0,0.583c0.436-0.034,1.703,0.548,1.863,0.582
	c-0.332,0.527-1.136-0.117-1.632,0c-0.036,0.312,1.231,0.471,1.749,0.583c-0.554,0.663-1.94,0.865-2.213,1.747
	c0.123-0.055,0.123-0.048,0.233,0c-0.7,0.952,0.625,1.017,0.932,1.398c-1.521,0.814,2.563,2.747,3.145,2.797
	c0.888,0.071,2.968-3.293,4.66-3.612c-0.023,0.087-0.092,0.142-0.117,0.231c1.828,0.05,2.826-1.057,4.427-1.513
	c2.461,0.035,5.01-0.369,7.34-1.165c-0.573-0.104-3.037-0.061-2.914-0.467c0.79-0.086,0.342-0.042,0.467-0.465
	c0.362,0.117,3.086,1.057,3.261,0.465c0.259-0.872-1.921-1.174-2.33-1.398c0.273-0.823,1.886,1.332,2.33,0
	c-0.429-0.242-0.917-0.448-1.398-0.582c0.838-0.019,2.167,0.629,2.914-0.233c-0.135-0.025-0.267-0.142-0.233-0.234
	c0.575-0.031,1.259-0.142,1.513-0.348c-0.4,0.054-0.825-0.031-1.163-0.233c0.156-0.436,0.946,0.206,1.163-0.35
	c0.227-0.601-1.229-0.659-1.163-0.815c0.308-0.719,2.609,0.381,2.911-0.35c-0.356-0.186-0.761-0.302-1.165-0.348
	c0.182-0.008,0.415-0.194,0.582-0.233c-0.659-0.169-1.307-0.082-1.98,0c0.784-0.411,5.042-1.419,5.358-1.98
	c1.188-0.052,3.407-0.186,3.729-0.7c0.103-0.173-10.452,1.073-11.067,1.165c0.138-0.108,2.287-0.749,2.33-0.815
	c0.04-0.062-0.433-0.069-1.048,0c0.757-0.131,1.467-0.248,1.863-0.583C315.289,141.608,312.377,141.373,309.472,141.435z
	 M318.208,149.705c-0.439-0.046-1.092,0.181-1.515,0.233c-0.064,0.16,1.224,0.744,1.165,0.698c-0.371,0.05-1.196,0.042-1.63,0
	c0.161,0.225,0.874,0.112,1.282,0.233c-0.2,0.219-0.415,0.318-0.584,0.583c-0.087-0.011-0.119,0.085-0.233,0.117
	c3.001,0.285,4.493,1.498,7.69,0.117c0.24-0.404-0.99-1.05-0.116-1.282c-0.4-0.038-3.793-0.388-3.846,0
	c-0.467-0.263-0.96,0.112-1.282-0.35C318.792,150.234,317.8,150.672,318.208,149.705z M343.022,150.172
	c-0.967-0.054-2.891,1.065-2.33,1.282c-0.006,0.135-0.952-0.111-1.049-0.117c-0.015,0.319,0.307,0.348,0.932,0.464
	c-0.035,0.805,0.132,0.644,0.117,1.632c0.11,0.006,0.233-0.009,0.35,0c-0.079-0.113-0.219-0.15,0-0.351
	c1.428,0.729,0.248,0.313,0.233,1.282c-0.008,0.431,1.843,0.21,2.097,0.233c-0.502,0.633,0.138,0.696,0.815,0.698
	c0.008,0.915-1.273,0.982-1.98,0.934c0,1.05-0.932,1.065-0.932,1.629c0,0.154,2.352,0.675,2.679,0.35
	c0.022,0.507-2.395,0.869-2.912,1.747c0.889,0.05,8.41-0.585,8.389-0.932c-0.3-0.064-0.633-0.167-0.934-0.233
	c1.02-1.171,0.984-2.319,0-1.863c-0.166,0.043-0.166,0.193-0.465,0.233c-0.072-1.69-2.738-3.408-4.427-3.846
	c0.167-0.406,1.683-0.946,1.514-1.629c-1.288,0.583-2.141,0.481-2.562-0.35c0.362-0.159,0.713-0.369,1.048-0.584
	C343.62,150.399,343.344,150.19,343.022,150.172z M396.145,168.693c-0.566,0.294,1.145,2.078-1.048,2.33
	c1.93,2.641,6.54,2.33,7.69,5.708c-1.231-0.067-1.486,0.955-2.681,0.817c-2.773-0.329-5.083-2.041-7.688-2.33
	c-2.14-0.242-3.729,0.798-5.824,0.465c-2.302-2.551-0.643-2.101-1.282-4.66c0.263-0.756,1.005-0.886,0.698-1.513
	c2.549-0.342,1.953-1.169,4.427,1.048c1.013,0.909,3.074,1.901,4.195,0.233c-0.575-0.061-1.778-0.227-1.982-0.932
	C392.556,169.515,395.266,168.881,396.145,168.693z M253.786,169.51c0.508,0.381,0.204,2.414,1.165,2.678
	c3.768,1.046,1.157,2.005,0.932,1.398c-0.552,0.557-2.028,2.326-2.563,2.33c-0.175-0.298-0.021-0.59,0.233-1.165
	c-0.453,0.108-0.365,0.233-0.815,0.233c2.912-3.12-1.038-2.395-2.447-0.815c-0.438,0.49-3.422,4.606-3.962,3.378
	c-0.44-1.004,3.06-3.535,3.729-3.962c1.405-0.744,3.057-1.009,4.31-1.63c-1.434,0.015-2.701-0.373-3.96-0.35
	c0.342-0.26,0.465-0.488,0.815-0.932c-1.951,0.332-3.072,1.115-4.894,1.165c1.027-0.636,6.204-3.147,6.642-1.98
	C253.417,169.529,253.617,169.383,253.786,169.51z M261.124,174.752c-0.763,1.171-4.95,0.877-5.008,1.282
	C255.966,175.152,260.466,174.746,261.124,174.752z M251.573,177.082c-0.038,0.398,3.086,0.215,3.612,0
	c-1.203,0.427-2.822,0.94-3.612,0.932C251.187,178.007,251.31,177.463,251.573,177.082z M356.77,177.082
	c-0.518,0.269-1.049,0.684-1.516,0.698c-1.95,0.066-3.676,0.044-5.592,0.117c-2.882,0.106-5.925,1.63-8.387,3.03
	c-2.986,1.736-5.717-0.55-7.457,1.513c-1.527,2.03-3.297,3.872-4.776,5.942c-1.025,1.425-0.646,3.287-1.163,4.894
	c-0.475,1.515-2.172,2.965-3.611,3.495c-2.604,0.96-3.699,3.816-4.777,6.173c-0.873,1.919-1.53,3.768-2.563,5.592
	c-1.354,2.393,0.442,6.142,0.35,8.739c-0.066,1.838-0.765,4.043-1.749,5.592c-0.957,1.511,0.277,3.258,0.233,5.242
	c-0.054,0.004-0.062-0.004-0.117,0c0.999,1.592,2.236,3.153,3.495,4.543c2.243,2.472,2.739,5.748,5.127,8.159
	c1.805,1.813,3.88,4.602,6.757,3.612c1.316-0.452,2.388-1.247,3.843-1.282c1.217-0.037,2.199,1.069,3.378,1.049
	c2.797-0.073,5.586-4.006,8.971-4.079c2.47-0.064,2.288,4.122,4.429,4.079c6.93-0.146,6.064,4.862,4.31,9.668
	c-1.129,3.087,1.893,5.978,3.612,8.155c1.717,2.178,1.972,5.504,2.678,8.155c0.663,2.468,1.764,6.29,1.165,8.854
	c-0.596,2.549-2.663,4.354-3.145,6.99c-0.669,3.685,0.706,7.375,2.33,10.602c1.559,3.078,1.608,4.302,1.979,7.688
	c0.803,7.347,6.371,12.655,6.292,19.687c0.722-0.421,3.028,1.042,5.009,0c2.082-1.098,3.918-0.713,6.059-0.932
	c0.16-0.881,4.091-2.169,4.894-3.262c1.906-2.593,3.057-5.592,5.124-8.038c2.251-2.657-0.32-4.544,2.33-6.757
	c2.497-2.091,3.357-1.347,3.495-5.358c0.065-1.74-3.203-6.05,0.351-6.757c0.406-2.534,2.955-3.582,4.892-4.776
	c5.533-3.423,1.15-8.272,3.378-13.049c0.817-1.747-1.77-3.8-1.746-5.707c0.029-1.842-0.481-3.641-0.467-5.477
	c0.015-1.819,1.617-2.751,1.981-4.427c1.391-6.356,6.786-8.039,10.136-12.93c2.891-4.239,8.678-14.206,6.523-19.343
	c-1.959,0.659-3.969,1.642-6.059,2.097c-3.699,0.667-5.148,1.788-6.174-2.68c-0.715-3.105-6.044-5.314-6.757-8.62
	c-0.539-2.501-1.158-3.287-2.797-5.125c-1.521-1.715-0.873-4.658-2.097-6.757c-1.062-1.825-1.346-3.703-2.33-5.594
	c-1.456-2.807-4.499-6.631-4.66-9.785c0.976,1.054,2.105,3.893,3.262,4.079c0.707-3.068,0.722-3.795-0.465-6.759
	c-2.011,0.548-3.78-0.826-5.708-0.115c-2.601,0.957-4.616,0.7-7.224-0.233c-1.843-0.663-9.297-5.027-9.203,0
	c0.108,5.829-6.821-1.749-8.62-2.33c-1.924-0.625-5.04,0.429-5.011-2.914c0.015-1.884,0.584-3.204,0.7-4.892
	c-0.554,0.534-0.939,0.379-1.398-0.233C357.861,176.663,357.286,176.813,356.77,177.082z M233.864,208.886
	c-1.219,0.208-2.488,1.194-3.843,2.914c2.649,0.344,2.974-3.295,3.843-0.351c3.349,0.411,4.085,3.943,3.147,6.173
	c1.696,0.273,3.337,2.328,4.892,0.233c-0.684-0.971,0.442-1.786-1.048-2.213c0.131-0.819-2.074-3.958-3.028-4.894
	C236.34,209.296,235.087,208.68,233.864,208.886z M243.884,218.089c-0.54,0.596-0.561,3.477-0.583,3.845
	c-0.307-0.15-5.29,0.221-2.68,1.747c1.013-2.764,3.237,1.511,3.264,1.515c0.377,0.075,1.986-2.355,2.097-1.282
	c0.004,0.025,3.476,0.092,3.612,0.117c0.002,0.09-0.388-1.607-0.583-2.33c-0.625-1.117-0.429-2.759-2.097-3.03
	c-0.809-0.127-1.638,0.661-2.213-0.231C244.393,217.969,244.065,217.889,243.884,218.089z M235.612,222.051
	c-0.371-0.077-1.893,1.649,1.282,1.513c0.059-0.258,0.104-0.396,0-0.582C236.671,222.76,236.177,222.179,235.612,222.051z
	 M252.621,225.196c-0.517-0.321-1.213-0.354-1.398,0.231c-0.386,1.188,1.755,1.753,2.33,0.934
	C253.546,226.08,253.138,225.515,252.621,225.196z"/>
</svg>
