<?xml version="1.0" encoding="utf-8"?>
<!-- Generator: Adobe Illustrator 16.0.0, SVG Export Plug-In . SVG Version: 6.00 Build 0)  -->
<!DOCTYPE svg PUBLIC "-//W3C//DTD SVG 1.1//EN" "http://www.w3.org/Graphics/SVG/1.1/DTD/svg11.dtd">
<svg version="1.1" id="bch" xmlns:inkpad="http://taptrix.com/inkpad/svg_extensions"
	 xmlns="http://www.w3.org/2000/svg" xmlns:xlink="http://www.w3.org/1999/xlink" x="0px" y="0px" width="435.333px"
	 height="493.333px" viewBox="103.167 -10.167 435.333 493.333" enable-background="new 103.167 -10.167 435.333 493.333"
	 xml:space="preserve">
<path id="Hex" fill="none" stroke="#000000" stroke-miterlimit="10" d="M320.186,7.054L121.271,121.942v229.775l199.287,114.888
	l199.287-114.888V121.942L320.186,7.054z"/>
<path fill="none" stroke="#000000" stroke-miterlimit="10" d="M279.447,106.081c5.017,0.069,6.276,1.481,8.062,6.226
	c3.681,9.772,10.538,34.167,10.538,34.167s71.586-0.287,72.4,0.397c6.853,1.427,11.761,7.287,11.898,11.336
	c0.61,18.451-0.08,111.438-0.08,111.438s-1.096,58.108-3.833,61.07c-11.528,12.479-22.513,19.559-31.37,26.818
	c-2.461,2.019-17.003,4.393-17.003,4.393h-20.596c0,0-14.549-2.374-17.002-4.393c-8.857-7.26-19.841-14.339-31.37-26.818
	c-2.737-2.962-3.833-61.07-3.833-61.07s-1.466-94.49,0.08-121.497c0,0-0.051-13.346,2.236-31.851
	c0.254-2.062,1.307-2.561,6.062-5.508C270.626,107.698,272.198,105.979,279.447,106.081z M272.583,158.926
	c-3.448-0.305-5.917,4.024-5.91,8.222c0.058,29.382,2.164,112.407,2.077,115.913c-0.254,10.527,0.007,13.032,7.267,19.231
	c7.075,6.048,9.54,9.866,15.166,10.382c2.831,0.255,31.53,0.479,31.53,0.479s21.358-0.305,24.19-0.559
	c5.626-0.516,7.608-2.817,14.687-8.865c7.26-6.199,8.479-7.188,8.226-17.721c-0.087-3.5,1.22-88.361,1.271-117.744
	c0.015-4.2,0.937-9.512-7.26-9.26c-0.82,0.026-47.578,0.24-47.578,0.24S273.403,158.999,272.583,158.926z M321.115,322.171
	c-8.374,0-15.166,6.796-15.166,15.173c0,8.371,6.792,15.166,15.166,15.166c8.378,0,15.166-6.795,15.166-15.166
	C336.281,328.967,329.493,322.171,321.115,322.171z"/>
</svg>
