<?xml version="1.0" encoding="utf-8"?>
<!-- Generator: Adobe Illustrator 16.0.0, SVG Export Plug-In . SVG Version: 6.00 Build 0)  -->
<!DOCTYPE svg PUBLIC "-//W3C//DTD SVG 1.1//EN" "http://www.w3.org/Graphics/SVG/1.1/DTD/svg11.dtd">
<svg version="1.1" id="bch" xmlns:inkpad="http://taptrix.com/inkpad/svg_extensions"
	 xmlns="http://www.w3.org/2000/svg" xmlns:xlink="http://www.w3.org/1999/xlink" x="0px" y="0px" width="435.333px"
	 height="493.333px" viewBox="103.167 -10.167 435.333 493.333" enable-background="new 103.167 -10.167 435.333 493.333"
	 xml:space="preserve">
<path id="Hex" fill="none" stroke="#000000" stroke-miterlimit="10" d="M320.186,7.054L121.271,121.942v229.775l199.287,114.888
	l199.287-114.888V121.942L320.186,7.054z"/>
<path id="art5" fill="none" stroke="#000000" stroke-miterlimit="10" d="M387.583,125.034c1.412,0,2.824,0.596,3.903,1.673
	l41.412,41.331c2.151,2.155,2.151,5.649,0,7.804l-24.211,24.21l-49.133-49.214l24.124-24.13
	C384.758,125.629,386.171,125.034,387.583,125.034z"/>
<path id="art4" fill="none" stroke="#000000" stroke-miterlimit="10" d="M354.137,156.249l49.22,49.136l-13.891,13.808
	l-49.133-49.134L354.137,156.249z"/>
<path id="art3" fill="none" stroke="#000000" stroke-miterlimit="10" d="M334.944,175.443l49.133,49.134l-95.825,95.912l-3.505-17.6
	l-21.104-7.011l-7.003-21.104l-17.599-3.505L334.944,175.443z"/>
<path id="art2" fill="none" stroke="#000000" stroke-miterlimit="10" d="M234.637,276.788l17.042,3.027l7.007,21.024l21.104,7.004
	l3.501,17.599l-44.193,12.03l-16.328-16.404L234.637,276.788z"/>
<path id="art1_1_" fill="none" stroke="#000000" stroke-miterlimit="10" d="M220.271,327.551l12.424,12.42l-16.961,4.621
	L220.271,327.551z"/>
</svg>
