<?xml version="1.0" encoding="utf-8"?>
<!-- Generator: Adobe Illustrator 16.0.0, SVG Export Plug-In . SVG Version: 6.00 Build 0)  -->
<!DOCTYPE svg PUBLIC "-//W3C//DTD SVG 1.1//EN" "http://www.w3.org/Graphics/SVG/1.1/DTD/svg11.dtd">
<svg version="1.1" id="bch" xmlns:inkpad="http://taptrix.com/inkpad/svg_extensions"
	 xmlns="http://www.w3.org/2000/svg" xmlns:xlink="http://www.w3.org/1999/xlink" x="0px" y="0px" width="435.333px"
	 height="493.333px" viewBox="103.167 -10.167 435.333 493.333" enable-background="new 103.167 -10.167 435.333 493.333"
	 xml:space="preserve">
<path id="Hex" fill="none" stroke="#000000" stroke-miterlimit="10" d="M320.186,7.054L121.271,121.942v229.775l199.287,114.888
	l199.287-114.888V121.942L320.186,7.054z"/>
<path fill="none" stroke="#000000" stroke-miterlimit="10" d="M271.737,112.806h97.447c11.012,0,19.977,8.847,19.977,19.861v211.154
	c0,11.013-8.965,19.861-19.977,19.861h-97.447c-11.012,0-19.978-8.849-19.978-19.861V132.667
	C251.76,121.653,260.725,112.806,271.737,112.806z M310.298,127.44c-1.332,0-2.439,1.107-2.439,2.439s1.11,2.323,2.439,2.323h21.487
	c1.328,0,2.322-0.991,2.322-2.323s-0.994-2.439-2.322-2.439H310.298z M260.703,146.256V328.49H380.45V146.256H260.703z
	 M320.867,335.343c-6.025,0-10.918,4.776-10.918,10.802s4.893,10.918,10.918,10.918c6.025,0,10.918-4.893,10.918-10.918
	S326.893,335.343,320.867,335.343z"/>
</svg>
