<?xml version="1.0" encoding="utf-8"?>
<!-- Generator: Adobe Illustrator 17.1.0, SVG Export Plug-In . SVG Version: 6.00 Build 0)  -->
<!DOCTYPE svg PUBLIC "-//W3C//DTD SVG 1.1//EN" "http://www.w3.org/Graphics/SVG/1.1/DTD/svg11.dtd">
<svg version="1.1" id="Layer_1" xmlns:inkpad="http://taptrix.com/inkpad/svg_extensions"
	 xmlns="http://www.w3.org/2000/svg" xmlns:xlink="http://www.w3.org/1999/xlink" x="0px" y="0px" viewBox="0 34 631 728"
	 enable-background="new 0 34 631 728" xml:space="preserve">
<path fill="none" stroke="#000000" stroke-miterlimit="10" d="M314,54.5L16.3,226.4v343.8L314,742.7l297.7-171.9V226.4L314,54.5z"/>
<path fill="none" stroke="#000000" stroke-miterlimit="10" d="M305.7,197.5c5,0,8.9,0,13.9,0c15,0.6,28.9,2.8,37.8,6.7
	c2.8,1.1,7.8,8.3,7.8,8.3s4.5-2.2,6.7-0.6c18.9,11.1,28.9,25.6,38.4,45.1c21.1,44.5,11.7,78.4,11.7,78.4s17.2-5.6,10,35.1
	c-3.3,18.4-6.7,27.8-12.8,37.3c-11.7,18.9-21.1,8.3-21.1,8.3s-4.5,15.6-7.8,24.5c-2.2,11.1-4.5,31.2-1.7,44.5
	c1.8,8.8,14.4,13.2,13.9,12.8l19.5,5.6l52.3,18.4c0,0,40.1,7.8,64,27.8L314,679.3L90.9,550.8c18.4-17.2,60.1-28.9,60.1-28.9
	l52.9-18.4l19.5-5.6c0,0,12.8-4.5,13.9-12.8c2.8-13.4,0.6-33.4-1.7-44.5c-3.3-8.9-7.8-24.5-7.8-24.5s-9.5,10.6-21.7-8.3
	c-6.1-10-9.5-18.9-12.8-37.3c-7.2-41.2,10.6-35.1,10.6-35.1s-7.2-32.3,11.7-78.4c10-25,24.5-40.6,52.9-52.9
	C277.3,200.3,290.6,198,305.7,197.5z"/>
</svg>
