<?xml version="1.0" encoding="utf-8"?>
<!-- Generator: Adobe Illustrator 16.0.0, SVG Export Plug-In . SVG Version: 6.00 Build 0)  -->
<!DOCTYPE svg PUBLIC "-//W3C//DTD SVG 1.1//EN" "http://www.w3.org/Graphics/SVG/1.1/DTD/svg11.dtd">
<svg version="1.1" id="bch" xmlns:inkpad="http://taptrix.com/inkpad/svg_extensions"
	 xmlns="http://www.w3.org/2000/svg" xmlns:xlink="http://www.w3.org/1999/xlink" x="0px" y="0px" width="435.333px"
	 height="493.333px" viewBox="103.167 -10.167 435.333 493.333" enable-background="new 103.167 -10.167 435.333 493.333"
	 xml:space="preserve">
<path id="Hex" fill="none" stroke="#000000" stroke-miterlimit="10" d="M320.186,7.054L121.271,121.942v229.775l199.287,114.888
	l199.287-114.888V121.942L320.186,7.054z"/>
<path id="school3" fill="#FFFFFF" stroke="#000000" stroke-miterlimit="10" d="M319.727,200.176h18.8v4.56h-18.8V200.176z"/>
<path id="school2" fill="#FFFFFF" stroke="#000000" stroke-miterlimit="10" d="M235.009,221.696h188.244v66.401
	c0,1.543-1.267,2.801-2.802,2.801c0,0-45.698-15.839-91.36-15.839c-45.663,0-91.281,15.839-91.281,15.839
	c-1.542,0-2.801-1.258-2.801-2.801V221.696z"/>
<path id="school1" fill="#FFFFFF" stroke="#000000" stroke-miterlimit="10" d="M178.527,206.177h301.199v11.762H180.849
	l5.918,97.523l-17.04-10.805l8.8-86.719V206.177z"/>
</svg>
