<?xml version="1.0" encoding="utf-8"?>
<!-- Generator: Adobe Illustrator 16.0.0, SVG Export Plug-In . SVG Version: 6.00 Build 0)  -->
<!DOCTYPE svg PUBLIC "-//W3C//DTD SVG 1.1//EN" "http://www.w3.org/Graphics/SVG/1.1/DTD/svg11.dtd">
<svg version="1.1" id="bch" xmlns:inkpad="http://taptrix.com/inkpad/svg_extensions"
	 xmlns="http://www.w3.org/2000/svg" xmlns:xlink="http://www.w3.org/1999/xlink" x="0px" y="0px" width="435.333px"
	 height="493.333px" viewBox="103.167 -10.167 435.333 493.333" enable-background="new 103.167 -10.167 435.333 493.333"
	 xml:space="preserve">
<path id="Hex" fill="none" stroke="#000000" stroke-miterlimit="10" d="M320.186,7.054L121.271,121.942v229.775l199.287,114.888
	l199.287-114.888V121.942L320.186,7.054z"/>
<path id="work5" fill="#FFFFFF" stroke="#000000" stroke-miterlimit="10" d="M333.716,130.028c0,0,13.528-0.171,24.953,4.927
	c11.433,5.099,20.741,15.494,20.741,15.494l27.252,30.197c0,0-3.137,7.992,1.113,12.713c4.256,4.723,12.48,2.383,12.48,2.383
	l11.916,13.27c0,0,0.759,0.929,0.716,1.829s-0.954,1.749-0.954,1.749l-26.385,23.762c0,0-0.846,0.921-1.741,0.871
	c-0.903-0.047-1.908-1.03-1.908-1.03l-11.845-13.196c0,0,3.91-7.046-1.192-12.712c-5.095-5.666-12.473-2.385-12.473-2.385
	l-20.344-22.724l4.531-17.72c0,0-1.257-10.867-9.857-18.515c-8.593-7.649-24.549-12.08-24.549-12.08L333.716,130.028z"/>
<path id="work4" fill="#FFFFFF" stroke="#000000" stroke-miterlimit="10" d="M259.262,140.757c0.683,0.213,1.192,1.667,1.192,1.667
	l15.975,39.415l-26.861,30.513l-41.081-10.887c0,0-1.398-0.257-1.669-0.952c-0.271-0.698,0.556-1.829,0.556-1.829l50.302-57.134
	C257.676,141.55,258.58,140.542,259.262,140.757z"/>
<path id="work3" fill="#FFFFFF" stroke="#000000" stroke-miterlimit="10" d="M280.242,185.176l135.483,92.26l3.656,57.365
	l-57.373,3.657L253.383,215.69L280.242,185.176z"/>
<path id="work2" fill="#FFFFFF" stroke="#000000" stroke-miterlimit="10" d="M352.23,188.592l20.423,22.647l-19.866,17.879
	l-25.9-17.641L352.23,188.592z"/>
<path id="work1" fill="#FFFFFF" stroke="#000000" stroke-miterlimit="10" d="M280.56,253.197
	c8.155,9.214,10.143,11.461,20.181,22.808l-67.859,61.102c-1.854,1.669-4.687,1.539-6.356-0.318l-14.385-15.971
	c-1.669-1.857-1.536-4.69,0.318-6.359L280.56,253.197z"/>
</svg>
