<svg xmlns="http://www.w3.org/2000/svg" height="80pt" width="80pt" version="1.1" viewBox="0 0 80 80"><path d="M76 47.7816L76 74.4 60.568 74.4 60.568 49.564C60.568 43.3248 58.336 39.0672 52.7496 39.0672 48.4856 39.0672 45.948 41.9368 44.832 44.712 44.4248 45.7048 44.32 47.0856 44.32 48.4752L44.32 74.4 28.8832 74.4C28.8832 74.4 29.0912 32.336 28.8832 27.9776L44.3192 27.9776 44.3192 34.5576C44.288 34.6072 44.2472 34.66 44.2176 34.708L44.3192 34.708 44.3192 34.5576C46.3696 31.3992 50.032 26.8872 58.2296 26.8872 68.3864 26.8872 76 33.5224 76 47.7816ZM12.7352 5.6C7.4544 5.6 4 9.064 4 13.6192 4 18.0752 7.3544 21.644 12.5304 21.644L12.6336 21.644C18.0168 21.644 21.3648 18.076 21.3648 13.6192 21.2632 9.064 18.0168 5.6 12.7352 5.6ZM4.9168 74.4L20.348 74.4 20.348 27.9776 4.9168 27.9776 4.9168 74.4Z" opacity="1" fill="#000000"/></svg>