<svg xmlns="http://www.w3.org/2000/svg" height="80pt" width="80pt" version="1.1" viewBox="0 0 80 80"><path stroke="#000000" stroke-width="0.5" d="M44.471 7.99389C44.471 7.99389 48.6354 7.94107 52.1549 9.51111 55.6746 11.0812 58.5419 14.2829 58.5419 14.283L66.9355 23.582C66.9355 23.582 65.969 26.0433 67.2781 27.4973 68.5872 28.9514 71.12 28.2314 71.12 28.2315L74.7907 32.3181C74.7907 32.3181 75.025 32.6039 75.0109 32.881 74.9968 33.158 74.7173 33.4193 74.7173 33.4193L66.5929 40.7362C66.5929 40.7362 66.3318 41.0206 66.0545 41.0054 65.7772 40.9901 65.4672 40.6872 65.4672 40.6872L61.821 36.625C61.821 36.625 63.0249 34.4546 61.454 32.7097 59.8831 30.9648 57.612 31.9755 57.612 31.9755L51.3474 24.9768 52.7422 19.5198C52.7422 19.5198 52.355 16.1735 49.7078 13.818 47.0607 11.4625 42.1463 10.0984 42.1463 10.0984L44.471 7.99389ZM21.5416 11.2975C21.7521 11.3632 21.9087 11.8114 21.9087 11.8114L26.8274 23.949 18.5562 33.3459 5.90465 29.9934C5.90465 29.9934 5.47422 29.9141 5.39076 29.6997 5.3073 29.4853 5.56206 29.1369 5.56206 29.1369L21.0522 11.5422C21.0522 11.5422 21.3313 11.2319 21.5416 11.2975ZM28.002 24.9768L69.7252 53.3877 70.8508 71.0558 53.1827 72.1815 19.7308 34.3737 28.002 24.9768ZM50.1728 26.0291L56.4619 33.0033 50.3441 38.5093 42.3665 33.0768 50.1728 26.0291ZM28.0999 45.9241C30.6121 48.7628 31.2234 49.4532 34.3155 52.9472L13.4173 71.7655C12.8462 72.2796 11.9737 72.2387 11.4596 71.6676L7.03031 66.7489C6.51622 66.1778 6.55714 65.3053 7.1282 64.7912L28.0999 45.9241Z" fill="#000000" stroke-linecap="round" opacity="1" stroke-linejoin="round"/></svg>