<svg xmlns="http://www.w3.org/2000/svg" height="80pt" width="80pt" version="1.1" viewBox="0 0 80 80"><path d="M67.8424 37.2512C71.8864 36.9176 74.6288 35.0792 75.6848 32.5848 74.2256 33.4808 69.6976 34.4576 67.1968 33.5272 67.0744 32.94 66.9376 32.3816 66.8032 31.8776 64.8976 24.8808 58.3736 19.244 51.5376 19.9248 52.0904 19.7016 52.6512 19.4936 53.2112 19.3072 53.9632 19.0376 58.3784 18.3192 57.6832 16.7608 57.0968 15.3904 51.7032 17.7968 50.688 18.1112 52.028 17.6072 54.2456 16.74 54.4824 15.1992 52.4288 15.4808 50.4128 16.452 48.8552 17.864 49.4176 17.2584 49.844 16.5208 49.9344 15.7264 44.456 19.2264 41.256 26.2824 38.6664 33.1264 36.6328 31.156 34.8304 29.604 33.2136 28.7424 28.6776 26.3096 23.2544 23.772 14.7408 20.6112 14.4792 23.428 16.1336 27.1736 20.9008 29.664 19.868 29.5256 17.9792 29.8344 16.4688 30.196 17.084 33.4232 19.0928 36.0816 24.532 37.3672 22.0464 37.5312 20.7616 38.0968 19.5976 39.316 20.7296 41.56 23.492 44.2016 28.4616 43.6592 22.9368 46.0408 26.2088 50.4512 30.7048 49.7928 23.0352 57.7144 10.9432 57.1328 4 50.5072 22.1288 75.2104 61.5368 65.1168 67.4096 41.3224 71.8088 41.36 74.396 39.7984 76 38.0768 73.4648 38.5072 69.7912 38.0624 67.8424 37.2512Z" opacity="1" fill="#000000"/></svg>