<?xml version="1.0" encoding="utf-8"?>
<!-- Generator: Adobe Illustrator 16.0.0, SVG Export Plug-In . SVG Version: 6.00 Build 0)  -->
<!DOCTYPE svg PUBLIC "-//W3C//DTD SVG 1.1//EN" "http://www.w3.org/Graphics/SVG/1.1/DTD/svg11.dtd">
<svg version="1.1" id="Layer_1" xmlns="http://www.w3.org/2000/svg" xmlns:xlink="http://www.w3.org/1999/xlink" x="0px" y="0px"
	 width="1901.901px" height="658.899px" viewBox="28.7 242.609 1901.901 658.899"
	 enable-background="new 28.7 242.609 1901.901 658.899" xml:space="preserve">
<polygon fill="none" stroke="#395876" stroke-width="30" stroke-miterlimit="10" points="124.096,352.108 218.858,297.913 
	218.858,187.305 124.096,133.109 28.7,187.305 28.7,297.913 "/>
<polygon fill="none" stroke="#395876" stroke-width="30" stroke-miterlimit="10" points="220.443,516.912 315.206,462.084 
	315.206,352.108 220.443,297.913 125.364,352.108 125.364,462.084 "/>
<polygon fill="none" stroke="#395876" stroke-width="30" stroke-miterlimit="10" points="124.096,1011.324 218.858,956.812 
	218.858,846.521 124.096,791.691 28.7,846.521 28.7,956.812 "/>
<polygon fill="none" stroke="#395876" stroke-width="30" stroke-miterlimit="10" points="315.206,682.351 410.285,626.888 
	410.285,517.229 315.206,462.084 220.443,517.229 220.443,626.888 "/>
<polygon fill="none" stroke="#395876" stroke-width="30" stroke-miterlimit="10" points="600.176,516.912 695.571,462.084 
	695.571,352.108 600.176,297.913 505.096,352.108 505.096,462.084 "/>
<polygon fill="none" stroke="#395876" stroke-width="30" stroke-miterlimit="10" points="602.176,846.521 697.571,791.691 
	697.571,682.351 602.176,626.888 507.096,682.351 507.096,791.691 "/>
<polygon fill="none" stroke="#395876" stroke-width="30" stroke-miterlimit="10" points="886.632,682.351 981.711,626.888 
	981.711,517.229 886.632,462.084 791.553,517.229 791.553,626.888 "/>
<polygon fill="none" stroke="#395876" stroke-width="30" stroke-miterlimit="10" points="1265.363,352.108 1360.76,297.913 
	1360.76,187.305 1265.363,133.109 1170.284,187.305 1170.284,297.913 "/>
<polygon fill="none" stroke="#395876" stroke-width="30" stroke-miterlimit="10" points="1265.363,682.351 1360.76,626.888 
	1360.76,517.229 1265.363,462.084 1170.284,517.229 1170.284,626.888 "/>
<polygon fill="none" stroke="#395876" stroke-width="30" stroke-miterlimit="10" points="1361.711,846.521 1457.107,791.691 
	1457.107,682.351 1361.711,626.888 1266.632,682.351 1266.632,791.691 "/>
<polygon fill="none" stroke="#395876" stroke-width="30" stroke-miterlimit="10" points="1265.363,1011.324 1360.76,956.812 
	1360.76,846.521 1265.363,791.691 1170.284,846.521 1170.284,956.812 "/>
<polygon fill="none" stroke="#395876" stroke-width="30" stroke-miterlimit="10" points="1457.741,682.351 1552.187,626.888 
	1552.187,517.229 1457.741,462.084 1362.345,517.229 1362.345,626.888 "/>
<polygon fill="none" stroke="#395876" stroke-width="30" stroke-miterlimit="10" points="1645.681,352.108 1741.077,297.913 
	1741.077,187.305 1645.681,133.109 1551.235,187.305 1551.235,297.913 "/>
<polygon fill="none" stroke="#395876" stroke-width="30" stroke-miterlimit="10" points="1741.077,516.912 1836.473,462.084 
	1836.473,352.108 1741.077,297.913 1646.632,352.108 1646.632,462.084 "/>
<polygon fill="none" stroke="#395876" stroke-width="30" stroke-miterlimit="10" points="1741.077,846.521 1836.473,791.691 
	1836.473,682.351 1741.077,626.888 1646.632,682.351 1646.632,791.691 "/>
<polygon fill="none" stroke="#395876" stroke-width="30" stroke-miterlimit="10" points="1645.681,1011.324 1741.077,956.812 
	1741.077,846.521 1645.681,791.691 1551.235,846.521 1551.235,956.812 "/>
<g display="none">
	
		<line display="inline" fill="none" stroke="#4F4F4F" stroke-miterlimit="10" x1="1931.553" y1="188.889" x2="1931.553" y2="1177.396"/>
	
		<line display="inline" fill="none" stroke="#4F4F4F" stroke-miterlimit="10" x1="-63.527" y1="134.377" x2="-63.527" y2="1012.592"/>
	
		<line display="inline" fill="none" stroke="#4F4F4F" stroke-miterlimit="10" x1="2026.948" y1="1068.055" x2="-67.013" y2="1068.055"/>
	
		<line display="inline" fill="none" stroke="#4F4F4F" stroke-miterlimit="10" x1="1931.553" y1="244.035" x2="-162.092" y2="244.035"/>
</g>
<polygon fill="#3E617F" stroke="#395876" stroke-width="30" stroke-miterlimit="10" points="29.017,516.912 124.413,462.084 
	124.413,352.108 29.017,297.913 -66.379,352.108 -66.379,462.084 "/>
<polygon fill="#3E617F" stroke="#395876" stroke-width="30" stroke-miterlimit="10" points="29.017,846.521 124.413,791.691 
	124.413,682.351 29.017,626.888 -66.379,682.351 -66.379,791.691 "/>
<polygon fill="#3E617F" stroke="#395876" stroke-width="30" stroke-miterlimit="10" points="124.096,682.351 218.858,626.888 
	218.858,517.229 124.096,462.084 28.7,517.229 28.7,626.888 "/>
<polygon fill="#3E617F" stroke="#395876" stroke-width="30" stroke-miterlimit="10" points="220.443,846.521 315.206,791.691 
	315.206,682.351 220.443,626.888 125.364,682.351 125.364,791.691 "/>
<polygon fill="#3E617F" stroke="#395876" stroke-width="30" stroke-miterlimit="10" points="315.206,352.108 410.285,297.913 
	410.285,187.305 315.206,133.109 220.443,187.305 220.443,297.913 "/>
<polygon fill="#3E617F" stroke="#395876" stroke-width="30" stroke-miterlimit="10" points="411.687,516.912 506.766,462.084 
	506.766,352.108 411.687,297.913 316.607,352.108 316.607,462.084 "/>
<polygon fill="#3E617F" stroke="#395876" stroke-width="30" stroke-miterlimit="10" points="411.687,846.521 506.766,791.691 
	506.766,682.351 411.687,626.888 316.607,682.351 316.607,791.691 "/>
<polygon fill="#3E617F" stroke="#395876" stroke-width="30" stroke-miterlimit="10" points="315.206,1011.324 410.285,956.812 
	410.285,846.521 315.206,791.691 220.443,846.521 220.443,956.812 "/>
<polygon fill="#3E617F" stroke="#395876" stroke-width="30" stroke-miterlimit="10" points="506.266,352.108 601.662,297.913 
	601.662,187.305 506.266,133.109 411.187,187.305 411.187,297.913 "/>
<polygon fill="#3E617F" stroke="#395876" stroke-width="30" stroke-miterlimit="10" points="507.266,682.351 602.662,626.888 
	602.662,517.229 507.266,462.084 412.187,517.229 412.187,626.888 "/>
<polygon fill="#3E617F" stroke="#395876" stroke-width="30" stroke-miterlimit="10" points="507.266,1011.324 602.662,956.812 
	602.662,846.521 507.266,791.691 412.187,846.521 412.187,956.812 "/>
<polygon fill="#3E617F" stroke="#395876" stroke-width="30" stroke-miterlimit="10" points="697.107,352.108 792.503,297.913 
	792.503,187.305 697.107,133.109 602.027,187.305 602.027,297.913 "/>
<polygon fill="#3E617F" stroke="#395876" stroke-width="30" stroke-miterlimit="10" points="792.003,516.912 886.448,462.084 
	886.448,352.108 792.003,297.913 696.607,352.108 696.607,462.084 "/>
<polygon fill="none" stroke="#395876" stroke-width="30" stroke-miterlimit="10" points="698.107,682.351 793.503,626.888 
	793.503,517.229 698.107,462.084 603.027,517.229 603.027,626.888 "/>
<polygon fill="#3E617F" stroke="#395876" stroke-width="30" stroke-miterlimit="10" points="792.003,846.521 886.448,791.691 
	886.448,682.351 792.003,626.888 696.607,682.351 696.607,791.691 "/>
<polygon fill="#3E617F" stroke="#395876" stroke-width="30" stroke-miterlimit="10" points="697.107,1011.324 792.503,956.812 
	792.503,846.521 697.107,791.691 602.027,846.521 602.027,956.812 "/>
<polygon fill="#3E617F" stroke="#395876" stroke-width="30" stroke-miterlimit="10" points="886.632,352.108 981.711,297.913 
	981.711,187.305 886.632,133.109 791.553,187.305 791.553,297.913 "/>
<polygon fill="#3E617F" stroke="#395876" stroke-width="30" stroke-miterlimit="10" points="982.027,516.912 1077.107,462.084 
	1077.107,352.108 982.027,297.913 887.266,352.108 887.266,462.084 "/>
<polygon fill="#3E617F" stroke="#395876" stroke-width="30" stroke-miterlimit="10" points="982.027,846.521 1077.107,791.691 
	1077.107,682.351 982.027,626.888 887.266,682.351 887.266,791.691 "/>
<polygon fill="#3E617F" stroke="#395876" stroke-width="30" stroke-miterlimit="10" points="886.632,1011.324 981.711,956.812 
	981.711,846.521 886.632,791.691 791.553,846.521 791.553,956.812 "/>
<polygon fill="#3E617F" stroke="#395876" stroke-width="30" stroke-miterlimit="10" points="1077.107,352.108 1172.503,297.913 
	1172.503,187.305 1077.107,133.109 982.662,187.305 982.662,297.913 "/>
<polygon fill="#3E617F" stroke="#395876" stroke-width="30" stroke-miterlimit="10" points="1172.503,516.912 1267.899,462.084 
	1267.899,352.108 1172.503,297.913 1077.107,352.108 1077.107,462.084 "/>
<polygon fill="#3E617F" stroke="#395876" stroke-width="30" stroke-miterlimit="10" points="1077.107,682.351 1172.503,626.888 
	1172.503,517.229 1077.107,462.084 982.662,517.229 982.662,626.888 "/>
<polygon fill="#3E617F" stroke="#395876" stroke-width="30" stroke-miterlimit="10" points="1172.503,846.521 1267.899,791.691 
	1267.899,682.351 1172.503,626.888 1077.107,682.351 1077.107,791.691 "/>
<polygon fill="#3E617F" stroke="#395876" stroke-width="30" stroke-miterlimit="10" points="1077.107,1011.324 1172.503,956.812 
	1172.503,846.521 1077.107,791.691 982.662,846.521 982.662,956.812 "/>
<polygon fill="#3E617F" stroke="#395876" stroke-width="30" stroke-miterlimit="10" points="1361.711,516.912 1457.107,462.084 
	1457.107,352.108 1361.711,297.913 1266.632,352.108 1266.632,462.084 "/>
<polygon fill="#3E617F" stroke="#395876" stroke-width="30" stroke-miterlimit="10" points="1457.741,352.108 1552.187,297.913 
	1552.187,187.305 1457.741,133.109 1362.345,187.305 1362.345,297.913 "/>
<polygon fill="#3E617F" stroke="#395876" stroke-width="30" stroke-miterlimit="10" points="1553.454,516.912 1648.217,462.084 
	1648.217,352.108 1553.454,297.913 1458.375,352.108 1458.375,462.084 "/>
<polygon fill="#3E617F" stroke="#395876" stroke-width="30" stroke-miterlimit="10" points="1553.454,846.521 1648.217,791.691 
	1648.217,682.351 1553.454,626.888 1458.375,682.351 1458.375,791.691 "/>
<polygon fill="#3E617F" stroke="#395876" stroke-width="30" stroke-miterlimit="10" points="1457.741,1011.324 1552.187,956.812 
	1552.187,846.521 1457.741,791.691 1362.345,846.521 1362.345,956.812 "/>
<polygon fill="#3E617F" stroke="#395876" stroke-width="30" stroke-miterlimit="10" points="1645.681,682.351 1741.077,626.888 
	1741.077,517.229 1645.681,462.084 1551.235,517.229 1551.235,626.888 "/>
<polygon fill="#3E617F" stroke="#395876" stroke-width="30" stroke-miterlimit="10" points="1835.205,352.108 1930.602,297.913 
	1930.602,187.305 1835.205,133.109 1740.126,187.305 1740.126,297.913 "/>
<polygon fill="#3E617F" stroke="#395876" stroke-width="30" stroke-miterlimit="10" points="1930.602,516.912 2025.998,462.084 
	2025.998,352.108 1930.602,297.913 1835.205,352.108 1835.205,462.084 "/>
<polygon fill="#3E617F" stroke="#395876" stroke-width="30" stroke-miterlimit="10" points="1835.205,682.351 1930.602,626.888 
	1930.602,517.229 1835.205,462.084 1740.126,517.229 1740.126,626.888 "/>
<polygon fill="#3E617F" stroke="#395876" stroke-width="30" stroke-miterlimit="10" points="1930.602,846.521 2025.998,791.691 
	2025.998,682.351 1930.602,626.888 1835.205,682.351 1835.205,791.691 "/>
<polygon fill="#3E617F" stroke="#395876" stroke-width="30" stroke-miterlimit="10" points="1835.205,1011.324 1930.602,956.812 
	1930.602,846.521 1835.205,791.691 1740.126,846.521 1740.126,956.812 "/>
</svg>
