<?xml version="1.0" encoding="utf-8"?>
<!-- Generator: Adobe Illustrator 16.0.0, SVG Export Plug-In . SVG Version: 6.00 Build 0)  -->
<!DOCTYPE svg PUBLIC "-//W3C//DTD SVG 1.1//EN" "http://www.w3.org/Graphics/SVG/1.1/DTD/svg11.dtd">
<svg version="1.1" id="Layer_1" xmlns="http://www.w3.org/2000/svg" xmlns:xlink="http://www.w3.org/1999/xlink" x="0px" y="0px"
	 width="1900px" height="658.324px" viewBox="28.7 434.738 1900 658.324" enable-background="new 28.7 434.738 1900 658.324"
	 xml:space="preserve">
<polygon fill="none" stroke="#4D644B" stroke-width="30" stroke-miterlimit="10" points="123.921,544.195 218.827,490.099 
	218.827,379.376 123.921,325.28 28.7,379.376 28.7,490.099 "/>
<polygon fill="none" stroke="#4D644B" stroke-width="30" stroke-miterlimit="10" points="220.408,708.697 314.997,653.969 
	314.997,544.195 220.408,490.099 125.187,544.195 125.187,653.969 "/>
<polygon fill="none" stroke="#4D644B" stroke-width="30" stroke-miterlimit="10" points="123.921,1202.836 218.827,1148.424 
	218.827,1037.701 123.921,983.289 28.7,1037.701 28.7,1148.424 "/>
<polygon fill="none" stroke="#4D644B" stroke-width="30" stroke-miterlimit="10" points="314.997,874.148 409.902,818.787 
	409.902,709.014 314.997,653.969 220.408,709.014 220.408,818.787 "/>
<polygon fill="none" stroke="#4D644B" stroke-width="30" stroke-miterlimit="10" points="599.264,708.697 694.484,653.969 
	694.484,544.195 599.264,490.099 504.042,544.195 504.042,653.969 "/>
<polygon fill="none" stroke="#4D644B" stroke-width="30" stroke-miterlimit="10" points="599.264,1037.701 694.484,983.289 
	694.484,874.148 599.264,818.787 504.042,874.148 504.042,983.289 "/>
<polygon fill="none" stroke="#4D644B" stroke-width="30" stroke-miterlimit="10" points="885.693,874.148 980.914,818.787 
	980.914,709.014 885.693,653.969 790.788,709.014 790.788,818.787 "/>
<polygon fill="none" stroke="#4D644B" stroke-width="30" stroke-miterlimit="10" points="1264.048,544.195 1359.586,490.099 
	1359.586,379.376 1264.048,325.28 1169.143,379.376 1169.143,490.099 "/>
<polygon fill="none" stroke="#4D644B" stroke-width="30" stroke-miterlimit="10" points="1264.048,874.148 1359.586,818.787 
	1359.586,709.014 1264.048,653.969 1169.143,709.014 1169.143,818.787 "/>
<polygon fill="none" stroke="#4D644B" stroke-width="30" stroke-miterlimit="10" points="1360.535,1037.701 1455.756,983.289 
	1455.756,874.148 1360.535,818.787 1265.313,874.148 1265.313,983.289 "/>
<polygon fill="none" stroke="#4D644B" stroke-width="30" stroke-miterlimit="10" points="1264.048,1202.836 1359.586,1148.424 
	1359.586,1037.701 1264.048,983.289 1169.143,1037.701 1169.143,1148.424 "/>
<polygon fill="none" stroke="#4D644B" stroke-width="30" stroke-miterlimit="10" points="1456.389,874.148 1550.661,818.787 
	1550.661,709.014 1456.389,653.969 1361.168,709.014 1361.168,818.787 "/>
<polygon fill="none" stroke="#4D644B" stroke-width="30" stroke-miterlimit="10" points="1643.984,544.195 1739.522,490.099 
	1739.522,379.376 1643.984,325.28 1549.712,379.376 1549.712,490.099 "/>
<polygon fill="none" stroke="#4D644B" stroke-width="30" stroke-miterlimit="10" points="1739.522,708.697 1834.744,653.969 
	1834.744,544.195 1739.522,490.099 1644.934,544.195 1644.934,653.969 "/>
<polygon fill="none" stroke="#4D644B" stroke-width="30" stroke-miterlimit="10" points="1739.522,1037.701 1834.744,983.289 
	1834.744,874.148 1739.522,818.787 1644.934,874.148 1644.934,983.289 "/>
<polygon fill="none" stroke="#4D644B" stroke-width="30" stroke-miterlimit="10" points="1643.984,1202.836 1739.522,1148.424 
	1739.522,1037.701 1643.984,983.289 1549.712,1037.701 1549.712,1148.424 "/>
<g display="none">
	
		<line display="inline" fill="none" stroke="#4D644B" stroke-miterlimit="10" x1="1929.649" y1="380.958" x2="1929.649" y2="1368.287"/>
	
		<line display="inline" fill="none" stroke="#4D644B" stroke-miterlimit="10" x1="-63.358" y1="326.229" x2="-63.358" y2="1203.785"/>
	
		<line display="inline" fill="none" stroke="#4D644B" stroke-miterlimit="10" x1="2024.87" y1="1259.146" x2="-66.838" y2="1259.146"/>
	
		<line display="inline" fill="none" stroke="#4D644B" stroke-miterlimit="10" x1="1929.649" y1="436.319" x2="-162.059" y2="436.319"/>
</g>
<polygon fill="none" stroke="#4D644B" stroke-width="30" stroke-miterlimit="10" points="696.516,874.148 791.737,818.787 
	791.737,709.014 696.516,653.969 601.61,709.014 601.61,818.787 "/>
<polygon fill="#5A7057" stroke="#4D644B" stroke-width="30" stroke-miterlimit="10" points="29.016,708.697 124.238,653.969 
	124.238,544.195 29.016,490.099 -66.205,544.195 -66.205,653.969 "/>
<polygon fill="#5A7057" stroke="#4D644B" stroke-width="30" stroke-miterlimit="10" points="29.016,1037.701 124.238,983.289 
	124.238,874.148 29.016,818.787 -66.205,874.148 -66.205,983.289 "/>
<polygon fill="#5A7057" stroke="#4D644B" stroke-width="30" stroke-miterlimit="10" points="123.921,874.148 218.827,818.787 
	218.827,709.014 123.921,653.969 28.7,709.014 28.7,818.787 "/>
<polygon fill="#5A7057" stroke="#4D644B" stroke-width="30" stroke-miterlimit="10" points="220.408,1037.701 314.997,983.289 
	314.997,874.148 220.408,818.787 125.187,874.148 125.187,983.289 "/>
<polygon fill="#5A7057" stroke="#4D644B" stroke-width="30" stroke-miterlimit="10" points="314.997,544.195 409.902,490.099 
	409.902,379.376 314.997,325.28 220.408,379.376 220.408,490.099 "/>
<polygon fill="#5A7057" stroke="#4D644B" stroke-width="30" stroke-miterlimit="10" points="411.8,708.697 506.705,653.969 
	506.705,544.195 411.8,490.099 316.895,544.195 316.895,653.969 "/>
<polygon fill="#5A7057" stroke="#4D644B" stroke-width="30" stroke-miterlimit="10" points="411.8,1037.701 506.705,983.289 
	506.705,874.148 411.8,818.787 316.895,874.148 316.895,983.289 "/>
<polygon fill="#5A7057" stroke="#4D644B" stroke-width="30" stroke-miterlimit="10" points="314.997,1202.836 409.902,1148.424 
	409.902,1037.701 314.997,983.289 220.408,1037.701 220.408,1148.424 "/>
<polygon fill="#5A7057" stroke="#4D644B" stroke-width="30" stroke-miterlimit="10" points="506.705,544.195 602.243,490.099 
	602.243,379.376 506.705,325.28 411.8,379.376 411.8,490.099 "/>
<polygon fill="#5A7057" stroke="#4D644B" stroke-width="30" stroke-miterlimit="10" points="506.705,874.148 602.243,818.787 
	602.243,709.014 506.705,653.969 411.8,709.014 411.8,818.787 "/>
<polygon fill="#5A7057" stroke="#4D644B" stroke-width="30" stroke-miterlimit="10" points="506.705,1202.836 602.243,1148.424 
	602.243,1037.701 506.705,983.289 411.8,1037.701 411.8,1148.424 "/>
<polygon fill="#5A7057" stroke="#4D644B" stroke-width="30" stroke-miterlimit="10" points="696.516,544.195 791.737,490.099 
	791.737,379.376 696.516,325.28 601.61,379.376 601.61,490.099 "/>
<polygon fill="#5A7057" stroke="#4D644B" stroke-width="30" stroke-miterlimit="10" points="791.737,708.697 886.01,653.969 
	886.01,544.195 791.737,490.099 696.516,544.195 696.516,653.969 "/>
<polygon fill="#5A7057" stroke="#4D644B" stroke-width="30" stroke-miterlimit="10" points="791.737,1037.701 886.01,983.289 
	886.01,874.148 791.737,818.787 696.516,874.148 696.516,983.289 "/>
<polygon fill="#5A7057" stroke="#4D644B" stroke-width="30" stroke-miterlimit="10" points="696.516,1202.836 791.737,1148.424 
	791.737,1037.701 696.516,983.289 601.61,1037.701 601.61,1148.424 "/>
<polygon fill="#5A7057" stroke="#4D644B" stroke-width="30" stroke-miterlimit="10" points="885.693,544.195 980.914,490.099 
	980.914,379.376 885.693,325.28 790.788,379.376 790.788,490.099 "/>
<polygon fill="#5A7057" stroke="#4D644B" stroke-width="30" stroke-miterlimit="10" points="981.23,708.697 1076.136,653.969 
	1076.136,544.195 981.23,490.099 886.326,544.195 886.326,653.969 "/>
<polygon fill="#5A7057" stroke="#4D644B" stroke-width="30" stroke-miterlimit="10" points="981.23,1037.701 1076.136,983.289 
	1076.136,874.148 981.23,818.787 886.326,874.148 886.326,983.289 "/>
<polygon fill="#5A7057" stroke="#4D644B" stroke-width="30" stroke-miterlimit="10" points="885.693,1202.836 980.914,1148.424 
	980.914,1037.701 885.693,983.289 790.788,1037.701 790.788,1148.424 "/>
<polygon fill="#5A7057" stroke="#4D644B" stroke-width="30" stroke-miterlimit="10" points="1076.136,544.195 1171.357,490.099 
	1171.357,379.376 1076.136,325.28 981.863,379.376 981.863,490.099 "/>
<polygon fill="#5A7057" stroke="#4D644B" stroke-width="30" stroke-miterlimit="10" points="1171.357,708.697 1266.579,653.969 
	1266.579,544.195 1171.357,490.099 1076.136,544.195 1076.136,653.969 "/>
<polygon fill="#5A7057" stroke="#4D644B" stroke-width="30" stroke-miterlimit="10" points="1076.136,874.148 1171.357,818.787 
	1171.357,709.014 1076.136,653.969 981.863,709.014 981.863,818.787 "/>
<polygon fill="#5A7057" stroke="#4D644B" stroke-width="30" stroke-miterlimit="10" points="1171.357,1037.701 1266.579,983.289 
	1266.579,874.148 1171.357,818.787 1076.136,874.148 1076.136,983.289 "/>
<polygon fill="#5A7057" stroke="#4D644B" stroke-width="30" stroke-miterlimit="10" points="1076.136,1202.836 1171.357,1148.424 
	1171.357,1037.701 1076.136,983.289 981.863,1037.701 981.863,1148.424 "/>
<polygon fill="#5A7057" stroke="#4D644B" stroke-width="30" stroke-miterlimit="10" points="1360.535,708.697 1455.756,653.969 
	1455.756,544.195 1360.535,490.099 1265.313,544.195 1265.313,653.969 "/>
<polygon fill="#5A7057" stroke="#4D644B" stroke-width="30" stroke-miterlimit="10" points="1456.389,544.195 1550.661,490.099 
	1550.661,379.376 1456.389,325.28 1361.168,379.376 1361.168,490.099 "/>
<polygon fill="#5A7057" stroke="#4D644B" stroke-width="30" stroke-miterlimit="10" points="1551.927,708.697 1646.516,653.969 
	1646.516,544.195 1551.927,490.099 1457.021,544.195 1457.021,653.969 "/>
<polygon fill="#5A7057" stroke="#4D644B" stroke-width="30" stroke-miterlimit="10" points="1551.927,1037.701 1646.516,983.289 
	1646.516,874.148 1551.927,818.787 1457.021,874.148 1457.021,983.289 "/>
<polygon fill="#5A7057" stroke="#4D644B" stroke-width="30" stroke-miterlimit="10" points="1456.389,1202.836 1550.661,1148.424 
	1550.661,1037.701 1456.389,983.289 1361.168,1037.701 1361.168,1148.424 "/>
<polygon fill="#5A7057" stroke="#4D644B" stroke-width="30" stroke-miterlimit="10" points="1643.984,874.148 1739.522,818.787 
	1739.522,709.014 1643.984,653.969 1549.712,709.014 1549.712,818.787 "/>
<polygon fill="#5A7057" stroke="#4D644B" stroke-width="30" stroke-miterlimit="10" points="1833.479,544.195 1928.7,490.099 
	1928.7,379.376 1833.479,325.28 1738.573,379.376 1738.573,490.099 "/>
<polygon fill="#5A7057" stroke="#4D644B" stroke-width="30" stroke-miterlimit="10" points="1928.7,708.697 2023.922,653.969 
	2023.922,544.195 1928.7,490.099 1833.479,544.195 1833.479,653.969 "/>
<polygon fill="#5A7057" stroke="#4D644B" stroke-width="30" stroke-miterlimit="10" points="1833.479,874.148 1928.7,818.787 
	1928.7,709.014 1833.479,653.969 1738.573,709.014 1738.573,818.787 "/>
<polygon fill="#5A7057" stroke="#4D644B" stroke-width="30" stroke-miterlimit="10" points="1928.7,1037.701 2023.922,983.289 
	2023.922,874.148 1928.7,818.787 1833.479,874.148 1833.479,983.289 "/>
<polygon fill="#5A7057" stroke="#4D644B" stroke-width="30" stroke-miterlimit="10" points="1833.479,1202.836 1928.7,1148.424 
	1928.7,1037.701 1833.479,983.289 1738.573,1037.701 1738.573,1148.424 "/>
</svg>
