<svg xmlns="http://www.w3.org/2000/svg" version="1.1" x="0px" y="0px" width="100%" height="100%" viewBox="28.7 363.9 600.6 208.1" enable-background="new 28.7 363.9 600.6 208.1" xml:space="preserve" preserveAspectRatio="none slice">
    <polygon fill="none" stroke="#395876" stroke-width="2" stroke-miterlimit="10" points="58.8,398.5 88.8,381.4 88.8,346.4    58.8,329.3 28.7,346.4 28.7,381.4  " />
    <polygon fill="none" stroke="#395876" stroke-width="2" stroke-miterlimit="10" points="89.3,450.5 119.2,433.2 119.2,398.5    89.3,381.4 59.2,398.5 59.2,433.2  " />
    <polygon fill="none" stroke="#395876" stroke-width="2" stroke-miterlimit="10" points="58.8,606.7 88.8,589.5 88.8,554.5    58.8,537.3 28.7,554.5 28.7,589.5  " />
    <polygon fill="none" stroke="#395876" stroke-width="2" stroke-miterlimit="10" points="119.2,502.8 149.2,485.3 149.2,450.6    119.2,433.2 89.3,450.6 89.3,485.3  " />
    <polygon fill="none" stroke="#395876" stroke-width="2" stroke-miterlimit="10" points="208.9,450.5 239,433.2 239,398.5    208.9,381.4 178.8,398.5 178.8,433.2  " />
    <polygon fill="none" stroke="#395876" stroke-width="2" stroke-miterlimit="10" points="208.9,554.5 239,537.3 239,502.8    208.9,485.3 178.8,502.8 178.8,537.3  " />
    <polygon fill="none" stroke="#395876" stroke-width="2" stroke-miterlimit="10" points="299.6,502.8 329.7,485.3 329.7,450.6    299.6,433.2 269.6,450.6 269.6,485.3  " />
    <polygon fill="none" stroke="#395876" stroke-width="2" stroke-miterlimit="10" points="419.2,398.5 449.4,381.4 449.4,346.4    419.2,329.3 389.2,346.4 389.2,381.4  " />
    <polygon fill="none" stroke="#395876" stroke-width="2" stroke-miterlimit="10" points="419.2,502.8 449.4,485.3 449.4,450.6    419.2,433.2 389.2,450.6 389.2,485.3  " />
    <polygon fill="none" stroke="#395876" stroke-width="2" stroke-miterlimit="10" points="449.7,554.5 479.8,537.3 479.8,502.8    449.7,485.3 419.6,502.8 419.6,537.3  " />
    <polygon fill="none" stroke="#395876" stroke-width="2" stroke-miterlimit="10" points="419.2,606.7 449.4,589.5 449.4,554.5    419.2,537.3 389.2,554.5 389.2,589.5  " />
    <polygon fill="none" stroke="#395876" stroke-width="2" stroke-miterlimit="10" points="480,502.8 509.8,485.3 509.8,450.6    480,433.2 449.9,450.6 449.9,485.3  " />
    <polygon fill="none" stroke="#395876" stroke-width="2" stroke-miterlimit="10" points="539.3,398.5 569.5,381.4 569.5,346.4    539.3,329.3 509.5,346.4 509.5,381.4  " />
    <polygon fill="none" stroke="#395876" stroke-width="2" stroke-miterlimit="10" points="569.5,450.5 599.6,433.2 599.6,398.5    569.5,381.4 539.6,398.5 539.6,433.2  " />
    <polygon fill="none" stroke="#395876" stroke-width="2" stroke-miterlimit="10" points="569.5,554.5 599.6,537.3 599.6,502.8    569.5,485.3 539.6,502.8 539.6,537.3  " />
    <polygon fill="none" stroke="#395876" stroke-width="2" stroke-miterlimit="10" points="539.3,606.7 569.5,589.5 569.5,554.5    539.3,537.3 509.5,554.5 509.5,589.5  " />
    <g display="none">
        <line display="inline" fill="none" stroke="#4F4F4F" stroke-miterlimit="10" x1="629.6" y1="346.9" x2="629.6" y2="659" />
        <line display="inline" fill="none" stroke="#4F4F4F" stroke-miterlimit="10" x1="-0.4" y1="329.6" x2="-0.4" y2="607" />
        <line display="inline" fill="none" stroke="#4F4F4F" stroke-miterlimit="10" x1="659.7" y1="624.5" x2="-1.5" y2="624.5" />
        <line display="inline" fill="none" stroke="#4F4F4F" stroke-miterlimit="10" x1="629.6" y1="364.4" x2="-31.6" y2="364.4" />
    </g>
    <polygon fill="none" stroke="#395876" stroke-width="2" stroke-miterlimit="10" points="239.8,502.8 269.9,485.3 269.9,450.6    239.8,433.2 209.8,450.6 209.8,485.3  " />
    <polygon fill="#1B3756" stroke="#395876" stroke-width="2" stroke-miterlimit="10" points="28.8,450.5 58.9,433.2 58.9,398.5    28.8,381.4 -1.3,398.5 -1.3,433.2  " />
    <polygon fill="#1B3756" stroke="#395876" stroke-width="2" stroke-miterlimit="10" points="28.8,554.5 58.9,537.3 58.9,502.8    28.8,485.3 -1.3,502.8 -1.3,537.3  " />
    <polygon fill="#1B3756" stroke="#395876" stroke-width="2" stroke-miterlimit="10" points="58.8,502.8 88.8,485.3 88.8,450.6    58.8,433.2 28.7,450.6 28.7,485.3  " />
    <polygon fill="#1B3756" stroke="#395876" stroke-width="2" stroke-miterlimit="10" points="89.3,554.5 119.2,537.3 119.2,502.8    89.3,485.3 59.2,502.8 59.2,537.3  " />
    <polygon fill="#1B3756" stroke="#395876" stroke-width="2" stroke-miterlimit="10" points="119.2,398.5 149.2,381.4 149.2,346.4    119.2,329.3 89.3,346.4 89.3,381.4  " />
    <polygon fill="#1B3756" stroke="#395876" stroke-width="2" stroke-miterlimit="10" points="149.8,450.5 179.8,433.2 179.8,398.5    149.8,381.4 119.8,398.5 119.8,433.2  " />
    <polygon fill="#1B3756" stroke="#395876" stroke-width="2" stroke-miterlimit="10" points="149.8,554.5 179.8,537.3 179.8,502.8    149.8,485.3 119.8,502.8 119.8,537.3  " />
    <polygon fill="#1B3756" stroke="#395876" stroke-width="2" stroke-miterlimit="10" points="119.2,606.7 149.2,589.5 149.2,554.5    119.2,537.3 89.3,554.5 89.3,589.5  " />
    <polygon fill="#1B3756" stroke="#395876" stroke-width="2" stroke-miterlimit="10" points="179.8,398.5 210,381.4 210,346.4    179.8,329.3 149.8,346.4 149.8,381.4  " />
    <polygon fill="#1B3756" stroke="#395876" stroke-width="2" stroke-miterlimit="10" points="179.8,502.8 210,485.3 210,450.6    179.8,433.2 149.8,450.6 149.8,485.3  " />
    <polygon fill="#1B3756" stroke="#395876" stroke-width="2" stroke-miterlimit="10" points="179.8,606.7 210,589.5 210,554.5    179.8,537.3 149.8,554.5 149.8,589.5  " />
    <polygon fill="#1B3756" stroke="#395876" stroke-width="2" stroke-miterlimit="10" points="239.8,398.5 269.9,381.4 269.9,346.4    239.8,329.3 209.8,346.4 209.8,381.4  " />
    <polygon fill="#1B3756" stroke="#395876" stroke-width="2" stroke-miterlimit="10" points="269.9,450.5 299.7,433.2 299.7,398.5    269.9,381.4 239.8,398.5 239.8,433.2  " />
    <polygon fill="#1B3756" stroke="#395876" stroke-width="2" stroke-miterlimit="10" points="269.9,554.5 299.7,537.3 299.7,502.8    269.9,485.3 239.8,502.8 239.8,537.3  " />
    <polygon fill="#1B3756" stroke="#395876" stroke-width="2" stroke-miterlimit="10" points="239.8,606.7 269.9,589.5 269.9,554.5    239.8,537.3 209.8,554.5 209.8,589.5  " />
    <polygon fill="#1B3756" stroke="#395876" stroke-width="2" stroke-miterlimit="10" points="299.6,398.5 329.7,381.4 329.7,346.4    299.6,329.3 269.6,346.4 269.6,381.4  " />
    <polygon fill="#1B3756" stroke="#395876" stroke-width="2" stroke-miterlimit="10" points="329.8,450.5 359.8,433.2 359.8,398.5    329.8,381.4 299.8,398.5 299.8,433.2  " />
    <polygon fill="#1B3756" stroke="#395876" stroke-width="2" stroke-miterlimit="10" points="329.8,554.5 359.8,537.3 359.8,502.8    329.8,485.3 299.8,502.8 299.8,537.3  " />
    <polygon fill="#1B3756" stroke="#395876" stroke-width="2" stroke-miterlimit="10" points="299.6,606.7 329.7,589.5 329.7,554.5    299.6,537.3 269.6,554.5 269.6,589.5  " />
    <polygon fill="#1B3756" stroke="#395876" stroke-width="2" stroke-miterlimit="10" points="359.8,398.5 389.9,381.4 389.9,346.4    359.8,329.3 330,346.4 330,381.4  " />
    <polygon fill="#1B3756" stroke="#395876" stroke-width="2" stroke-miterlimit="10" points="389.9,450.5 420,433.2 420,398.5    389.9,381.4 359.8,398.5 359.8,433.2  " />
    <polygon fill="#1B3756" stroke="#395876" stroke-width="2" stroke-miterlimit="10" points="359.8,502.8 389.9,485.3 389.9,450.6    359.8,433.2 330,450.6 330,485.3  " />
    <polygon fill="#1B3756" stroke="#395876" stroke-width="2" stroke-miterlimit="10" points="389.9,554.5 420,537.3 420,502.8    389.9,485.3 359.8,502.8 359.8,537.3  " />
    <polygon fill="#1B3756" stroke="#395876" stroke-width="2" stroke-miterlimit="10" points="359.8,606.7 389.9,589.5 389.9,554.5    359.8,537.3 330,554.5 330,589.5  " />
    <polygon fill="#1B3756" stroke="#395876" stroke-width="2" stroke-miterlimit="10" points="449.7,450.5 479.8,433.2 479.8,398.5    449.7,381.4 419.6,398.5 419.6,433.2  " />
    <polygon fill="#1B3756" stroke="#395876" stroke-width="2" stroke-miterlimit="10" points="480,398.5 509.8,381.4 509.8,346.4    480,329.3 449.9,346.4 449.9,381.4  " />
    <polygon fill="#1B3756" stroke="#395876" stroke-width="2" stroke-miterlimit="10" points="510.2,450.5 540.1,433.2 540.1,398.5    510.2,381.4 480.2,398.5 480.2,433.2  " />
    <polygon fill="#1B3756" stroke="#395876" stroke-width="2" stroke-miterlimit="10" points="510.2,554.5 540.1,537.3 540.1,502.8    510.2,485.3 480.2,502.8 480.2,537.3  " />
    <polygon fill="#1B3756" stroke="#395876" stroke-width="2" stroke-miterlimit="10" points="480,606.7 509.8,589.5 509.8,554.5    480,537.3 449.9,554.5 449.9,589.5  " />
    <polygon fill="#1B3756" stroke="#395876" stroke-width="2" stroke-miterlimit="10" points="539.3,502.8 569.5,485.3 569.5,450.6    539.3,433.2 509.5,450.6 509.5,485.3  " />
    <polygon fill="#1B3756" stroke="#395876" stroke-width="2" stroke-miterlimit="10" points="599.2,398.5 629.3,381.4 629.3,346.4    599.2,329.3 569.2,346.4 569.2,381.4  " />
    <polygon fill="#1B3756" stroke="#395876" stroke-width="2" stroke-miterlimit="10" points="629.3,450.5 659.4,433.2 659.4,398.5    629.3,381.4 599.2,398.5 599.2,433.2  " />
    <polygon fill="#1B3756" stroke="#395876" stroke-width="2" stroke-miterlimit="10" points="599.2,502.8 629.3,485.3 629.3,450.6    599.2,433.2 569.2,450.6 569.2,485.3  " />
    <polygon fill="#1B3756" stroke="#395876" stroke-width="2" stroke-miterlimit="10" points="629.3,554.5 659.4,537.3 659.4,502.8    629.3,485.3 599.2,502.8 599.2,537.3  " />
    <polygon fill="#1B3756" stroke="#395876" stroke-width="2" stroke-miterlimit="10" points="599.2,606.7 629.3,589.5 629.3,554.5    599.2,537.3 569.2,554.5 569.2,589.5  " />
</svg>