<svg version="1.1" xmlns="http://www.w3.org/2000/svg" xmlns:xlink="http://www.w3.org/1999/xlink" x="0px" y="0px" viewBox="0 0 1584 792" enable-background="new 0 0 1584 792" xml:space="preserve">
    <g id="Minor">
        <path fill="none" stroke="#8A4E21" stroke-width="0.1" stroke-linecap="round" stroke-linejoin="round" stroke-miterlimit="10" d="
		M1318.2,117.8l0.3-0.1l0.4-0.3l0.9-0.8l1.6-1.7l1.9-2.4l1.3-2l1.8-3.3l1.1-2.4l0.9-2.4l0.7-2.4l0.5-2.3l0.2-2l0-1.7l-0.2-1.7
		l-0.5-2.3l-0.7-2.2l-0.9-2.2l-0.8-1.6l-0.9-1.5l-1.5-1.9l-1.9-1.9l-1.4-1.1l-1.1-0.8l-2.3-1.3l-2.1-0.9l-2.3-0.7l-2.4-0.5l-2.6-0.3
		l-2.4-0.1l-1.2,0.1l-2,0.3l-3,0.8l-1.9,0.7l-1.6,0.8l-1.6,0.9l-1.5,1l-1.7,1.5l-0.7,0.8l-0.7,0.9l-0.7,1.2l-0.4,0.8l-0.6,2
		l-0.3,2.1l-0.1,2.2l0.1,2.2l0.4,2.2l0.5,1.9l0.6,1.5l1.1,2.3l1.2,1.9l1.3,1.8l0.9,1.2l1.9,2.1l2.3,2.2l2.1,1.7l1.6,1.1l1.6,1.1
		l2.2,1.3l3.3,1.5l2,0.8l3.6,1.1l2.2,0.6L1318.2,117.8" />
        <path fill="none" stroke="#8A4E21" stroke-width="0.1" stroke-linecap="round" stroke-linejoin="round" stroke-miterlimit="10" d="
		M467.9-1.6l-1.3,0.8l-1.1,0.6L463,0.9l-1.6,0.6l-2.2,0.7L454,3.3l-2.4,0.4L446,4.2L435.2,5l-3.8,0.4l-3.5,0.5l-3.4,0.6l-3.6,0.8
		L418.5,8l-3.7,1.3l-1.9,0.7l-4.3,2l-4.6,2.5l-4.5,2.8l-4.1,2.8l-4,2.9l-3.2,2.5l-5.5,4.5l-16.7,14.4l-2.7,2.2l-2.4,1.7l-3.8,2.4
		l-1.4,0.7l-4.2,1.8l-3,0.7l-0.9,0.1l-2.1,0l-1.7-0.2l-2.1-0.6l-2.6-1.1l-2.2-1.3l-2.1-1.6l-1.3-1.2l-3.1-3.4l-2.9-3.9l-8.9-13.2
		l-3.3-4.4l-3.4-4.1l-3.4-3.6l-3.3-3.1l-4.4-3.6L298,6.5l-2.8-1.9l-6.9-4.1l-3.1-1.7" />
        <path fill="none" stroke="#8A4E21" stroke-width="0.1" stroke-linecap="round" stroke-linejoin="round" stroke-miterlimit="10" d="
		M512.9-1.8l-1.4,2.9l-1.6,3l-2.1,3.5l-2.9,4.3l-4.4,5.9l-3.3,4.1l-5,5.9l-5.5,6.2l-4.9,5.2l-4.8,4.5l-2.9,2.5l-4.9,3.9l-3.3,2.4
		l-4.7,3l-4.6,2.6l-5.7,2.9l-11.6,5.4l-6,3.1l-4.6,2.8l-2.3,1.6l-2.4,1.8l-3.7,3.2l-4.2,4.2l-4.4,5.1l-8.9,11l-4.5,5.1l-2.9,2.9
		l-2.9,2.6l-2.9,2.2l-3,1.8l-3.1,1.6l-2.8,1.1l-4.4,1.3l-1.6,0.4l-3.8,0.6l-2.8,0.2l-2.8,0l-2.9-0.2l-3.8-0.5l-4.5-1l-2-0.6
		l-3.7-1.2l-1.7-0.6l-4.8-2.1l-3.3-1.6l-4.7-2.6l-6.5-4l-7-4.8l-7.4-5.6l-7.7-6.5l-4.9-4.5l-2.7-2.6l-4.7-4.9l-5.3-5.9l-12-13.8
		l-4.8-5.1l-3.9-3.8l-4.2-3.6l-4.1-3.3l-6.6-4.9l-9.1-6.6l-4.1-3.2l-2.8-2.3l-2.7-2.4l-2.3-2.2l-3.5-3.8l-3.1-3.9l-2-2.9l-1.1-1.8
		l-2.2-4l-1.3-2.6l-0.2-0.4" />
        <path fill="none" stroke="#8A4E21" stroke-width="0.1" stroke-linecap="round" stroke-linejoin="round" stroke-miterlimit="10" d="
		M549.6-1.9L549-0.6l-1.6,2.8l-1.3,2l-2.1,2.9l-2.7,3.1l-3.7,3.9l-3.6,3.4l-15.7,14l-6,5.7l-3.1,3.1l-5.7,6.1l-4.6,5.4l-2.2,2.7
		l-6.4,8.3l-2.7,3.8l-3.4,4.9l-5,7.7l-2.3,3.8l-3.9,6.7l-3.1,5.7l-5.2,9.8l-1.9,3.4l-2,3.3l-2.1,3.2l-2.2,3.1l-3.9,4.9l-4.4,4.8
		l-2.2,2.1l-3.7,3.3l-5.2,4.2l-5.5,4.2l-4.3,3l-4.6,3.1l-6,3.8l-4.9,2.7l-4,2l-2.5,1l-2.1,0.8l-2.8,0.8l-2.5,0.5l-2.1,0.3l-3.3,0.3
		l-3.6-0.1l-3.5-0.4l-1.4-0.3l-1.9-0.4l-3.7-1l-4.6-1.7l-3.7-1.6l-5.8-2.8l-4.8-2.5l-3.4-1.9l-9.6-5.7l-19.1-12.1l-11.2-6.8
		l-11.9-6.7l-20.5-10.9l-4.1-2.3l-6.7-4.1l-5-3.4l-3.1-2.3l-2.7-2.2l-4.9-4.3l-6-5.9l-21.9-23.3l-3.5-3.8l-4.5-5.1l-2.3-2.7
		l-4.6-5.9l-2.8-4l-3.1-5l-3.3-5.8l-1.7-3.3l-4-8.2l-3.8-8.7l-2.4-5.8" />
        <path fill="none" stroke="#8A4E21" stroke-width="0.1" stroke-linecap="round" stroke-linejoin="round" stroke-miterlimit="10" d="
		M609.4,0.6c-8.1,13.2-17,26-29.8,35.1c-12.3,8.8-26.9,14.2-38.7,23.8C529,69.2,523,82.9,521.4,98c-1.6,15.1-0.4,30.9-4.8,45.6
		c-4.4,14.6-13.4,28.1-24.5,38.4c-11,10.3-24.7,16.6-36.8,25.4c-12.2,8.8-22.9,21.6-38.5,23.9c-14.7,2.1-30-4-42.9-10.3
		c-14.1-6.9-26.6-15.7-37.6-26.9c-10.8-11-20.8-22.5-33-32c-12.2-9.5-25.9-15.8-39.6-22.5c-13.7-6.7-26.6-14.3-36.9-25.7
		C216,101.9,207.2,88.2,198.2,75c-8.3-12.2-15-24.6-19.8-38.6c-4.2-12.2-8.2-24.2-13.8-35.9" />
        <path fill="none" stroke="#8A4E21" stroke-width="0.1" stroke-linecap="round" stroke-linejoin="round" stroke-miterlimit="10" d="
		M1067.8,479.1l-0.1-0.8l-0.9-2.7l-0.8-2.2l-1.7-3.9l-0.8-1.6l-1.5-2.5l-2-2.7l-1.4-1.6l-1.5-1.5l-2.1-1.8l-2.4-1.7l-1.6-1l-3.3-1.8
		l-2.1-1l-2.1-0.9l-2.1-0.8l-1.5-0.5l-2.4-0.5l-2.1-0.2l-1.8,0l-1.8,0.1l-2.2,0.4l-2.1,0.6l-1.2,0.5l-1,0.5l-1.2,0.8l-1.6,1.5
		l-0.9,1.2l-0.8,1.4l-0.7,1.5l-0.8,2.6l-0.2,1.5l0,2l0.3,2.2l0.4,1.5l0.8,2.5l0.7,1.6l0.8,1.6l0.9,1.5l1.3,1.8l2.1,2.1l2.1,1.6
		l2.2,1.5l2.4,1.4l2.3,1.1l2.1,0.9l1.4,0.5l2.4,0.6l1.7,0.3l1.5,0.2l3,0.1l2.1-0.1l1.9-0.3l3.3-0.7l1.8-0.5l2-0.7l2.1-0.9l2.2-1.1
		l1.9-1.1l1.8-1.2L1067.8,479.1" />
        <path fill="none" stroke="#8A4E21" stroke-width="0.1" stroke-linecap="round" stroke-linejoin="round" stroke-miterlimit="10" d="
		M637.7,0.6c-9.8,12.1-19.9,24-31.6,34.3c-12,10.4-25.5,17.9-39,25.9c-13.2,7.8-23.4,17.8-26.9,33.2c-3.3,14.8-1.5,30.3-4.1,45.3
		c-2.6,14.9-9.4,28.3-17.4,41c-8.2,13.1-16.7,25.9-25.9,38.3c-5.1,6.9-10.2,13.8-15.2,20.7c-4.2,5.9-8.5,12-14.3,16.6
		c-12.6,10-28.9,8-43.6,4.8c-16.1-3.6-31.8-9.1-47.5-13.9c-13.5-4.1-27.4-7.9-38.8-16.6c-12.3-9.3-19.5-22.9-28.3-35.1
		c-9.1-12.5-20.1-22.9-33.1-31.2c-12.7-8.1-26.5-14.5-38.5-23.6c-12.2-9.3-21.3-21.2-29.6-34c-8.5-13.2-17.3-26.5-24.8-40.3
		c-7.2-13.4-11-27.7-15.7-42.1c-2.6-8-5.7-15.7-9.4-23.3" />
        <path fill="none" stroke="#8A4E21" stroke-width="0.1" stroke-linecap="round" stroke-linejoin="round" stroke-miterlimit="10" d="
		M667.6,0.7c-11.8,10.3-22.8,21.4-34.9,31.4c-11.2,9.2-22.9,17.7-35,25.6c-12.8,8.4-28.1,16.6-36.3,30.1c-8,13.3-7.8,29-9.9,43.9
		c-2.2,15.4-7.3,29.6-14.5,43.4c-7.1,13.7-14.7,27.1-21.2,41.1c-6.4,13.9-12,28.2-18.6,41.9c-6.9,14.3-16.3,25.4-33.2,26.4
		c-15.3,1-31.1-4.1-45.9-7.6c-14.7-3.4-29.4-5.6-44.3-7.1c-14.9-1.5-30.3-2.5-43.9-9.2c-13.9-6.8-24.1-18.1-31.5-31.5
		c-7.5-13.5-14.1-27.3-24.7-38.8c-10.7-11.6-24.2-19.5-36.7-28.7c-12.3-9-22.9-19.6-31.7-32.1c-9.3-13.4-17.1-28-25.2-42.1
		c-7.2-12.4-14.2-24.6-18.6-38.3c-4.7-14.7-7.7-29.8-14.1-43.9c-0.7-1.6-1.5-3.1-2.2-4.6" />
        <path fill="none" stroke="#8A4E21" stroke-width="0.1" stroke-linecap="round" stroke-linejoin="round" stroke-miterlimit="10" d="
		M697.2,0.7C693,3,690,6,686,8c-29,24-57,42-88,64c-10,8-19,16-24,28c-9,22-12,46-21,68c-4,10-10,18-15,28c-3,6-4,11-7,17
		c-4,11-6,22-8,33c-2,17,2,34,0,51c-8,12-23,10-35,9c-20-2-39-7-58-13c-2,0-3,0-5,0c-25-7-49,0-73,2c-15,1-29-4-42-12
		c-20-14-30-34-38-56c-4-9-8-17-14-25c-10-12-22-21-34-31c-7-6-13-14-19-21c-1-2-3-5-5-7c-18-30-35-57-46-89c-4-12-7-23-11-35
		c-2-6-2-13-6.6-18.5" />
        <path fill="none" stroke="#8A4E21" stroke-width="0.1" stroke-linecap="round" stroke-linejoin="round" stroke-miterlimit="10" d="
		M760.4,0.6C740,8,723,20,705,33c-4,2-8,5-12,7c-2,2-4,4-7,6c-10,6-18,12-28,17c-12,6-23,12-34,19c-9,7-16,14-22,24
		c-5,9-10,18-14,28c-9,26-21,50-30,76c-6,17-7,36,0,53c4,9,9,17,15,24c9,9,18,17,28,25c7,6,15,14,13,24c-1,4-4,7-7,8
		c-37,13-73-7-111-13c-23-4-46-9-68-1c-14,6-26,15-39,24c-29,19-66,18-94,0c-27-25-47-56-56-93c-4-20-4-41-17-57c-12-14-26-25-36-41
		c-17-31-29-62-44-93c-8-18-10-37-15-56c-2-4-4-9-5.8-13.2" />
        <path fill="none" stroke="#8A4E21" stroke-width="0.1" stroke-linecap="round" stroke-linejoin="round" stroke-miterlimit="10" d="
		M804.9,0.5c-14.6,2.5-29.1,6.9-42.5,13.1c-14.1,6.5-27.4,14.7-40.3,23.4c-12.9,8.7-25.4,18.1-38.8,26
		c-13.2,7.7-27.4,13.6-40.5,21.5c-13.1,7.8-23.7,18.3-31.9,31.2c-7.7,12.1-13.2,25.5-18.7,38.7c-6.2,15-12.8,29.9-18,45.3
		c-4.9,14.7-8.1,30.3-4.9,45.7c3.2,14.8,11.8,27.4,22.6,37.7c11.2,10.7,24.1,19.5,35.4,30.1c8.9,8.4,24.5,25.3,14.4,38
		c-9.2,11.6-29.6,10.6-42.8,10.6c-14.9,0-29.6-1.5-44-5.3c-14.8-3.8-29.3-8.7-44.3-12c-15-3.2-30.8-5.6-45.9-1.7
		c-15.4,4-25.2,15.6-36.1,26.4c-11,10.9-23.7,18.8-38,24.4c-14,5.6-29,10.2-44.3,9.6c-14.8-0.6-29.7-5.6-43.4-10.9
		c-14.3-5.6-26.7-14.1-35.6-26.8c-9.1-13-16.1-27.5-23.2-41.6c-6.8-13.4-13.2-27.3-17.2-41.9c-4.1-14.8-4.2-29.6-5.8-44.7
		c-1.8-15.7-8.7-27.6-19.5-38.9c-11.1-11.5-21.4-22.4-28.6-36.9c-6.8-14-11.8-28.8-17.5-43.3c-5.6-14.1-12.6-27.5-18.7-41.4
		c-6.6-15-9.9-30.2-13.1-46.2c-2-10.2-5-20.7-9.7-30" />
        <path fill="none" stroke="#8A4E21" stroke-width="0.1" stroke-linecap="round" stroke-linejoin="round" stroke-miterlimit="10" d="
		M860.5,0.5C836,5,812,8,788,15c-15,4-27,11-40,19c-16,10-30,21-46,32c-16,10-32,17-49,26c-15,9-27,19-35,34c-18,38-46,78-32,121
		c3,13,12,23,22,32c23,19,47,36,61,62c3,7,4,15,0,22c-7,10-20,9-30,10c-25,0-50,0-76-3c-15-2-28-8-43-12c-20-5-41-5-56,10
		c-1,2-3,3-5,5c-1,1-1,3-2,4c-7,7-12,15-20,21c-28,20-59,33-92,33c-21,1-39-10-58-18c-7-3-13-7-19-12c-7-6-13-14-17-22
		c-13-29-25-58-36-88c-6-18-6-36-7-55c-1-11-6-21-13-29c-9-8-17-16-24-25c-4-6-7-12-10-19c-6-18-11-37-19-55c-5-12-10-25-15-37
		c-8-17-10-35-14-54c-1-6-4-11-6.3-16.3" />
        <path fill="none" stroke="#8A4E21" stroke-width="0.1" stroke-linecap="round" stroke-linejoin="round" stroke-miterlimit="10" d="
		M1524.4,555.5l0.2-0.2l0-0.6l-0.5-1.1l-1-1.2l-1.5-1.3l-3.1-2.1l-6.1-3.8l-2-1.1l-1.4-0.5l-1.1-0.3l-2.1-0.2l-3.4,0.1l-0.9,0.1
		l-0.8,0.2l-0.6,0.3l-0.5,0.4l-0.5,0.7l-0.4,0.9l-0.7,2.2l-0.4,1.8l-0.1,1l0.1,0.7l0.4,1.1l1,1.4l2,1.7l5.1,3.9l2.1,1.4l1.6,0.6
		l1.4,0.2l1.2-0.1l1.3-0.3l3-1l2.6-1.2l2.4-1.4l1.7-1.3l0.9-0.8L1524.4,555.5" />
        <path fill="none" stroke="#8A4E21" stroke-width="0.1" stroke-linecap="round" stroke-linejoin="round" stroke-miterlimit="10" d="
		M902.6,0.5C870,6,840,12,806,20c-41,8-68,35-102,58c-14,9-28,14-42,22c-11,6-20,14-28,24c-16,21-25,44-34,68c-4,12-6,24-5,36
		c2,11,5,22,13,31c16,20,35,33,54,49c11,11,21,22,28,36c1,2,2,5,3,7c4,10,8,24-3,30c-19,11-41,3-62,2c-24-2-48,1-72-2
		c-13-2-24-6-37-8c-7-1-15-1-22,2c-2,1-5,2-7,3c-19,13-29,32-49,43c-26,13-53,25-81,33c-31,3-59-13-87-26c-10-5-18-12-25-21
		c-19-28-23-59-35-89c-7-17-13-34-16-52c-1-11-2-22-3-33c-1-8-6-15-11-21c-7-8-14-14-21-22c-6-8-10-17-13-27c-7-26-12-52-24-76
		c-1-2,0-3-1-5c-5-8-7-16-10-25c-5-19-6-38-14.4-56.4" />
        <path fill="none" stroke="#8A4E21" stroke-width="0.1" stroke-linecap="round" stroke-linejoin="round" stroke-miterlimit="10" d="
		M981.6,0.5c-14.9,3.7-31.1,1.2-46.1,0" />
        <path fill="none" stroke="#8A4E21" stroke-width="0.1" stroke-linecap="round" stroke-linejoin="round" stroke-miterlimit="10" d="
		M1023.3,0.6C1010,12,994,17,978,18c-21,0-42-6-64-4c-6,1-12,1-18,2c-27,6-51,9-78,15c-18,5-34,11-50,22c-14,10-26,20-39,31
		c-15,12-31,20-48,30c-5,3-8,6-13,9c-22,15-31,38-41,61c-3,8-6,16-7,24c0,7-1,14,0,21c4,21,19,37,37,49c2,2,4,4,6,6
		c17,10,34,19,44,36c13,21,21,42,31,63c3,8,7,17,1,24c-13,14-32,8-48,5c-30-4-58-13-88-10c-9,2-18,4-27,7c-17,6-36,5-53,10
		c-17,6-32,15-48,26c-8,5-16,8-24,12c-24,10-47,18-71,29c-11,5-23,7-35,6c-7-1-13-3-20-5c-23-11-45-22-68-31c-4-2-9-5-13-8
		c-3-2-5-6-7-8c-13-17-22-35-28-54s-9-39-15-58c-6-16-13-33-19-49c-5-14-6-29-11-43c-2-4-3-8-6-12c-2-2-3-4-5-7c-12-14-23-29-26-48
		c-3-22-4-42-10-63c-5-14-11-28-16-42c-4-14-6-28-9-43c-1-7-2-14-6.7-20.3" />
        <path fill="none" stroke="#8A4E21" stroke-width="0.1" stroke-linecap="round" stroke-linejoin="round" stroke-miterlimit="10" d="
		M1553.9,608.9l1.7-14l0.7-9.3l0.2-8.4l0-2.7l-0.3-5l-0.5-4.1l-0.5-2.8l-1.4-5.7l-0.8-2.2l-1.2-2.6l-1.3-2.2l-0.7-1l-2.6-3.5l-2-2.4
		l-3.7-3.8l-3.6-3.2l-3.3-2.5l-7.3-5.1l-14.2-9.5l-17.2-11.8l-3.9-2.4l-3.8-2l-3.1-1.3l-3.4-1.1l-1.7-0.3l-1.9-0.1l-1.7,0.1l-3.9,1
		l-1.8,0.9l-2.7,1.8l-1.6,1.5l-1.9,2.3l-1.3,2l-0.8,1.4l-1.4,3.2l-0.7,2.1l-1,3.9l-0.6,4.2l-0.2,3.9l0,1.5l0.3,4.3l0.6,3.8l0.9,3.9
		l1.5,4.9l1,2.6l1.3,3l1.3,2.8l1.8,3.3l1.9,3.2l2.7,4.2l3.4,4.5l4.4,5.2l2.5,2.7l2.5,2.6l5.1,4.7l3.3,2.8l5,3.8l2.9,2l3.1,1.9l3.7,2
		l2.6,1.3l2.6,1.2l4.6,1.9l5,1.8l6,1.9l6.2,1.6l3,0.6l6,1l3.2,0.3l3.8,0.2l2.2-0.1l0.8-0.2l0.1-0.1L1553.9,608.9" />
        <path fill="none" stroke="#8A4E21" stroke-width="0.1" stroke-linecap="round" stroke-linejoin="round" stroke-miterlimit="10" d="
		M277.5,791.4c-14.5-7.4-29.5-3.4-43.7,0" />
        <path fill="none" stroke="#8A4E21" stroke-width="0.1" stroke-linecap="round" stroke-linejoin="round" stroke-miterlimit="10" d="
		M311.8,791.3c-5.9-13.5-24.6-18.8-37.8-20.6c-15.2-2.1-29.8-0.3-44.7,3.1c-16,3.7-31.9,6.8-48.2,9.4c-11.6,1.9-22.9,4.8-34.1,8.3" />
        <path fill="none" stroke="#8A4E21" stroke-width="0.1" stroke-linecap="round" stroke-linejoin="round" stroke-miterlimit="10" d="
		M297.6,791.3C286,778,268,776,251,778c-23,3-45,12-67.6,13.5" />
        <path fill="none" stroke="#8A4E21" stroke-width="0.1" stroke-linecap="round" stroke-linejoin="round" stroke-miterlimit="10" d="
		M425.2,791.4C423,790,421,789,419,787c-1-2-3-3-5-5c-9-13-16-25-28-36c-7-6-15-10-23-12c-30-11-59-19-89-28c-16-5-32-12-49-9
		c-7,1-14,3-20,6c-30,12-59,23-89,33c-20,6-42,6-62-2c-1-1-2-2-3-3c-17-10-26-28-32-46c-8-21-13-43-9-66c3-16,10-29,18-43
		c7-13,13-26,11-41c-3-19-22-26-38.4-28.6" />
        <path fill="none" stroke="#8A4E21" stroke-width="0.1" stroke-linecap="round" stroke-linejoin="round" stroke-miterlimit="10" d="
		M971.1,791.3C959,781,945,774,931,767c-6-4-12-7-18-11c-16-10-27-22-43-32c-15-9-30-16-45-25c-2-2-4-4-7-5c-1-1-2-2-3-3s-3-1-4-2
		c-17-14-28-34-49-42c-23-8-45,4-67,12c-22,7-43,10-63,23c-7,5-12,11-18,18c-11,15-18,32-35,41c-2,1-5,2-7,3c-4,2-8,2-12,3
		c-19,1-39,3-56,12c-12,7-20,17-31,26c-3,2-6,4-9.2,6.4" />
        <path fill="none" stroke="#8A4E21" stroke-width="0.1" stroke-linecap="round" stroke-linejoin="round" stroke-miterlimit="10" d="
		M1057.2,791.5C1041,776,1018,773,999,764c-3-1-6-1-9-2c-7-3-14-5-21-8c-3-1-5-3-8-4c-2-1-3,0-5-1c-18-9-35-19-51-33
		c-16-12-32-22-49-33c-7-5-13-11-20-16c-13-12-20-28-32-41c-2-1-3-3-5-5c-27-28-69-21-100-4c-20,7-40,14-60,22c-10,4-18,9-27,16
		c-19,15-29,34-46,50c-5,4-10,8-16,10c-23,8-48,10-71,18c-6,2-11,5-17,6c-6,0-12,1-17-1c-13-7-24-14-36-23c-6-4-13-5-19-8
		c-23-7-46-7-70-13c-26-6-49-15-72-26c-12-5-26-6-38-2c-16,6-29,15-44,23c-29,15-66,33-95,8c-28-24-33-65-21-99c19-30,32-69,15-103
		c-1-1-2-1-3-2c-6-10-16-16-27-19c-1,0-1-2-2-2c-9-3-19-6-24-14c-10-18,3-36,10-53c5-15,6-33-6-45c-2-1-3-3-5-5s-5-3-7.3-5.1" />
        <path fill="none" stroke="#8A4E21" stroke-width="0.1" stroke-linecap="round" stroke-linejoin="round" stroke-miterlimit="10" d="
		M1584.5,186.9c-4.5-1.9-6.5-4.9-9.5-6.9c-6-6-11-11-17-17c-2-2-3-4-5-6c-8-7-15-14-24-19c-10-7-18-15-25-24c-8-21-7-46-24-62
		c-5-5-12-7-19-9c-18-4-36-2-53-8c-60-22-125-42-188-20c-28,9-40,37-50,63c-8,21-4,44-5,66c-1,9-4,18-10,26c-4,5-9,9-14,13
		c-25,17-52,25-79,35c-5,2-10,5-15,8c-10,4-20,9-25,20c-7,16-2,34-3,51c-1,7-3,13-7,18c-7,8-16,14-23,22c-7,9-9,19-7,30
		c3,15,10,28,8,43c-3,18-13,34-11,53c3,20,17,36,32,50c10,10,16,23,16,37c-1,13-6,25-8,38c-3,16-2,32,2,48c4,14,9,28,19,39
		c2,1,3,3,5,5c29,29,70,12,107,18c17,3,31,10,45,19c18,13,31,27,44,45c6,9,9,19,11.3,29.3" />
        <path fill="none" stroke="#8A4E21" stroke-width="0.1" stroke-linecap="round" stroke-linejoin="round" stroke-miterlimit="10" d="
		M1584.3,193.9c-17.8-11.8-31.6-28.2-48.5-41.1c-14.6-11.1-32.5-20.4-41-37.5c-7.9-16-4.1-35.5-14.3-50.6
		c-10.9-16.1-30.8-17.3-48.4-18.9c-10.6-0.9-21.2-2.8-31.4-5.9c-10.5-3.2-20.5-7.7-30.7-11.6c-20.9-8.1-42.3-12.9-64.6-14.6
		c-21.6-1.7-44.1-1.8-65.4,2.7c-19.5,4.1-35.4,14.3-46,31.4c-10.7,17.3-17.3,38.8-17.1,59.1c0.2,20.5,8.7,40.7-4.1,59.2
		c-10.9,15.9-29.4,26.4-46.5,34.2c-20,9.1-41.3,15.1-61.4,24c-15.8,7-32.2,16.6-35.7,35c-3.7,19.7,9.2,42.7-2,61
		c-5,8.2-13.3,13.6-20,20.1c-7.6,7.3-11.6,16-11,26.6c0.6,11,5.4,21.3,6.3,32.3c0.9,10.8-3,20.3-7.2,30c-3.8,8.7-7.7,17.7-7.9,27.4
		c-0.2,9.7,3.1,18.9,8.2,27c9.7,15.6,25.6,25.7,35.9,40.7c5.4,7.9,7.9,16.5,6.6,26.1c-1.3,9.9-5.4,19.1-7.8,28.7
		c-5.2,21.1-3.3,44,4.6,64.1c7.1,18.1,19.8,32.9,39,38.1c20.9,5.7,42.8,0.1,64,0.7c43.9,1.2,81.7,24.4,112.5,54.3
		c16,15.6,27.4,32.9,32.1,55" />
        <path fill="none" stroke="#8A4E21" stroke-width="0.1" stroke-linecap="round" stroke-linejoin="round" stroke-miterlimit="10" d="
		M1584.3,201.7C1573,193,1561,184,1550,174c-16-13-32-23-49-35c-6-5-12-10-15-17c-1-2-2-5-3-7c-3-13-2-26-6-38c-4-11-13-21-26-22
		c-36-1-68-17-102-27c-37-12-77-15-114-3c-17,6-31,19-38,36c-1,2-2,5-3,7c-7,22-4,45,0,68c2,14-1,27-10,38c-28,31-70,38-107,52
		c-5,2-10,4-15,7c-2,2-4,3-7,5c-6,4-11,9-14,15c-6,13-3,27,2,40c6,14,12,32,0,44c-8,7-19,11-26,19c-6,8-5,18-1,27c1,2,2,4,3,7
		c0,1,1,2,2,3c4,10,3,22-4,30c-10,10-19,20-21,34c-2,24,19,40,38,53c9,6,16,13,20,23c3,7,2,16-1,23c-9,19-17,38-13,59
		c4,24,19,46,44,49c34,5,67-3,99,9c39,14,74,35,103,66c14,15,23,32,26.4,52.4" />
        <path fill="none" stroke="#8A4E21" stroke-width="0.1" stroke-linecap="round" stroke-linejoin="round" stroke-miterlimit="10" d="
		M1585.4,485.7c-3.4-5.7-7.4-9.7-11.4-14.7c-3-5-5-11-7-17c-4-19,4-37,12-54c8-16,3-34-5-50c-6-11-8-23-6-36c2-11,7-21,11-32
		c5-14,6-32-9-42c-10-7-20-12-30-20c-12-10-20-21-33-30c-13-8-25-15-39-22c-9-4-18-9-25-16c-20-22-39-44-59-67c-6-7-12-13-19-19
		c-26-23-62-31-94-19c-9,4-17,9-23,17c-4,5-6,12-7,18c-1,18,6,35,13,52c6,17,10,37-4,51c-2,1-3,3-5,5c-9,8-20,11-31,17
		c-5,3-10,6-15,9c-3,1-5,3-7,5c-12,7-23,12-36,16c-22,7-48,5-66,21c-4,3-5,9-5,13c1,10,7,18,15,23c30,19,62,26,97,34c8,2,17,3,25,4
		c20,3,40,5,59,11c3,1,5,4,8,6c1,2,3,3,5,5c8,12,7,25,5,39c-2,12-8,22-12,33c-1,1-2,2-3,3c-3,7-6,12-11,18c-4,4-7,8-11,13
		c-11,11-21,21-31,33c-1,2-3,5-5,7c-9,14-16,27-20,43c-3,14-4,27,1,41c2,7,5,13,9,19c28,35,67,52,106,68c12,5,22,12,30,22
		c22,31,38,64,51.1,98.5" />
        <path fill="none" stroke="#8A4E21" stroke-width="0.1" stroke-linecap="round" stroke-linejoin="round" stroke-miterlimit="10" d="
		M1585.4,495.2c-13.4-12.2-26.5-27-27.8-45.9c-1.4-20.4,8.2-40,13.4-59.3c1.5-5.6,2.6-9.4,1.4-15.2c-1.1-5.1-2.5-10.2-4.1-15.2
		c-3.1-9.9-7-19.9-8.4-30.3c-1.4-10.9,0.3-21.9,2.1-32.6c1.5-9,3.2-18,1.3-27.1c-2-9.4-7.4-14.4-14.8-19.9
		c-7.9-5.9-15.6-12.2-22.4-19.4c-7-7.4-12.5-15.9-19.7-23.2c-7.2-7.4-15-13.9-23.8-19.3c-8.8-5.3-18-9.9-27.2-14.3
		c-9.2-4.3-17.3-9.9-25.6-15.7c-15.4-10.6-30.5-21.9-42.5-36.4c-11.7-14.2-18.9-31.4-30.3-45.8c-12.1-15.3-28.7-24.8-48.4-26
		c-17.4-1-37.3,3.1-47.3,18.8c-10.6,16.7-4,37.5,3.4,54.1c7.7,17.3,19.3,36.5,16.4,56.2c-3,21.1-26.6,28.4-43.6,34.3
		c-9.6,3.4-21.7,6.8-29.3,13.7c-3.7,3.4-9.2,5.6-13.6,8.3c-4.7,2.8-9.4,5.4-14.3,7.8c-9.8,4.7-19.8,9-30.5,11
		c-10,1.8-20.3,2.3-29.9,5.8c-7.1,2.6-12,7.5-9.4,15.5c2.1,6.5,9.1,9.6,15,11.9c18.3,7.4,37.3,12.1,56.6,16
		c21.5,4.3,43.2,9.9,65.3,8.9c11.1-0.5,22.1-2.1,33-3.8c9.9-1.6,19.6-3.6,29.6-1.1c4.3,1,8.5,2.8,12,5.5c3.3,2.5,7.3,6.4,9.2,10
		c4.3,8.1,7.4,16.9,9,25.9c3.2,17.8,0.9,36.3-5.2,53.3c-6.4,18-16.9,33.8-30.1,47.5c-14.2,14.9-30.6,27.6-45.3,42
		c-28.3,27.7-43.5,72.2-20.8,107.8c17.8,27.9,49.2,41.6,78.8,53.1c15.5,6,32.7,10.5,44.5,22.9c6.9,7.2,11.3,16,15.9,24.8
		c5.3,10.1,10.4,20.2,15.4,30.4c9.9,20.1,19.3,40.4,28.1,61" />
        <path fill="none" stroke="#8A4E21" stroke-width="0.1" stroke-linecap="round" stroke-linejoin="round" stroke-miterlimit="10" d="
		M1585.5,759.3c-1.4,10.7-2.8,21.4-4.6,32.1" />
        <path fill="none" stroke="#8A4E21" stroke-width="0.1" stroke-linecap="round" stroke-linejoin="round" stroke-miterlimit="10" d="
		M1585.4,665.5c-5.7,12.2-2,26.4,0,39" />
        <path fill="none" stroke="#8A4E21" stroke-width="0.1" stroke-linecap="round" stroke-linejoin="round" stroke-miterlimit="10" d="
		M1585.2,620c-11.3-3.6-29.2-8.4-34.9,6.1c-7.9,20.1,1.3,44.9,7.7,64.1c5.2,15.6,11.6,31.2,12.1,47.8c0.6,17.9-1.4,35.7-4,53.4" />
        <path fill="none" stroke="#8A4E21" stroke-width="0.1" stroke-linecap="round" stroke-linejoin="round" stroke-miterlimit="10" d="
		M1585.2,588.2c-3.6-3.1-5.6-9.7-7.4-14c-2.1-4.8-3.9-9.6-6.1-14.3c-4.3-9.5-9.8-17.5-17.6-24.5c-7.2-6.5-15.4-11.8-23.5-17
		c-8-5.2-14.9-11.3-20.9-18.7c-5.7-7.2-10.4-15.1-15.1-23c-4.2-7.1-8.8-18.6-18.3-19.5c-8-0.8-16.5,9.5-20.9,15.2
		c-5.5,7-9.7,14.9-13.2,23c-4.1,9.4-7.3,18.6-7.3,29c-0.1,9.9,2.4,19.9,6.2,29c6.5,15.4,17.6,28.1,29.3,39.7
		c12,11.8,26.2,22.9,35.9,36.8c12.4,18,20.8,38.4,29.1,58.5c6.7,16.2,12.9,33,16.2,50.3c3.3,17.5,2.1,35.3-0.5,52.8" />
        <path fill="none" stroke="#8A4E21" stroke-width="0.1" stroke-linecap="round" stroke-linejoin="round" stroke-miterlimit="10" d="
		M1585.4,544.6C1575,527,1557,517,1540,505c-7-5-12-10-17-17c-5-6-6-12-7-19c-6-26,3-50,7-76c5-25-5-48-23-65c-9-7-20-13-32-11
		c-14,2-19,14-22,27c-3,20-2,39-5,59c-3,19-9,37-17,54c-13,25-34,41-49,65c-3,7-7,13-6,21c4,27,31,37,52,50c12,8,22,16,31,26
		c9,11,17,21,21,34c12,31,26,60,38,91c5,15,7,31,6.3,47.4" />
        <path fill="none" stroke="#8A4E21" stroke-width="0.1" stroke-linecap="round" stroke-linejoin="round" stroke-miterlimit="10" d="
		M1585.3,532.1c-12.8-14.8-30.1-23.8-44.3-37c-15.1-14-19.9-32.6-17.8-52.8c2.2-21.5,12-41.9,11.1-63.7c-0.8-19.7-8.6-41-21.2-56.2
		c-13.2-15.9-32.5-26.5-49.3-38.2c-5.9-4.1-13.9-11.8-21.6-12.1c-8.9-0.3-10.1,13.8-10.9,20.2c-2.9,22.5-3.6,45.1-4.5,67.8
		c-0.8,22.3-2.2,44.9-8.6,66.4c-5.9,19.9-16.6,37.4-31.6,51.7c-14.8,14.1-32.5,24.4-48.2,37.4c-13.7,11.4-26.5,28.4-17,46.6
		c8.9,17.2,30.6,24.8,47.7,30.7c19.5,6.7,39.8,11.7,56.4,24.4c16.2,12.4,25.9,29.7,32,48.8c3.3,10.2,5.7,20.6,9.2,30.7
		c3.5,10.2,7.8,20.1,12.5,29.8c9.5,19.4,17.7,40.4,20.1,62c0.1,0.9,0.2,1.8,0.3,2.7" />
        <path fill="none" stroke="#8A4E21" stroke-width="0.1" stroke-linecap="round" stroke-linejoin="round" stroke-miterlimit="10" d="
		M1585.4,522.2c-7.4-7.3-15.7-13.4-23.9-19.8c-7.8-6-15.7-12.3-21.2-20.7c-10.4-15.8-10.9-36.1-6.5-54c2.6-10.6,6.1-21.1,8.2-31.8
		c2.2-10.9,2.3-21.2,0.1-32.1c-2.1-10.4-5.3-20.9-9.1-30.8c-3.5-8.9-7.7-19.2-14.2-26.3c-6.8-7.5-15.4-13.2-23.2-19.6
		c-7.4-6.2-13.9-13.8-19-22.1c-2.6-4.1-4.8-8.5-6.4-13.1c-1.5-4.1-3.2-7.4-4.7-11.5c-3.1-8.8-8.6-17.7-15.9-23.5
		c-11.8-9.4-30.2-7.2-37.2,6.7c-9.4,18.8-5.2,41.1-4.1,61.1c1.2,22.1,2.1,44.3,1.5,66.5c-0.6,21.5-1.7,43.9-7.2,64.8
		c-4.4,16.9-12.4,32.8-24.4,45.6c-10.2,11-22.9,18.9-35.4,26.9c-21.1,13.5-48.8,30.1-51.7,57.7c-3.8,35.7,32.5,53.7,61.4,62
		c15.7,4.6,32.8,7.1,47.5,14.6c15.9,8.2,29,22.1,34.4,39.3c3.2,10.3,5.2,21,8.1,31.4c3.1,10.9,7.7,21,12.4,31.3
		c8.7,19.1,18.3,38.3,24.6,58.4c0.8,2.6,1.6,5.3,2.3,8" />
        <path fill="none" stroke="#8A4E21" stroke-width="0.1" stroke-linecap="round" stroke-linejoin="round" stroke-miterlimit="10" d="
		M1585.2,512.7c-14.2-13.3-32.4-23.8-40.5-42.3c-8.2-19.1-3.4-39.4,2-58.5c3-10.6,5.9-21.1,5.6-32.2c-0.3-11.1-3.3-21.6-5.8-32.3
		c-4.7-20-8-40.9-21.9-56.9c-6.2-7.1-13.6-13.1-19.9-20.1c-6.4-7.1-11.2-15.3-15.4-23.9c-4.1-8.4-7.2-17.2-12.4-25.1
		c-4.9-7.5-11.1-14-18.3-19.2c-14.7-10.5-35.5-18.6-53.6-13.5c-17.5,4.9-24.6,21.5-25.8,38.3c-1.5,21.9,4.4,44,8,65.4
		c3.9,22.6,4.6,45.1,3.2,68c-1.3,21.5-3.7,43.7-12,63.8c-7.8,18.9-21.4,33.9-37.5,46.2c-29.6,22.6-78.3,47.6-70.6,92.6
		c3.3,19.5,17.3,34.2,33.6,44.3c17.9,11,38.5,15.5,58.3,21.4c18.7,5.6,36.2,13.7,46.3,31.2c10.1,17.6,12.3,38.6,19.8,57.3
		c10.1,25.3,26.7,47.9,34.6,74.1" />
        <path fill="none" stroke="#8A4E21" stroke-width="0.1" stroke-linecap="round" stroke-linejoin="round" stroke-miterlimit="10" d="
		M1036.7,0.6c-11.4,10.7-23.9,19.1-39.4,22.4c-15.2,3.2-30.8,1.2-46-0.4c-15.2-1.6-30.2-2.3-45.3-0.5c-14.4,1.7-28.5,5.1-42.7,7.7
		c-15.8,2.8-31.9,5.1-47.4,9.6c-15,4.3-29,10.8-42,19.4C760.6,67.3,748.9,78,737,88.4c-10.9,9.5-22.5,17.6-35,25
		c-13.4,7.9-26.6,15.8-37.2,27.4c-10.2,11-17.8,24.6-23.7,38.3c-6.1,14.1-11.6,29.2-10.1,44.9c1.5,15,9.3,28.2,19.8,38.8
		c11.1,11.3,24.8,19.1,38.3,27.1c13,7.6,25.6,15.3,33,28.9c7.4,13.7,10.8,29.2,17.9,43.1c6.9,13.6,16.9,25.7,22.6,39.9
		c2.7,6.8,4.1,15-2.4,20.1c-5.8,4.5-14.3,5.3-21.3,5.7c-14.5,0.7-29.2-1.6-43.4-4.4c-15.5-3.1-31-6.7-46.7-8.9
		c-15.5-2.2-31-3.2-46.2,1.3c-14.7,4.4-27.8,12.6-42.7,16.5c-14.7,3.9-29.9,4.9-44.3,10.3c-14.6,5.4-28,13.5-41.8,20.5
		c-14,7.1-28.6,12.4-43.2,18.1c-13.7,5.4-27,11.9-40.6,17.4c-14.1,5.6-29.2,10.2-44.5,8.6c-15.5-1.7-28.9-9.1-42.2-16.8
		c-13.5-7.8-26.7-14.1-41.8-18.4c-7.4-2.1-15.1-4-21.8-7.9c-6.4-3.8-11-9.4-14.4-16c-7.1-13.5-12.9-28.1-19.3-42
		c-6.7-14.8-10.5-29.8-14-45.6c-3.2-14.8-7.7-29-13.4-43.1c-5.7-14.1-12.5-27.8-17.7-42.1c-5.2-14.3-8-29.7-15.2-43.2
		c-7.2-13.5-18-24.6-23.6-39.1c-5.6-14.6-6.4-30.4-7.6-45.9c-1.2-14.9-2.4-29.8-6.6-44.1c-4.4-14.7-11.6-28.3-15.6-43.1
		c-4-15-3.9-30.9-8.5-45.7c-1.5-4.7-3.5-9.2-5.8-13.5" />
        <path fill="none" stroke="#8A4E21" stroke-width="0.1" stroke-linecap="round" stroke-linejoin="round" stroke-miterlimit="10" d="
		M1585.9,6.8c-1.9-2.1-3.8-4.2-5.7-6.2" />
        <path fill="none" stroke="#8A4E21" stroke-width="0.1" stroke-linecap="round" stroke-linejoin="round" stroke-miterlimit="10" d="
		M1049.5,0.6C1034,17,1016,29,994,31c-26,2-52-4-78-3c-21,1-41,7-63,10c-17,3-34,7-50,13c-14,6-25,14-37,23c-19,17-35,34-57,47
		c-18,10-35,22-46,40c-1,1-2,2-3,3c-11,20-21,40-18,63c2,14,10,26,20,36c1,1,3,1,4,2c2,2,4,4,6,6c24,15,55,21,64,48
		c7,20,11,40,23,58c10,14,20,25,26,40c2,3,3,7,2,11c-3,9-13,11-21,11c-32,3-63-5-95-11c-15-3-29-4-44-3c-21,2-37,18-56,26
		c-5,2-11,3-16,4c-18,1-37,4-54,10c-8,4-17,8-25,12c-27,11-53,22-80,34c-17,7-35,11-54,9c-9-1-16-5-24-8c-15-7-28-18-44-24
		c-9-3-19-4-29-6c-12-2-25-6-29-18c-4-14-7-27-12-40c-6-13-12-25-17-39c-4-13-5-27-9-40c-3-10-7-19-11-29c-12-23-21-47-31-71
		c-4-11-11-22-17-33c-7-12-12-25-13-39c-1-18-1-36-3-55c-3-16-9-31-14-46c-6-16-8-32-10-48c-1-8-4-16-8.9-23.3" />
        <path fill="none" stroke="#8A4E21" stroke-width="0.1" stroke-linecap="round" stroke-linejoin="round" stroke-miterlimit="10" d="
		M1585.9,17.2c-4.4-6-9.4-11.6-14.9-16.7" />
        <path fill="none" stroke="#8A4E21" stroke-width="0.1" stroke-linecap="round" stroke-linejoin="round" stroke-miterlimit="10" d="
		M1062.3,0.5c-9.9,11.3-21.8,22-35.2,28.8c-13.5,6.8-28.3,9.1-43.3,8.7c-15.7-0.5-31.2-2.6-46.9-3.1c-14.8-0.5-29.4,1.1-44,3.6
		c-16.5,2.8-32.9,5.7-49.3,8.8c-14.1,2.7-27.9,6.5-40.9,12.8c-13.9,6.9-26.3,16.3-37.5,27c-11,10.5-21.4,21.5-33.9,30.4
		c-12.6,9-26.8,15.9-38.9,25.6c-11.8,9.5-21.1,21.5-28.1,34.9c-7,13.5-12.6,28.6-12.2,44c0.4,15.6,8.6,28.9,20.3,38.8
		c11.9,10.2,26.8,15.8,41.1,21.7c13.3,5.5,27.9,12,34.2,25.9c6.4,14,4.4,30.5,9.1,45.1c4.6,14.4,13.5,26.7,23.1,38.2
		c9.7,11.7,21.2,22.9,28.2,36.5c3.1,6,6.2,15.5-0.7,20.1c-6.1,4.1-14.9,4.3-22,4.4c-15.4,0.1-30.8-1.4-46-3.4
		c-16.5-2.1-32.8-5.1-49.1-7.9c-14.2-2.5-28.6-4.6-43.1-4.1c-15.6,0.5-29.1,5.9-41.1,15.9c-11.7,9.7-22.2,21-38.1,23
		c-15.2,1.9-30.4-2.4-45.6-0.7c-13.8,1.5-27,6.2-39.9,11.2c-15.9,6.1-31.9,11.9-47.5,18.7c-14.2,6.2-28.1,13.1-42.7,18.4
		c-14.1,5.1-29.3,8.8-44.4,7.9c-15.5-0.9-29.5-8-42.7-15.7c-12.8-7.5-25.4-16.1-40.2-19.2c-7.2-1.5-14.5-1.7-21.9-1.5
		c-7.8,0.2-16.2,1.1-23.9-1.1c-16.7-4.7-15.7-25-17.2-38.8c-1.8-15.9-7.5-29.5-14.3-43.8c-6.5-13.6-10.6-27.4-13.9-42.1
		c-3.4-15.1-7.5-29.7-13.9-43.8c-6.5-14.3-13.9-28-20.4-42.3c-6.4-14.2-11.2-29-18-43c-6.7-13.8-15.1-26.8-19.7-41.6
		c-4.3-13.8-5.7-28.2-6.1-42.6c-0.4-15.8-0.2-31.9-3.2-47.6c-3-15.4-9.8-29.5-14.2-44.5c-4.3-14.5-4-29.7-7.7-44.3
		C68.8,12.9,66.2,6.3,62,0.5" />
        <path fill="none" stroke="#8A4E21" stroke-width="0.1" stroke-linecap="round" stroke-linejoin="round" stroke-miterlimit="10" d="
		M1584.4,38c-8-14.2-18.1-27.4-31.1-37.4" />
        <path fill="none" stroke="#8A4E21" stroke-width="0.1" stroke-linecap="round" stroke-linejoin="round" stroke-miterlimit="10" d="
		M1085.6,0.5c-9.1,12.2-19.1,23.6-31.1,33.1c-12.2,9.6-26.4,15.6-41.8,17.8c-15.3,2.2-30.9,0.6-46.2-0.3c-15.5-1-30.8-1.5-46.3-0.3
		c-14.8,1.2-29.5,3.8-44.1,6.4c-15.1,2.7-30.6,5.3-45.2,10.4c-14.5,5.2-27.8,13-39.5,23.1c-11.5,10.1-21.1,22.2-32.8,32
		c-11.6,9.8-25.2,16.4-38.1,24.1c-13.2,7.8-25,17.7-33.6,30.5c-8.4,12.3-14.7,27.2-14.7,42.3c0.1,16.1,9.4,29.2,22.8,37.4
		c13.1,8.1,28.6,11.4,43.2,15.6c13.2,3.8,31.3,7.9,40.1,19.4c9.8,12.8-1.3,30.6-3.7,44.3c-2.6,15,1.7,29.8,10.4,42.2
		c8.5,12.1,19.4,22.1,30.1,32.1c11.7,10.8,24,21.2,33.5,34c4.6,6.1,8.4,12.9,10.4,20.3c1.8,6.6,2.9,16-2.1,21.6
		c-5,5.7-13.8,4.4-20.3,2.8c-8.2-2-16.2-4.9-24.3-7.5c-13.9-4.4-28.2-7.3-42.5-9.5c-16.9-2.6-33.9-4.8-50.9-7.2
		c-13.7-1.9-27.6-3.7-41.4-3.5c-15.1,0.3-29.7,3.8-42.2,12.6c-12.8,8.9-23.3,20.7-36.6,29.1c-13,8.3-27.8,12.1-43.1,9.4
		c-15.3-2.7-29.3-8.4-45-8.2c-15,0.1-30,3.7-44.2,8.3c-15.7,5-30.7,11.5-45.8,17.9c-13.3,5.6-26.8,10.8-40.6,14.9
		c-14.8,4.4-30.2,7.8-45.6,4.5c-15.4-3.2-28.7-12.5-41.9-20.7c-12.6-7.8-26-14.6-41.2-14.4c-15.2,0.2-29.3,7.3-44.3,7.9
		c-7.6,0.3-14.8-1.8-19.5-8.1c-4.3-5.9-5.6-13.8-5.9-21c-0.8-15.3,3-30.5,0.7-45.7c-2.3-15.4-11.4-28.5-17.4-42.5
		c-6.1-14.2-7.9-29.7-11.6-44.6c-3.7-14.9-9.7-28.8-16.6-42.4c-7-13.8-14.8-27.2-21.2-41.4c-6.6-14.4-12.5-29.1-18.9-43.6
		c-6-13.6-11.1-27.5-14-42.1c-2.9-14.9-3.7-30.1-4.3-45.2c-0.6-15.2-1-30.5-4.2-45.4c-3.3-15-9-29.4-11.9-44.5
		C59,41.2,59.3,24.8,51.7,11c-2.1-3.9-5-7.2-8.1-10.3" />
        <path fill="none" stroke="#8A4E21" stroke-width="0.1" stroke-linecap="round" stroke-linejoin="round" stroke-miterlimit="10" d="
		M1584.5,50.9c-10-19.5-22-37.6-40.4-50.2" />
        <path fill="none" stroke="#8A4E21" stroke-width="0.1" stroke-linecap="round" stroke-linejoin="round" stroke-miterlimit="10" d="
		M1095,0.7C1080,21,1064,41,1041,53c-2,1-5,2-7,3c-5,2-10,3-16,4c-9,1-17,2-26,1c-17-2-35-3-52-2c-46,1-96,4-135,35
		c-12,10-21,22-33,33c-9,8-19,13-29,19c-5,3-11,5-16,7c-6,3-11,7-16,11c-23,19-42,53-20,79c5,5,11,9,17,12c13,6,27,9,41,13
		c3,1,6,1,9,1c17,5,41,6,45,26c2,10-6,18-12,26c-4,7-8,15-9,23c-2,17,7,33,18,45c21,21,45,36,63,60c5,8,8,16,11,25c2,9,5,17,2,26
		c-6,14-24,11-35,6c-13-6-25-12-38-17c-25-8-49-10-75-14c-13-1-26-3-39-3c-12,1-24,3-36,8c-13,6-23,15-34,24c-2,1-5,3-7,5
		c-12,8-23,14-37,18c-10,2-20,2-29-2c-31-11-63-10-94,1c-35,13-69,31-107,35c-6,0-13-1-19-3c-21-9-38-24-59-32c-21-7-41,4-61,9
		c-7,2-16,2-22-3c-7-6-10-15-11-23c-2-24,5-48-3-71c-5-13-12-24-17-37c-5-18-7-35-12-53c-9-26-26-48-37-73c-9-20-17-40-24-61
		c-3-9-4-18-6-28c-4-25-2-48-7-73c-5-30-11-58-18-88c-2-6-4-11-7-16c-2-1-3-3-5-5c-1-1-3-2-4.4-3.5" />
        <path fill="none" stroke="#8A4E21" stroke-width="0.1" stroke-linecap="round" stroke-linejoin="round" stroke-miterlimit="10" d="
		M1584.5,63.6C1574,39,1558,16,1534.6,0.7" />
        <path fill="none" stroke="#8A4E21" stroke-width="0.1" stroke-linecap="round" stroke-linejoin="round" stroke-miterlimit="10" d="
		M1103.7,0.6c-8.5,12.9-17.4,25.2-28.3,36.2c-10.8,10.8-22.8,20.9-37,27c-14.1,6-29.7,6.2-44.7,5.6c-15.4-0.6-30.8-2.2-46.2-2.2
		c-15.5,0.1-30.9,1.1-46.2,3.1c-15.2,2-30.5,4.5-45.2,8.8c-14.8,4.3-28.5,11.2-40.4,20.9c-12,9.7-21.3,22.3-32.9,32.6
		c-11.7,10.5-25.9,16.9-40,23.6c-13.5,6.4-26.4,14-36.2,25.5c-9.5,11.3-16.5,26.8-13.3,41.8c3.3,15.6,17.3,24.3,31.3,29.6
		c13.8,5.2,28.6,8.2,43.1,11c15.3,3,32.3,4.9,46.4,12.1c6.4,3.3,13,8.6,11.9,16.5c-1,7.1-6,12.6-10.8,17.5
		c-10.8,11.1-23.8,22.4-25.3,38.9c-1.4,15.6,8.1,29.3,18.4,40c10.7,11.1,23,20.6,34.9,30.5c11.6,9.7,23,19.5,30.7,32.7
		c7.6,13,12.6,28.6,16.2,43.2c1.7,6.9,3.3,15.1-0.9,21.5c-4.2,6.4-13.3,7-20.1,6.7c-15.4-0.8-29.8-8.1-43.4-14.7
		c-14.1-6.8-28.1-12.5-43.3-16.3c-14.4-3.6-29.2-5.8-43.9-7.5c-15.7-1.9-31.4-3.4-47.2-2.3c-15.4,1.1-29.4,6.1-42.6,13.8
		c-13.1,7.6-25.1,16.8-38,24.6c-13.1,7.9-27.3,15.7-42.4,18.7c-15.9,3.3-29.3-2.3-44.1-7.4c-14.7-5.1-29.8-6.7-45.3-4.5
		c-14,1.9-27.6,6.2-40.8,11.1c-15.9,5.9-31.8,11.8-47.7,17.6c-14.1,5.1-28.5,11-43.4,12.9c-15.8,2-29.7-4.1-42.7-12.4
		c-12.7-8.1-24.5-18.1-39-22.5c-14.6-4.5-28.9-1.2-42.8,4.1c-12.6,4.9-31.7,15.6-44.7,6.9c-12.6-8.5-12.3-29.6-12.6-43.1
		c-0.3-15.1,1.7-30.3-0.1-45.3c-1.9-15.8-10.1-28.6-16.7-42.8c-6.5-13.9-8.1-28.8-10.6-43.7c-2.4-14.7-6.8-28.9-13.5-42.2
		c-7.3-14.2-16.4-27.4-23.6-41.6c-6.7-13-11.4-27.1-16.3-40.8c-5.4-15.2-10.5-30.4-14.2-46.1c-3.4-14.2-5.4-28.7-6.3-43.2
		c-1-16.1-1.6-32.1-3.7-48.1c-2-15.3-6.4-30.1-9.7-45c-3.3-14.4-3.7-30.3-10.4-43.7C35.3,11.3,28,4.9,19.3,0.5" />
        <path fill="none" stroke="#8A4E21" stroke-width="0.1" stroke-linecap="round" stroke-linejoin="round" stroke-miterlimit="10" d="
		M1584.4,75.4C1571,46,1554,17,1524.7,0.6" />
        <path fill="none" stroke="#8A4E21" stroke-width="0.1" stroke-linecap="round" stroke-linejoin="round" stroke-miterlimit="10" d="
		M1111.4,1C1099,20,1087,38,1070,54c-1,1-3,1-4,2c-12,13-29,21-46,22c-37,3-74-4-112,0c-21,3-43,3-62,14c-1,1-3,0-4,1
		c-22,12-35,33-53,49c-2,2-5,3-7,5c-25,16-56,20-73,46c-7,13-10,29,1,41c2,1,3,3,5,5c3,2,6,4,9,6c12,5,24,10,37,12c23,3,45,5,67,11
		c7,2,14,6,17,12c5,10-2,22-12,28c-1,1-1,2-2,3c-10,8-21,14-28,25c-1,2-2,5-3,7c-5,11-3,23,4,33c17,23,40,35,61,53c3,3,6,6,9,9
		c1,3,3,5,5,7c11,19,18,39,24,59c3,7,4,15,0,22c-13,16-35,8-52,3c-19-6-35-17-53-24c-33-11-68-15-102-14c-12,1-24,5-35,10
		c-15,8-28,17-42,25c-19,11-36,23-58,28c-9,2-18,1-26-2c-14-6-27-13-42-15c-8-1-16,0-25,1c-39,8-72,25-109,38c-16,5-34,5-49-4
		c-13-9-24-19-38-26c-11-5-22-6-34-4c-21,5-37,19-58,19c-4,0-8-3-12-6c-7-6-8-15-9-23c-4-29,4-59-7-87c-6-17-17-31-20-49
		c-3-22-5-44-14-64c-9-18-22-33-30-51c-9-20-14-41-21-62c-4-13-4-26-8-39c-2-4-1-9-2-13c-1-20-2-40-4-61c-2-15-7-30-10-45
		c-2-21-6-42-25-54C12,4,6,1-1.5,0.8" />
        <path fill="none" stroke="#8A4E21" stroke-width="0.1" stroke-linecap="round" stroke-linejoin="round" stroke-miterlimit="10" d="
		M1584.4,96.6C1576,80,1566,65,1558,48c-3-5-6-9-9-14c-12-16-28-27-45.7-33.5" />
        <path fill="none" stroke="#8A4E21" stroke-width="0.1" stroke-linecap="round" stroke-linejoin="round" stroke-miterlimit="10" d="
		M1127,0.9C1117,18,1107,33,1094,48c-1,1-1,3-2,4c-10,11-21,21-33,31c-2,1-5,3-7,5c-11,7-22,12-35,14c-13,1-26,1-39-1
		c-37-7-73-10-110-1c-1,0-1,2-2,2c-10,4-21,7-28,15c-1,1-3,1-4,2c-9,9-16,18-23,29c-9,12-21,18-34,22c-20,7-43,14-49,36
		c-3,7-1,14,3,21c4,6,10,8,16,12c5,3,11,3,17,5c26,6,52,5,78,7c11,1,21,3,31,9s15,19,9,29c-4,6-7,12-14,16c-1,1-1,2-2,3
		c-17,14-40,19-50,39c-3,6-2,12-1,18c1,2,2,5,3,7c15,23,39,34,60,51c7,6,14,13,18,22c10,27,24,52,34,79c4,12,2,28-11,31
		c-29,7-56-10-83-18c-39-20-82-35-127-29c-34,5-63,21-93,37c-18,10-33,21-50,31c-12,7-24,12-37,6c-11-6-19-15-30-20c-14-6-30-7-45-6
		c-17,2-32,8-48,14c-23,10-43,24-69,30c-22,4-39-11-53-26c-13-12-29-21-48-17c-19,5-34,17-52,24c-7,2-14,6-22,4c-10-3-15-12-16-22
		c-2-36,6-73-7-107c-7-17-17-32-23-49c-3-25-3-51-15-74c-10-19-26-34-32-55c-14-52-27-104-27-157c-6-30-5-62-21-90
		C16,24,9,17,0.5,15.1" />
        <path fill="none" stroke="#8A4E21" stroke-width="0.1" stroke-linecap="round" stroke-linejoin="round" stroke-miterlimit="10" d="
		M1584.3,106.5C1581,103,1579,99,1577,95c-19-39-41-83-85.8-94.5" />
        <path fill="none" stroke="#8A4E21" stroke-width="0.1" stroke-linecap="round" stroke-linejoin="round" stroke-miterlimit="10" d="
		M1133.6,0.8C1129,7,1126,14,1121,20c-2,3-4,7-6,11c-18,27-40,47-62,70c-5,5-11,8-17,11c-13,5-27,7-41,5c-37-7-72-17-110-12
		c-15,2-28,7-40,17s-18,24-28,36c-2,1-3,3-5,5c-12,12-29,15-44,21c-11,5-24,11-28,23c-5,13,7,22,17,27c8,3,16,4,24,6c17,2,33,3,49,4
		c23,2,52-2,66,20c4,8,3,18-2,26c-15,24-39,34-60,51c-4,4-7,9-8,15c-2,14,5,24,14,33c20,18,49,25,62,50c6,12,8,26,12,39c0,1,2,1,2,2
		c1,3,2,6,3,9c16,26,38,61,12,86c-7,3-15,0-22-2c-5-3-10-6-15-8c-26-10-51-19-76-30c-15-6-29-11-44-15c-19-4-37-5-56-4
		c-60,12-112,42-163,80c-7,5-15,7-23,5c-5-2-10-5-14-8c-8-8-16-13-24-20c-1-1-3,0-4-1c-17-11-36-8-54-4c-11,3-21,6-31,10
		c-20,8-39,20-59,29c-16,7-34,5-48-6c-16-13-28-33-50-36c-25-2-45,16-67,25c-10,5-23,12-34,4c-10-8-10-21-9-33c3-27,4-54,0-81
		c-4-22-18-39-27-58c-3-6-5-13-5-20c0-11-1-23-2-34c-1-14-5-28-14-40c-7-9-13-16-18-25c-15-27-17-55-24-85c-2-8-5-16-6-24
		c0-4-1-9-1-13c0-2-2-5-2-7c0-3,1-6,0-9c-1-4-1-8-1-12c-2-35-6-69-16-102c-3-9-6-18-14-24c-2-1-5-1-7.4-4" />
        <path fill="none" stroke="#8A4E21" stroke-width="0.1" stroke-linecap="round" stroke-linejoin="round" stroke-miterlimit="10" d="
		M1584.5,116.9C1568,95,1560,70,1543,46c-16-23-39-40-66.7-45.5" />
        <path fill="none" stroke="#8A4E21" stroke-width="0.1" stroke-linecap="round" stroke-linejoin="round" stroke-miterlimit="10" d="
		M1141.1,0.8C1121,37,1094,67,1067,100c-4,6-8,11-12,16c-9,9-18,17-31,19c-25,3-48-7-71-15c-1,0-3,0-4,0c-20-7-41-10-63-7
		c-12,2-22,6-32,14c-13,11-19,25-29,38c-4,5-9,9-15,12c-1,1-2,2-3,3c-13,7-27,10-40,16c-7,4-14,10-13,19c1,4,4,7,8,10c2,1,3,2,5,3
		c8,3,16,4,24,5c24,1,48,2,72,3c20,2,44,9,47,31c4,22-13,39-31,52c-1,1-1,2-2,3c-12,8-22,16-32,25c-5,5-8,11-7,18c6,28,35,35,55,50
		c7,6,13,11,15,19c8,35,22,64,39,94c7,14,8,29,6,45c-3,13-4,25-13,35c-20,8-30-16-43-27c-2-1-4-1-6-3c-5-6-12-10-19-14
		c-28-14-57-24-87-34c-10-3-20-5-31-6c-28-2-55,3-80,15c-2,1-3,0-5,1c-27,12-53,22-79,40c-18,13-30,29-49,38c-9,4-18,0-25-6
		c-11-12-20-27-35-33c-22-10-46-5-68,4c-5,2-11,3-17,6c-13,8-26,16-39,23c-8,5-17,8-26,10c-29,4-48-20-66-39c-5-5-13-7-20-9
		c-14-2-26,3-38,10c-18,12-35,23-57,27c-9,2-14-6-17-12c-5-9-4-19-3-29c3-21,6-42,5-63c-1-13-2-27-8-39c-5-11-12-22-18-33
		c-1-1-2-2-3-3s0-3-1-4c-4-6-6-12-7-19c-1-18,1-35-3-53c-3-10-8-17-13-26c-2-2-4-4-6-7c-4-7-9-13-13-20c-6-11-10-22-12-35
		c-2-15-4-30-9-45c-12-42-10-85-15-128c-2-12-4-23-8-34c-4-8-7-16-13-23c-2-1-4-3-5.4-4.8" />
        <path fill="none" stroke="#8A4E21" stroke-width="0.1" stroke-linecap="round" stroke-linejoin="round" stroke-miterlimit="10" d="
		M1584.2,125.3c-13.1-16.5-23.1-35.1-32.9-53.7c-4.6-8.9-8.9-18-14.9-26.1c-5.2-7.1-11.4-13.4-18.3-18.8
		c-18-14.2-40.1-22.6-62.6-26.2" />
        <path fill="none" stroke="#8A4E21" stroke-width="0.1" stroke-linecap="round" stroke-linejoin="round" stroke-miterlimit="10" d="
		M1149,0.6c-12.7,17.6-22.5,36.9-35.8,54.1c-13.3,17.1-27.7,33.2-38.8,51.9c-9.3,15.8-18,34-35.3,42.5c-18.5,9.1-39.2,4-57.2-3.7
		c-19.8-8.4-38.6-18.3-60-22.2c-19.2-3.5-40.9-3-57.1,9.1c-14.8,11.1-20.4,28.8-31.7,42.7c-5.6,6.8-12.4,12.6-20.2,16.8
		c-9.1,4.9-19.6,7.3-28.3,12.9c-3.2,2-8.1,5.8-5.1,9.9c2.6,3.5,8.5,4.8,12.5,5.7c10.6,2.4,21.8,2.9,32.6,3.7
		c21.3,1.5,43.3,2,63.9,8.5c16.7,5.2,35.7,16.9,34.8,36.8c-0.4,9.6-5.2,18.2-10.5,26C907,304,900,312,892.7,319.6
		c-7.6,7.9-15.7,15.2-23.7,22.7c-6.6,6.2-14.5,13.9-14.4,23.6c0.1,17.9,20.7,28.2,34.1,35.5c7.8,4.2,15.7,8.8,21.4,15.8
		c6,7.3,8.3,16.4,9.7,25.6c1.4,9.6,2.4,19,5.4,28.3c3.2,9.9,8,19.3,13.1,28.3c10.3,18.1,21.7,35.2,23.4,56.6
		c0.8,11.1-0.2,22.2-1.2,33.3c-0.9,10.4-1.5,21-4.5,31.1c-2.2,7.6-6.9,15.4-15.5,16.1c-7.5,0.6-14.7-4-20.3-8.5
		C906,616.7,898,600.3,886,587c-13.7-15.2-32.8-23.8-51.3-31.5c-20.4-8.5-41.6-16.5-63.4-20.5c-21.5-3.9-44.3-3.3-65.4,2.2
		c-21.2,5.5-41.2,15.5-61.4,23.9c-19.8,8.2-39.4,17-56.3,30.4c-15.7,12.6-27.8,30.8-45.6,40.6c-7.3,4-16,6.2-24,3
		c-8.5-3.4-14-11.9-18.7-19.3c-4.9-7.7-9.4-15.7-16.3-21.8c-7.1-6.3-16.1-10.1-25.5-11.3c-20.1-2.7-41.7,4.8-59.2,14
		c-18.7,9.7-34.9,24.8-55,31.5c-18.8,6.3-39.1,4-55.6-7.1c-14.3-9.6-22.9-26.7-38.6-34.2c-18.7-8.9-39.3,3.9-55.2,13.3
		c-9.2,5.5-18.2,11.3-27.7,16.1c-9,4.5-20,9.9-30.3,7.9c-20.9-4-17.1-32.7-14.3-47.7c4-21.7,8.3-43.5,6.9-65.7
		c-1.4-21.4-7.8-40.7-19.9-58.4c-5.6-8.2-11.9-16.3-15.5-25.6c-3.6-9.3-4.4-19.2-4.4-29.1c0-10.4,0.5-20.7-1.1-31
		c-1.7-10.3-5.3-20-10.8-28.9c-10.6-17.3-25-31.4-30.6-51.4c-2.8-10-3.7-20.3-5.2-30.5c-1.6-11.2-3.8-22.3-6.2-33.3
		c-2.5-11-5.1-21.9-6.9-33.1c-1.8-11.3-2.5-22.7-2.9-34.1c-0.8-20.5-1.3-41-5.4-61.2C16.4,77.7,12,58.5,0.5,45.5" />
        <path fill="none" stroke="#8A4E21" stroke-width="0.1" stroke-linecap="round" stroke-linejoin="round" stroke-miterlimit="10" d="
		M1584.2,142.3C1571,128,1560,114,1550,98c-13-23-20-49-42-66c-22-18-49-22-76-25c-7-1-13-3-20-6c-1,0-3,0-3.8-0.4" />
        <path fill="none" stroke="#8A4E21" stroke-width="0.1" stroke-linecap="round" stroke-linejoin="round" stroke-miterlimit="10" d="
		M1165.3,0.6c-13.9,15.1-22.4,34.6-33.8,51.5c-11.9,17.7-25.6,34.4-34.9,53.7c-8.7,18.1-12.8,38-26.6,53.3
		c-13.1,14.4-31.8,24.7-51.6,24.6c-42.6-0.1-69.9-46.4-113.7-42.2c-17.2,1.6-31.7,13.2-32.8,31.2c-1.3,20.3,14.5,33.1,30.2,42.7
		c15.2,9.3,32.9,18.2,42.4,34.1c4.6,7.6,6.3,16.6,3.8,25.2c-2.6,8.5-8.4,15.6-14.1,22.3c-13,15.1-26.8,30.6-34.6,49.1
		c-3.3,7.7-5.4,16.6-2.6,24.8c2.8,8.4,10.5,13.8,17,19.2c6.3,5.3,12.7,10.8,16.5,18.2c4.7,9.1,5,19.6,4.8,29.6
		c-0.1,10.5-0.5,21,2.2,31.3c2.5,9.9,7.1,19.1,12.3,27.9c10.3,17.2,24.2,32.5,26.6,53.2c1.2,10.8,0,21.7-0.4,32.6
		c-0.5,11.4,0,22.8,0.7,34.1c0.6,9.4,1.5,18.7,2.3,28.1c0.7,7.8,1.1,16.2-1.7,23.7c-6.8,18.1-26.5,11.8-39.4,4.8
		c-17-9.3-33.9-21.3-46.3-36.3c-12.7-15.3-19.9-34.3-33.9-48.6c-14.3-14.5-33.4-23.3-52.5-29.6c-21.1-7-43.1-10.6-65.4-8.9
		c-22.5,1.7-43.2,9.2-63.9,17.7c-20.2,8.3-41.4,15.1-60.7,25.5c-18.3,9.9-32.6,23.8-46.4,39.2c-13,14.5-27.5,30.7-47.4,34.7
		c-8.4,1.7-17.6,1-25-3.7c-6.4-4.2-10.7-10.8-13.8-17.6c-6.4-13.9-9.4-31.5-24.1-39.3c-18-9.6-40.4-0.3-56.3,9.4
		c-17.7,10.9-33.2,24.9-53.7,30.4c-20.3,5.4-42.5,2.8-61.6-5.6c-9.2-4.1-17.1-10-24.9-16.3c-7.8-6.2-15.7-13.2-25.5-16.1
		c-20.6-6.2-40.3,6.9-56.6,18c-16.2,10.9-34.9,25.6-55.5,24.5c-17.1-0.9-26.2-16.6-26.3-32.4c-0.1-10.8,2.9-21.4,6-31.7
		c3.2-10.6,6.3-21.1,8.4-32c4.2-21.2,5.7-43.8-1-64.7c-6.3-19.8-21.3-32.9-33-49.3c-6.3-8.8-9.3-18.3-8.9-29.1
		c0.4-11,2.8-21.7,2.8-32.7c0.1-21.8-11.2-38.3-24.7-54.3c-6.2-7.3-12.4-14.5-17-22.9c-5-9.1-6.7-18.5-7.3-28.8
		c-0.7-11.5-0.5-23-1.8-34.4c-1.3-11.3-3.8-22.5-5.8-33.7c-3.9-21.4-4.6-42.6-4.7-64.4c-0.1-20.5-1.7-42.2-10.5-61" />
        <path fill="none" stroke="#8A4E21" stroke-width="0.1" stroke-linecap="round" stroke-linejoin="round" stroke-miterlimit="10" d="
		M1584.4,150.7C1569,134,1555,118,1543,98c-8-14-13-28-21-42c-14-23-37-35-63-40c-23-4-45-7-67.4-15.4" />
        <path fill="none" stroke="#8A4E21" stroke-width="0.1" stroke-linecap="round" stroke-linejoin="round" stroke-miterlimit="10" d="
		M1174.8,0.6c-14.9,14-23.8,33.3-34.5,50.4c-11.4,18.2-24.9,35.5-33.2,55.5c-7.8,18.7-10.1,39-23.8,54.9
		c-12.8,14.9-31.2,26.2-50.4,30.4c-20.7,4.5-40.3-0.9-58.1-11.4c-16.4-9.7-32.3-22.9-51.7-25.7c-13.2-1.9-29.8,1.8-32.1,17.2
		c-2.8,18.2,15.7,32,28.4,41.6c15.5,11.7,34.3,23.7,41.2,42.9c7.1,19.7-6.4,34.4-19.5,47.3c-13.2,12.9-26.9,28.9-27.8,48.3
		c-0.9,18.8,14.8,29.6,23.3,44.5c10.2,18,5,38.1,5.9,57.6c0.5,10.7,2.8,21,7.4,30.7c4.4,9.3,10.4,17.8,16.3,26.2
		c5.6,8.1,11.2,16.1,14.6,25.5c3.4,9.4,3.9,18.9,3.4,28.8c-1.3,23.2-1.6,45.7,1.7,68.8c1.6,11.4,4.1,22.6,6.2,33.9
		c1.7,9.2,5.2,20.9,1.8,30.1c-4.9,12.8-23.5,5.3-32.2,1.6c-17.1-7.5-32.4-18.2-47.5-29c-17.1-12.2-32.7-24.9-43.9-43
		c-5.3-8.6-9.9-17.6-15.9-25.8c-5.6-7.7-12.5-14.2-20.2-19.6c-16.9-11.7-37.7-18.8-57.9-21.8c-22.1-3.3-45.1-1.4-66.4,4.9
		c-21.7,6.5-42.6,16-63.7,24.3c-19.9,7.8-39.1,16.9-55,31.5c-14.9,13.7-26.6,30.7-42.4,43.5c-15,12.1-36.1,19.5-55.1,13.5
		c-16.6-5.2-21.5-21.5-26.9-36.2c-5.7-15.3-16.5-27.6-34.2-25.1c-20,2.8-35.8,17.8-52.6,27.7c-18.9,11.1-39.5,15-61.2,12.6
		c-20.4-2.3-39.8-9.7-56.7-21.4c-7.5-5.2-14.8-11.1-23.2-14.8c-9-4-18.6-4.4-28-1.7c-19.6,5.8-35,21.2-52.3,31.4
		c-15.1,8.9-36.4,17.6-53.4,8.3c-15.4-8.5-19-28-16.8-44.1c1.4-10.6,5.2-20.7,8.7-30.8c3.6-10.3,6.7-20.7,8.8-31.5
		c4-20.9,5.1-43.2-2.5-63.5c-7.3-19.3-23.3-30.9-35.4-46.8c-6.7-8.9-9.1-18.7-8-29.7c1.1-11,3.9-21.7,4.1-32.8
		c0.3-21.5-11.6-37.6-25.5-52.8c-6.3-6.9-13-13.6-18.1-21.5c-5.5-8.3-8.3-17.3-9-27.2c-0.7-11.2,0.5-22.5,0.3-33.7
		c-0.2-11.4-2-22.7-3.6-33.9c-1.6-11.3-3.3-22.7-3.9-34.1c-0.6-11.5-0.4-22.9-0.4-34.4c0-12.6-0.6-25.2-3.2-37.5" />
        <path fill="none" stroke="#8A4E21" stroke-width="0.1" stroke-linecap="round" stroke-linejoin="round" stroke-miterlimit="10" d="
		M1584.4,180c-2.4-1-4.4-2-6.4-4c-20-22-42-39-62-61c-2-3-5-7-6-11c-3-13-6-25-11-37c-7-14-19-25-35-28c-1,0-2-2-3-2
		c-19-2-37-3-56-8c-1,0-3-2-4-2c-3-1-7-1-10-2c-18-7-35-14-54-18c-27-5-53-8-80-7c-13,1-25,3-37,7c-1,0-2,2-3,2c-17,4-29,16-38,31
		c-12,22-24,43-26,68c-2,11-2,23-2,34c-1,9-4,18-9,25c-13,16-31,24-49,32c-7,3-14,5-21,9c-2,1-3,0-5,1c-3,1-5,3-8,4
		c-19,7-45,13-50,36c-2,13,0,26-1,39c-1,8-4,15-9,22c-7,9-16,13-23,21c-5,6-8,13-8,21c0,13,5,25,10,38c2,6,3,13,2,20
		c-2,17-11,33-9,50c2,14,7,26,17,37c9,11,18,22,26,35c4,8,3,17,2,25c-2,14-6,28-7,42c-2,24,3,48,16,69c6,11,13,23,26,28c2,1,3,3,5,4
		c26,11,55,9,83,11c19,2,36,11,50,25c15,16,29,33,32.2,55.4" />
        <path fill="none" stroke="#8A4E21" stroke-width="0.1" stroke-linecap="round" stroke-linejoin="round" stroke-miterlimit="10" d="
		M1075.2,791.4c-13.1-16.9-34.7-21.3-54.1-27.2c-21.4-6.4-42.2-13.6-62.4-23.1c-19.3-9.1-36.4-20.5-53.1-33.6
		c-15.6-12.2-32.8-22-48.7-34c-7.7-5.8-15.4-12.3-21.1-20.1c-5.6-7.7-11.7-14.9-16.8-23c-10.1-16.1-25.1-29.5-43.6-34.8
		c-44-12.6-84.9,15.7-124.8,29.4c-19.9,6.9-39.3,17.6-54.1,32.7c-12.4,12.7-22.3,27.8-35.8,39.5c-7.5,6.5-15.6,11.4-25.3,13.9
		c-5.1,1.3-10.4,2.8-15.5,3.6c-5.1,0.7-10.1,0.9-15.2,2.1c-19.3,4.6-39.3,13-58.8,4.5c-8.6-3.7-16-9.6-23.7-14.7
		c-8.5-5.6-17.4-8.9-27.4-10.9c-10.6-2.1-21.7-2.5-32.5-3.7c-10.8-1.2-21.6-2.5-32.3-4.3c-21.3-3.6-42.5-8.9-62.1-18.2
		c-9.4-4.5-18.8-8.9-28.7-11.9c-10.7-3.3-20.5-3.8-31.2,0.2c-10.2,3.8-19.9,10.4-29.2,15.8c-9.5,5.5-18.8,11.2-28.8,15.8
		c-18,8.5-37.1,14.1-56.9,8.3c-26.9-7.8-40.2-35-41.3-61.3c-0.6-13.4,1.6-27,6.9-39.3c3.9-9,8.6-17.4,12.1-26.6
		c3.6-9.6,6.4-19.5,7.9-29.6c2.7-18.8,0.9-38.5-10.8-54.1c-5.2-7-11.6-12.1-19.3-16.1c-6.7-3.5-13.8-6.5-19.7-11.2
		c-16.4-13-9.8-33.8-3.3-50.4c6.8-17.4,9-37.6-3.9-53c-5.9-7-13.7-12-20.9-17.4" />
        <path fill="none" stroke="#8A4E21" stroke-width="0.1" stroke-linecap="round" stroke-linejoin="round" stroke-miterlimit="10" d="
		M825.4,791.4c-12.3-7.4-27.1-10.4-41-13.1c-16.1-3.2-32-6.2-47.5-11.5c-13.9-4.8-28.8-11.5-43.6-6.2c-14.5,5.2-21.7,19.2-30.5,30.7
		" />
        <path fill="none" stroke="#8A4E21" stroke-width="0.1" stroke-linecap="round" stroke-linejoin="round" stroke-miterlimit="10" d="
		M7.9,791.4c-2.5-1.7-4.9-3.5-7.2-5.5" />
        <path fill="none" stroke="#8A4E21" stroke-width="0.1" stroke-linecap="round" stroke-linejoin="round" stroke-miterlimit="10" d="
		M345.2,790.9C341,771,321,762,303,756c-22-6-44-9-67-6c-55,5-105,27-156.9,41.4" />
        <path fill="none" stroke="#8A4E21" stroke-width="0.1" stroke-linecap="round" stroke-linejoin="round" stroke-miterlimit="10" d="
		M775,791.5c-22-2.5-45-6.5-67.3,0" />
        <path fill="none" stroke="#8A4E21" stroke-width="0.1" stroke-linecap="round" stroke-linejoin="round" stroke-miterlimit="10" d="
		M334.9,791.4C324,765,295,761,270,756c-13-2-24-1-37,1c-39,8-75,13-110,28c-6,3-12,5-19.1,6.4" />
        <path fill="none" stroke="#8A4E21" stroke-width="0.1" stroke-linecap="round" stroke-linejoin="round" stroke-miterlimit="10" d="
		M860.6,791.3c-11.7-9.6-25.4-16.9-40-21c-15.1-4.2-30.8-6.1-45.8-10.8c-14.9-4.7-27.4-13.2-41.4-19.7c-14.3-6.6-29.3-6.7-44-1.2
		c-14.7,5.6-24.9,16.1-34.1,28.4c-7.9,10.5-15.4,20.3-28.5,24.3" />
        <path fill="none" stroke="#8A4E21" stroke-width="0.1" stroke-linecap="round" stroke-linejoin="round" stroke-miterlimit="10" d="
		M355.6,791.1C341,750,292,750,255,742c-11-3-22,0-33,2c-52,9-97,27-147,43c-26,7-58,7-74.4-17.5" />
        <path fill="none" stroke="#8A4E21" stroke-width="0.1" stroke-linecap="round" stroke-linejoin="round" stroke-miterlimit="10" d="
		M887.9,791.4c-11.8-9.3-24.2-18.4-37.5-25.5c-13.9-7.5-28.9-10.6-44.1-14.6c-14.4-3.8-27.9-9.1-40.6-17
		c-12.9-8-25.9-17.8-41.5-19.3c-15.4-1.5-31,4.3-44.6,11c-13.9,6.9-24.3,17-34,28.8c-10,12.2-19.8,22.6-35.8,26
		c-15,3.2-30.8,2-46,3.6c-10,1.1-20.3,2.8-29.5,7.1" />
        <path fill="none" stroke="#8A4E21" stroke-width="0.1" stroke-linecap="round" stroke-linejoin="round" stroke-miterlimit="10" d="
		M366.3,791.1C363,781,359,772,350,765c-29-20-61-24-94-29c-24-4-46,4-70,9c-3,1-5,2-8,3c-5,1-9,2-14,3c-36,12-70,26-108,32
		c-7,1-13,0-20-1c-16-5-29-17-35.5-33.3" />
        <path fill="none" stroke="#8A4E21" stroke-width="0.1" stroke-linecap="round" stroke-linejoin="round" stroke-miterlimit="10" d="
		M925.8,791.5c-11.4-9.6-24.4-17.1-36.6-25.6c-13-9.1-25.8-18.5-40.2-25.3c-14.2-6.7-29.1-11.5-43.1-18.6
		c-13.8-7-25.7-16.8-38.6-25.3c-12.7-8.4-26.4-14.4-41.9-12.6c-14.9,1.8-29.6,7.1-43.6,12.3c-14.4,5.4-28.3,12-39.2,23.1
		c-10.7,11-18.3,24.9-30.4,34.5c-11.5,9.2-26.1,12.1-40.4,13.9c-15.7,1.9-32.2,2.9-46.8,9.6c-7.7,3.6-14.4,8.4-20.8,13.9" />
        <path fill="none" stroke="#8A4E21" stroke-width="0.1" stroke-linecap="round" stroke-linejoin="round" stroke-miterlimit="10" d="
		M387.5,791.4C383,779,377,768,367,760c-2-1-5-3-7-5c-20-14-42-16-64-22c-4-2-9-3-13-5c-8-3-16-4-24-5c-1,0-3-2-4-2c-21-4-39,2-58,7
		c-34,10-64,23-98,32c-21,5-43,8-63-2S8,725,0.5,703.7" />
        <path fill="none" stroke="#8A4E21" stroke-width="0.1" stroke-linecap="round" stroke-linejoin="round" stroke-miterlimit="10" d="
		M940.7,791.3C930,782,919,775,906,767c-27-17-50-36-79-46c-17-10-33-21-49-34c-10-8-20-15-32-17c-13-2-25,2-37,5c-16,6-32,10-48,16
		c-12,5-21,13-30,23c-10,12-16,25-29,35c-20,14-44,12-67,17c-17,3-31,12-43.1,25.5" />
        <path fill="none" stroke="#8A4E21" stroke-width="0.1" stroke-linecap="round" stroke-linejoin="round" stroke-miterlimit="10" d="
		M399,791.1c-5.3-7.9-9.8-16.4-15.4-24c-5.9-8-13.2-13.9-21.9-18.7c-17.5-9.6-37.7-14.3-56.7-19.9c-10.5-3.1-20.9-6.4-31.4-9.3
		c-10.5-2.9-21.6-6.3-32.5-6.8c-22.6-1.1-44.4,8.8-65.3,16c-21.5,7.3-43.1,14.8-65,21.1c-19.2,5.5-40.2,9.8-59.8,3.9
		c-8-2.4-13.9-6.2-19.5-12.3c-5.1-5.5-9.3-11.7-13-18.2C11,709.8,6,695.6,0.5,681.6" />
        <path fill="none" stroke="#8A4E21" stroke-width="0.1" stroke-linecap="round" stroke-linejoin="round" stroke-miterlimit="10" d="
		M0.6,582.7C6.7,570,16.2,553,5.2,540.1c-1.3-1.5-2.9-2.9-4.5-4" />
        <path fill="none" stroke="#8A4E21" stroke-width="0.1" stroke-linecap="round" stroke-linejoin="round" stroke-miterlimit="10" d="
		M955.1,791.4C943,780,928,773,913,764c-30-21-55-40-87-54c-1-1-2-2-3-3c-7-3-13-8-19-12c-12-10-22-21-35-30c-6-4-12-7-19-8
		c-15-2-28,2-42,7c-18,7-36,11-54,18c-12,5-22,12-30,22c-6,9-11,18-18,27c-10,12-24,19-39,22c-19,3-38,3-56,12
		c-12,7-21,17-31.7,26.4" />
        <path fill="none" stroke="#8A4E21" stroke-width="0.1" stroke-linecap="round" stroke-linejoin="round" stroke-miterlimit="10" d="
		M0.5,618.3c1.9-16.4,9.4-29.7,17-44.1c6.7-12.6,13.4-28.3,4.7-41.8C17.5,525.2,9,521,0.8,519.1" />
        <path fill="none" stroke="#8A4E21" stroke-width="0.1" stroke-linecap="round" stroke-linejoin="round" stroke-miterlimit="10" d="
		M410.6,791.5C409,789,407,787,405,785c-9-14-16-27-29-37c-8-5-15-9-23-12c-31-10-63-17-94-28c-7-2-13-3-20-4c-12,0-23,3-34,6
		c-43,14-82,37-127,38c-14,1-28-2-38-12c-25-26-38-63-39.5-98.2" />
        <path fill="none" stroke="#8A4E21" stroke-width="0.1" stroke-linecap="round" stroke-linejoin="round" stroke-miterlimit="10" d="
		M1014.6,791.3c-4.6-2.3-8.6-6.3-13.6-8.3c-27-11-52-21-78-36c-19-12-33-26-52-39c-10-6-18-10-28-16c-14-9-25-19-35-32
		c-11-13-22-26-38-33c-15-7-32-5-48,0c-13,5-26,12-39,17c-26,8-54,12-73,34c-2,2-4,3-6,5s-3,4-5,6c-6,11-12,20-20,29c-4,4-8,7-13,9
		c-2,1-5,2-7,3c-9,3-19,4-29,6c-9,1-18,2-27,5c-16,7-29,20-45,29c-3,1-7,3-11,3c-9-1-17-5-22-11c-13-16-25-31-44-37
		c-40-14-80-22-119-37c-13-5-26-9-40-7c-24,4-43,18-65,27c-6,2-11,4-17,7c-22,8-46,15-69,5c-15-7-25-19-33-33c-10-21-13-43-10-66
		c3-22,16-39,25-59c8-20,8-44-6-61c-2-1-3-3-5-5c-13-7-27-10-41.5-11.5" />
        <path fill="none" stroke="#8A4E21" stroke-width="0.1" stroke-linecap="round" stroke-linejoin="round" stroke-miterlimit="10" d="
		M0.5,408.6c3.4-9.5,4.6-19.7,0-29" />
        <path fill="none" stroke="#8A4E21" stroke-width="0.1" stroke-linecap="round" stroke-linejoin="round" stroke-miterlimit="10" d="
		M1037,791.3c-3-2.3-6-5.3-10-7.3c-36-14-70-24-104-46c-15-9-27-20-41-30c-16-11-31-20-46-31c-6-6-12-11-18-17c-6-8-13-16-19-24
		c-7-8-15-15-25-19c-11-4-23-6-35-4c-24,4-45,17-68,24c-7,3-14,5-21,7c-9,4-18,7-26,12c-1,1-2,2-3,3c-8,3-13,9-19,15
		c-12,14-20,30-36,41c-20,14-43,13-65,19c-19,5-34,24-55,21c-16-3-25-16-37-26c-28-19-59-21-91-29c-22-6-42-14-63-22
		c-16-6-35-7-51,0c-42,18-87,53-134,31c-27-19-36-54-34-85c1-4,1-9,3-13c1-4,1-9,3-13c6-13,14-25,19-39c7-22,8-48-9-66
		c-12-12-28-14-44-18c-3-1-5-2-7.5-3.9" />
        <path fill="none" stroke="#8A4E21" stroke-width="0.1" stroke-linecap="round" stroke-linejoin="round" stroke-miterlimit="10" d="
		M0.6,427.8c6.4-13.3,14.1-27.8,12.6-43.1c-0.9-8.9-5.8-17.1-12.7-22.7" />
        <path fill="none" stroke="#8A4E21" stroke-width="0.1" stroke-linecap="round" stroke-linejoin="round" stroke-miterlimit="10" d="
		M1585.4,453.7c-2.2-8.2-1.8-16.4,0-24.7" />
        <path fill="none" stroke="#8A4E21" stroke-width="0.1" stroke-linecap="round" stroke-linejoin="round" stroke-miterlimit="10" d="
		M1585.5,335.9c-2.7-8.1-1.8-16.8,0-25" />
        <path fill="none" stroke="#8A4E21" stroke-width="0.1" stroke-linecap="round" stroke-linejoin="round" stroke-miterlimit="10" d="
		M1585.5,221c-8.8-5.8-18-11-26.6-17.1c-8.6-6.1-16.2-13.5-24.5-20.1c-8.1-6.6-16.7-12.4-25.9-17.2c-8.7-4.6-17.8-8.7-26-14.2
		c-7.9-5.3-14.7-11.8-19.1-20.3c-4.1-7.9-6-16.7-7.6-25.4c-1.6-8.7-2.6-18.6-9.8-24.6c-7.2-6.1-17.5-6.9-26.1-9.4
		c-20.4-6-37.3-17.9-56-27.4c-19.6-9.9-40.6-14.7-62.6-15.3c-20.2-0.5-42.4,0.9-60.4,11.1c-17,9.6-26.4,26.7-26.7,46.2
		c-0.2,10.4,1.9,20.6,4.9,30.4c3,9.9,6.6,19.8,7.1,30.3c0.9,19-13.1,30.8-27.1,41.1c-17.5,12.9-35.9,24.5-56.6,31.5
		c-19.8,6.6-41.2,9-60.1,18.4c-15.8,7.9-28,22.7-21.9,41.1c6,18.3,22.9,31.3,35.6,44.9c14.9,15.9,25.7,33.4,34.6,53.3
		c8.8,19.5,17,38.9,15.3,60.7c-0.9,11.2-3.1,22.1-4.3,33.2c-1.3,11.3-0.9,22.6-1,34c-0.1,11.2-0.8,22.3-3.7,33.2
		c-2.7,10.2-6.7,20-9.6,30.2c-2.9,10.4-3.8,21.2,2.3,30.7c5.3,8.4,13.9,14.4,22.3,19.3c18.6,11,39.3,18.5,58.6,28.1
		c20.2,10,38.8,22.3,58.3,33.5c18.2,10.5,37.3,19.9,52.5,34.7c21.2,20.6,36.1,47.2,43.9,75.5" />
        <path fill="none" stroke="#8A4E21" stroke-width="0.1" stroke-linecap="round" stroke-linejoin="round" stroke-miterlimit="10" d="
		M1585.5,473.1c-8.7-13-12.4-27.6-9-43.1c1.8-8.1,5.4-15.5,9-22.9" />
        <path fill="none" stroke="#8A4E21" stroke-width="0.1" stroke-linecap="round" stroke-linejoin="round" stroke-miterlimit="10" d="
		M1585.4,355.3c-3.5-7-6.9-13.8-8.5-21.5c-1.6-7.6-1.1-15.2,0.6-22.8c1.8-7.6,4.9-14.7,8-21.8" />
        <path fill="none" stroke="#8A4E21" stroke-width="0.1" stroke-linecap="round" stroke-linejoin="round" stroke-miterlimit="10" d="
		M1585.4,234.4c-7.6-6.9-17.2-11.3-25.7-16.9c-8.8-5.8-16.6-12.7-24.5-19.7c-7.8-6.9-15.7-13.4-24.6-18.7c-9.3-5.4-19.1-9.8-28.6-15
		c-17-9.3-30.3-21.9-39.4-39.2c-4.8-9.2-9.1-18.4-16.8-25.6c-7.8-7.3-17.1-12.9-25.6-19.2c-17-12.6-32.9-26.9-52.5-35.3
		c-19.8-8.4-41.8-10.9-63.1-8.6c-18.3,2-38.3,8.1-49.2,24.1c-11.5,16.9-8,37.7-2.3,56.1c5.7,18.4,15.7,39.9,3.1,57.7
		c-10.2,14.4-28.7,22.2-43.2,31.5c-9.1,5.8-18.2,11.6-28,16.2c-9.8,4.6-20.2,7.7-30.7,10.1c-18.3,4.3-39.4,6.1-54.1,19
		c-15.3,13.3-8.1,32.4,4,44.9c14.3,14.8,33.4,25.5,51.3,35.5c19.6,10.9,39.9,19.8,60.9,27.4c15.3,5.5,35.5,10,44.3,25.3
		c9.3,16.3,1.4,37.2-7.4,51.9c-10.7,18-25.3,33.4-35.8,51.6c-10.7,18.7-18.6,39.6-22.5,60.8c-3.8,20.5-1.3,40.7,12.3,57.2
		c13.2,16,32,27.2,49.2,38.3c18.6,11.9,37.3,23.3,57.2,32.8c9.3,4.5,18.8,8.8,27.5,14.5c8.4,5.5,15.6,12.5,21.8,20.3
		c13,16.1,24.2,34.9,32.6,53.8c3.7,8.4,6.7,17.2,9.5,25.9" />
        <path fill="none" stroke="#8A4E21" stroke-width="0.1" stroke-linecap="round" stroke-linejoin="round" stroke-miterlimit="10" d="
		M1584.4,165.7c-7.9-7.4-15.1-15.6-22.4-23.6c-6.9-7.6-14.1-14.9-20.9-22.7c-6.6-7.6-12.5-15.8-16.6-25.1
		c-4.1-9.2-6.9-18.9-11.3-27.9c-8.3-17.2-23.4-29.8-41.2-36.2c-20.5-7.3-42.9-6-63.8-11.9c-17.5-4.9-34.1-12.5-51.4-17.7" />
        <path fill="none" stroke="#8A4E21" stroke-width="0.1" stroke-linecap="round" stroke-linejoin="round" stroke-miterlimit="10" d="
		M1198.6,0.7C1189,5,1181,12,1175,21c-24,37-48,73-52,117c-1,19-15,32-30,43c-28,19-57,26-90,32c-7,1-16,2-20,8c-2,4-4,9-3,14
		c3,15,7,29,6,44c-1,11-10,18-16,26c-19,12-37,34-27,57c7,15,16,28,18,45c1,10-1,19-3,29c-3,18-1,36,8,52c9,15,21,27,29,42
		c7,16,4,32,2,49c-5,47,5,98,41,131c1,1,3,1,4,2c20,19,47,24,73,31c19,6,36,21,32,42c-2,7-10,8-15,4c-19-14-36-30-60-34
		c-27-3-53-7-79-16c-17-6-31-15-47-23c-1-1-2-2-3-3c-26-16-47-33-72-51c-6-5-10-9-15-15c-7-9-12-18-18-28c-6-8-11-16-19-23
		c-11-9-23-15-37-17c-4-1-9-2-13-3c-24-2-47,1-69,10c-23,10-46,18-69,28c-5,3-10,5-15,8c-2,2-4,4-7,5c-1,1-2,2-3,3s-3,1-4,2
		c-10,9-19,19-28,30c-12,14-25,27-43,33c-23,7-51,13-72-4c-9-8-14-20-24-28s-22-5-33-1c-20,9-41,13-63,12c-19-2-39-5-57-13
		c-2-1-3,0-5-1c-14-7-27-15-41-21c-15-6-30-1-44,8c-25,17-49,36-79,36c-9,0-19-3-26-9c-1-2-3-3-5-5c-8-10-11-21-13-33
		c-1-9,0-18,3-27c3-13,9-25,14-38c10-30,15-65-6-93c-10-12-23-20-33-31c-15-17-3-39,0-59c4-28-17-49-38-65c-3-3-6-5-8.5-8.7" />
        <path fill="none" stroke="#8A4E21" stroke-width="0.1" stroke-linecap="round" stroke-linejoin="round" stroke-miterlimit="10" d="
		M1584.5,158c-11.5-14-24.5-25-35.5-39c-1-2-3-5-5-7c-6-9-12-18-15-28c-10-30-34-58-66-61c-31-4-59-13-87.6-22.4" />
        <path fill="none" stroke="#8A4E21" stroke-width="0.1" stroke-linecap="round" stroke-linejoin="round" stroke-miterlimit="10" d="
		M0.5,255.1c0.7-9.2,0.7-18.5,0-27.6" />
        <path fill="none" stroke="#8A4E21" stroke-width="0.1" stroke-linecap="round" stroke-linejoin="round" stroke-miterlimit="10" d="
		M1185.6,0.6C1177,6,1171,15,1164,24c-9,14-14,27-23,41c-3,3-5,7-7,11c-1,1-2,2-3,3c-13,21-17,44-24,67c-6,22-27,34-46,44
		c-24,13-52,17-77,8c-18-7-33-20-51-26c-5-1-11,0-15,3c-2,2-4,5-3,9c4,13,14,22,25,30c1,1,1,2,2,3c16,11,29,26,33,45
		c5,28-22,41-38,59c-14,17-13,40,1,57c12,14,17,30,14,48c-3,15-4,30-1,45c5,22,22,36,34,55c7,12,8,24,6,37c-8,56,4,109,37,157
		c3,5,1,11-5,13c-9,3-18-2-26-5c-1,0-3,0-4,0c-14-6-27-12-40-19c-1-1-2-2-3-3c-29-17-55-34-78-58c-13-12-19-28-29-43
		c-33-45-94-45-141-29c-5,2-9,4-13,6c-24,8-46,17-69,28c-19,10-34,24-47,41c-12,18-29,31-49,37c-14,4-29,4-43,0c-16-6-21-25-29-40
		c-3-5-6-9-10-12c-7-4-15-3-22,0c-18,7-33,20-51,26c-49,15-95-11-137-33c-12-6-26-1-37,6c-1,1-2,2-3,3c-3,2-5,2-8,4
		c-22,16-43,33-70,31c-9-1-18-4-24-10c-14-16-16-39-8-58c18-46,37-106-7-144c-8-7-18-13-22-23c-7-17-1-35,2-53c5-32-23-51-43-72
		c-6-7-11-14-11.5-22.7" />
    </g>
    <g id="Major">
        <path fill="none" stroke="#8A4E21" stroke-width="0.8" stroke-linecap="round" stroke-linejoin="round" stroke-miterlimit="10" d="
		M1259.3,287.1l0.2,0l0.7-0.3l3-1.7l4.6-3.2l4.1-3.2l2.9-2.6l3.5-3.4l3.2-3.5l2.2-2.7l2-2.7l1.9-2.9l1.4-2.4l0.8-1.7l0.7-1.6
		l0.3-0.9l0.7-2.8l0.1-2.8l-0.2-1.8l-0.5-2.3l-0.4-1l-0.7-1.4l-0.6-0.9l-1.2-1.5l-1.5-1.5l-1.1-0.9l-2.8-2l-3.8-2l-1.4-0.6l-3.6-1.3
		l-4.3-1.2l-2.2-0.5l-3-0.5l-3-0.4l-3.6-0.2l-3.1,0l-3.2,0.2l-3.2,0.3l-2.8,0.4l-1.7,0.3l-4.9,1.1l-4.8,1.5l-3,1.1l-3,1.2l-4.4,2.1
		l-5.1,2.9l-4.2,2.8l-3.4,2.7l-3.1,2.9l-2.3,2.5l-2.6,3.3l-1,1.5l-1.4,2.5l-0.7,1.5l-0.7,2.1l-0.3,1.1l-0.4,2.5l0,1.9l0.3,2l0.5,1.8
		l1.1,2.1l1.4,2l2.9,2.8l1.8,1.4l2.2,1.5l2.6,1.4l3,1.3l2.5,0.9l4.4,1.3l4.5,1l7.9,1.2l6.8,0.5l4.6,0.1l4.2,0l4.2-0.2l3.2-0.3l2-0.3
		L1259.3,287.1" />
        <path fill="none" stroke="#8A4E21" stroke-width="0.8" stroke-linecap="round" stroke-linejoin="round" stroke-miterlimit="10" d="
		M582.4-2l-0.1,0.2l-3.6,6.4l-2,3.2l-2.7,3.9l-1.1,1.5l-3.5,4.1l-2.1,2.2l-3.5,3.2l-2.8,2.2l-3.1,2.3l-6.1,4.2L538,40.4l-3.4,2.3
		l-5.7,4.4l-3.4,2.9l-2.7,2.6l-3.7,3.8l-2.6,3l-1.9,2.5l-2.4,3.5l-2.5,4.2l-1.7,3.2l-2.2,4.8l-1.5,3.7l-0.8,2.4l-1.5,4.9l-1.8,7
		l-1.1,5.2l-2.5,12.9l-1.8,8.3l-1.2,4.4l-0.9,3l-1.5,4.1l-1,2.3l-1.2,2.5l-1.3,2.4l-1.5,2.4l-1.9,2.7l-3.1,3.9l-3.5,3.7l-3.5,3.1
		l-2.2,1.8l-4.9,3.6l-3.2,2.2l-12.6,7.9l-5.4,3.5l-7.3,5.1l-9.5,7.1l-5.7,4.1l-3.7,2.4l-2.3,1.3l-1.9,1l-3.9,1.6l-3.6,1.1l-2.4,0.5
		l-2.6,0.4l-3,0.2l-2.7-0.1l-2.7-0.3l-2.5-0.4l-2-0.5l-1.6-0.4l-4.6-1.6l-4.9-2.2l-2.8-1.5l-2.1-1.2l-3.9-2.5l-4.7-3.4l-3.7-2.8
		l-8.1-6.7l-15.9-13.8l-6.9-5.8l-5.2-4.2l-4.3-3.3l-5.5-4l-3.1-2.1l-4.6-2.9l-4.5-2.7l-5.7-3.1l-4.9-2.4l-4.6-2.2l-16.2-7l-5.7-2.6
		l-6.7-3.4l-3.1-1.8l-3.2-1.9l-2.6-1.7l-3.8-2.7l-3-2.4l-2.1-1.9l-4.5-4.4l-2.4-2.6l-4.5-5.2L226,87l-11.6-14.7l-4.7-6.1l-4.6-6.3
		l-3.6-5.4l-2.5-4.1l-2.9-5.5l-1.7-3.6l-3.2-7.3l-8.1-20.8l-3.8-9l-2.4-5" />
        <path fill="none" stroke="#8A4E21" stroke-width="0.8" stroke-linecap="round" stroke-linejoin="round" stroke-miterlimit="10" d="
		M727.5,0.7C715,7,703,15,691,24c-21,16-41,29-64,42c-19,11-34,27-43,46c-6,15-10,31-16,47c-6,15-13,29-20,44c-15,32-10,66,10,96
		c4,7,8,16,2,22c-10,8-24,6-36,5c-33-5-63-14-96-18c-6-1-12-1-18,0c-18,3-33,12-50,19c-12,4-24,6-36,2c-2-1-4-2-7-3
		c-16-7-27-19-38-33c-1-2-3-5-5-7c-15-20-18-44-26-66c-9-20-26-33-42-49c-1-1-1-3-2-4c-6-5-9-11-13-17c-14-26-27-51-39-78
		c-8-16-11-33-15-51c-2-7-5-14-8.3-20.3" />
        <path fill="none" stroke="#8A4E21" stroke-width="0.8" stroke-linecap="round" stroke-linejoin="round" stroke-miterlimit="10" d="
		M1007.3,0.6C989,13,966,11,945,8c-17-2-34-1-51,1c-17,3-33,8-51,10c-14,2-27,5-40,9c-16,5-29,12-43,21c-30,20-54,42-86,57
		c-6,4-12,7-18,12c-15,14-26,31-34,49c-1,2,0,3-1,5c-10,20-18,43-11,65c1,2,2,4,3,7c13,25,36,40,59,57c8,7,14,13,21,21
		c8,10,12,20,18,31c1,2,0,3,1,5c4,9,8,18,8,28c-7,21-34,15-51,12c-23-3-45-9-68-7c-12,1-25,3-37,5c-12,1-24-2-36-1
		c-26,2-43,21-64,35c-30,19-62,28-94,41c-13,5-28,5-41,0c-22-9-43-18-65-29s-34-33-41-55c-10-28-17-57-28-84c-8-22-11-44-16-68
		c-2-10-8-19-15-26c-8-7-15-16-19-25c-11-23-11-49-18-73c-6-18-14-34-20-52c-6-19-5-41-14.6-58.5" />
        <path fill="none" stroke="#8A4E21" stroke-width="0.8" stroke-linecap="round" stroke-linejoin="round" stroke-miterlimit="10" d="
		M1584.3,26.2C1578,16.7,1570.6,8,1562,0.5" />
        <path fill="none" stroke="#8A4E21" stroke-width="0.8" stroke-linecap="round" stroke-linejoin="round" stroke-miterlimit="10" d="
		M1074.6,0.6C1067,9,1060,17,1051,25c-2,1-5,3-7,5c-21,15-46,17-70,15c-11-2-23-2-34-2c-41-1-81,6-121,19c-8,3-15,6-22,11
		c-1,1-2,2-3,3c-2,1-5,2-7,4c-21,18-36,40-61,52c-4,2-6,5-10,7c-3,1-5,2-8,4c-9,7-17,13-24,22c-13,18-24,38-22,61c2,13,9,22,18,31
		c9,8,19,12,30,16c14,4,29,8,42,16c7,5,12,12,13,21c1,13-2,26,0,40c1,8,5,15,8,22c4,7,9,13,14,19c10,11,21,21,32,32c7,7,14,15,18,24
		c2,5,4,12,0,17c-1,1-2,2-3,3c-2,0-5,2-7,2c-22-1-44-5-67-8c-5,0-9-1-14-1c-31-4-61-12-92-9c-12,1-23,6-33,14c-17,15-34,35-59,32
		c-18-3-35-8-54-5c-42,7-77,27-116,42c-15,5-29,9-45,8c-8-1-15-2-22-5c-27-12-51-36-83-31c-12,2-22,4-34,3c-10-2-15-12-16-22
		c0-12,1-25,0-37c-1-8-3-16-7-24c-14-25-18-52-27-78c-8-26-23-49-34-74c-8-19-16-37-25-56c-6-14-10-27-11-42c-2-37-3-75-16-110
		c-6-14-4-30-9-45c-2-7-4-15-9.7-20.4" />
        <path fill="none" stroke="#8A4E21" stroke-width="0.8" stroke-linecap="round" stroke-linejoin="round" stroke-miterlimit="10" d="
		M1584.3,86.5c-10-16.3-16.4-34.7-27.7-50.3c-10.8-15-25.6-27.5-42.2-35.7" />
        <path fill="none" stroke="#8A4E21" stroke-width="0.8" stroke-linecap="round" stroke-linejoin="round" stroke-miterlimit="10" d="
		M1119.6,0.5C1111,13,1105,25,1096,37c-9,11-18,20-29,30c-14,12-30,22-49,23c-63,2-133-20-189,23c-2,2-3,4-5,6c-3,2-6,5-9,8
		c-8,9-14,18-23,26c-9,7-20,10-30,14c-1,0-2,2-3,2c-20,7-45,21-46,45c0,8,4,15,10,20c30,23,68,18,104,24c16,3,40,8,38,27
		c-1,22-26,30-42,42c-9,8-18,17-17,29c1,21,17,35,35,47c2,2,3,3,5,5c6,4,12,8,18,12c1,1,1,2,2,3c13,9,22,20,28,34c2,6,5,13,7,19
		c6,13,10,25,16,38c1,4,3,8,3,12c0,15-16,21-30,19c-2,0-5-2-7-2c-8,0-16-2-24-4c-13-4-24-10-37-15c-10-4-18-10-28-13
		c-39-13-82-16-121-4c-34,17-66,34-99,54c-7,4-15,6-23,7c-7,1-14-1-20-3c-17-7-32-18-51-19c-22,0-43,6-63,13c-12,5-24,10-36,14
		c-3,2-7,4-10,6c-1,1-3,0-4,1c-16,9-36,13-53,5c-13-5-23-16-35-25c-8-6-16-10-26-11c-12-1-23,2-34,6c-16,7-32,19-50,17
		c-8-1-13-8-15-16c0-4-2-7-2-11c-1-33,5-67-8-98c-6-12-14-23-17-36c-6-21-5-43-12-64c-3-10-7-18-13-27C52,251,55,172,44,94
		c-2-21-6-41-13-60c-2-4-5-9-8-13c-2-1-3-3-5-5C13,12,7,9,0.9,8" />
        <path fill="none" stroke="#8A4E21" stroke-width="0.8" stroke-linecap="round" stroke-linejoin="round" stroke-miterlimit="10" d="
		M1584.1,133.9c-13.9-17-26.3-34.5-35.7-54.4c-8.8-18.4-18-35.5-34-48.7c-11.3-9.3-24.5-15.9-38.5-20.3c-15.4-4.8-31.4-6.3-47-10" />
        <path fill="none" stroke="#8A4E21" stroke-width="0.8" stroke-linecap="round" stroke-linejoin="round" stroke-miterlimit="10" d="
		M1156.8,0.9c-13.2,16.9-22.6,36.5-35.3,53.8c-12.6,17.2-26.6,33.5-36.4,52.5c-9.1,17.5-14.9,36.6-30.4,49.8
		c-15,12.7-34.4,16.9-53.3,11.4c-20.2-5.9-37.1-19.5-56.1-28c-18.3-8.2-40.3-13.3-59.8-6.5c-18.2,6.3-27.5,21.8-32.4,39.7
		c-2.4,8.8-5.5,20-0.6,28.5c3.8,6.6,10.8,10.6,17.7,13.5c15.7,6.6,32.1,10.2,46.3,20c7.7,5.3,15,12.3,18.1,21.3
		c3.2,9.1,1.2,18.8-3.2,27.1c-5,9.4-12.2,17.8-18.9,26c-6.9,8.5-14,16.8-20.8,25.4c-10,12.7-25.9,30.3-12.3,46
		c10.8,12.6,29.3,15.6,39.3,29.2c12.6,17.1,7.4,41.2,12.9,60.8c5.7,20.3,19.9,36.4,29.2,55c4.4,8.9,7.5,18.4,8.5,28.2
		c1.1,11.2,0.3,22.6-0.1,33.9c-0.4,10.3-0.4,20.5-0.4,30.8c0,9.4-0.4,19.2-4,28c-6.6,16.1-22.9,12.7-35.4,5.8
		c-16.3-9-28.9-23.2-38.8-38.7c-5.3-8.3-10.4-16.8-16.8-24.4c-6.6-7.8-14.7-14-23.5-19.1c-18.3-10.7-39.3-18.2-59.7-23.7
		c-21.7-5.9-44.1-7.5-66.3-3.9c-22.1,3.5-42.5,12.5-63,21c-20,8.4-40.9,15.3-59.1,27.3c-17,11.3-29.5,26.6-43.5,41.1
		c-11.6,11.9-27.7,25.4-45.7,20.9c-18.4-4.7-21.6-26.1-29.7-40.4c-9.6-17-27.5-22.9-46.1-20.4c-20.6,2.7-38.8,13.6-55.5,25.2
		c-17.3,12.1-34.5,22.9-56.3,23.3c-19.9,0.4-38.5-7.3-53.4-20.2c-13-11.2-24.5-26.7-43.6-25.5c-20.2,1.3-38.5,16.1-55,26.5
		c-13.2,8.3-30.8,19.4-47.3,14.9c-19.3-5.4-17.7-29.6-14.5-45c4.5-21.5,10.8-42.8,11.7-64.9c0.9-21.3-3.5-42.2-14.6-60.4
		c-9.7-15.9-24.6-29.2-28-48.3c-1.9-10.7-0.1-21.8,0.4-32.5c0.5-10.9-0.6-21.4-4.6-31.6c-7.3-18.4-22.1-31.8-32-48.6
		c-11.3-19-10-40.5-12.9-61.7c-3.1-22.5-9.8-44.3-11.7-67c-3.2-38.7,1.3-80-19-115" />
        <polyline fill="none" stroke="#8A4E21" stroke-width="0.8" stroke-linecap="round" stroke-linejoin="round" stroke-miterlimit="10" points="
		1584.6,173 1581.9,170.7 1576.9,166 1571.3,160.4 1557.6,145.8 1552.9,140.9 1537.9,126.2 1533.7,121.9 1530.8,118.7 1528.4,116 
		1526.2,113.2 1523.6,109.6 1521.9,107 1520.1,103.7 1518.1,99.5 1516.7,96.2 1514.8,91.1 1510.9,78.7 1509.5,74.8 1508,70.9 
		1505.6,65.7 1503,61 1501.5,58.6 1498.5,54.7 1496.8,52.6 1493.6,49.3 1491,47 1487.6,44.2 1485.2,42.5 1482.8,41 1478.9,38.7 
		1473.8,36.3 1468.8,34.4 1463.6,32.8 1457.1,31.3 1451,30.3 1443.8,29.4 1429.1,28 1423.9,27.3 1419.7,26.7 1412.1,25.1 
		1407.2,23.9 1401,22 1393.8,19.5 1377,13.2 1367.9,10 1360.2,7.5 1350.4,4.6 1342.8,2.7 1332.8,0.6 1326.4,-0.6 	" />
        <polyline fill="none" stroke="#8A4E21" stroke-width="0.8" stroke-linecap="round" stroke-linejoin="round" stroke-miterlimit="10" points="
		1221.2,-0.6 1217.7,0.4 1213.2,1.8 1210.2,2.9 1206.6,4.4 1203.1,6.1 1201.1,7.2 1198.8,8.5 1195.8,10.6 1191.9,13.5 1188.9,16.2 
		1186.7,18.3 1184.6,20.5 1181,25 1178.2,28.8 1176.6,31 1172.4,37.8 1167,47.4 1156.8,66.9 1149.9,80.8 1146.3,88.8 1143.7,95.7 
		1142.1,100.7 1141.1,104.6 1140,109.8 1139.2,115 1138.8,118.1 1137.1,136.7 1136.6,140.6 1135.4,146.1 1134.5,149.4 1133.6,151.9 
		1132.7,154.2 1130.1,159.1 1127.8,162.6 1125.1,166 1122.5,169 1119.2,172.1 1114.5,176.1 1108.7,180.4 1103.9,183.6 1097.5,187.4 
		1090.2,191.4 1082.7,195.3 1074.4,199.3 1067.5,202.3 1060.2,205.4 1049.3,209.5 1026.9,217.1 1023.3,218.4 1017.2,220.9 
		1014.5,222.1 1010.4,224.4 1007.2,226.6 1005.5,227.9 1004.3,229.2 1003.2,230.3 1001.7,232.2 1000.4,234.4 999.7,235.7 
		998.7,238.4 997.8,241.2 997.4,243.6 997.1,245.5 996.9,248.7 996.8,252 996.9,257.4 997.4,267.3 997.5,271.8 997.3,277.5 
		997,281.3 996.2,285.7 995.7,287.5 994.9,290.3 994.1,292.3 992,296.5 990.5,299.1 988.4,301.9 985.3,305.4 981.8,308.9 
		968.5,320.5 964.3,324.7 961.7,327.6 959.2,331.2 958.5,332.2 957.5,334 956.6,335.8 955.2,339.7 954.2,343.9 953.9,346.8 
		953.8,349 954,351.8 954.3,354.7 954.9,357.6 955.4,359.8 956.1,362.2 958.1,367.7 964.8,383.4 967,389.2 968.2,393.1 969.1,397.2 
		969.4,398.6 970,402.9 970.2,406.9 970.1,410.8 969.9,412.9 969.3,417.4 968.1,424 965.7,434.8 964.8,439.5 964.3,443.1 
		963.9,446.6 963.6,452.2 963.7,456.5 964,460.7 964.7,465.5 965.5,469.1 966.6,472.8 967.9,476.5 969.9,481.4 972.3,486.1 
		974.7,490.3 976,492.3 980.3,498.4 984.1,503.3 993.6,515.3 996.8,519.5 998.6,522.2 1000.6,525.3 1002.1,528.1 1003.5,531 
		1004.7,533.9 1005.5,536 1006.2,538.4 1007.1,543.2 1007.5,546.9 1007.6,552.1 1007.3,556.5 1006.8,560.5 1003.8,579.7 
		1003.3,583.8 1002.8,589.1 1002.4,596.4 1002.4,603.6 1002.7,611.1 1003.2,617.1 1004.4,625.9 1005,629.9 1006.8,638.5 
		1008.9,646.6 1011,653.3 1013.4,660 1016.4,667 1017.7,670 1019.9,674.1 1021.9,677.7 1024.2,681.3 1026.3,684.3 1028.4,687.2 
		1031.8,691.3 1033.9,693.5 1037.6,697.1 1039.3,698.6 1043.7,702.2 1047.3,704.8 1051.1,707.2 1053.4,708.5 1056.5,710.1 
		1061.3,712.4 1068,715.1 1074.2,717.1 1081,718.9 1085.2,719.7 1090,720.5 1097.3,721.5 1115.1,723.1 1121.2,723.8 1126.8,724.6 
		1131.4,725.5 1134.9,726.4 1138.3,727.3 1142.9,728.9 1147,730.7 1149.1,731.7 1152.5,733.6 1155.8,735.6 1157.7,736.9 1161,739.4 
		1164.6,742.6 1168.5,746.4 1170.9,749.1 1173,751.7 1175.1,754.4 1177.1,757.3 1178.9,760.1 1180.8,763.3 1183,767.5 1184.9,771.9 
		1186,774.6 1187.5,779.2 1188.7,784 1189.5,788 1190,792.6 	" />
        <polyline fill="none" stroke="#8A4E21" stroke-width="0.8" stroke-linecap="round" stroke-linejoin="round" stroke-miterlimit="10" points="
		1096.5,792.6 1096.2,792.1 1095.2,790.2 1093.2,787.3 1090.1,783.5 1088.1,781.5 1085.1,778.8 1081.8,776.3 1079.4,774.7 
		1074.7,772 1071.7,770.5 1067.9,768.9 1063.3,767.3 1058.4,765.7 1053.5,764.4 1048.7,763.2 1030.4,758.8 1024.2,757.2 
		1018.5,755.6 1006.8,752.1 997.8,749 991.1,746.5 983.2,743.4 976.2,740.5 967.5,736.7 960.2,733.4 955.5,731 949.8,728.2 
		944,724.9 940.9,723 935.7,719.8 932,717.2 927.1,713.8 920.5,708.8 905.3,697 895.9,690.2 889,685.4 876.3,676.9 867.5,670.7 
		862.2,666.6 857.8,663 855.7,661 852.5,658 848.4,653.7 844.7,649.4 841.8,645.5 838.8,641.4 835.7,636.8 825,620.5 823,617.6 
		819.9,613.5 816.1,609 812.7,605.5 810.3,603.2 806.2,599.8 803.2,597.7 799.9,595.6 796.3,593.7 792.6,591.9 789.4,590.6 
		785.2,589.1 781.8,588.1 778.4,587.2 774.7,586.5 769.5,585.6 765.7,585.2 761.9,584.9 755.6,584.6 751.4,584.6 747.1,584.7 
		740.5,585.2 733.5,586.1 727.5,587.1 721.2,588.5 714.7,590.4 709.9,591.9 705.3,593.6 700.8,595.3 693.8,598.2 679.1,604.6 
		672.2,607.4 646.9,617.2 636.3,621.6 631.4,623.8 625.9,626.6 620.8,629.4 616.8,631.8 611.9,635 608.2,637.8 603.8,641.2 
		600.2,644.4 597.1,647.2 592.6,651.5 588.7,655.7 582,663 568.1,679 563,684.3 560.2,687 557.2,689.6 553.2,692.8 549,695.7 
		545.5,697.7 541.9,699.5 539.5,700.6 536.7,701.6 532.7,703 527.7,704.3 522.7,705.4 514.6,707 501.7,709.1 493.4,710.3 
		487.4,711.1 482.5,711.6 478.7,711.9 474.6,712 471.6,711.9 468.6,711.7 466.3,711.4 462.5,710.6 459.8,709.9 457.1,709 
		454.1,707.6 451,706 448.9,704.7 445.7,702.5 442.8,700.3 434.8,693.7 431.6,691.2 429.1,689.3 426.3,687.6 423,685.7 419.6,684.2 
		416.9,683.3 413.2,682.3 410.3,681.8 407.3,681.4 403.6,681.2 400.1,681.1 394.3,681.2 376.8,682.4 368.4,682.7 362,682.7 
		357.3,682.6 348.1,682.2 339.3,681.4 331.3,680.4 326.7,679.8 316.6,678 309.7,676.6 304.5,675.3 297.7,673.6 289.1,671 283.4,669 
		275.5,665.9 270.1,663.6 265.3,661.4 248.6,653.3 246,652.1 240.5,649.8 236.2,648.2 231.7,646.9 228.9,646.4 225.6,645.9 
		220.9,645.8 216.3,646.2 212.3,647 208.6,648.2 206.1,649.1 201.6,651.1 196.9,653.7 190.9,657.3 179.2,664.9 172.7,669.1 
		168.6,671.6 160.5,676.1 154,679.4 145.9,683 141.5,684.8 137.8,686.2 133.3,687.7 128.9,689.1 122.4,690.6 116.8,691.5 
		112.3,691.9 109.8,691.9 108,691.9 103.7,691.5 101.9,691.3 98.3,690.5 94.1,689.2 91.1,688 86.5,685.5 82.9,683 79.6,680.1 
		77.5,677.9 75.5,675.7 72.9,672.1 71.3,669.7 69.8,667 68.4,664.3 66.7,660.3 65.4,656.9 64.2,653.5 63.1,649.4 62.2,645.3 
		61.5,641.1 60.8,635.4 60.6,632.6 60.5,626.5 60.6,623.9 61.1,618.3 62,612.9 63.3,607.6 65,602.4 67.1,597.1 68.5,593.7 76,577.3 
		78.3,571.7 79.5,568.6 80.7,565 82.1,560.1 83.4,555.2 84.1,551.7 84.9,547.1 85.6,542.1 86.1,537.1 86.4,531.6 86.5,528 
		86.4,522.5 86.1,517 85.7,513.4 84.9,508.1 84,503.8 83,500.2 81.8,496.6 80.1,492.8 78.9,490.3 76.5,486.2 74.9,483.9 72,480.1 
		68.4,476.2 66.5,474.4 63,471.3 57.2,466.9 43.4,457.2 41,455.4 38.8,453.5 35.9,450.7 33.5,447.8 32.3,445.9 31.7,444.8 30.8,443 
		30.3,441.4 29.4,438 29.1,436.5 28.9,433.7 28.9,430.5 29.1,427.8 29.5,425.1 30.3,421.1 31,418.1 32,414.4 35.8,401.6 36.9,397.3 
		37.8,393.1 38.2,390.9 38.6,388.3 38.8,385.3 38.9,380.5 38.8,377.3 38.4,374.4 37.9,371.8 37.3,369.6 36.2,366.1 34.8,362.7 
		34,361.2 31.5,356.8 29,353.2 26.3,349.9 22.4,345.6 18.4,342 14.6,338.7 2,328.7 -0.6,326.5 	" />
        <path fill="none" stroke="#8A4E21" stroke-width="0.8" stroke-linecap="round" stroke-linejoin="round" stroke-miterlimit="10" d="
		M323.9,791.4c-3.5-14.9-22.7-21.5-35.7-24.9c-14.7-3.9-30.1-5.1-45.2-3.2c-14.5,1.7-28.6,5.8-42.9,8.3
		c-15.8,2.8-31.6,5.4-46.9,10.3c-9.2,2.9-18.2,6.3-27.3,9.5" />
        <path fill="none" stroke="#8A4E21" stroke-width="0.8" stroke-linecap="round" stroke-linejoin="round" stroke-miterlimit="10" d="
		M908.8,791.5C895,781,881,772,866,761c-7-5-14-9-22-12c-18-6-36-11-53-20c-24-12-44-33-73-30c-20,3-38,9-56,21c-15,11-24,25-37,38
		c-23,22-55,15-83,22c-8,3-17,6-24.3,11.4" />
        <path fill="none" stroke="#8A4E21" stroke-width="0.8" stroke-linecap="round" stroke-linejoin="round" stroke-miterlimit="10" d="
		M376.7,791.2C371,772,357,756,338,751c-35-11-68-26-104-22c-27,3-52,10-78,18c-32,10-62,24-95,27c-14,1-28-3-39-12
		c-11-10-18-23-21.4-36.7" />
        <path fill="none" stroke="#8A4E21" stroke-width="0.8" stroke-linecap="round" stroke-linejoin="round" stroke-miterlimit="10" d="
		M989.9,791.3C968,776,944,768,920,752c-30-19-55-40-87-57c-7-5-14-10-20-16c-12-12-21-25-35-36c-12-9-27-11-42-9c-11,2-22,7-32,12
		c-2,1-3,0-5,1c-3,1-5,3-8,4s-6,1-9,3c-2,1-3,1-5,1c-1,1-3,2-4,2c-18,4-35,8-50,20c-12,11-20,24-29,37c-6,8-12,15-20,19
		c-15,7-31,8-47,10c-8,1-16,4-23,7c-12,6-22,15-32,24c-10,8-21,15-34,11c-9-3-15-8-21-16c-8-11-15-20-25-29s-22-12-34-16
		c-41-11-79-25-121-34c-7-2-15-1-22,1c-48,15-90,49-143,39c-1,0-2-2-3-2c-13-3-21-11-29-21c-1-1,0-2-1-3c-12-15-16-33-19-52
		c-3-16-3-33,3-48c10-24,29-45,26-72c-1-9-5-18-12-25c-10-8-23-12-36.3-11.5" />
        <path fill="none" stroke="#8A4E21" stroke-width="0.8" stroke-linecap="round" stroke-linejoin="round" stroke-miterlimit="10" d="
		M1585.4,210.9c-17.9-10-32.9-24.2-48.7-37.1c-8.7-7.1-18-12.6-27.8-18c-8.9-4.8-18.3-9.6-25.5-16.9c-6.6-6.6-10.6-14.8-12.5-23.9
		c-2.1-10.3-1.3-20.9-3.2-31.1c-1.5-8.2-7.7-14.7-15.1-18.2c-9.3-4.4-20.9-3.8-31-4.9c-21.4-2.5-38.6-14.7-58.1-22.6
		c-18.7-7.6-38.5-12.5-58.6-14.1c-20-1.5-40.3,0.4-59.6,6.2c-17.8,5.4-31.8,17.3-38.9,34.7c-8.4,20.9-2.8,43.1,1.9,64.1
		c2.1,9.3,4.1,18.9,1.8,28.3c-2.3,9.2-9.6,15.8-16.2,22.1c-13.4,12.6-29.1,22.8-45.9,30.2c-17.4,7.7-35.8,11.2-53.8,16.8
		c-9,2.8-17.8,6.3-25.8,11.4c-7.7,4.9-15.7,11.5-18.8,20.3c-6.5,18.4,6,36.1,15.6,50.8c8.3,12.8,19.7,31.1,7.6,44.9
		c-5,5.7-11.7,9.6-18,13.6c-3.3,2.1-6.5,4-6.7,8.3c-0.1,4.1,2.3,7.5,5.2,10.1c6.7,6.1,14,11.7,19.9,18.7c5.4,6.4,13,18,4.3,24.9
		c-7.6,6-19.1,5.5-28.3,5.8c-9.9,0.3-19.9,0.6-29,5c-16.6,8.1-15.1,27.1-6,40.5c8.4,12.4,22.5,19.3,35.9,25
		c13.5,5.7,33.8,10,38.5,26.1c2.8,9.5-3.4,17.8-8.8,25.1c-5.8,7.9-12.9,15.4-17.1,24.4c-8.3,17.9-0.7,40.8,15.4,51.4
		c17.2,11.3,37.4,9.9,57,11.9c39.5,4,76.5,19.8,110.4,40.1c17.4,10.4,33.8,22.3,49.8,34.5c14.4,11.1,26.2,25.4,34.6,41.5
		c5,9.6,8.7,19.7,11.2,30.2" />
        <path fill="none" stroke="#8A4E21" stroke-width="0.8" stroke-linecap="round" stroke-linejoin="round" stroke-miterlimit="10" d="
		M1585.4,561.7C1575,541,1558,525,1537,512c-12-7-23-17-29-31c-12-29-2-58,3-88c2-15-2-29-13-40c-8-7-20-8-25,0c-11,17-9,35-12,54
		c-7,38-30,67-46,100c-4,10-8,21-6,32c3,13,10,24,19,34c20,21,43,38,57,64c1,2,4,3,5,5c11,20,18,40,28,60c1,2,0,3,1,5
		c7,17,14,34,17,52c1,11,0,21-1,32.3" />
        <path fill="none" stroke="#8A4E21" stroke-width="0.8" stroke-linecap="round" stroke-linejoin="round" stroke-miterlimit="10" d="
		M1585.2,503.9C1572,493,1560,481,1552,466c-5-12-4-25-1-38c6-19,14-37,10-57c-3-20-11-38-11-58c-1-14-3-27-11-39c-5-6-11-12-17-18
		c-8-11-15-22-23-34c-6-8-11-15-18-21c-33-24-71-33-107-48c-9-4-14-12-17-21c-6-20-3-42-18-58c-2-1-3-3-5-5c-14-13-37-14-52-2
		c-20,17-8,46,6,63c10,12,18,23,27,36c10,16,11,33,7,52c-4,24,10,42,25,59c5,7,9,14,13,21c1,2,2,5,3,7c12,37,8,75-5,111
		c-4,10-10,19-16,28c-16,20-36,32-56,47c-1,1-1,2-2,3c-5,3-8,7-12,11c-1,1-2,1-3,2c-17,20-26,47-17,72c5,13,13,24,25,32c1,1,1,2,2,3
		c8,5,16,10,24,14c2,1,3,0,5,1c18,8,38,12,56,21c11,5,22,14,27,26c5,13,9,26,15,39c10,26,25,50,36.4,76.4" />
    </g>
    <g id="Trail">
        <path fill="none" stroke="#74431f" stroke-width="3" stroke-linecap="square" stroke-linejoin="round" stroke-miterlimit="10" stroke-dasharray="5" d="M1169.7 791.5C1162 784 1157 775 1150 767c-10-10-23-12-35-19 -5-3-7-10-13-13 -3-2-7-2-10-3 -5 0-10 0-15-1 -11-3-22-4-33-8 -12-5-23-10-33-18 -7-6-11-14-15-22 -1-1-2-2-3-3 -2-3-2-5-4-8 -1-1-2-2-3-3 -1-2-2-5-4-7 -18-16-21-39-25-61 -5-5-8-11-12-17 -1-3-2-7-3-10 0-8 1-16-2-24 -1-2-3-4-4-7 -2-5-3-11-5-16 -2-6-8-9-12-13 -10-8-21-16-34-19 -2-1-5-4-6-7 -5-13-11-25-14-40 -1-2-2-4-3-5 -11-7-18-16-27-25 -1-1-3-1-4-2 -19-18-41-30-63-45 -13-9-11-25-1-35 12-10 26-17 37-29 3-3 6-8 4-12 -3-6-10-9-17-11 -27-8-53-13-81-20 -6-2-11-5-16-8 -1-1-2-2-3-3 -8-4-15-10-19-18 -3-8-5-16-4-25 2-20 15-33 26-50 2-1 3-3 5-5 21-14 41-26 60-42 11-10 18-21 29-31 6-5 12-9 18-13 5-3 10-5 15-9 7-4 14-6 21-7 20-1 40 0 59-8 12-4 25-7 38-5 9 2 17 5 25 6 23 1 46 2 68-5 6-2 13-5 18-9 11-10 21-19 29.5-31.4M1571.9 0.5c5.8 4.4 11.1 11.7 14.1 18.3M0.6 206.3C14 208 27 211 41 210c41-5 80-14 121-20 22-4 43-6 64-7 37-2 73 2 110 4 27 2 53 6 80 9 3 0 6 2 9 2 20 2 40 4 60 5 61 1 123-1 184.1 2.8M179.8 187.2l0 42.8 17.2 47.6 31.5 43.3 44.1 29.9 52.6 15.4 40 5.2 37.3 7.7 31.8 25.3 49.1 17.7 79.7 6.1 48.7-7.6 43-25.6 45-6.4 28.7-11.6 34.4-12.2"/>
    </g>
    <g id="MajorText">
        <text transform="matrix(-0.2714 0.9625 -0.9625 -0.2714 1204.3317 62.5424)" fill="#8A4E21" font-family="'ArialMT'" font-size="8">7</text>
        <text transform="matrix(-0.2714 0.9625 -0.9625 -0.2714 1203.1227 66.8246)" fill="#8A4E21" font-family="'ArialMT'" font-size="8">6</text>
        <text transform="matrix(-0.2714 0.9625 -0.9625 -0.2714 1201.9156 71.1069)" fill="#8A4E21" font-family="'ArialMT'" font-size="8">0</text>
        <text transform="matrix(-0.2714 0.9625 -0.9625 -0.2714 1200.7086 75.3891)" fill="#8A4E21" font-family="'ArialMT'" font-size="8">0</text>
        <text transform="matrix(-0.444 0.896 -0.896 -0.444 1167.4938 41.2566)" fill="#8A4E21" font-family="'ArialMT'" font-size="8">7</text>
        <text transform="matrix(-0.444 0.896 -0.896 -0.444 1165.5172 45.2429)" fill="#8A4E21" font-family="'ArialMT'" font-size="8">5</text>
        <text transform="matrix(-0.444 0.896 -0.896 -0.444 1163.5406 49.2298)" fill="#8A4E21" font-family="'ArialMT'" font-size="8">0</text>
        <text transform="matrix(-0.444 0.896 -0.896 -0.444 1161.566 53.2161)" fill="#8A4E21" font-family="'ArialMT'" font-size="8">0</text>
        <text transform="matrix(-0.5428 0.8399 -0.8399 -0.5428 1138.0914 24.5945)" fill="#8A4E21" font-family="'ArialMT'" font-size="8">7</text>
        <text transform="matrix(-0.5428 0.8399 -0.8399 -0.5428 1135.6754 28.3313)" fill="#8A4E21" font-family="'ArialMT'" font-size="8">4</text>
        <text transform="matrix(-0.5428 0.8399 -0.8399 -0.5428 1133.2614 32.0681)" fill="#8A4E21" font-family="'ArialMT'" font-size="8">0</text>
        <text transform="matrix(-0.5428 0.8399 -0.8399 -0.5428 1130.8473 35.8049)" fill="#8A4E21" font-family="'ArialMT'" font-size="8">0</text>
        <text transform="matrix(-0.5421 0.8403 -0.8403 -0.5421 1110.5098 9.3035)" fill="#8A4E21" font-family="'ArialMT'" font-size="8">7</text>
        <text transform="matrix(-0.5421 0.8403 -0.8403 -0.5421 1108.0977 13.0422)" fill="#8A4E21" font-family="'ArialMT'" font-size="8">3</text>
        <text transform="matrix(-0.5421 0.8403 -0.8403 -0.5421 1105.6855 16.781)" fill="#8A4E21" font-family="'ArialMT'" font-size="8">0</text>
        <text transform="matrix(-0.5421 0.8403 -0.8403 -0.5421 1103.2734 20.5198)" fill="#8A4E21" font-family="'ArialMT'" font-size="8">0</text>
        <text transform="matrix(0.6832 0.7302 -0.7302 0.6832 1436.9833 585.189)" fill="#8A4E21" font-family="'ArialMT'" font-size="8">7</text>
        <text transform="matrix(0.6832 0.7302 -0.7302 0.6832 1440.0233 588.4377)" fill="#8A4E21" font-family="'ArialMT'" font-size="8">8</text>
        <text transform="matrix(0.6832 0.7302 -0.7302 0.6832 1443.0624 591.6865)" fill="#8A4E21" font-family="'ArialMT'" font-size="8">0</text>
        <text transform="matrix(0.6832 0.7302 -0.7302 0.6832 1446.1024 594.9353)" fill="#8A4E21" font-family="'ArialMT'" font-size="8">0</text>
        <text transform="matrix(0.7554 0.6553 -0.6553 0.7554 1367.9543 655.0982)" fill="#8A4E21" font-family="'ArialMT'" font-size="8">7</text>
        <text transform="matrix(0.7554 0.6553 -0.6553 0.7554 1371.3157 658.0137)" fill="#8A4E21" font-family="'ArialMT'" font-size="8">7</text>
        <text transform="matrix(0.7554 0.6553 -0.6553 0.7554 1374.676 660.9293)" fill="#8A4E21" font-family="'ArialMT'" font-size="8">0</text>
        <text transform="matrix(0.7554 0.6553 -0.6553 0.7554 1378.0374 663.8448)" fill="#8A4E21" font-family="'ArialMT'" font-size="8">0</text>
        <text transform="matrix(-0.8344 0.5511 -0.5511 -0.8344 718.5842 134.1986)" fill="#8A4E21" font-family="'ArialMT'" font-size="8">7</text>
        <text transform="matrix(-0.8344 0.5511 -0.5511 -0.8344 714.8733 136.6497)" fill="#8A4E21" font-family="'ArialMT'" font-size="8">2</text>
        <text transform="matrix(-0.8344 0.5511 -0.5511 -0.8344 711.1604 139.1019)" fill="#8A4E21" font-family="'ArialMT'" font-size="8">0</text>
        <text transform="matrix(-0.8344 0.5511 -0.5511 -0.8344 707.4475 141.554)" fill="#8A4E21" font-family="'ArialMT'" font-size="8">0</text>
        <text transform="matrix(-0.8663 0.4996 -0.4996 -0.8663 702.5244 86.6765)" fill="#8A4E21" font-family="'ArialMT'" font-size="8">7</text>
        <text transform="matrix(-0.8663 0.4996 -0.4996 -0.8663 698.6708 88.9001)" fill="#8A4E21" font-family="'ArialMT'" font-size="8">1</text>
        <text transform="matrix(-0.8663 0.4996 -0.4996 -0.8663 694.8173 91.1228)" fill="#8A4E21" font-family="'ArialMT'" font-size="8">0</text>
        <text transform="matrix(-0.8663 0.4996 -0.4996 -0.8663 690.9619 93.3454)" fill="#8A4E21" font-family="'ArialMT'" font-size="8">0</text>
        <text transform="matrix(-0.3649 -0.931 0.931 -0.3649 1512.192 76.658)" fill="#8A4E21" font-family="'ArialMT'" font-size="8">7</text>
        <text transform="matrix(-0.3649 -0.931 0.931 -0.3649 1510.5685 72.5154)" fill="#8A4E21" font-family="'ArialMT'" font-size="8">5</text>
        <text transform="matrix(-0.3649 -0.931 0.931 -0.3649 1508.9449 68.3728)" fill="#8A4E21" font-family="'ArialMT'" font-size="8">0</text>
        <text transform="matrix(-0.3649 -0.931 0.931 -0.3649 1507.3214 64.2302)" fill="#8A4E21" font-family="'ArialMT'" font-size="8">0</text>
        <text transform="matrix(-0.6356 -0.772 0.772 -0.6356 1538.6262 53.6391)" fill="#8A4E21" font-family="'ArialMT'" font-size="8">7</text>
        <text transform="matrix(-0.6356 -0.772 0.772 -0.6356 1535.7986 50.2055)" fill="#8A4E21" font-family="'ArialMT'" font-size="8">4</text>
        <text transform="matrix(-0.6356 -0.772 0.772 -0.6356 1532.9705 46.77)" fill="#8A4E21" font-family="'ArialMT'" font-size="8">0</text>
        <text transform="matrix(-0.6356 -0.772 0.772 -0.6356 1530.1423 43.3344)" fill="#8A4E21" font-family="'ArialMT'" font-size="8">0</text>
        <text transform="matrix(-0.6575 -0.7535 0.7535 -0.6575 1560.0969 35.2648)" fill="#8A4E21" font-family="'ArialMT'" font-size="8">7</text>
        <text transform="matrix(-0.6575 -0.7535 0.7535 -0.6575 1557.1721 31.9133)" fill="#8A4E21" font-family="'ArialMT'" font-size="8">3</text>
        <text transform="matrix(-0.6575 -0.7535 0.7535 -0.6575 1554.2468 28.5598)" fill="#8A4E21" font-family="'ArialMT'" font-size="8">0</text>
        <text transform="matrix(-0.6575 -0.7535 0.7535 -0.6575 1551.3215 25.2082)" fill="#8A4E21" font-family="'ArialMT'" font-size="8">0</text>
        <text transform="matrix(-0.6545 -0.7561 0.7561 -0.6545 1581.6844 16.915)" fill="#8A4E21" font-family="'ArialMT'" font-size="8">7</text>
        <text transform="matrix(-0.6545 -0.7561 0.7561 -0.6545 1578.7723 13.5517)" fill="#8A4E21" font-family="'ArialMT'" font-size="8">2</text>
        <text transform="matrix(-0.6545 -0.7561 0.7561 -0.6545 1575.8602 10.1864)" fill="#8A4E21" font-family="'ArialMT'" font-size="8">0</text>
        <text transform="matrix(-0.6545 -0.7561 0.7561 -0.6545 1572.9481 6.8232)" fill="#8A4E21" font-family="'ArialMT'" font-size="8">0</text>
        <text transform="matrix(-0.9816 0.1908 -0.1908 -0.9816 194.03 769.6147)" fill="#8A4E21" font-family="'ArialMT'" font-size="8">7</text>
        <text transform="matrix(-0.9816 0.1908 -0.1908 -0.9816 189.6609 770.4634)" fill="#8A4E21" font-family="'ArialMT'" font-size="8">8</text>
        <text transform="matrix(-0.9816 0.1908 -0.1908 -0.9816 185.2937 771.313)" fill="#8A4E21" font-family="'ArialMT'" font-size="8">0</text>
        <text transform="matrix(-0.9816 0.1908 -0.1908 -0.9816 180.9265 772.1616)" fill="#8A4E21" font-family="'ArialMT'" font-size="8">0</text>
        <text transform="matrix(-0.9669 0.2552 -0.2552 -0.9669 190.0605 735.002)" fill="#8A4E21" font-family="'ArialMT'" font-size="8">7</text>
        <text transform="matrix(-0.9669 0.2552 -0.2552 -0.9669 185.7597 736.1377)" fill="#8A4E21" font-family="'ArialMT'" font-size="8">7</text>
        <text transform="matrix(-0.9669 0.2552 -0.2552 -0.9669 181.457 737.2725)" fill="#8A4E21" font-family="'ArialMT'" font-size="8">0</text>
        <text transform="matrix(-0.9669 0.2552 -0.2552 -0.9669 177.1562 738.4082)" fill="#8A4E21" font-family="'ArialMT'" font-size="8">0</text>
        <text transform="matrix(-0.9276 0.3737 -0.3737 -0.9276 185.6611 699.4317)" fill="#8A4E21" font-family="'ArialMT'" font-size="8">7</text>
        <text transform="matrix(-0.9276 0.3737 -0.3737 -0.9276 181.5342 701.0938)" fill="#8A4E21" font-family="'ArialMT'" font-size="8">6</text>
        <text transform="matrix(-0.9276 0.3737 -0.3737 -0.9276 177.4072 702.7569)" fill="#8A4E21" font-family="'ArialMT'" font-size="8">0</text>
        <text transform="matrix(-0.9276 0.3737 -0.3737 -0.9276 173.2803 704.419)" fill="#8A4E21" font-family="'ArialMT'" font-size="8">0</text>
        <text transform="matrix(-0.465 -0.8853 0.8853 -0.465 190.4254 140.693)" fill="#8A4E21" font-family="'ArialMT'" font-size="8">7</text>
        <text transform="matrix(-0.465 -0.8853 0.8853 -0.465 188.3566 136.7535)" fill="#8A4E21" font-family="'ArialMT'" font-size="8">0</text>
        <text transform="matrix(-0.465 -0.8853 0.8853 -0.465 186.2882 132.816)" fill="#8A4E21" font-family="'ArialMT'" font-size="8">0</text>
        <text transform="matrix(-0.465 -0.8853 0.8853 -0.465 184.2193 128.8766)" fill="#8A4E21" font-family="'ArialMT'" font-size="8">0</text>
        <text transform="matrix(-0.2211 0.9753 -0.9753 -0.2211 495.1867 105.9083)" fill="#8A4E21" font-family="'ArialMT'" font-size="8">6</text>
        <text transform="matrix(-0.2211 0.9753 -0.9753 -0.2211 494.2043 110.2475)" fill="#8A4E21" font-family="'ArialMT'" font-size="8">9</text>
        <text transform="matrix(-0.2211 0.9753 -0.9753 -0.2211 493.2199 114.5866)" fill="#8A4E21" font-family="'ArialMT'" font-size="8">0</text>
        <text transform="matrix(-0.2211 0.9753 -0.9753 -0.2211 492.2355 118.9257)" fill="#8A4E21" font-family="'ArialMT'" font-size="8">0</text>
        <text transform="matrix(0.1912 -0.9815 0.9815 0.1912 64.1204 619.7397)" fill="#8A4E21" font-family="'ArialMT'" font-size="8">7</text>
        <text transform="matrix(0.1912 -0.9815 0.9815 0.1912 64.9714 615.3726)" fill="#8A4E21" font-family="'ArialMT'" font-size="8">5</text>
        <text transform="matrix(0.1912 -0.9815 0.9815 0.1912 65.822 611.0054)" fill="#8A4E21" font-family="'ArialMT'" font-size="8">0</text>
        <text transform="matrix(0.1912 -0.9815 0.9815 0.1912 66.6731 606.6382)" fill="#8A4E21" font-family="'ArialMT'" font-size="8">0</text>
        <text transform="matrix(-0.9422 0.3351 -0.3351 -0.9422 1240.0258 227.4544)" fill="#8A4E21" font-family="'ArialMT'" font-size="8">7</text>
        <text transform="matrix(-0.9422 0.3351 -0.3351 -0.9422 1235.8344 228.9456)" fill="#8A4E21" font-family="'ArialMT'" font-size="8">7</text>
        <text transform="matrix(-0.9422 0.3351 -0.3351 -0.9422 1231.641 230.4358)" fill="#8A4E21" font-family="'ArialMT'" font-size="8">0</text>
        <text transform="matrix(-0.9422 0.3351 -0.3351 -0.9422 1227.4496 231.927)" fill="#8A4E21" font-family="'ArialMT'" font-size="8">0</text>
        <text transform="matrix(-0.9916 0.1294 -0.1294 -0.9916 566.9015 773.9542)" fill="#8A4E21" font-family="'ArialMT'" font-size="8">7</text>
        <text transform="matrix(-0.9916 0.1294 -0.1294 -0.9916 562.4894 774.5294)" fill="#8A4E21" font-family="'ArialMT'" font-size="8">7</text>
        <text transform="matrix(-0.9916 0.1294 -0.1294 -0.9916 558.0773 775.1046)" fill="#8A4E21" font-family="'ArialMT'" font-size="8">0</text>
        <text transform="matrix(-0.9916 0.1294 -0.1294 -0.9916 553.6671 775.6807)" fill="#8A4E21" font-family="'ArialMT'" font-size="8">0</text>
    </g>
    <g id="TrailText">
        <text transform="matrix(0.7831 0.6219 -0.6219 0.7831 409.3354 388.216)" fill="#4E4E4E" font-family="'Arial-BoldMT'" font-size="8">C</text>
        <text transform="matrix(0.7831 0.6219 -0.6219 0.7831 413.8597 391.8096)" fill="#4E4E4E" font-family="'Arial-BoldMT'" font-size="8">a</text>
        <text transform="matrix(0.7831 0.6219 -0.6219 0.7831 417.3439 394.5763)" fill="#4E4E4E" font-family="'Arial-BoldMT'" font-size="8">n</text>
        <text transform="matrix(0.7831 0.6219 -0.6219 0.7831 421.1707 397.6155)" fill="#4E4E4E" font-family="'Arial-BoldMT'" font-size="8">y</text>
        <text transform="matrix(0.7831 0.6219 -0.6219 0.7831 424.655 400.3822)" fill="#4E4E4E" font-family="'Arial-BoldMT'" font-size="8">o</text>
        <text transform="matrix(0.7831 0.6219 -0.6219 0.7831 428.4817 403.4209)" fill="#4E4E4E" font-family="'Arial-BoldMT'" font-size="8">n</text>
        <text transform="matrix(0.9406 0.3395 -0.3395 0.9406 435.1682 407.7372)" fill="#4E4E4E" font-family="'Arial-BoldMT'" font-size="8">C</text>
        <text transform="matrix(0.9406 0.3395 -0.3395 0.9406 440.602 409.698)" fill="#4E4E4E" font-family="'Arial-BoldMT'" font-size="8">a</text>
        <text transform="matrix(0.9406 0.3395 -0.3395 0.9406 444.7872 411.2093)" fill="#4E4E4E" font-family="'Arial-BoldMT'" font-size="8">m</text>
        <text transform="matrix(0.9406 0.3395 -0.3395 0.9406 451.4778 413.6236)" fill="#4E4E4E" font-family="'Arial-BoldMT'" font-size="8">p</text>
        <text transform="matrix(0.9406 0.3395 -0.3395 0.9406 458.3048 416.0881)" fill="#4E4E4E" font-family="'Arial-BoldMT'" font-size="8">W</text>
        <text transform="matrix(0.9406 0.3395 -0.3395 0.9406 464.9879 418.5)" fill="#4E4E4E" font-family="'Arial-BoldMT'" font-size="8">a</text>
        <text transform="matrix(0.9406 0.3395 -0.3395 0.9406 469.173 420.0107)" fill="#4E4E4E" font-family="'Arial-BoldMT'" font-size="8">y</text>
        <text transform="matrix(0.9984 5.573578e-002 -5.573578e-002 0.9984 312.5507 188.8438)" fill="#4E4E4E" font-family="'Arial-BoldMT'" font-size="8">R</text>
        <text transform="matrix(0.9984 5.573214e-002 -5.573214e-002 0.9984 318.3189 189.1656)" fill="#4E4E4E" font-family="'Arial-BoldMT'" font-size="8">e</text>
        <text transform="matrix(0.9984 5.572301e-002 -5.572301e-002 0.9984 322.7617 189.4141)" fill="#4E4E4E" font-family="'Arial-BoldMT'" font-size="8">d</text>
        <text transform="matrix(0.9984 5.573578e-002 -5.573578e-002 0.9984 329.8577 189.8099)" fill="#4E4E4E" font-family="'Arial-BoldMT'" font-size="8">H</text>
        <text transform="matrix(0.9962 8.742467e-002 -8.742467e-002 0.9962 335.5353 190.1253)" fill="#4E4E4E" font-family="'Arial-BoldMT'" font-size="8">o</text>
        <text transform="matrix(0.9934 0.1151 -0.1151 0.9934 340.3239 190.5442)" fill="#4E4E4E" font-family="'Arial-BoldMT'" font-size="8">u</text>
        <text transform="matrix(0.9934 0.1151 -0.1151 0.9934 345.1781 191.1066)" fill="#4E4E4E" font-family="'Arial-BoldMT'" font-size="8">s</text>
        <text transform="matrix(0.9934 0.1151 -0.1151 0.9934 349.5977 191.6187)" fill="#4E4E4E" font-family="'Arial-BoldMT'" font-size="8">e</text>
        <text transform="matrix(0.8089 0.5879 -0.5879 0.8089 817.6866 408.3474)" fill="#4E4E4E" font-family="'Arial-BoldMT'" font-size="8">C</text>
        <text transform="matrix(0.7698 0.6383 -0.6383 0.7698 822.2154 411.632)" fill="#4E4E4E" font-family="'Arial-BoldMT'" font-size="8">a</text>
        <text transform="matrix(0.7698 0.6383 -0.6383 0.7698 825.6407 414.4722)" fill="#4E4E4E" font-family="'Arial-BoldMT'" font-size="8">n</text>
        <text transform="matrix(0.7698 0.6383 -0.6383 0.7698 829.4019 417.5913)" fill="#4E4E4E" font-family="'Arial-BoldMT'" font-size="8">y</text>
        <text transform="matrix(0.7431 0.6692 -0.6692 0.7431 832.7382 420.3555)" fill="#4E4E4E" font-family="'Arial-BoldMT'" font-size="8">o</text>
        <text transform="matrix(0.7067 0.7075 -0.7075 0.7067 836.2599 423.5216)" fill="#4E4E4E" font-family="'Arial-BoldMT'" font-size="8">n</text>
        <text transform="matrix(0.7067 0.7075 -0.7075 0.7067 842.35 429.6178)" fill="#4E4E4E" font-family="'Arial-BoldMT'" font-size="8">L</text>
        <text transform="matrix(0.7067 0.7075 -0.7075 0.7067 845.8029 433.0751)" fill="#4E4E4E" font-family="'Arial-BoldMT'" font-size="8">o</text>
        <text transform="matrix(0.7067 0.7075 -0.7075 0.7067 849.257 436.5323)" fill="#4E4E4E" font-family="'Arial-BoldMT'" font-size="8">o</text>
        <text transform="matrix(0.7964 0.6048 -0.6048 0.7964 853.0043 440.2466)" fill="#4E4E4E" font-family="'Arial-BoldMT'" font-size="8">m</text>
        <text transform="matrix(0.8298 -0.5581 0.5581 0.8298 1041.4799 39.7691)" fill="#4E4E4E" font-family="'Arial-BoldMT'" font-size="8">C</text>
        <text transform="matrix(0.8298 -0.5581 0.5581 0.8298 1046.2743 36.5445)" fill="#4E4E4E" font-family="'Arial-BoldMT'" font-size="8">a</text>
        <text transform="matrix(0.8267 -0.5626 0.5626 0.8267 1049.9792 34.0533)" fill="#4E4E4E" font-family="'Arial-BoldMT'" font-size="8">n</text>
        <text transform="matrix(0.7334 -0.6798 0.6798 0.7334 1054.3549 31.037)" fill="#4E4E4E" font-family="'Arial-BoldMT'" font-size="8">y</text>
        <text transform="matrix(0.7334 -0.6798 0.6798 0.7334 1057.618 28.0123)" fill="#4E4E4E" font-family="'Arial-BoldMT'" font-size="8">o</text>
        <text transform="matrix(0.7334 -0.6798 0.6798 0.7334 1061.2018 24.69)" fill="#4E4E4E" font-family="'Arial-BoldMT'" font-size="8">n</text>
        <text transform="matrix(0.7256 -0.6881 0.6881 0.7256 1066.4352 19.8382)" fill="#4E4E4E" font-family="'Arial-BoldMT'" font-size="8">L</text>
        <text transform="matrix(0.6361 -0.7716 0.7716 0.6361 1070.22 16.2191)" fill="#4E4E4E" font-family="'Arial-BoldMT'" font-size="8">o</text>
        <text transform="matrix(0.6361 -0.7716 0.7716 0.6361 1073.3284 12.4487)" fill="#4E4E4E" font-family="'Arial-BoldMT'" font-size="8">o</text>
        <text transform="matrix(0.6361 -0.7716 0.7716 0.6361 1076.4375 8.6786)" fill="#4E4E4E" font-family="'Arial-BoldMT'" font-size="8">m</text>
    </g>
</svg>
