<svg xmlns="http://www.w3.org/2000/svg" version="1.1" x="0" y="0" viewBox="0.8 730.3 610.5 304.2" enable-background="new 0.8 730.3 610.5 304.2" xml:space="preserve"><path fill="none" stroke="#8A4E21" stroke-width="0.1" stroke-linecap="round" stroke-linejoin="round" stroke-miterlimit="10" d="M509.3 774.9h0.1l0.2-0.1 0.3-0.3 0.6-0.7 0.7-0.9 0.5-0.8 0.7-1.3 0.4-0.9 0.3-0.9 0.3-0.9 0.2-0.9 0.1-0.8v-0.7l-0.1-0.7 -0.2-0.9 -0.3-0.9 -0.3-0.9 -0.3-0.6 -0.3-0.6 -0.6-0.7 -0.7-0.7 -0.5-0.4 -0.4-0.3 -0.9-0.5 -0.8-0.3 -0.9-0.3 -0.9-0.2 -1-0.1h-0.9 -0.5l-0.8 0.1 -1.2 0.3 -0.7 0.3 -0.6 0.3 -0.6 0.3 -0.6 0.4 -0.7 0.6 -0.3 0.3 -0.3 0.3 -0.3 0.5 -0.2 0.3 -0.2 0.8 -0.1 0.8v0.9 0.8l0.2 0.9 0.2 0.7 0.2 0.6 0.4 0.9 0.5 0.7 0.5 0.7 0.3 0.5 0.7 0.8 0.9 0.9 0.8 0.7 0.6 0.4 0.6 0.4 0.9 0.5 1.3 0.6 0.8 0.3 1.4 0.4 0.8 0.2L509.3 774.9M180.8 728.8l-0.5 0.3 -0.4 0.2 -1 0.4 -0.6 0.2 -0.9 0.3 -2 0.4 -0.9 0.2 -2.2 0.2 -4.2 0.3 -1.5 0.2 -1.4 0.2 -1.3 0.2 -1.4 0.3 -0.9 0.3 -1.4 0.5 -0.7 0.3 -1.7 0.8 -1.8 1 -1.7 1.1 -1.6 1.1 -1.5 1.1 -1.2 1 -2.1 1.7 -6.5 5.6 -1 0.9 -0.9 0.7 -1.5 0.9 -0.5 0.3 -1.6 0.7 -1.2 0.3h-0.3 -0.8l-0.7-0.1 -0.8-0.2 -1-0.4 -0.9-0.5 -0.8-0.6 -0.5-0.5 -1.2-1.3 -1.1-1.5 -3.4-5.1 -1.3-1.7 -1.3-1.6 -1.3-1.4 -1.3-1.2 -1.7-1.4 -1.1-0.9 -1.1-0.7 -2.7-1.6 -1.2-0.7M198.2 728.7l-0.5 1.1 -0.6 1.2 -0.8 1.4 -1.1 1.7 -1.7 2.3 -1.3 1.6 -1.9 2.3 -2.1 2.4 -1.9 2 -1.9 1.7 -1.1 1 -1.9 1.5 -1.3 0.9 -1.8 1.2 -1.8 1 -2.2 1.1 -4.5 2.1 -2.3 1.2 -1.8 1.1 -0.9 0.6 -0.9 0.7 -1.4 1.2 -1.6 1.6 -1.7 2 -3.4 4.3 -1.7 2 -1.1 1.1 -1.1 1 -1.1 0.9 -1.2 0.7 -1.2 0.6 -1.1 0.4 -1.7 0.5 -0.6 0.2 -1.5 0.2 -1.1 0.1h-1.1l-1.1-0.1 -1.5-0.2 -1.7-0.4 -0.8-0.2 -1.4-0.5 -0.7-0.2 -1.9-0.8 -1.3-0.6 -1.8-1 -2.5-1.5 -2.7-1.9 -2.9-2.2 -3-2.5 -1.9-1.7 -1-1 -1.8-1.9 -2-2.3 -4.6-5.3 -1.9-2 -1.5-1.5 -1.6-1.4 -1.6-1.3 -2.6-1.9 -3.5-2.6 -1.6-1.2 -1.1-0.9 -1-0.9 -0.9-0.9 -1.4-1.5 -1.2-1.5 -0.8-1.1 -0.4-0.7 -0.8-1.5 -0.5-1 -0.1-0.2M212.3 728.7l-0.2 0.5 -0.6 1.1L211 731l-0.8 1.1 -1 1.2 -1.4 1.5 -1.4 1.3 -6.1 5.4 -2.3 2.2 -1.2 1.2 -2.2 2.4 -1.8 2.1 -0.9 1 -2.5 3.2 -1 1.5 -1.3 1.9 -1.9 3 -0.9 1.5 -1.5 2.6 -1.2 2.2 -2 3.8 -0.7 1.3 -0.8 1.3 -0.8 1.2 -0.9 1.2 -1.5 1.9 -1.7 1.9 -0.9 0.8 -1.4 1.3 -2 1.6 -2.1 1.6 -1.7 1.2 -1.8 1.2 -2.3 1.5 -1.9 1 -1.5 0.8 -1 0.4 -0.8 0.3 -1.1 0.3 -1 0.2 -0.8 0.1 -1.3 0.1h-1.4l-1.4-0.2 -0.5-0.1 -0.7-0.2 -1.4-0.4 -1.8-0.7 -1.4-0.6 -2.2-1.1 -1.9-1 -1.3-0.7 -3.7-2.2 -7.4-4.7 -4.3-2.6 -4.6-2.6 -7.9-4.2 -1.6-0.9 -2.6-1.6 -1.9-1.3 -1.2-0.9 -1-0.9 -1.9-1.7 -2.3-2.3 -8.5-9 -1.4-1.5 -1.7-2 -0.9-1 -1.8-2.3 -1.1-1.5 -1.2-1.9 -1.3-2.2 -0.7-1.3 -1.5-3.2 -1.5-3.4 -0.9-2.2M235.4 729.5c-3.1 5.1-6.6 10-11.5 13.6 -4.8 3.4-10.4 5.5-15 9.2s-6.9 9-7.5 14.9c-0.6 5.8-0.2 11.9-1.9 17.6 -1.7 5.6-5.2 10.9-9.5 14.8 -4.3 4-9.5 6.4-14.2 9.8s-8.8 8.3-14.9 9.2c-5.7 0.8-11.6-1.5-16.6-4 -5.4-2.7-10.3-6.1-14.5-10.4 -4.2-4.3-8-8.7-12.8-12.4 -4.7-3.7-10-6.1-15.3-8.7s-10.3-5.5-14.3-9.9c-4.2-4.6-7.6-9.9-11.1-15 -3.2-4.7-5.8-9.5-7.7-14.9 -1.6-4.7-3.2-9.3-5.3-13.9M412.6 914.5v-0.3l-0.3-1 -0.3-0.9 -0.7-1.5 -0.3-0.6 -0.6-1 -0.8-1 -0.5-0.6 -0.6-0.6 -0.8-0.7 -0.9-0.7 -0.6-0.4 -1.3-0.7 -0.8-0.4 -0.8-0.3 -0.8-0.3 -0.6-0.2L401 903l-0.8-0.1h-0.7 -0.7l-0.8 0.2 -0.8 0.2 -0.5 0.2 -0.4 0.2 -0.5 0.3 -0.6 0.6 -0.3 0.5 -0.3 0.5 -0.3 0.6 -0.3 1 -0.1 0.6v0.8l0.1 0.9 0.2 0.6 0.3 1 0.3 0.6 0.3 0.6 0.3 0.6 0.5 0.7 0.8 0.8 0.8 0.6 0.8 0.6 0.9 0.5 0.9 0.4 0.8 0.3 0.5 0.2 0.9 0.2 0.7 0.1 0.6 0.1h1.2 0.8l0.7-0.1 1.3-0.3 0.7-0.2 0.8-0.3 0.8-0.3 0.8-0.4 0.7-0.4 0.7-0.5L412.6 914.5M246.4 729.5c-3.8 4.7-7.7 9.3-12.2 13.3 -4.6 4-9.9 6.9-15.1 10 -5.1 3-9 6.9-10.4 12.8 -1.3 5.7-0.6 11.7-1.6 17.5s-3.6 10.9-6.7 15.8c-3.2 5.1-6.5 10-10 14.8 -2 2.7-3.9 5.3-5.9 8 -1.6 2.3-3.3 4.6-5.5 6.4 -4.9 3.9-11.2 3.1-16.8 1.9 -6.2-1.4-12.3-3.5-18.4-5.4 -5.2-1.6-10.6-3.1-15-6.4 -4.8-3.6-7.5-8.8-10.9-13.6 -3.5-4.8-7.8-8.8-12.8-12.1 -4.9-3.1-10.2-5.6-14.9-9.1 -4.7-3.6-8.2-8.2-11.4-13.1 -3.3-5.1-6.7-10.2-9.6-15.6 -2.8-5.2-4.3-10.7-6.1-16.3 -1-3.1-2.2-6.1-3.6-9M257.9 729.7c-4.6 4-8.8 8.3-13.5 12.1 -4.3 3.6-8.8 6.8-13.5 9.9 -4.9 3.2-10.9 6.4-14 11.6 -3.1 5.1-3 11.2-3.8 17 -0.9 6-2.8 11.4-5.6 16.8 -2.7 5.3-5.7 10.5-8.2 15.9s-4.6 10.9-7.2 16.2c-2.7 5.5-6.3 9.8-12.8 10.2 -5.9 0.4-12-1.6-17.7-2.9s-11.4-2.2-17.1-2.7c-5.8-0.6-11.7-1-17-3.6 -5.4-2.6-9.3-7-12.2-12.2 -2.9-5.2-5.4-10.5-9.5-15s-9.3-7.5-14.2-11.1c-4.8-3.5-8.8-7.6-12.2-12.4 -3.6-5.2-6.6-10.8-9.7-16.3 -2.8-4.8-5.5-9.5-7.2-14.8 -1.8-5.7-3-11.5-5.4-17 -0.3-0.6-0.6-1.2-0.8-1.8M269.4 729.7c-1.6 0.9-2.8 2-4.3 2.8 -11.2 9.3-22 16.2-34 24.7 -3.9 3.1-7.3 6.2-9.3 10.8 -3.5 8.5-4.6 17.8-8.1 26.3 -1.5 3.9-3.9 7-5.8 10.8 -1.2 2.3-1.5 4.3-2.7 6.6 -1.5 4.3-2.3 8.5-3.1 12.8 -0.8 6.6 0.8 13.1 0 19.7 -3.1 4.6-8.9 3.9-13.5 3.5 -7.7-0.8-15.1-2.7-22.4-5 -0.8 0-1.2 0-1.9 0 -9.7-2.7-18.9 0-28.2 0.8 -5.8 0.4-11.2-1.5-16.2-4.6 -7.7-5.4-11.6-13.1-14.7-21.6 -1.5-3.5-3.1-6.6-5.4-9.7 -3.9-4.6-8.5-8.1-13.1-12 -2.7-2.3-5-5.4-7.3-8.1 -0.4-0.8-1.2-1.9-1.9-2.7 -7-11.6-13.5-22-17.8-34.4 -1.5-4.6-2.7-8.9-4.3-13.5 -0.8-2.3-0.8-5-2.6-7.1M293.8 729.5c-7.9 2.9-14.5 7.5-21.4 12.5 -1.5 0.8-3.1 1.9-4.6 2.7 -0.8 0.8-1.5 1.5-2.7 2.3 -3.9 2.3-7 4.6-10.8 6.6 -4.6 2.3-8.9 4.6-13.1 7.3 -3.5 2.7-6.2 5.4-8.5 9.3 -1.9 3.5-3.9 7-5.4 10.8 -3.5 10-8.1 19.3-11.6 29.4 -2.3 6.6-2.7 13.9 0 20.5 1.5 3.5 3.5 6.6 5.8 9.3 3.5 3.5 7 6.6 10.8 9.7 2.7 2.3 5.8 5.4 5 9.3 -0.4 1.5-1.5 2.7-2.7 3.1 -14.3 5-28.2-2.7-42.9-5 -8.9-1.5-17.8-3.5-26.3-0.4 -5.4 2.3-10 5.8-15.1 9.3 -11.2 7.3-25.5 7-36.3 0 -10.4-9.7-18.2-21.6-21.6-35.9 -1.5-7.7-1.5-15.8-6.6-22 -4.6-5.4-10-9.7-13.9-15.8 -6.6-12-11.2-24-17-35.9 -3.1-7-3.9-14.3-5.8-21.6 -0.8-1.5-1.5-3.5-2.2-5.1M311 729.5c-5.6 1-11.2 2.7-16.4 5.1 -5.4 2.5-10.6 5.7-15.6 9 -5 3.4-9.8 7-15 10 -5.1 3-10.6 5.3-15.6 8.3 -5.1 3-9.2 7.1-12.3 12.1 -3 4.7-5.1 9.9-7.2 15 -2.4 5.8-4.9 11.6-7 17.5 -1.9 5.7-3.1 11.7-1.9 17.7 1.2 5.7 4.6 10.6 8.7 14.6 4.3 4.1 9.3 7.5 13.7 11.6 3.4 3.2 9.5 9.8 5.6 14.7 -3.6 4.5-11.4 4.1-16.5 4.1 -5.8 0-11.4-0.6-17-2 -5.7-1.5-11.3-3.4-17.1-4.6 -5.8-1.2-11.9-2.2-17.7-0.7 -5.9 1.5-9.7 6-13.9 10.2 -4.3 4.2-9.2 7.3-14.7 9.4 -5.4 2.2-11.2 3.9-17.1 3.7 -5.7-0.2-11.5-2.2-16.8-4.2 -5.5-2.2-10.3-5.4-13.8-10.4s-6.2-10.6-9-16.1c-2.6-5.2-5.1-10.5-6.6-16.2 -1.6-5.7-1.6-11.4-2.2-17.3 -0.7-6.1-3.4-10.7-7.5-15 -4.3-4.4-8.3-8.7-11.1-14.3 -2.6-5.4-4.6-11.1-6.8-16.7 -2.2-5.4-4.9-10.6-7.2-16 -2.6-5.8-3.8-11.7-5.1-17.8 -0.8-3.9-1.9-8-3.7-11.6M332.5 729.5c-9.5 1.7-18.7 2.9-28 5.6 -5.8 1.5-10.4 4.3-15.5 7.3 -6.2 3.9-11.6 8.1-17.8 12.4 -6.2 3.9-12.4 6.6-18.9 10 -5.8 3.5-10.4 7.3-13.5 13.1 -7 14.7-17.8 30.1-12.4 46.8 1.2 5 4.6 8.9 8.5 12.4 8.9 7.3 18.2 13.9 23.6 24 1.2 2.7 1.5 5.8 0 8.5 -2.7 3.9-7.7 3.5-11.6 3.9 -9.7 0-19.3 0-29.4-1.2 -5.8-0.8-10.8-3.1-16.6-4.6 -7.7-1.9-15.8-1.9-21.6 3.9 -0.4 0.8-1.2 1.2-1.9 1.9 -0.4 0.4-0.4 1.2-0.8 1.5 -2.7 2.7-4.6 5.8-7.7 8.1 -10.8 7.7-22.8 12.8-35.5 12.8 -8.1 0.4-15.1-3.9-22.4-7 -2.7-1.2-5-2.7-7.3-4.6 -2.7-2.3-5-5.4-6.6-8.5 -5-11.2-9.7-22.4-13.9-34 -2.3-7-2.3-13.9-2.7-21.3 -0.4-4.3-2.3-8.1-5-11.2 -3.5-3.1-6.6-6.2-9.3-9.7 -1.5-2.3-2.7-4.6-3.9-7.3 -2.3-7-4.3-14.3-7.3-21.3 -1.9-4.6-3.9-9.7-5.8-14.3 -3.1-6.6-3.9-13.5-5.4-20.9 -0.4-2.3-1.5-4.3-2.4-6.3M589 944L589 944l0.1-0.3 -0.2-0.4 -0.4-0.5 -0.6-0.5 -1.2-0.8 -2.4-1.5 -0.8-0.4 -0.5-0.2 -0.4-0.1 -0.8-0.1h-1.3 -0.3l-0.3 0.1 -0.2 0.1 -0.2 0.2 -0.2 0.3 -0.2 0.3 -0.3 0.9 -0.2 0.7v0.4 0.3l0.2 0.4 0.4 0.5 0.8 0.7 2 1.5 0.8 0.5 0.6 0.2 0.5 0.1h0.5l0.5-0.1 1.2-0.4 1-0.5 0.9-0.5 0.7-0.5L589 944 589 944M348.7 729.5c-12.6 2.1-24.2 4.4-37.3 7.5 -15.8 3.1-26.3 13.5-39.4 22.4 -5.4 3.5-10.8 5.4-16.2 8.5 -4.3 2.3-7.7 5.4-10.8 9.3 -6.2 8.1-9.7 17-13.1 26.3 -1.5 4.6-2.3 9.3-1.9 13.9 0.8 4.3 1.9 8.5 5 12 6.2 7.7 13.5 12.8 20.9 18.9 4.2 4.3 8.1 8.5 10.8 13.9 0.4 0.8 0.8 1.9 1.2 2.7 1.5 3.9 3.1 9.3-1.2 11.6 -7.3 4.3-15.8 1.2-24 0.8 -9.3-0.8-18.5 0.4-27.8-0.8 -5-0.8-9.3-2.3-14.3-3.1 -2.7-0.4-5.8-0.4-8.5 0.8 -0.8 0.4-1.9 0.8-2.7 1.2 -7.3 5-11.2 12.4-18.9 16.6 -10 5-20.5 9.7-31.3 12.8 -12 1.2-22.8-5-33.6-10 -3.9-1.9-7-4.6-9.7-8.1C88.6 876 87 864 82.4 852.4c-2.7-6.6-5-13.1-6.2-20.1 -0.4-4.3-0.8-8.5-1.2-12.8 -0.4-3.1-2.3-5.8-4.3-8.1 -2.7-3.1-5.4-5.4-8.1-8.5 -2.3-3.1-3.9-6.6-5-10.4 -2.7-10-4.6-20.1-9.3-29.4 -0.4-0.8 0-1.2-0.4-1.9 -1.9-3.1-2.7-6.2-3.9-9.7 -1.9-7.3-2.3-14.7-5.6-21.8M379.3 729.5c-5.8 1.4-12 0.5-17.8 0M395.4 729.5c-5.1 4.4-11.3 6.3-17.5 6.7 -8.1 0-16.2-2.3-24.7-1.5 -2.3 0.4-4.6 0.4-7 0.8 -10.4 2.3-19.7 3.5-30.1 5.8 -7 1.9-13.1 4.2-19.3 8.5 -5.4 3.9-10 7.7-15.1 12 -5.8 4.6-12 7.7-18.5 11.6 -1.9 1.2-3.1 2.3-5 3.5 -8.5 5.8-12 14.7-15.8 23.6 -1.2 3.1-2.3 6.2-2.7 9.3 0 2.7-0.4 5.4 0 8.1 1.5 8.1 7.3 14.3 14.3 18.9 0.8 0.8 1.5 1.5 2.3 2.3 6.6 3.9 13.1 7.3 17 13.9 5 8.1 8.1 16.2 12 24.3 1.2 3.1 2.7 6.6 0.4 9.3 -5 5.4-12.4 3.1-18.5 1.9 -11.6-1.5-22.4-5-34-3.9 -3.5 0.8-7 1.5-10.4 2.7 -6.6 2.3-13.9 1.9-20.5 3.9 -6.6 2.3-12.4 5.8-18.5 10 -3.1 1.9-6.2 3.1-9.3 4.6 -9.3 3.9-18.2 7-27.4 11.2 -4.3 1.9-8.9 2.7-13.5 2.3 -2.7-0.4-5-1.2-7.7-1.9 -8.9-4.3-17.4-8.5-26.3-12 -1.5-0.8-3.5-1.9-5-3.1 -1.2-0.8-1.9-2.3-2.7-3.1 -5-6.6-8.5-13.5-10.8-20.9 -2.3-7.3-3.5-15.1-5.8-22.4 -2.3-6.2-5-12.8-7.3-18.9 -1.9-5.4-2.3-11.2-4.2-16.6 -0.8-1.5-1.2-3.1-2.3-4.6 -0.8-0.8-1.2-1.5-1.9-2.7 -4.6-5.4-8.9-11.2-10-18.5 -1.2-8.5-1.5-16.2-3.9-24.3 -1.9-5.4-4.3-10.8-6.2-16.2 -1.5-5.4-2.3-10.8-3.5-16.6 -0.4-2.7-0.8-5.4-2.6-7.8M600.4 964.7l0.7-5.4 0.3-3.6 0.1-3.2v-1l-0.1-1.9 -0.2-1.6 -0.2-1.1 -0.5-2.2 -0.3-0.9 -0.5-1 -0.5-0.9 -0.3-0.4 -1-1.4 -0.8-0.9 -1.4-1.5 -1.4-1.2 -1.3-1 -2.8-2 -5.5-3.7 -6.6-4.6 -1.5-0.9 -1.5-0.8 -1.2-0.5 -1.3-0.4 -0.7-0.1h-0.7 -0.7l-1.5 0.4 -0.7 0.3 -1 0.7 -0.6 0.6 -0.7 0.9 -0.5 0.8 -0.3 0.5 -0.5 1.2 -0.3 0.8 -0.4 1.5 -0.2 1.6 -0.1 1.5v0.6l0.1 1.7 0.2 1.5 0.3 1.5 0.6 1.9 0.4 1 0.5 1.2 0.5 1.1 0.7 1.3 0.7 1.2 1 1.6 1.3 1.7 1.7 2 1 1 1 1 2 1.8 1.3 1.1 1.9 1.5 1.1 0.8 1.2 0.7 1.4 0.8 1 0.5 1 0.5 1.8 0.7 1.9 0.7 2.3 0.7 2.4 0.6 1.2 0.2 2.3 0.4 1.2 0.1 1.5 0.1h0.8L600.4 964.7 600.4 964.7 600.4 964.7M107.2 1035.2c-5.6-2.9-11.4-1.3-16.9 0M120.5 1035.1c-2.3-5.2-9.5-7.3-14.6-8 -5.9-0.8-11.5-0.1-17.3 1.2 -6.2 1.4-12.3 2.6-18.6 3.6 -4.5 0.7-8.8 1.9-13.2 3.2M115 1035.1c-4.5-5.1-11.4-5.9-18-5.1 -8.9 1.2-17.4 4.6-26.1 5.2M164.3 1035.2c-0.9-0.5-1.6-0.9-2.4-1.7 -0.4-0.8-1.2-1.2-1.9-1.9 -3.5-5-6.2-9.7-10.8-13.9 -2.7-2.3-5.8-3.9-8.9-4.6 -11.6-4.3-22.8-7.3-34.4-10.8 -6.2-1.9-12.4-4.6-18.9-3.5 -2.7 0.4-5.4 1.2-7.7 2.3 -11.6 4.6-22.8 8.9-34.4 12.8 -7.7 2.3-16.2 2.3-24-0.8 -0.4-0.4-0.8-0.8-1.2-1.2 -6.6-3.9-10-10.8-12.4-17.8 -3.1-8.1-5-16.6-3.5-25.5 1.2-6.2 3.9-11.2 7-16.6 2.7-5 5-10 4.2-15.8 -1.2-7.3-8.5-10-14.8-11.1M375.2 1035.1c-4.7-4-10.1-6.7-15.5-9.4 -2.3-1.5-4.6-2.7-7-4.3 -6.2-3.9-10.4-8.5-16.6-12.4 -5.8-3.5-11.6-6.2-17.4-9.7 -0.8-0.8-1.5-1.5-2.7-1.9 -0.4-0.4-0.8-0.8-1.2-1.2 -0.4-0.4-1.2-0.4-1.5-0.8 -6.6-5.4-10.8-13.1-18.9-16.2 -8.9-3.1-17.4 1.5-25.9 4.6 -8.5 2.7-16.6 3.9-24.3 8.9 -2.7 1.9-4.6 4.3-7 7 -4.3 5.8-7 12.4-13.5 15.8 -0.8 0.4-1.9 0.8-2.7 1.2 -1.5 0.8-3.1 0.8-4.6 1.2 -7.3 0.4-15.1 1.2-21.6 4.6 -4.6 2.7-7.7 6.6-12 10 -1.2 0.8-2.3 1.5-3.6 2.5M408.5 1035.2c-6.3-6-15.1-7.1-22.5-10.6 -1.2-0.4-2.3-0.4-3.5-0.8 -2.7-1.2-5.4-1.9-8.1-3.1 -1.2-0.4-1.9-1.2-3.1-1.5 -0.8-0.4-1.2 0-1.9-0.4 -7-3.5-13.5-7.3-19.7-12.8 -6.2-4.6-12.4-8.5-18.9-12.8 -2.7-1.9-5-4.3-7.7-6.2 -5-4.6-7.7-10.8-12.4-15.8 -0.8-0.4-1.2-1.2-1.9-1.9 -10.4-10.8-26.7-8.1-38.6-1.5 -7.7 2.7-15.5 5.4-23.2 8.5 -3.9 1.5-7 3.5-10.4 6.2 -7.3 5.8-11.2 13.1-17.8 19.3 -1.9 1.5-3.9 3.1-6.2 3.9 -8.9 3.1-18.5 3.9-27.4 7 -2.3 0.8-4.3 1.9-6.6 2.3 -2.3 0-4.6 0.4-6.6-0.4 -5-2.7-9.3-5.4-13.9-8.9 -2.3-1.5-5-1.9-7.3-3.1 -8.9-2.7-17.8-2.7-27-5 -10-2.3-18.9-5.8-27.8-10 -4.6-1.9-10-2.3-14.7-0.8 -6.2 2.3-11.2 5.8-17 8.9 -11.2 5.8-25.5 12.7-36.7 3.1 -10.8-9.3-12.8-25.1-8.1-38.3 7.3-11.6 12.4-26.7 5.8-39.8 -0.4-0.4-0.8-0.4-1.2-0.8 -2.3-3.9-6.2-6.2-10.4-7.3 -0.4 0-0.4-0.8-0.8-0.8 -3.5-1.2-7.3-2.3-9.3-5.4 -3.9-7 1.2-13.9 3.9-20.5 1.9-5.8 2.3-12.8-2.3-17.4 -0.8-0.4-1.2-1.2-1.9-1.9s-1.9-1.2-2.8-2M612.2 801.6c-1.7-0.7-2.5-1.9-3.7-2.7 -2.3-2.3-4.3-4.3-6.6-6.6 -0.8-0.8-1.2-1.5-1.9-2.3 -3.1-2.7-5.8-5.4-9.3-7.3 -3.9-2.7-7-5.8-9.7-9.3 -3.1-8.1-2.7-17.8-9.3-24 -1.9-1.9-4.6-2.7-7.3-3.5 -7-1.5-13.9-0.8-20.5-3.1 -23.2-8.5-48.3-16.2-72.6-7.7 -10.8 3.5-15.5 14.3-19.3 24.3 -3.1 8.1-1.5 17-1.9 25.5 -0.4 3.5-1.5 7-3.9 10 -1.5 1.9-3.5 3.5-5.4 5 -9.7 6.6-20.1 9.7-30.5 13.5 -1.9 0.8-3.9 1.9-5.8 3.1 -3.9 1.5-7.7 3.5-9.7 7.7 -2.7 6.2-0.8 13.1-1.2 19.7 -0.4 2.7-1.2 5-2.7 7 -2.7 3.1-6.2 5.4-8.9 8.5 -2.7 3.5-3.5 7.3-2.7 11.6 1.2 5.8 3.9 10.8 3.1 16.6 -1.2 7-5 13.1-4.3 20.5 1.2 7.7 6.6 13.9 12.4 19.3 3.9 3.9 6.2 8.9 6.2 14.3 -0.4 5-2.3 9.7-3.1 14.7 -1.2 6.2-0.8 12.4 0.8 18.5 1.5 5.4 3.5 10.8 7.3 15.1 0.8 0.4 1.2 1.2 1.9 1.9 11.2 11.2 27 4.6 41.3 7 6.6 1.2 12 3.9 17.4 7.3 7 5 12 10.4 17 17.4 2.3 3.5 3.5 7.3 4.4 11.3M612.1 804.3c-6.9-4.6-12.2-10.9-18.7-15.9 -5.6-4.3-12.6-7.9-15.8-14.5 -3.1-6.2-1.6-13.7-5.5-19.5 -4.2-6.2-11.9-6.7-18.7-7.3 -4.1-0.3-8.2-1.1-12.1-2.3 -4.1-1.2-7.9-3-11.9-4.5 -8.1-3.1-16.3-5-25-5.6 -8.3-0.7-17-0.7-25.3 1 -7.5 1.6-13.7 5.5-17.8 12.1 -4.1 6.7-6.7 15-6.6 22.8 0.1 7.9 3.4 15.7-1.6 22.9 -4.2 6.1-11.4 10.2-18 13.2 -7.7 3.5-16 5.8-23.7 9.3 -6.1 2.7-12.4 6.4-13.8 13.5 -1.4 7.6 3.6 16.5-0.8 23.6 -1.9 3.2-5.1 5.3-7.7 7.8 -2.9 2.8-4.5 6.2-4.3 10.3 0.2 4.3 2.1 8.2 2.4 12.5 0.3 4.2-1.2 7.8-2.8 11.6 -1.5 3.4-3 6.8-3.1 10.6 -0.1 3.7 1.2 7.3 3.2 10.4 3.7 6 9.9 9.9 13.9 15.7 2.1 3.1 3.1 6.4 2.5 10.1 -0.5 3.8-2.1 7.4-3 11.1 -2 8.2-1.3 17 1.8 24.8 2.7 7 7.7 12.7 15.1 14.7 8.1 2.2 16.5 0 24.7 0.3 17 0.5 31.6 9.4 43.5 21 6.2 6 10.6 12.7 12.4 21.3M612.1 807.3c-4.4-3.4-9-6.8-13.3-10.7 -6.2-5-12.4-8.9-18.9-13.5 -2.3-1.9-4.6-3.9-5.8-6.6 -0.4-0.8-0.8-1.9-1.2-2.7 -1.2-5-0.8-10-2.3-14.7 -1.5-4.3-5-8.1-10-8.5 -13.9-0.4-26.3-6.6-39.4-10.4 -14.3-4.6-29.8-5.8-44-1.2 -6.6 2.3-12 7.3-14.7 13.9 -0.4 0.8-0.8 1.9-1.2 2.7 -2.7 8.5-1.5 17.4 0 26.3 0.8 5.4-0.4 10.4-3.9 14.7 -10.8 12-27 14.7-41.3 20.1 -1.9 0.8-3.9 1.5-5.8 2.7 -0.8 0.8-1.5 1.2-2.7 1.9 -2.3 1.5-4.3 3.5-5.4 5.8 -2.3 5-1.2 10.4 0.8 15.5 2.3 5.4 4.6 12.4 0 17 -3.1 2.7-7.3 4.3-10 7.3 -2.3 3.1-1.9 7-0.4 10.4 0.4 0.8 0.8 1.5 1.2 2.7 0 0.4 0.4 0.8 0.8 1.2 1.5 3.9 1.2 8.5-1.5 11.6 -3.9 3.9-7.3 7.7-8.1 13.1 -0.8 9.3 7.3 15.5 14.7 20.5 3.5 2.3 6.2 5 7.7 8.9 1.2 2.7 0.8 6.2-0.4 8.9 -3.5 7.3-6.6 14.7-5 22.8 1.5 9.3 7.3 17.8 17 18.9 13.1 1.9 25.9-1.2 38.3 3.5 15.1 5.4 28.6 13.5 39.8 25.5 5.4 5.8 8.9 12.4 10.2 20.2M612.5 917.1c-1.3-2.2-2.9-3.7-4.4-5.7 -1.2-1.9-1.9-4.3-2.7-6.6 -1.5-7.3 1.5-14.3 4.6-20.9 3.1-6.2 1.2-13.1-1.9-19.3 -2.3-4.3-3.1-8.9-2.3-13.9 0.8-4.3 2.7-8.1 4.3-12.4 1.9-5.4 2.3-12.4-3.5-16.2 -3.9-2.7-7.7-4.6-11.6-7.7 -4.6-3.9-7.7-8.1-12.8-11.6 -5-3.1-9.7-5.8-15.1-8.5 -3.5-1.5-7-3.5-9.7-6.2 -7.7-8.5-15.1-17-22.8-25.9 -2.3-2.7-4.6-5-7.3-7.3 -10-8.9-24-12-36.3-7.3 -3.5 1.5-6.6 3.5-8.9 6.6 -1.5 1.9-2.3 4.6-2.7 7 -0.4 7 2.3 13.5 5 20.1 2.3 6.6 3.9 14.3-1.5 19.7 -0.8 0.4-1.2 1.2-1.9 1.9 -3.5 3.1-7.7 4.3-12 6.6 -1.9 1.2-3.9 2.3-5.8 3.5 -1.2 0.4-1.9 1.2-2.7 1.9 -4.6 2.7-8.9 4.6-13.9 6.2 -8.5 2.7-18.5 1.9-25.5 8.1 -1.5 1.2-1.9 3.5-1.9 5 0.4 3.9 2.7 7 5.8 8.9 11.6 7.3 24 10 37.5 13.1 3.1 0.8 6.6 1.2 9.7 1.5 7.7 1.2 15.5 1.9 22.8 4.3 1.2 0.4 1.9 1.5 3.1 2.3 0.4 0.8 1.2 1.2 1.9 1.9 3.1 4.6 2.7 9.7 1.9 15.1 -0.8 4.6-3.1 8.5-4.6 12.8 -0.4 0.4-0.8 0.8-1.2 1.2 -1.2 2.7-2.3 4.6-4.3 7 -1.5 1.5-2.7 3.1-4.3 5 -4.3 4.3-8.1 8.1-12 12.8 -0.4 0.8-1.2 1.9-1.9 2.7 -3.5 5.4-6.2 10.4-7.7 16.6 -1.2 5.4-1.5 10.4 0.4 15.8 0.8 2.7 1.9 5 3.5 7.3 10.8 13.5 25.9 20.1 41 26.3 4.6 1.9 8.5 4.6 11.6 8.5 8.5 12 14.7 24.7 19.7 38.1M612.5 920.7c-5.2-4.7-10.2-10.4-10.7-17.7 -0.5-7.9 3.2-15.5 5.2-22.9 0.6-2.2 1-3.6 0.5-5.9 -0.4-2-1-3.9-1.6-5.9 -1.2-3.8-2.7-7.7-3.2-11.7 -0.5-4.2 0.1-8.5 0.8-12.6 0.6-3.5 1.2-7 0.5-10.5 -0.8-3.6-2.9-5.6-5.7-7.7 -3.1-2.3-6-4.7-8.7-7.5 -2.7-2.9-4.8-6.1-7.6-9s-5.8-5.4-9.2-7.5c-3.4-2-7-3.8-10.5-5.5 -3.6-1.7-6.7-3.8-9.9-6.1 -6-4.1-11.8-8.5-16.4-14.1 -4.5-5.5-7.3-12.1-11.7-17.7 -4.7-5.9-11.1-9.6-18.7-10 -6.7-0.4-14.4 1.2-18.3 7.3 -4.1 6.5-1.5 14.5 1.3 20.9 3 6.7 7.5 14.1 6.3 21.7 -1.2 8.2-10.3 11-16.8 13.3 -3.7 1.3-8.4 2.6-11.3 5.3 -1.4 1.3-3.6 2.2-5.3 3.2 -1.8 1.1-3.6 2.1-5.5 3 -3.8 1.8-7.7 3.5-11.8 4.3 -3.9 0.7-7.8 0.9-11.6 2.2 -2.7 1-4.6 2.9-3.6 6 0.8 2.5 3.5 3.7 5.8 4.6 7.1 2.9 14.4 4.7 21.9 6.2 8.3 1.7 16.7 3.8 25.2 3.4 4.3-0.2 8.5-0.8 12.8-1.5 3.8-0.6 7.6-1.4 11.4-0.4 1.7 0.4 3.3 1.1 4.6 2.1 1.3 1 2.8 2.5 3.6 3.9 1.7 3.1 2.9 6.5 3.5 10 1.2 6.9 0.3 14-2 20.6 -2.5 7-6.5 13.1-11.6 18.4 -5.5 5.8-11.8 10.7-17.5 16.2 -10.9 10.7-16.8 27.9-8 41.6 6.9 10.8 19 16.1 30.4 20.5 6 2.3 12.6 4.1 17.2 8.8 2.7 2.8 4.4 6.2 6.1 9.6 2 3.9 4 7.8 5.9 11.7 3.8 7.8 7.5 15.6 10.9 23.6M612.6 1022.8c-0.5 4.1-1.1 8.3-1.8 12.4M612.5 986.5c-2.2 4.7-0.8 10.2 0 15.1M612.5 968.9c-4.4-1.4-11.3-3.2-13.5 2.4 -3.1 7.8 0.5 17.3 3 24.8 2 6 4.5 12.1 4.7 18.5 0.2 6.9-0.5 13.8-1.5 20.6M612.5 956.7c-1.4-1.2-2.2-3.7-2.9-5.4 -0.8-1.9-1.5-3.7-2.4-5.5 -1.7-3.7-3.8-6.8-6.8-9.5 -2.8-2.5-6-4.6-9.1-6.6s-5.8-4.4-8.1-7.2c-2.2-2.8-4-5.8-5.8-8.9 -1.6-2.7-3.4-7.2-7.1-7.5 -3.1-0.3-6.4 3.7-8.1 5.9 -2.1 2.7-3.7 5.8-5.1 8.9 -1.6 3.6-2.8 7.2-2.8 11.2 0 3.8 0.9 7.7 2.4 11.2 2.5 5.9 6.8 10.9 11.3 15.3 4.6 4.6 10.1 8.8 13.9 14.2 4.8 7 8 14.8 11.2 22.6 2.6 6.3 5 12.7 6.3 19.4 1.3 6.8 0.8 13.6-0.2 20.4M612.5 939.8c-4-6.8-11-10.7-17.5-15.3 -2.7-1.9-4.6-3.9-6.6-6.6 -1.9-2.3-2.3-4.6-2.7-7.3 -2.3-10 1.2-19.3 2.7-29.4 1.9-9.7-1.9-18.5-8.9-25.1 -3.5-2.7-7.7-5-12.4-4.3 -5.4 0.8-7.3 5.4-8.5 10.4 -1.2 7.7-0.8 15.1-1.9 22.8 -1.2 7.3-3.5 14.3-6.6 20.9 -5 9.7-13.1 15.8-18.9 25.1 -1.2 2.7-2.7 5-2.3 8.1 1.5 10.4 12 14.3 20.1 19.3 4.6 3.1 8.5 6.2 12 10 3.5 4.3 6.6 8.1 8.1 13.1 4.6 12 10 23.2 14.7 35.2 1.9 5.8 2.7 12 2.4 18.3M612.5 935c-4.9-5.7-11.6-9.2-17.1-14.3 -5.8-5.4-7.7-12.6-6.9-20.4 0.8-8.3 4.6-16.2 4.3-24.6 -0.3-7.6-3.3-15.8-8.2-21.7 -5.1-6.1-12.6-10.2-19-14.8 -2.3-1.6-5.4-4.6-8.3-4.7 -3.4-0.1-3.9 5.3-4.2 7.8 -1.1 8.7-1.4 17.4-1.7 26.2 -0.3 8.6-0.8 17.3-3.3 25.7 -2.3 7.7-6.4 14.4-12.2 20 -5.7 5.4-12.6 9.4-18.6 14.4 -5.3 4.4-10.2 11-6.6 18 3.4 6.6 11.8 9.6 18.4 11.9 7.5 2.6 15.4 4.5 21.8 9.4 6.3 4.8 10 11.5 12.4 18.9 1.3 3.9 2.2 8 3.6 11.9 1.4 3.9 3 7.8 4.8 11.5 3.7 7.5 6.8 15.6 7.8 24 0 0.3 0.1 0.7 0.1 1M612.5 931.2c-2.9-2.8-6.1-5.2-9.2-7.6 -3-2.3-6.1-4.8-8.2-8 -4-6.1-4.2-13.9-2.5-20.9 1-4.1 2.4-8.2 3.2-12.3 0.8-4.2 0.9-8.2 0-12.4 -0.8-4-2-8.1-3.5-11.9 -1.4-3.4-3-7.4-5.5-10.2 -2.6-2.9-6-5.1-9-7.6 -2.9-2.4-5.4-5.3-7.3-8.5 -1-1.6-1.9-3.3-2.5-5.1 -0.6-1.6-1.2-2.9-1.8-4.4 -1.2-3.4-3.3-6.8-6.1-9.1 -4.6-3.6-11.7-2.8-14.4 2.6 -3.6 7.3-2 15.9-1.6 23.6 0.5 8.5 0.8 17.1 0.6 25.7 -0.2 8.3-0.7 17-2.8 25 -1.7 6.5-4.8 12.7-9.4 17.6 -3.9 4.3-8.8 7.3-13.7 10.4 -8.2 5.2-18.9 11.6-20 22.3 -1.5 13.8 12.6 20.7 23.7 24 6.1 1.8 12.7 2.7 18.4 5.6 6.1 3.2 11.2 8.5 13.3 15.2 1.2 4 2 8.1 3.1 12.1 1.2 4.2 3 8.1 4.8 12.1 3.4 7.4 7.1 14.8 9.5 22.6 0.3 1 0.6 2 0.9 3.1M612.5 927.5c-5.5-5.1-12.5-9.2-15.6-16.3 -3.2-7.4-1.3-15.2 0.8-22.6 1.2-4.1 2.3-8.2 2.2-12.4 -0.1-4.3-1.3-8.3-2.2-12.5 -1.8-7.7-3.1-15.8-8.5-22 -2.4-2.7-5.3-5.1-7.7-7.8 -2.5-2.7-4.3-5.9-6-9.2 -1.6-3.2-2.8-6.6-4.8-9.7 -1.9-2.9-4.3-5.4-7.1-7.4 -5.7-4.1-13.7-7.2-20.7-5.2 -6.8 1.9-9.5 8.3-10 14.8 -0.6 8.5 1.7 17 3.1 25.3 1.5 8.7 1.8 17.4 1.2 26.3 -0.5 8.3-1.4 16.9-4.6 24.6 -3 7.3-8.3 13.1-14.5 17.9 -11.4 8.7-30.3 18.4-27.3 35.8 1.3 7.5 6.7 13.2 13 17.1 6.9 4.3 14.9 6 22.5 8.3 7.2 2.2 14 5.3 17.9 12.1s4.8 14.9 7.7 22.1c3.9 9.8 10.3 18.5 13.4 28.6M400.5 729.5c-4.4 4.1-9.2 7.4-15.2 8.7 -5.9 1.2-11.9 0.5-17.8-0.2 -5.9-0.6-11.7-0.9-17.5-0.2 -5.6 0.7-11 2-16.5 3 -6.1 1.1-12.3 2-18.3 3.7 -5.8 1.7-11.2 4.2-16.2 7.5 -5.1 3.3-9.7 7.4-14.3 11.4 -4.2 3.7-8.7 6.8-13.5 9.7 -5.2 3.1-10.3 6.1-14.4 10.6 -3.9 4.3-6.9 9.5-9.2 14.8 -2.4 5.4-4.5 11.3-3.9 17.3 0.6 5.8 3.6 10.9 7.7 15 4.3 4.4 9.6 7.4 14.8 10.5 5 2.9 9.9 5.9 12.8 11.2s4.2 11.3 6.9 16.7c2.7 5.3 6.5 9.9 8.7 15.4 1 2.6 1.6 5.8-0.9 7.8 -2.2 1.7-5.5 2-8.2 2.2 -5.6 0.3-11.3-0.6-16.8-1.7 -6-1.2-12-2.6-18-3.4 -6-0.9-12-1.2-17.9 0.5 -5.7 1.7-10.7 4.9-16.5 6.4 -5.7 1.5-11.6 1.9-17.1 4 -5.6 2.1-10.8 5.2-16.1 7.9 -5.4 2.7-11.1 4.8-16.7 7 -5.3 2.1-10.4 4.6-15.7 6.7 -5.4 2.2-11.3 3.9-17.2 3.3 -6-0.7-11.2-3.5-16.3-6.5 -5.2-3-10.3-5.4-16.1-7.1 -2.9-0.8-5.8-1.5-8.4-3.1 -2.5-1.5-4.3-3.6-5.6-6.2 -2.7-5.2-5-10.9-7.5-16.2 -2.6-5.7-4.1-11.5-5.4-17.6 -1.2-5.7-3-11.2-5.2-16.7 -2.2-5.4-4.8-10.7-6.8-16.3 -2-5.5-3.1-11.5-5.9-16.7 -2.8-5.2-7-9.5-9.1-15.1 -2.2-5.6-2.5-11.7-2.9-17.7 -0.5-5.8-0.9-11.5-2.5-17 -1.7-5.7-4.5-10.9-6-16.7s-1.5-11.9-3.3-17.7c-0.6-1.8-1.4-3.6-2.2-5.2M612.7 732c-0.7-0.8-1.5-1.6-2.2-2.4M405.5 729.5c-6 6.3-12.9 11-21.4 11.7 -10 0.8-20.1-1.5-30.1-1.2 -8.1 0.4-15.8 2.7-24.3 3.9 -6.6 1.2-13.1 2.7-19.3 5 -5.4 2.3-9.7 5.4-14.3 8.9 -7.3 6.6-13.5 13.1-22 18.2 -7 3.9-13.5 8.5-17.8 15.5 -0.4 0.4-0.8 0.8-1.2 1.2 -4.3 7.7-8.1 15.5-7 24.3 0.8 5.4 3.9 10 7.7 13.9 0.4 0.4 1.2 0.4 1.5 0.8 0.8 0.8 1.5 1.5 2.3 2.3 9.3 5.8 21.3 8.1 24.7 18.5 2.7 7.7 4.3 15.5 8.9 22.4 3.9 5.4 7.7 9.7 10 15.5 0.8 1.2 1.2 2.7 0.8 4.3 -1.2 3.5-5 4.3-8.1 4.3 -12.4 1.2-24.3-1.9-36.7-4.3 -5.8-1.2-11.2-1.5-17-1.2 -8.1 0.8-14.3 7-21.6 10 -1.9 0.8-4.3 1.2-6.2 1.5 -7 0.4-14.3 1.5-20.9 3.9 -3.1 1.5-6.6 3.1-9.7 4.6 -10.4 4.3-20.5 8.5-30.9 13.1 -6.6 2.7-13.5 4.3-20.9 3.5 -3.5-0.4-6.2-1.9-9.3-3.1 -5.8-2.7-10.8-7-17-9.3 -3.5-1.2-7.3-1.5-11.2-2.3 -4.6-0.8-9.7-2.3-11.2-7 -1.5-5.4-2.7-10.4-4.6-15.5 -2.3-5-4.6-9.7-6.6-15.1 -1.5-5-1.9-10.4-3.5-15.5 -1.2-3.9-2.7-7.3-4.3-11.2 -4.6-8.9-8.1-18.2-12-27.4 -1.5-4.3-4.3-8.5-6.6-12.8 -2.7-4.6-4.6-9.7-5-15.1 -0.4-7-0.4-13.9-1.2-21.3 -1.2-6.2-3.5-12-5.4-17.8 -2.3-6.2-3.1-12.4-3.9-18.5 -0.4-3.1-1.5-6.2-3.4-9M612.7 736c-1.7-2.3-3.6-4.5-5.8-6.5M410.4 729.5c-3.8 4.4-8.4 8.5-13.6 11.1 -5.2 2.6-10.9 3.5-16.7 3.4 -6.1-0.2-12.1-1-18.1-1.2 -5.7-0.2-11.4 0.4-17 1.4 -6.4 1.1-12.7 2.2-19 3.4 -5.4 1-10.8 2.5-15.8 4.9 -5.4 2.7-10.2 6.3-14.5 10.4s-8.3 8.3-13.1 11.7c-4.9 3.5-10.4 6.1-15 9.9 -4.6 3.7-8.2 8.3-10.9 13.5 -2.7 5.2-4.9 11-4.7 17s3.3 11.2 7.8 15c4.6 3.9 10.4 6.1 15.9 8.4 5.1 2.1 10.8 4.6 13.2 10 2.5 5.4 1.7 11.8 3.5 17.4 1.8 5.6 5.2 10.3 8.9 14.8 3.7 4.5 8.2 8.8 10.9 14.1 1.2 2.3 2.4 6-0.3 7.8 -2.4 1.6-5.8 1.7-8.5 1.7 -6 0-11.9-0.5-17.8-1.3 -6.4-0.8-12.7-2-19-3.1 -5.5-1-11.1-1.8-16.7-1.6 -6 0.2-11.2 2.3-15.9 6.1 -4.5 3.7-8.6 8.1-14.7 8.9 -5.9 0.7-11.7-0.9-17.6-0.3 -5.3 0.6-10.4 2.4-15.4 4.3 -6.1 2.4-12.3 4.6-18.4 7.2 -5.5 2.4-10.9 5.1-16.5 7.1 -5.4 2-11.3 3.4-17.2 3.1 -6-0.3-11.4-3.1-16.5-6.1 -4.9-2.9-9.8-6.2-15.5-7.4 -2.8-0.6-5.6-0.7-8.5-0.6 -3 0.1-6.3 0.4-9.2-0.4 -6.5-1.8-6.1-9.7-6.6-15 -0.7-6.1-2.9-11.4-5.5-16.9 -2.5-5.3-4.1-10.6-5.4-16.3 -1.3-5.8-2.9-11.5-5.4-16.9 -2.5-5.5-5.4-10.8-7.9-16.3s-4.3-11.2-7-16.6c-2.6-5.3-5.8-10.4-7.6-16.1 -1.7-5.3-2.2-10.9-2.4-16.5 -0.2-6.1-0.1-12.3-1.2-18.4 -1.2-6-3.8-11.4-5.5-17.2 -1.7-5.6-1.5-11.5-3-17.1 -0.7-2.7-1.7-5.2-3.3-7.5M612.2 744c-3.1-5.5-7-10.6-12-14.4M419.4 729.5c-3.5 4.7-7.4 9.1-12 12.8 -4.7 3.7-10.2 6-16.1 6.9 -5.9 0.9-11.9 0.2-17.9-0.1 -6-0.4-11.9-0.6-17.9-0.1 -5.7 0.5-11.4 1.5-17 2.5 -5.8 1-11.8 2-17.5 4 -5.6 2-10.7 5-15.3 8.9 -4.4 3.9-8.2 8.6-12.7 12.4 -4.5 3.8-9.7 6.3-14.7 9.3 -5.1 3-9.7 6.8-13 11.8 -3.2 4.8-5.7 10.5-5.7 16.3 0 6.2 3.6 11.3 8.8 14.5 5.1 3.1 11 4.4 16.7 6 5.1 1.5 12.1 3.1 15.5 7.5 3.8 4.9-0.5 11.8-1.4 17.1 -1 5.8 0.7 11.5 4 16.3 3.3 4.7 7.5 8.5 11.6 12.4 4.5 4.2 9.3 8.2 12.9 13.1 1.8 2.4 3.2 5 4 7.8 0.7 2.6 1.1 6.2-0.8 8.3 -1.9 2.2-5.3 1.7-7.8 1.1 -3.2-0.8-6.3-1.9-9.4-2.9 -5.4-1.7-10.9-2.8-16.4-3.7 -6.5-1-13.1-1.9-19.7-2.8 -5.3-0.7-10.7-1.4-16-1.4 -5.8 0.1-11.5 1.5-16.3 4.9 -4.9 3.4-9 8-14.1 11.2 -5 3.2-10.7 4.7-16.7 3.6 -5.9-1-11.3-3.2-17.4-3.2 -5.8 0-11.6 1.4-17.1 3.2 -6.1 1.9-11.9 4.4-17.7 6.9 -5.1 2.2-10.4 4.2-15.7 5.8 -5.7 1.7-11.7 3-17.6 1.7 -5.9-1.2-11.1-4.8-16.2-8 -4.9-3-10-5.6-15.9-5.6 -5.9 0.1-11.3 2.8-17.1 3.1 -2.9 0.1-5.7-0.7-7.5-3.1 -1.7-2.3-2.2-5.3-2.3-8.1 -0.3-5.9 1.2-11.8 0.3-17.7 -0.9-5.9-4.4-11-6.7-16.4 -2.4-5.5-3.1-11.5-4.5-17.2 -1.4-5.8-3.7-11.1-6.4-16.4s-5.7-10.5-8.2-16c-2.5-5.6-4.8-11.2-7.3-16.8 -2.2-5.1-4.2-10.5-5.3-16.1 -1.1-5.8-1.4-11.6-1.7-17.5 -0.2-5.9-0.4-11.8-1.6-17.5 -1.3-5.8-3.5-11.4-4.6-17.2 -1.2-5.9-1.1-12.2-4.1-17.5 -0.8-1.5-1.9-2.8-3.1-4M612.2 749c-3.9-7.5-8.5-14.5-15.6-19.4M423.1 729.7c-5.8 7.8-12 15.6-20.9 20.2 -0.8 0.4-1.9 0.8-2.7 1.2 -1.9 0.8-3.9 1.2-6.2 1.5 -3.5 0.4-6.6 0.8-10 0.4 -6.6-0.8-13.5-1.2-20.1-0.8 -17.8 0.4-37.1 1.5-52.2 13.5 -4.6 3.9-8.1 8.5-12.8 12.8 -3.5 3.1-7.3 5-11.2 7.3 -1.9 1.2-4.3 1.9-6.2 2.7 -2.3 1.2-4.3 2.7-6.2 4.3 -8.9 7.3-16.2 20.5-7.7 30.5 1.9 1.9 4.3 3.5 6.6 4.6 5 2.3 10.4 3.5 15.8 5 1.2 0.4 2.3 0.4 3.5 0.4 6.6 1.9 15.8 2.3 17.4 10 0.8 3.9-2.3 7-4.6 10 -1.5 2.7-3.1 5.8-3.5 8.9 -0.8 6.6 2.7 12.8 7 17.4 8.1 8.1 17.4 13.9 24.3 23.2 1.9 3.1 3.1 6.2 4.3 9.7 0.8 3.5 1.9 6.6 0.8 10 -2.3 5.4-9.3 4.3-13.5 2.3 -5-2.3-9.7-4.6-14.7-6.6 -9.7-3.1-18.9-3.9-29-5.4 -5-0.4-10-1.2-15.1-1.2 -4.6 0.4-9.3 1.2-13.9 3.1 -5 2.3-8.9 5.8-13.1 9.3 -0.8 0.4-1.9 1.2-2.7 1.9 -4.6 3.1-8.9 5.4-14.3 7 -3.9 0.8-7.7 0.8-11.2-0.8 -12-4.3-24.3-3.9-36.3 0.4 -13.5 5-26.7 12-41.3 13.5 -2.3 0-5-0.4-7.3-1.2 -8.1-3.5-14.7-9.3-22.8-12.4 -8.1-2.7-15.8 1.5-23.6 3.5 -2.7 0.8-6.2 0.8-8.5-1.2 -2.7-2.3-3.9-5.8-4.3-8.9 -0.8-9.3 1.9-18.5-1.2-27.4 -1.9-5-4.6-9.3-6.6-14.3 -1.9-7-2.7-13.5-4.6-20.5 -3.5-10-10-18.5-14.3-28.2 -3.5-7.7-6.6-15.5-9.3-23.6 -1.2-3.5-1.5-7-2.3-10.8 -1.5-9.7-0.8-18.5-2.7-28.2 -1.9-11.6-4.2-22.4-7-34 -0.8-2.3-1.5-4.3-2.7-6.2 -0.8-0.4-1.2-1.2-1.9-1.9 -0.4-0.4-1.2-0.8-1.7-1.4M612.2 754c-4.1-9.5-10.2-18.4-19.3-24.3M426.4 729.5c-3.3 5-6.7 9.7-10.9 14 -4.2 4.2-8.8 8.1-14.3 10.4 -5.4 2.3-11.5 2.4-17.3 2.2 -6-0.2-11.9-0.8-17.9-0.8s-11.9 0.4-17.9 1.2c-5.9 0.8-11.8 1.7-17.5 3.4s-11 4.3-15.6 8.1c-4.6 3.7-8.2 8.6-12.7 12.6 -4.5 4.1-10 6.5-15.5 9.1 -5.2 2.5-10.2 5.4-14 9.9 -3.7 4.4-6.4 10.4-5.1 16.2 1.3 6 6.7 9.4 12.1 11.4 5.3 2 11 3.2 16.7 4.3 5.9 1.2 12.5 1.9 17.9 4.7 2.5 1.3 5 3.3 4.6 6.4 -0.4 2.7-2.3 4.9-4.2 6.8 -4.2 4.3-9.2 8.7-9.8 15 -0.5 6 3.1 11.3 7.1 15.5 4.1 4.3 8.9 8 13.5 11.8 4.5 3.7 8.9 7.5 11.9 12.6 2.9 5 4.9 11.1 6.3 16.7 0.7 2.7 1.3 5.8-0.3 8.3 -1.6 2.5-5.1 2.7-7.8 2.6 -6-0.3-11.5-3.1-16.8-5.7 -5.4-2.6-10.9-4.8-16.7-6.3 -5.6-1.4-11.3-2.2-17-2.9 -6.1-0.7-12.1-1.3-18.2-0.9 -5.9 0.4-11.4 2.4-16.5 5.3s-9.7 6.5-14.7 9.5c-5.1 3.1-10.5 6.1-16.4 7.2 -6.1 1.3-11.3-0.9-17-2.9s-11.5-2.6-17.5-1.7c-5.4 0.7-10.7 2.4-15.8 4.3 -6.1 2.3-12.3 4.6-18.4 6.8 -5.4 2-11 4.3-16.8 5 -6.1 0.8-11.5-1.6-16.5-4.8 -4.9-3.1-9.5-7-15.1-8.7s-11.2-0.5-16.5 1.6c-4.9 1.9-12.2 6-17.3 2.7 -4.9-3.3-4.8-11.4-4.9-16.7 -0.1-5.8 0.7-11.7 0-17.5 -0.7-6.1-3.9-11-6.5-16.5 -2.5-5.4-3.1-11.1-4.1-16.9 -0.9-5.7-2.6-11.2-5.2-16.3 -2.8-5.5-6.3-10.6-9.1-16.1 -2.6-5-4.4-10.5-6.3-15.8 -2.1-5.9-4.1-11.7-5.5-17.8 -1.3-5.5-2.1-11.1-2.4-16.7 -0.4-6.2-0.6-12.4-1.4-18.6 -0.8-5.9-2.5-11.6-3.7-17.4 -1.3-5.6-1.4-11.7-4-16.9 -1.9-3.4-4.7-5.9-8-7.6M612.2 758.5c-5.2-11.4-11.7-22.6-23.1-28.9M429.4 729.8c-4.8 7.3-9.4 14.3-16 20.5 -0.4 0.4-1.2 0.4-1.5 0.8 -4.6 5-11.2 8.1-17.8 8.5 -14.3 1.2-28.6-1.5-43.3 0 -8.1 1.2-16.6 1.2-24 5.4 -0.4 0.4-1.2 0-1.5 0.4 -8.5 4.6-13.5 12.8-20.5 18.9 -0.8 0.8-1.9 1.2-2.7 1.9 -9.7 6.2-21.6 7.7-28.2 17.8 -2.7 5-3.9 11.2 0.4 15.8 0.8 0.4 1.2 1.2 1.9 1.9 1.2 0.8 2.3 1.5 3.5 2.3 4.6 1.9 9.3 3.9 14.3 4.6 8.9 1.2 17.4 1.9 25.9 4.3 2.7 0.8 5.4 2.3 6.6 4.6 1.9 3.9-0.8 8.5-4.6 10.8 -0.4 0.4-0.4 0.8-0.8 1.2 -3.9 3.1-8.1 5.4-10.8 9.7 -0.4 0.8-0.8 1.9-1.2 2.7 -1.9 4.3-1.2 8.9 1.5 12.8 6.6 8.9 15.5 13.5 23.6 20.5 1.2 1.2 2.3 2.3 3.5 3.5 0.4 1.2 1.2 1.9 1.9 2.7 4.3 7.3 7 15.1 9.3 22.8 1.2 2.7 1.5 5.8 0 8.5 -5 6.2-13.5 3.1-20.1 1.2 -7.3-2.3-13.5-6.6-20.5-9.3 -12.8-4.3-26.3-5.8-39.4-5.4 -4.6 0.4-9.3 1.9-13.5 3.9 -5.8 3.1-10.8 6.6-16.2 9.7 -7.3 4.3-13.9 8.9-22.4 10.8 -3.5 0.8-7 0.4-10-0.8 -5.4-2.3-10.4-5-16.2-5.8 -3.1-0.4-6.2 0-9.7 0.4 -15.1 3.1-27.8 9.7-42.1 14.7 -6.2 1.9-13.1 1.9-18.9-1.5 -5-3.5-9.3-7.3-14.7-10 -4.3-1.9-8.5-2.3-13.1-1.5 -8.1 1.9-14.3 7.3-22.4 7.3 -1.5 0-3.1-1.2-4.6-2.3 -2.7-2.3-3.1-5.8-3.5-8.9 -1.5-11.2 1.5-22.8-2.7-33.6 -2.3-6.6-6.6-12-7.7-18.9 -1.2-8.5-1.9-17-5.4-24.7 -3.5-7-8.5-12.8-11.6-19.7 -3.5-7.7-5.4-15.8-8.1-24 -1.5-5-1.5-10-3.1-15.1 -0.8-1.5-0.4-3.5-0.8-5 -0.4-7.7-0.8-15.5-1.5-23.6 -0.8-5.8-2.7-11.6-3.9-17.4 -0.8-8.1-2.3-16.2-9.7-20.9 -2.3-1.2-4.6-2.3-7.5-2.4M612.2 766.7c-3.2-6.4-7.1-12.2-10.2-18.8 -1.2-1.9-2.3-3.5-3.5-5.4 -4.6-6.2-10.8-10.4-17.7-12.9M435.4 729.7c-3.9 6.6-7.7 12.4-12.8 18.2 -0.4 0.4-0.4 1.2-0.8 1.5 -3.9 4.3-8.1 8.1-12.8 12 -0.8 0.4-1.9 1.2-2.7 1.9 -4.3 2.7-8.5 4.6-13.5 5.4 -5 0.4-10 0.4-15.1-0.4 -14.3-2.7-28.2-3.9-42.5-0.4 -0.4 0-0.4 0.8-0.8 0.8 -3.9 1.5-8.1 2.7-10.8 5.8 -0.4 0.4-1.2 0.4-1.5 0.8 -3.5 3.5-6.2 7-8.9 11.2 -3.5 4.6-8.1 7-13.1 8.5 -7.7 2.7-16.6 5.4-18.9 13.9 -1.2 2.7-0.4 5.4 1.2 8.1 1.5 2.3 3.9 3.1 6.2 4.6 1.9 1.2 4.3 1.2 6.6 1.9 10 2.3 20.1 1.9 30.1 2.7 4.3 0.4 8.1 1.2 12 3.5s5.8 7.3 3.5 11.2c-1.5 2.3-2.7 4.6-5.4 6.2 -0.4 0.4-0.4 0.8-0.8 1.2 -6.6 5.4-15.5 7.3-19.3 15.1 -1.2 2.3-0.8 4.6-0.4 7 0.4 0.8 0.8 1.9 1.2 2.7 5.8 8.9 15.1 13.1 23.2 19.7 2.7 2.3 5.4 5 7 8.5 3.9 10.4 9.3 20.1 13.1 30.5 1.5 4.6 0.8 10.8-4.3 12 -11.2 2.7-21.6-3.9-32.1-7 -15.1-7.7-31.7-13.5-49.1-11.2 -13.1 1.9-24.3 8.1-35.9 14.3 -7 3.9-12.8 8.1-19.3 12 -4.6 2.7-9.3 4.6-14.3 2.3 -4.3-2.3-7.3-5.8-11.6-7.7 -5.4-2.3-11.6-2.7-17.4-2.3 -6.6 0.8-12.4 3.1-18.5 5.4 -8.9 3.9-16.6 9.3-26.7 11.6 -8.5 1.5-15.1-4.3-20.5-10 -5-4.6-11.2-8.1-18.5-6.6 -7.3 1.9-13.1 6.6-20.1 9.3 -2.7 0.8-5.4 2.3-8.5 1.5 -3.9-1.2-5.8-4.6-6.2-8.5 -0.8-13.9 2.3-28.2-2.7-41.3 -2.7-6.6-6.6-12.4-8.9-18.9 -1.2-9.7-1.2-19.7-5.8-28.6 -3.9-7.3-10-13.1-12.4-21.3 -5.4-20.1-10.4-40.2-10.4-60.7 -2.3-11.6-1.9-24-8.1-34.8 -1.9-2.7-4.6-5.4-7.9-6.1M612.1 770.5c-1.3-1.4-2-2.9-2.8-4.4 -7.3-15.1-15.8-32.1-33.1-36.5M438 729.7c-1.8 2.4-2.9 5.1-4.9 7.4 -0.8 1.2-1.5 2.7-2.3 4.3 -7 10.4-15.5 18.2-24 27 -1.9 1.9-4.3 3.1-6.6 4.3 -5 1.9-10.4 2.7-15.8 1.9 -14.3-2.7-27.8-6.6-42.5-4.6 -5.8 0.8-10.8 2.7-15.5 6.6 -4.6 3.9-7 9.3-10.8 13.9 -0.8 0.4-1.2 1.2-1.9 1.9 -4.6 4.6-11.2 5.8-17 8.1 -4.3 1.9-9.3 4.3-10.8 8.9 -1.9 5 2.7 8.5 6.6 10.4 3.1 1.2 6.2 1.5 9.3 2.3 6.6 0.8 12.8 1.2 18.9 1.5 8.9 0.8 20.1-0.8 25.5 7.7 1.5 3.1 1.2 7-0.8 10 -5.8 9.3-15.1 13.1-23.2 19.7 -1.5 1.5-2.7 3.5-3.1 5.8 -0.8 5.4 1.9 9.3 5.4 12.8 7.7 7 18.9 9.7 24 19.3 2.3 4.6 3.1 10 4.6 15.1 0 0.4 0.8 0.4 0.8 0.8 0.4 1.2 0.8 2.3 1.2 3.5 6.2 10 14.7 23.6 4.6 33.2 -2.7 1.2-5.8 0-8.5-0.8 -1.9-1.2-3.9-2.3-5.8-3.1 -10-3.9-19.7-7.3-29.4-11.6 -5.8-2.3-11.2-4.3-17-5.8 -7.3-1.5-14.3-1.9-21.6-1.5 -23.2 4.6-43.3 16.2-63 30.9 -2.7 1.9-5.8 2.7-8.9 1.9 -1.9-0.8-3.9-1.9-5.4-3.1 -3.1-3.1-6.2-5-9.3-7.7 -0.4-0.4-1.2 0-1.5-0.4 -6.6-4.3-13.9-3.1-20.9-1.5 -4.3 1.2-8.1 2.3-12 3.9 -7.7 3.1-15.1 7.7-22.8 11.2 -6.2 2.7-13.1 1.9-18.5-2.3 -6.2-5-10.8-12.8-19.3-13.9 -9.7-0.8-17.4 6.2-25.9 9.7 -3.9 1.9-8.9 4.6-13.1 1.5 -3.9-3.1-3.9-8.1-3.5-12.8 1.2-10.4 1.5-20.9 0-31.3 -1.5-8.5-7-15.1-10.4-22.4 -1.2-2.3-1.9-5-1.9-7.7 0-4.3-0.4-8.9-0.8-13.1 -0.4-5.4-1.9-10.8-5.4-15.5 -2.7-3.5-5-6.2-7-9.7 -5.8-10.4-6.6-21.3-9.3-32.8 -0.8-3.1-1.9-6.2-2.3-9.3 0-1.5-0.4-3.5-0.4-5 0-0.8-0.8-1.9-0.8-2.7 0-1.2 0.4-2.3 0-3.5 -0.4-1.5-0.4-3.1-0.4-4.6 -0.8-13.5-2.3-26.7-6.2-39.4 -1.2-3.5-2.3-7-5.4-9.3 -0.8-0.4-1.9-0.4-2.9-1.5M612.2 774.6c-6.4-8.5-9.5-18.1-16-27.4 -6.2-8.9-15.1-15.5-25.8-17.6M440.9 729.7c-7.8 14-18.2 25.6-28.6 38.3 -1.5 2.3-3.1 4.3-4.6 6.2 -3.5 3.5-7 6.6-12 7.3 -9.7 1.2-18.5-2.7-27.4-5.8 -0.4 0-1.2 0-1.5 0 -7.7-2.7-15.8-3.9-24.3-2.7 -4.6 0.8-8.5 2.3-12.4 5.4 -5 4.3-7.3 9.7-11.2 14.7 -1.5 1.9-3.5 3.5-5.8 4.6 -0.4 0.4-0.8 0.8-1.2 1.2 -5 2.7-10.4 3.9-15.5 6.2 -2.7 1.5-5.4 3.9-5 7.3 0.4 1.5 1.5 2.7 3.1 3.9 0.8 0.4 1.2 0.8 1.9 1.2 3.1 1.2 6.2 1.5 9.3 1.9 9.3 0.4 18.5 0.8 27.8 1.2 7.7 0.8 17 3.5 18.2 12 1.5 8.5-5 15.1-12 20.1 -0.4 0.4-0.4 0.8-0.8 1.2 -4.6 3.1-8.5 6.2-12.4 9.7 -1.9 1.9-3.1 4.3-2.7 7 2.3 10.8 13.5 13.5 21.3 19.3 2.7 2.3 5 4.3 5.8 7.3 3.1 13.5 8.5 24.7 15.1 36.3 2.7 5.4 3.1 11.2 2.3 17.4 -1.2 5-1.5 9.7-5 13.5 -7.7 3.1-11.6-6.2-16.6-10.4 -0.8-0.4-1.5-0.4-2.3-1.2 -1.9-2.3-4.6-3.9-7.3-5.4 -10.8-5.4-22-9.3-33.6-13.1 -3.9-1.2-7.7-1.9-12-2.3 -10.8-0.8-21.3 1.2-30.9 5.8 -0.8 0.4-1.2 0-1.9 0.4 -10.4 4.6-20.5 8.5-30.5 15.5 -7 5-11.6 11.2-18.9 14.7 -3.5 1.5-7 0-9.7-2.3 -4.3-4.6-7.7-10.4-13.5-12.8 -8.5-3.9-17.8-1.9-26.3 1.5 -1.9 0.8-4.3 1.2-6.6 2.3 -5 3.1-10 6.2-15.1 8.9 -3.1 1.9-6.6 3.1-10 3.9 -11.2 1.5-18.5-7.7-25.5-15.1 -1.9-1.9-5-2.7-7.7-3.5 -5.4-0.8-10 1.2-14.7 3.9 -7 4.6-13.5 8.9-22 10.4 -3.5 0.8-5.4-2.3-6.6-4.6 -1.9-3.5-1.5-7.3-1.2-11.2 1.2-8.1 2.3-16.2 1.9-24.3 -0.4-5-0.8-10.4-3.1-15.1 -1.9-4.3-4.6-8.5-7-12.8 -0.4-0.4-0.8-0.8-1.2-1.2s0-1.2-0.4-1.5c-1.5-2.3-2.3-4.6-2.7-7.3 -0.4-7 0.4-13.5-1.2-20.5 -1.2-3.9-3.1-6.6-5-10 -0.8-0.8-1.5-1.5-2.3-2.7 -1.5-2.7-3.5-5-5-7.7 -2.3-4.3-3.9-8.5-4.6-13.5 -0.8-5.8-1.5-11.6-3.5-17.4 -4.6-16.2-3.9-32.8-5.8-49.5 -0.8-4.6-1.5-8.9-3.1-13.1 -1.5-3.1-2.7-6.2-5-8.9 -0.8-0.4-1.5-1.2-2.1-1.9M612.1 777.8c-5.1-6.4-8.9-13.6-12.7-20.7 -1.8-3.4-3.4-7-5.8-10.1 -2-2.7-4.4-5.2-7.1-7.3 -7-5.5-15.5-8.7-24.2-10.1M443.9 729.5c-4.9 6.8-8.7 14.3-13.8 20.9 -5.1 6.6-10.7 12.8-15 20.1 -3.6 6.1-7 13.1-13.6 16.4 -7.1 3.5-15.1 1.5-22.1-1.4 -7.6-3.2-14.9-7.1-23.2-8.6 -7.4-1.4-15.8-1.2-22.1 3.5 -5.7 4.3-7.9 11.1-12.2 16.5 -2.2 2.6-4.8 4.9-7.8 6.5 -3.5 1.9-7.6 2.8-10.9 5 -1.2 0.8-3.1 2.2-2 3.8 1 1.4 3.3 1.9 4.8 2.2 4.1 0.9 8.4 1.1 12.6 1.4 8.2 0.6 16.7 0.8 24.7 3.3 6.5 2 13.8 6.5 13.4 14.2 -0.2 3.7-2 7-4.1 10 -2.2 3.4-4.9 6.5-7.8 9.4 -2.9 3.1-6.1 5.9-9.2 8.8 -2.5 2.4-5.6 5.4-5.6 9.1 0 6.9 8 10.9 13.2 13.7 3 1.6 6.1 3.4 8.3 6.1 2.3 2.8 3.2 6.3 3.7 9.9 0.5 3.7 0.9 7.3 2.1 10.9 1.2 3.8 3.1 7.5 5.1 10.9 4 7 8.4 13.6 9 21.9 0.3 4.3-0.1 8.6-0.5 12.9 -0.3 4-0.6 8.1-1.7 12 -0.9 2.9-2.7 6-6 6.2 -2.9 0.2-5.7-1.5-7.8-3.3 -5.5-4.4-8.6-10.7-13.2-15.8 -5.3-5.9-12.7-9.2-19.8-12.2 -7.9-3.3-16.1-6.4-24.5-7.9 -8.3-1.5-17.1-1.3-25.3 0.9 -8.2 2.1-15.9 6-23.7 9.2 -7.6 3.2-15.2 6.6-21.8 11.7 -6.1 4.9-10.7 11.9-17.6 15.7 -2.8 1.5-6.2 2.4-9.3 1.2 -3.3-1.3-5.4-4.6-7.2-7.5 -1.9-3-3.6-6.1-6.3-8.4 -2.7-2.4-6.2-3.9-9.9-4.4 -7.8-1-16.1 1.9-22.9 5.4 -7.2 3.7-13.5 9.6-21.3 12.2 -7.3 2.4-15.1 1.5-21.5-2.7 -5.5-3.7-8.8-10.3-14.9-13.2 -7.2-3.4-15.2 1.5-21.3 5.1 -3.6 2.1-7 4.4-10.7 6.2 -3.5 1.7-7.7 3.8-11.7 3.1 -8.1-1.5-6.6-12.6-5.5-18.4 1.5-8.4 3.2-16.8 2.7-25.4 -0.5-8.3-3-15.7-7.7-22.6 -2.2-3.2-4.6-6.3-6-9.9 -1.4-3.6-1.7-7.4-1.7-11.2 0-4 0.2-8-0.4-12 -0.7-4-2-7.7-4.2-11.2 -4.1-6.7-9.7-12.1-11.8-19.9 -1.1-3.9-1.4-7.8-2-11.8 -0.6-4.3-1.5-8.6-2.4-12.9 -1-4.3-2-8.5-2.7-12.8 -0.7-4.4-1-8.8-1.1-13.2 -0.3-7.9-0.5-15.8-2.1-23.6 -1.5-6.4-3.2-13.8-7.6-18.8M612.1 784.4c-5.1-5.5-9.3-10.9-13.2-17.1 -5-8.9-7.7-18.9-16.2-25.5 -8.5-7-18.9-8.5-29.4-9.7 -2.7-0.4-5-1.2-7.7-2.3 -0.4 0-1.2 0-1.5-0.2M450.2 729.5c-5.4 5.8-8.7 13.4-13.1 19.9 -4.6 6.8-9.9 13.3-13.5 20.7 -3.4 7-4.9 14.7-10.3 20.6 -5.1 5.6-12.3 9.5-19.9 9.5 -16.5 0-27-17.9-43.9-16.3 -6.6 0.6-12.2 5.1-12.7 12.1 -0.5 7.8 5.6 12.8 11.7 16.5 5.9 3.6 12.7 7 16.4 13.2 1.8 2.9 2.4 6.4 1.5 9.7 -1 3.3-3.2 6-5.4 8.6 -5 5.8-10.4 11.8-13.4 19 -1.3 3-2.1 6.4-1 9.6 1.1 3.2 4.1 5.3 6.6 7.4 2.4 2 4.9 4.2 6.4 7 1.8 3.5 1.9 7.6 1.9 11.4 0 4.1-0.2 8.1 0.9 12.1 1 3.8 2.7 7.4 4.8 10.8 4 6.6 9.4 12.6 10.3 20.6 0.5 4.2 0 8.4-0.2 12.6 -0.2 4.4 0 8.8 0.3 13.2 0.2 3.6 0.6 7.2 0.9 10.9 0.3 3 0.4 6.3-0.7 9.2 -2.6 7-10.2 4.6-15.2 1.9 -6.6-3.6-13.1-8.2-17.9-14 -4.9-5.9-7.7-13.3-13.1-18.8 -5.5-5.6-12.9-9-20.3-11.4 -8.2-2.7-16.7-4.1-25.3-3.4 -8.7 0.7-16.7 3.6-24.7 6.8 -7.8 3.2-16 5.8-23.5 9.9 -7.1 3.8-12.6 9.2-17.9 15.1 -5 5.6-10.6 11.9-18.3 13.4 -3.2 0.7-6.8 0.4-9.7-1.4 -2.5-1.6-4.1-4.2-5.3-6.8 -2.5-5.4-3.6-12.2-9.3-15.2 -7-3.7-15.6-0.1-21.8 3.6 -6.8 4.2-12.8 9.6-20.7 11.7 -7.8 2.1-16.4 1.1-23.8-2.2 -3.6-1.6-6.6-3.9-9.6-6.3 -3-2.4-6.1-5.1-9.9-6.2 -8-2.4-15.6 2.7-21.9 7 -6.3 4.2-13.5 9.9-21.4 9.5 -6.6-0.3-10.1-6.4-10.2-12.5 0-4.2 1.1-8.3 2.3-12.2 1.2-4.1 2.4-8.2 3.2-12.4 1.6-8.2 2.2-16.9-0.4-25 -2.4-7.6-8.2-12.7-12.8-19 -2.4-3.4-3.6-7.1-3.4-11.2 0.2-4.3 1.1-8.4 1.1-12.6 0-8.4-4.3-14.8-9.5-21 -2.4-2.8-4.8-5.6-6.6-8.8 -1.9-3.5-2.6-7.1-2.8-11.1 -0.3-4.4-0.2-8.9-0.7-13.3s-1.5-8.7-2.2-13c-1.5-8.3-1.8-16.5-1.8-24.9 0-7.9-0.7-16.3-4.1-23.6M612.2 787.6c-6-6.5-11.4-12.6-16-20.4 -3.1-5.4-5-10.8-8.1-16.2 -5.4-8.9-14.3-13.5-24.3-15.5 -8.9-1.5-17.4-2.7-26-5.9M453.9 729.5c-5.8 5.4-9.2 12.9-13.3 19.5 -4.4 7-9.6 13.7-12.8 21.4 -3 7.2-3.9 15.1-9.2 21.2 -4.9 5.8-12.1 10.1-19.5 11.7 -8 1.7-15.6-0.3-22.4-4.4 -6.3-3.7-12.5-8.8-20-9.9 -5.1-0.7-11.5 0.7-12.4 6.6 -1.1 7 6.1 12.4 11 16.1 6 4.5 13.3 9.2 15.9 16.6 2.7 7.6-2.5 13.3-7.5 18.3 -5.1 5-10.4 11.2-10.7 18.7 -0.3 7.3 5.7 11.4 9 17.2 3.9 7 1.9 14.7 2.3 22.3 0.2 4.1 1.1 8.1 2.9 11.9 1.7 3.6 4 6.9 6.3 10.1 2.2 3.1 4.3 6.2 5.6 9.9 1.3 3.7 1.5 7.3 1.3 11.1 -0.5 9-0.6 17.7 0.7 26.6 0.6 4.4 1.6 8.7 2.4 13.1 0.7 3.6 2 8.1 0.7 11.6 -1.9 4.9-9.1 2-12.4 0.6 -6.6-2.9-12.5-7-18.4-11.2 -6.6-4.7-12.6-9.6-17-16.6 -2-3.3-3.8-6.8-6.1-10 -2.2-3-4.8-5.5-7.8-7.6 -6.5-4.5-14.6-7.3-22.4-8.4 -8.5-1.3-17.4-0.5-25.7 1.9 -8.4 2.5-16.5 6.2-24.6 9.4 -7.7 3-15.1 6.5-21.3 12.2 -5.8 5.3-10.3 11.9-16.4 16.8 -5.8 4.7-13.9 7.5-21.3 5.2 -6.4-2-8.3-8.3-10.4-14 -2.2-5.9-6.4-10.7-13.2-9.7 -7.7 1.1-13.8 6.9-20.3 10.7 -7.3 4.3-15.3 5.8-23.6 4.9 -7.9-0.9-15.4-3.7-21.9-8.3 -2.9-2-5.7-4.3-9-5.7 -3.5-1.5-7.2-1.7-10.8-0.7 -7.6 2.2-13.5 8.2-20.2 12.1 -5.8 3.4-14.1 6.8-20.6 3.2 -6-3.3-7.3-10.8-6.5-17 0.5-4.1 2-8 3.4-11.9 1.4-4 2.6-8 3.4-12.2 1.5-8.1 2-16.7-1-24.5 -2.8-7.5-9-11.9-13.7-18.1 -2.6-3.4-3.5-7.2-3.1-11.5s1.5-8.4 1.6-12.7c0.1-8.3-4.5-14.5-9.9-20.4 -2.4-2.7-5-5.3-7-8.3 -2.1-3.2-3.2-6.7-3.5-10.5 -0.3-4.3 0.2-8.7 0.1-13 -0.1-4.4-0.8-8.8-1.4-13.1 -0.6-4.4-1.3-8.8-1.5-13.2s-0.2-8.8-0.2-13.3c0-4.9-0.2-9.7-1.2-14.5M612.2 798.9c-0.9-0.4-1.7-0.8-2.5-1.5 -7.7-8.5-16.2-15.1-24-23.6 -0.8-1.2-1.9-2.7-2.3-4.3 -1.2-5-2.3-9.7-4.3-14.3 -2.7-5.4-7.3-9.7-13.5-10.8 -0.4 0-0.8-0.8-1.2-0.8 -7.3-0.8-14.3-1.2-21.6-3.1 -0.4 0-1.2-0.8-1.5-0.8 -1.2-0.4-2.7-0.4-3.9-0.8 -7-2.7-13.5-5.4-20.9-7 -10.4-1.9-20.5-3.1-30.9-2.7 -5 0.4-9.7 1.2-14.3 2.7 -0.4 0-0.8 0.8-1.2 0.8 -6.6 1.5-11.2 6.2-14.7 12 -4.6 8.5-9.3 16.6-10 26.3 -0.8 4.3-0.8 8.9-0.8 13.1 -0.4 3.5-1.5 7-3.5 9.7 -5 6.2-12 9.3-18.9 12.4 -2.7 1.2-5.4 1.9-8.1 3.5 -0.8 0.4-1.2 0-1.9 0.4 -1.2 0.4-1.9 1.2-3.1 1.5 -7.3 2.7-17.4 5-19.3 13.9 -0.8 5 0 10-0.4 15.1 -0.4 3.1-1.5 5.8-3.5 8.5 -2.7 3.5-6.2 5-8.9 8.1 -1.9 2.3-3.1 5-3.1 8.1 0 5 1.9 9.7 3.9 14.7 0.8 2.3 1.2 5 0.8 7.7 -0.8 6.6-4.3 12.8-3.5 19.3 0.8 5.4 2.7 10 6.6 14.3 3.5 4.3 7 8.5 10 13.5 1.5 3.1 1.2 6.6 0.8 9.7 -0.8 5.4-2.3 10.8-2.7 16.2 -0.8 9.3 1.2 18.5 6.2 26.7 2.3 4.3 5 8.9 10 10.8 0.8 0.4 1.2 1.2 1.9 1.5 10 4.3 21.3 3.5 32.1 4.3 7.3 0.8 13.9 4.3 19.3 9.7 5.8 6.2 11.2 12.8 12.4 21.4M415.4 1035.2c-5.1-6.5-13.4-8.2-20.9-10.5 -8.3-2.5-16.3-5.3-24.1-8.9 -7.5-3.5-14.1-7.9-20.5-13 -6-4.7-12.7-8.5-18.8-13.1 -3-2.2-6-4.8-8.2-7.8s-4.5-5.8-6.5-8.9c-3.9-6.2-9.7-11.4-16.8-13.4 -17-4.9-32.8 6.1-48.2 11.4 -7.7 2.7-15.2 6.8-20.9 12.6 -4.8 4.9-8.6 10.7-13.8 15.3 -2.9 2.5-6 4.4-9.8 5.4 -2 0.5-4 1.1-6 1.4 -2 0.3-3.9 0.3-5.9 0.8 -7.5 1.8-15.2 5-22.7 1.7 -3.3-1.4-6.2-3.7-9.2-5.7 -3.3-2.2-6.7-3.4-10.6-4.2 -4.1-0.8-8.4-1-12.6-1.4 -4.2-0.5-8.3-1-12.5-1.7 -8.2-1.4-16.4-3.4-24-7 -3.6-1.7-7.3-3.4-11.1-4.6 -4.1-1.3-7.9-1.5-12.1 0.1 -3.9 1.5-7.7 4-11.3 6.1 -3.7 2.1-7.3 4.3-11.1 6.1 -7 3.3-14.3 5.4-22 3.2 -10.4-3-15.5-13.5-16-23.7 -0.2-5.2 0.6-10.4 2.7-15.2 1.5-3.5 3.3-6.7 4.7-10.3 1.4-3.7 2.5-7.5 3.1-11.4 1-7.3 0.3-14.9-4.2-20.9 -2-2.7-4.5-4.7-7.5-6.2 -2.6-1.4-5.3-2.5-7.6-4.3 -6.3-5-3.8-13.1-1.3-19.5 2.6-6.7 3.5-14.5-1.5-20.5 -2.3-2.7-5.3-4.6-8.1-6.7M318.9 1035.2c-4.8-2.9-10.5-4-15.8-5.1 -6.2-1.2-12.4-2.4-18.4-4.4 -5.4-1.9-11.1-4.4-16.8-2.4 -5.6 2-8.4 7.4-11.8 11.9M3.1 1035.2c-1-0.7-1.9-1.4-2.8-2.1M133.4 1034.9c-1.6-7.7-9.4-11.2-16.3-13.5 -8.5-2.3-17-3.5-25.9-2.3 -21.3 1.9-40.6 10.4-60.6 16M299.4 1035.2c-8.5-1-17.4-2.5-26 0M129.4 1035.2c-4.2-10.2-15.4-11.7-25.1-13.7 -5-0.8-9.3-0.4-14.3 0.4 -15.1 3.1-29 5-42.5 10.8 -2.3 1.2-4.6 1.9-7.4 2.5M332.5 1035.1c-4.5-3.7-9.8-6.5-15.5-8.1 -5.8-1.6-11.9-2.4-17.7-4.2 -5.8-1.8-10.6-5.1-16-7.6 -5.5-2.5-11.3-2.6-17-0.5 -5.7 2.2-9.6 6.2-13.2 11 -3.1 4.1-6 7.8-11 9.4M137.4 1035.1c-5.6-15.9-24.6-15.9-38.9-19 -4.3-1.2-8.5 0-12.8 0.8 -20.1 3.5-37.5 10.4-56.8 16.6 -10 2.7-22.4 2.7-28.7-6.8M343.1 1035.2c-4.6-3.6-9.4-7.1-14.5-9.9 -5.4-2.9-11.2-4.1-17-5.6 -5.6-1.5-10.8-3.5-15.7-6.6 -5-3.1-10-6.9-16-7.5s-12 1.7-17.2 4.3c-5.4 2.7-9.4 6.6-13.1 11.1 -3.9 4.7-7.7 8.7-13.8 10 -5.8 1.2-11.9 0.8-17.8 1.4 -3.9 0.4-7.8 1.1-11.4 2.7M141.5 1035.1c-1.3-3.9-2.8-7.4-6.3-10.1 -11.2-7.7-23.6-9.3-36.3-11.2 -9.3-1.5-17.8 1.5-27 3.5 -1.2 0.4-1.9 0.8-3.1 1.2 -1.9 0.4-3.5 0.8-5.4 1.2 -13.9 4.6-27 10-41.7 12.4 -2.7 0.4-5 0-7.7-0.4 -6.2-1.9-11.2-6.6-13.7-12.9M357.7 1035.2c-4.4-3.7-9.4-6.6-14.1-9.9 -5-3.5-10-7.1-15.5-9.8 -5.5-2.6-11.2-4.4-16.7-7.2 -5.3-2.7-9.9-6.5-14.9-9.8 -4.9-3.2-10.2-5.6-16.2-4.9 -5.8 0.7-11.4 2.7-16.8 4.8 -5.6 2.1-10.9 4.6-15.1 8.9 -4.1 4.3-7.1 9.6-11.7 13.3 -4.4 3.6-10.1 4.7-15.6 5.4 -6.1 0.7-12.4 1.1-18.1 3.7 -3 1.4-5.6 3.2-8 5.4M149.7 1035.2c-1.7-4.8-4.1-9-7.9-12.1 -0.8-0.4-1.9-1.2-2.7-1.9 -7.7-5.4-16.2-6.2-24.7-8.5 -1.5-0.8-3.5-1.2-5-1.9 -3.1-1.2-6.2-1.5-9.3-1.9 -0.4 0-1.2-0.8-1.5-0.8 -8.1-1.5-15.1 0.8-22.4 2.7 -13.1 3.9-24.7 8.9-37.9 12.4 -8.1 1.9-16.6 3.1-24.3-0.8s-10.8-12.8-13.7-21M363.5 1035.1c-4.1-3.6-8.4-6.3-13.4-9.4 -10.4-6.6-19.3-13.9-30.5-17.8 -6.6-3.9-12.8-8.1-18.9-13.1 -3.9-3.1-7.7-5.8-12.4-6.6 -5-0.8-9.7 0.8-14.3 1.9 -6.2 2.3-12.4 3.9-18.5 6.2 -4.6 1.9-8.1 5-11.6 8.9 -3.9 4.6-6.2 9.7-11.2 13.5 -7.7 5.4-17 4.6-25.9 6.6 -6.6 1.2-12 4.6-16.7 9.9M154.2 1035.1c-2-3.1-3.8-6.3-5.9-9.3 -2.3-3.1-5.1-5.4-8.5-7.2 -6.8-3.7-14.6-5.5-21.9-7.7 -4.1-1.2-8.1-2.5-12.1-3.6 -4.1-1.1-8.3-2.4-12.6-2.6 -8.7-0.4-17.2 3.4-25.2 6.2 -8.3 2.8-16.7 5.7-25.1 8.2 -7.4 2.1-15.5 3.8-23.1 1.5 -3.1-0.9-5.4-2.4-7.5-4.8 -2-2.1-3.6-4.5-5-7 -2.9-5.1-4.8-10.5-7-16M0.2 954.5c2.4-4.9 6-11.5 1.8-16.5 -0.5-0.6-1.1-1.1-1.7-1.5M369 1035.2c-4.7-4.4-10.5-7.1-16.3-10.6 -11.6-8.1-21.3-15.5-33.6-20.9 -0.4-0.4-0.8-0.8-1.2-1.2 -2.7-1.2-5-3.1-7.3-4.6 -4.6-3.9-8.5-8.1-13.5-11.6 -2.3-1.5-4.6-2.7-7.3-3.1 -5.8-0.8-10.8 0.8-16.2 2.7 -7 2.7-13.9 4.3-20.9 7 -4.6 1.9-8.5 4.6-11.6 8.5 -2.3 3.5-4.3 7-7 10.4 -3.9 4.6-9.3 7.3-15.1 8.5 -7.3 1.2-14.7 1.2-21.6 4.6 -4.6 2.7-8.1 6.6-12.2 10.2M0.2 968.3c0.7-6.3 3.6-11.5 6.6-17 2.6-4.9 5.2-10.9 1.8-16.1 -1.8-2.8-5.1-4.4-8.3-5.1M158.6 1035.2c-0.6-1-1.4-1.7-2.2-2.5 -3.5-5.4-6.2-10.4-11.2-14.3 -3.1-1.9-5.8-3.5-8.9-4.6 -12-3.9-24.3-6.6-36.3-10.8 -2.7-0.8-5-1.2-7.7-1.5 -4.6 0-8.9 1.2-13.1 2.3 -16.6 5.4-31.7 14.3-49.1 14.7 -5.4 0.4-10.8-0.8-14.7-4.6 -9.7-10-14.7-24.3-15.3-37.9M392 1035.1c-1.8-0.9-3.3-2.4-5.3-3.2 -10.4-4.3-20.1-8.1-30.1-13.9 -7.3-4.6-12.8-10-20.1-15.1 -3.9-2.3-7-3.9-10.8-6.2 -5.4-3.5-9.7-7.3-13.5-12.4 -4.3-5-8.5-10-14.7-12.8 -5.8-2.7-12.4-1.9-18.5 0 -5 1.9-10 4.6-15.1 6.6 -10 3.1-20.9 4.6-28.2 13.1 -0.8 0.8-1.5 1.2-2.3 1.9 -0.8 0.8-1.2 1.5-1.9 2.3 -2.3 4.2-4.6 7.7-7.7 11.2 -1.5 1.5-3.1 2.7-5 3.5 -0.8 0.4-1.9 0.8-2.7 1.2 -3.5 1.2-7.3 1.5-11.2 2.3 -3.5 0.4-7 0.8-10.4 1.9 -6.2 2.7-11.2 7.7-17.4 11.2 -1.2 0.4-2.7 1.2-4.3 1.2 -3.5-0.4-6.6-1.9-8.5-4.3 -5-6.2-9.7-12-17-14.3 -15.5-5.4-30.9-8.5-46-14.3 -5-1.9-10-3.5-15.5-2.7 -9.3 1.5-16.6 7-25.1 10.4 -2.3 0.8-4.3 1.5-6.6 2.7 -8.5 3.1-17.8 5.8-26.7 1.9 -5.8-2.7-9.7-7.3-12.8-12.8 -3.9-8.1-5-16.6-3.9-25.5 1.2-8.5 6.2-15.1 9.7-22.8 3.1-7.7 3.1-17-2.3-23.6 -0.8-0.4-1.2-1.2-1.9-1.9 -5-2.7-10.4-3.9-16-4.4M0.2 887.3c1.3-3.7 1.8-7.6 0-11.2M400.7 1035.1c-1.2-0.9-2.3-2-3.9-2.8 -13.9-5.4-27-9.3-40.2-17.8 -5.8-3.5-10.4-7.7-15.8-11.6 -6.2-4.3-12-7.7-17.8-12 -2.3-2.3-4.6-4.3-7-6.6 -2.3-3.1-5-6.2-7.3-9.3 -2.7-3.1-5.8-5.8-9.7-7.3 -4.3-1.5-8.9-2.3-13.5-1.5 -9.3 1.5-17.4 6.6-26.3 9.3 -2.7 1.2-5.4 1.9-8.1 2.7 -3.5 1.5-7 2.7-10 4.6 -0.4 0.4-0.8 0.8-1.2 1.2 -3.1 1.2-5 3.5-7.3 5.8 -4.6 5.4-7.7 11.6-13.9 15.8 -7.7 5.4-16.6 5-25.1 7.3 -7.3 1.9-13.1 9.3-21.3 8.1 -6.2-1.2-9.7-6.2-14.3-10 -10.8-7.3-22.8-8.1-35.2-11.2 -8.5-2.3-16.2-5.4-24.3-8.5 -6.2-2.3-13.5-2.7-19.7 0 -16.2 7-33.6 20.5-51.8 12 -10.4-7.3-13.9-20.9-13.1-32.8 0.4-1.5 0.4-3.5 1.2-5 0.4-1.5 0.4-3.5 1.2-5 2.3-5 5.4-9.7 7.3-15.1 2.7-8.5 3.1-18.5-3.5-25.5 -4.6-4.6-10.8-5.4-17-7 -1.2-0.4-1.9-0.8-2.9-1.5M0.2 894.7c2.5-5.1 5.4-10.7 4.9-16.7 -0.3-3.4-2.2-6.6-4.9-8.8M612.5 904.7c-0.8-3.2-0.7-6.3 0-9.5M612.6 859.2c-1-3.1-0.7-6.5 0-9.7M612.6 814.8c-3.4-2.2-7-4.3-10.3-6.6 -3.3-2.4-6.3-5.2-9.5-7.8 -3.1-2.6-6.5-4.8-10-6.6 -3.4-1.8-6.9-3.4-10-5.5 -3.1-2-5.7-4.6-7.4-7.8 -1.6-3.1-2.3-6.5-2.9-9.8 -0.6-3.3-1-7.2-3.8-9.5 -2.8-2.4-6.8-2.7-10.1-3.6 -7.9-2.3-14.4-6.9-21.6-10.6 -7.6-3.8-15.7-5.7-24.2-5.9 -7.8-0.2-16.4 0.3-23.3 4.3 -6.6 3.7-10.2 10.3-10.3 17.9 -0.1 4 0.7 8 1.9 11.7 1.2 3.8 2.5 7.6 2.7 11.7 0.3 7.3-5.1 11.9-10.5 15.9 -6.8 5-13.9 9.5-21.9 12.2 -7.7 2.6-15.9 3.5-23.2 7.1 -6.1 3.1-10.8 8.8-8.5 15.9s8.8 12.1 13.8 17.3c5.8 6.1 9.9 12.9 13.4 20.6 3.4 7.5 6.6 15 5.9 23.5 -0.3 4.3-1.2 8.5-1.7 12.8 -0.5 4.4-0.3 8.7-0.4 13.1 0 4.3-0.3 8.6-1.4 12.8 -1 3.9-2.6 7.7-3.7 11.7s-1.5 8.2 0.9 11.9c2 3.2 5.4 5.6 8.6 7.5 7.2 4.3 15.2 7.1 22.6 10.9 7.8 3.9 15 8.6 22.5 12.9 7 4.1 14.4 7.7 20.3 13.4 8.2 8 13.9 18.2 17 29.2M612.6 912.2c-3.4-5-4.8-10.7-3.5-16.7 0.7-3.1 2.1-6 3.5-8.8M612.5 866.7c-1.4-2.7-2.7-5.3-3.3-8.3 -0.6-2.9-0.4-5.9 0.2-8.8 0.7-2.9 1.9-5.7 3.1-8.4M612.5 820c-2.9-2.7-6.6-4.4-9.9-6.5 -3.4-2.2-6.4-4.9-9.5-7.6 -3-2.7-6.1-5.2-9.5-7.2 -3.6-2.1-7.4-3.8-11-5.8 -6.6-3.6-11.7-8.5-15.2-15.1 -1.9-3.6-3.5-7.1-6.5-9.9s-6.6-5-9.9-7.4c-6.6-4.9-12.7-10.4-20.3-13.6 -7.7-3.2-16.1-4.2-24.4-3.3 -7.1 0.8-14.8 3.1-19 9.3 -4.4 6.5-3.1 14.6-0.9 21.7s6.1 15.4 1.2 22.3c-3.9 5.6-11.1 8.6-16.7 12.2 -3.5 2.2-7 4.5-10.8 6.3s-7.8 3-11.9 3.9c-7.1 1.7-15.2 2.4-20.9 7.3 -5.9 5.1-3.1 12.5 1.5 17.3 5.5 5.7 12.9 9.9 19.8 13.7 7.6 4.2 15.4 7.6 23.5 10.6 5.9 2.1 13.7 3.9 17.1 9.8 3.6 6.3 0.5 14.4-2.9 20.1 -4.1 7-9.8 12.9-13.8 19.9 -4.1 7.2-7.2 15.3-8.7 23.5 -1.5 7.9-0.5 15.7 4.8 22.1 5.1 6.2 12.4 10.5 19 14.8 7.2 4.6 14.4 9 22.1 12.7 3.6 1.7 7.3 3.4 10.6 5.6 3.2 2.1 6 4.8 8.4 7.8 5 6.2 9.4 13.5 12.6 20.8 1.4 3.2 2.6 6.6 3.7 10M612.2 793.4c-3.1-2.9-5.8-6-8.7-9.1 -2.7-2.9-5.4-5.8-8.1-8.8 -2.5-2.9-4.8-6.1-6.4-9.7 -1.6-3.6-2.7-7.3-4.4-10.8 -3.2-6.6-9-11.5-15.9-14 -7.9-2.8-16.6-2.3-24.7-4.6 -6.8-1.9-13.2-4.8-19.9-6.8M463.1 729.7c-3.7 1.7-6.8 4.4-9.1 7.8 -9.3 14.3-18.5 28.2-20.1 45.2 -0.4 7.3-5.8 12.4-11.6 16.6 -10.8 7.3-22 10-34.8 12.4 -2.7 0.4-6.2 0.8-7.7 3.1 -0.8 1.5-1.5 3.5-1.2 5.4 1.2 5.8 2.7 11.2 2.3 17 -0.4 4.3-3.9 7-6.2 10 -7.3 4.6-14.3 13.1-10.4 22 2.7 5.8 6.2 10.8 7 17.4 0.4 3.9-0.4 7.3-1.2 11.2 -1.2 7-0.4 13.9 3.1 20.1 3.5 5.8 8.1 10.4 11.2 16.2 2.7 6.2 1.5 12.4 0.8 18.9 -1.9 18.2 1.9 37.9 15.8 50.6 0.4 0.4 1.2 0.4 1.5 0.8 7.7 7.3 18.2 9.3 28.2 12 7.3 2.3 13.9 8.1 12.4 16.2 -0.8 2.7-3.9 3.1-5.8 1.5 -7.3-5.4-13.9-11.6-23.2-13.1 -10.4-1.2-20.5-2.7-30.5-6.2 -6.6-2.3-12-5.8-18.2-8.9 -0.4-0.4-0.8-0.8-1.2-1.2 -10-6.2-18.2-12.8-27.8-19.7 -2.3-1.9-3.9-3.5-5.8-5.8 -2.7-3.5-4.6-7-7-10.8 -2.3-3.1-4.3-6.2-7.3-8.9 -4.3-3.5-8.9-5.8-14.3-6.6 -1.5-0.4-3.5-0.8-5-1.2 -9.3-0.8-18.2 0.4-26.7 3.9 -8.9 3.9-17.8 7-26.7 10.8 -1.9 1.2-3.9 1.9-5.8 3.1 -0.8 0.8-1.5 1.5-2.7 1.9 -0.4 0.4-0.8 0.8-1.2 1.2s-1.2 0.4-1.5 0.8c-3.9 3.5-7.3 7.3-10.8 11.6 -4.6 5.4-9.7 10.4-16.6 12.8 -8.9 2.7-19.7 5-27.8-1.5 -3.5-3.1-5.4-7.7-9.3-10.8s-8.5-1.9-12.8-0.4c-7.7 3.5-15.8 5-24.3 4.6 -7.3-0.8-15.1-1.9-22-5 -0.8-0.4-1.2 0-1.9-0.4 -5.4-2.7-10.4-5.8-15.8-8.1 -5.8-2.3-11.6-0.4-17 3.1 -9.7 6.6-18.9 13.9-30.5 13.9 -3.5 0-7.3-1.2-10-3.5 -0.4-0.8-1.2-1.2-1.9-1.9 -3.1-3.9-4.3-8.1-5-12.8 -0.4-3.5 0-7 1.2-10.4 1.2-5 3.5-9.7 5.4-14.7 3.9-11.6 5.8-25.1-2.3-35.9 -3.9-4.6-8.9-7.7-12.8-12 -5.8-6.6-1.2-15.1 0-22.8 1.5-10.8-6.6-18.9-14.7-25.1 -1.2-1.2-2.3-1.9-3.3-3.4M612.2 790.4c-4.4-5.4-9.5-9.7-13.7-15.1 -0.4-0.8-1.2-1.9-1.9-2.7 -2.3-3.5-4.6-7-5.8-10.8 -3.9-11.6-13.1-22.4-25.5-23.6 -12-1.5-22.8-5-33.8-8.7M0.2 828c0.3-3.6 0.3-7.1 0-10.7M458.1 729.5c-3.3 2.1-5.6 5.6-8.3 9 -3.5 5.4-5.4 10.4-8.9 15.8 -1.2 1.2-1.9 2.7-2.7 4.3 -0.4 0.4-0.8 0.8-1.2 1.2 -5 8.1-6.6 17-9.3 25.9 -2.3 8.5-10.4 13.1-17.8 17 -9.3 5-20.1 6.6-29.8 3.1 -7-2.7-12.8-7.7-19.7-10 -1.9-0.4-4.3 0-5.8 1.2 -0.8 0.8-1.5 1.9-1.2 3.5 1.5 5 5.4 8.5 9.7 11.6 0.4 0.4 0.4 0.8 0.8 1.2 6.2 4.3 11.2 10 12.8 17.4 1.9 10.8-8.5 15.8-14.7 22.8 -5.4 6.6-5 15.5 0.4 22 4.6 5.4 6.6 11.6 5.4 18.5 -1.2 5.8-1.5 11.6-0.4 17.4 1.9 8.5 8.5 13.9 13.1 21.3 2.7 4.6 3.1 9.3 2.3 14.3 -3.1 21.6 1.5 42.1 14.3 60.7 1.2 1.9 0.4 4.3-1.9 5 -3.5 1.2-7-0.8-10-1.9 -0.4 0-1.2 0-1.5 0 -5.4-2.3-10.4-4.6-15.5-7.3 -0.4-0.4-0.8-0.8-1.2-1.2 -11.2-6.6-21.3-13.1-30.1-22.4 -5-4.6-7.3-10.8-11.2-16.6 -12.8-17.4-36.3-17.4-54.5-11.2 -1.9 0.8-3.5 1.5-5 2.3 -9.3 3.1-17.8 6.6-26.7 10.8 -7.3 3.9-13.1 9.3-18.2 15.8 -4.6 7-11.2 12-18.9 14.3 -5.4 1.5-11.2 1.5-16.6 0 -6.2-2.3-8.1-9.7-11.2-15.5 -1.2-1.9-2.3-3.5-3.9-4.6 -2.7-1.5-5.8-1.2-8.5 0 -7 2.7-12.8 7.7-19.7 10 -18.9 5.8-36.7-4.3-52.9-12.8 -4.6-2.3-10-0.4-14.3 2.3 -0.4 0.4-0.8 0.8-1.2 1.2 -1.2 0.8-1.9 0.8-3.1 1.5 -8.5 6.2-16.6 12.8-27 12 -3.5-0.4-7-1.5-9.3-3.9 -5.4-6.2-6.2-15.1-3.1-22.4 7-17.8 14.3-41-2.7-55.6 -3.1-2.7-7-5-8.5-8.9 -2.7-6.6-0.4-13.5 0.8-20.5 1.9-12.4-8.9-19.7-16.6-27.8 -2.3-2.7-4.3-5.4-4.4-8.8"/><path fill="none" stroke="#8A4E21" stroke-width="0.8" stroke-linejoin="round" stroke-miterlimit="10" d="M472.1 821.2c-7.3 2.4-11.8 11.8-4.5 17.1 5.1 3.7 13.1 3.7 18.9 2.1M486.5 840.3c4.9-1.9 13.5-9.8 12.4-15.7 -1.4-6.9-12.6-7.4-17.9-6.5M190.8 778c-4.8 14.4-19.8 20.4-31.8 27.4 -5 3-11 1-16-3 -13-11-26-20-41-27 -12-6-21-17-26-29 -3-6-6-11-7.7-17.3M225 728.5c-5 9.8-16 13.8-24 21.8 -5 5-9 12-8.3 18.9M68.2 776.8C59 762.4 55 745.4 49.7 729.7M281.1 729.7c-16.1 9.7-32.1 21.7-48.1 31.7 -7 9-10 20-14 31 -8 16-17 33-4 50 2 4 5 12-2 13 -6 1-13 1-19-1 -8-3-17-3-25-6 -4-1-8-1-12 0 -8 2-14 8-22 9 -23 2-33-24-40-42 -3-9-11-16-18-24 -2-2-3-4-4.5-6.4M265.4 767.8c-15.4 5.6-22.4 19.6-28.4 33.6 -3 9-4 20 3 28 8 8 17 14 24 22 8 8 16 17 13 30 -11 7-25 0-37-1 -7 0-13 0-20 2 -7 1-13 0-20 0 -3 0-6 3-9 4 -3 3-7 4-10 7 -1 1-2 2-3 3 -15 8-32 17-49 16 -10-5-21-8-31-15 -6-5-9-11-12-18 -8-21-12-42-18-63 -6-7-12-14-15-23 -2-7-2-15-4-22 -3-8-7-15-9-23 0-7-3-13-4.3-18.8M389.2 729.5c-8.6 5.8-18.6 3-28.1 2.5 -11.4-0.6-21.6 2.5-32.7 4.2 -10.3 1.6-20.3 3.7-29.6 8.8 -8.9 5-16.8 11.7-25.2 17.5 -0.2 0.1-0.3 0.2-0.5 0.3M605.3 731.2c-0.6-0.6-1.2-1.1-1.8-1.6M612.1 739.5c-0.6-0.9-1.2-1.8-1.9-2.7M271.2 786.5c-8.2 7.9-17.2 17.9-15.2 30.9 3 16 22 17 34 23 4 2 6 7 6 11 0 9-1 19 5 26 8 9 17 15 23 25 1 3 0 8-4 8 -18 0-35-4-53-7 -8-1-17 0-24 3 -5 3-9 8-14 12 -4 4-9 4-13 3 -12-4-24-2-36 2 -16 6-31 18-50 15 -9-2-16-9-24-12 -8-4-16 0-24 0 -5-1-8-4-8-9 0-7 1-15-2-22 -1-3-3-5-4-8 -7-30-22-54-33-82 -1-12-2-23-3-35 -1-8-4-14-6-22 0-3-1-7-1-10 -1-3-2-6-4.4-8.8M415.2 729.5c-6.8 7.6-13.7 14.5-24.1 16.6 -9.8 2-20-0.2-29.9-0.2 -11-0.1-21.9 1.3-32.5 3.9 -10.1 2.4-19.5 5.5-27.1 12.7 -3.6 3.4-7 7.1-10.7 10.5s-8.4 5.3-12.1 8.5M596.6 737.8c-3.4-3.3-7.3-6.1-11.5-8.2M612.1 762.8c-3.5-5.8-5.9-12.2-9.6-17.9M425.7 740.5c-7.7 10.9-18.7 22.9-32.7 23.9 -20 1-40-5-59 1 -2 1-4 2-7 3 -2 1-9 7-11 9 -4 5-8 11-14 14 -2 1-10 4-11 4 -5 2-10 5-13 9 -7 10 2 18 12 21 14 4 30-1 42 8 6 5 0 13-5 17 -6 4-12 6-15 12 -3 7 2 14 7 19 9 8 21 12 25 23s12 21 11 32c-3 1-5 5-9 4 -16-2-29-10-43-15 -13-4-27-5-40-1 -15 6-28 15-43 23 -5 2-9 2-14 1 -6-2-11-7-18-8 -17-1-33 7-48 14 -6 2-11 4-17 2 -9-4-15-14-25-15s-18 6-27 9c-7 2-12-2-12-9 0-16 3-34-8-47 -3-12-5-23-8-35 -22-30-22-68-28-104 -1-9-4-21-14.7-22.9M432.6 729.5c-0.6 0.9-1.2 1.8-1.8 2.8M588.8 744.9c-9.8-10.9-23.3-12.1-36.8-15.3M612 781.1c-7-8.7-13-18.7-18.3-29.5M436.5 745.9c-9.5 13.5-17.5 26.5-25.5 40.5 -6 9-18 11-28 7 -13-6-24-16-39-13 -2 0-7 3-8 4 -6 6-11 16-6 24 5 6 13 7 21 10 7 2 12 9 11 16 -3 13-15 19-22 30 -6 9 2 16 10 20 10 5 7 18 10 28 2 7 7 13 11 19 1 2 2 5 3 7 3 13 0 26 0 39 -1 3-4 7-7 6 -17-1-23-20-35-30 -12-12-29-16-46-14 -26 3-52 13-70 35 -6 6-16 13-23 5 -4-5-5-12-9-17 -5-5-12-5-18-3 -10 3-19 9-29 15 -13 8-28 0-39-10 -4-4-9-7-16-4 -11 5-20 17-33 15 -4-1-7-6-7-10 1-12 6-23 6-35 0-9-3-18-9-26 -3-3-5-6-7-10 -4-10 2-20-3-30s-15-17-16-29c0-10-2-18-4-28 -3-16-1-31-5-46 -1-3-3-5-3.7-8M446.9 729.7c-2.2 2.8-4.1 5.7-5.9 8.7M580.3 752.4c-9.1-13.7-26-10.1-39.7-14.7 -9.4-3.1-18.4-6.7-28.2-8.5M612.2 796.2C602 785.4 588 775.4 583.8 760M448.2 752.8c-3.5 6.6-7 13.3-8 20.8 -1 7.4-0.6 14.5-5.9 20.4 -10 11.2-26.3 14.8-39.6 20.1 -3.3 1.3-6.8 3-8.4 6.4 -1.6 3.3-1.1 7.3-1 10.8 0.4 8-1.4 13.5-7.5 18.9 -5.9 5.1-10.9 10.2-8.5 18.6 2.1 7.3 6.4 13.1 5.4 21.1 -0.9 7.3-3.5 14-1.4 21.4 2.1 7.5 7.5 12.7 11.9 18.9 4.7 6.6 4.4 12.8 3.2 20.4 -1.2 7.4-1.3 14.8 0 22.3 2.7 15.1 10.5 28.5 25.7 33.4 7.1 2.3 14.4 2 21.6 3.3 7.5 1.4 13.9 5.3 18.4 11.5 3.1 4.3 5.3 9.4 5.8 14.8M471.8 729.2c-9 2.5-15.1 7.8-19.5 16M25.5 961.1c5.5-10.7 9.5-22.7 7.5-35.7 -2-9-9-14-17-19 -2-2-5-5-5-9 0-6 3-12 4-18 1-11-8-18-15.2-23.9M423.6 1035.6c-2.6-3.2-4.6-7.2-8.6-8.2 -19-6-38-9-55-21 -10-7-17-13-27-19 -10-7-13-18-21-26 -8-7-19-8-29-5 -20 5-41 11-55 26 -5 5-9 9-13 14 -3 3-7 4-10 5 -9 3-20 6-29 2 -5-3-9-8-15-10 -9-3-17 0-26 0 -14-1-27-5-39-12 -12-6-23 2-33 9 -8 5-17 8-26 5 -10-3-15-15-13.5-26M67.5 1029.3c-6.5 1.4-12.6 3.6-18.9 5.8M125.1 1035.2c-1.7-7.1-11.5-9.4-17.6-10.5 -10.9-1.9-20.9 1.2-31.5 3M211.4 1030.3c-3.9 0.7-8.2 2.5-11.4 4.8M351.1 1035.2c-7.1-6.8-15.1-11.8-23.1-15.8 -13-5-25-10-38-17 -21-10-39 9-52 23 -6 2-12 4-18.3 3.9M66 1016.3c-12.9 3.8-25.3 9.6-38.6 11.7s-23.9-5.2-27.1-18.3M145.5 1035.1c-5.5-16.7-25.5-18.7-40.5-23.7 -10-3-20 0-30.1 2.5M64.5 1003.9c-14.3 6.4-37.5 15.4-48.8-1 -5.4-7.8-8-17.1-8.7-26.7 -0.8-10.7 4.5-18.1 8.8-27.3 2.8-5.9 4.5-12.7 1.7-19 -3-6.6-10.4-9.5-17.3-9.2M382.5 1035.1c-2.5-0.7-4.5-3.7-6.5-4.7 -17-7-31-18-47-29 -5-3-10-5-14-8 -6-7-11-14-19-18 -12-5-24 4-36 8 -4 1-8 1-12 3 -10 5-15 16-23 24 -2 2-4 3-7 4 -11 2-21 2-30 9 -6 6-14 14-22 8 -6-6-10-13-17-18 -12-7-26-8-39-13 -8-2-16-5-24-5 -5 1-9 3-12.8 4.7M464.5 761.9c0.5 12.5 8.5 26.5-1.5 36.5 -12 11-28 15-43 19 -6 2-13 6-15 14 -1 7 4 12 7 17 2 5 6 9 4 15 -2 4-7 6-10 9 -1 1-2 4-1 5 5 5 19 12 10 18 -7 5-17 0-23 6 -7 9 2 18 10 22 7 3 20 5 18 15 -2 8-8 12-10 20 -2 9 4 16 12 18s16 2 25 3c14 3 26 9 38 16 15 10 30 22 33.2 39.6M612.5 810.9c-8.7-4.9-15.4-12.5-23.8-17.9 -6.3-4.1-14.2-7-18.3-13.7 -4.4-7.1 0-18.5-7.6-23.6 -3.7-2.5-8.3-2.2-12.6-2.8 -4.9-0.7-9.4-2.5-13.9-4.5 -13-5.8-25.8-10.5-40.4-9.8 -11.1 0.5-24 3.6-29.3 14.5M561.6 960.4c13.4 14 21.4 31 28.4 49 3 8 3 17 3.1 25.7M612.5 946.4c-4.2-8.4-11.3-14.5-19.1-19.5 -8.7-5.5-13.1-13.8-12.9-24.2 0.2-9.7 5.8-20.6 2.6-30.1 -1.3-3.9-4.3-8.4-8.7-9 -4.9-0.7-6.8 4.1-7.9 8.1 -2.1 7.4-1.5 15-3.9 22.3 -2.4 7.1-6.1 13.6-9.8 20.1 -3.6 6.4-8.8 13.9-8.5 21.5 0.3 7.5 6.1 13.8 11.2 18.7M535.2 986.8c3.8 7.6 6.8 15.6 9.8 24.6 3 8 8 16 12.3 23.8M612.5 924.1c-6.5-5.7-13.5-11.7-14.5-20.7 0-11 7-20 5-31 -3-10-3-20-5-30 -3-9-11-14-16-22 -1-2-2-5-4-7 -12-14-30-18-46-24 -8-4-9-14-10-22 -1-5-4-9-7-12 -1-1-3-2-5-3 -7-2-17 0-18 8 -3 14 10 23 17 34 4 8 1 18 2 27 1 2 2 5 3 7 6 9 14 17 15 28 2 18-2 37-16 49 -12 12-32 21-31 41 2 17 19 26 35 31 4 1 8 1 11.4 3.8"/><path fill="none" stroke="#60371C" stroke-width="1.8" stroke-linecap="square" stroke-linejoin="round" stroke-miterlimit="10" stroke-dasharray="5" d="M315.4 885.3c-6.4-5.9-15.4-8.9-21.4-14.9 -4-5 1-11 5-14 5-3 12-6 13-12 0-2-2-3-3-4 -14-6-29-6-43-13 -6-4-9-10-8-17 2-8 6-14 11-20 6-5 13-8 19-13 8-6 14-13 21-20 5-4 11-7 17-8 4 0 8 0 12 0 8-1 14-6 22-5 21 5 46 6 57.1-14.8M451.9 1035.2c-1.9-3.8-4.9-5.8-6.9-8.8 -6-5-14-9-20-14 -8-1-17 0-24-3 -29-15-32-48-41-76 -3-8-12-9-18-14s-5-12-8.7-17.5M139.2 802.4c19.7 2 39.3 5.4 59.2 5.5 20 0.1 40.1-0.3 60.1 1M-0.9 808.8c8.8 1.3 16.8 2.3 25.8 0.3 32-6 62-12 93.5-8.4M184.6 891.9c17.4 5.5 34.4 4.5 51.4 1.5 5-1 7-7 11-10 2-1 4-2 6-2 15-2 28-6 41.8-11.1M69.5 801.7c-2.5 18.7 4.5 35.7 16.4 49.7 6 6 12.9 11 20.9 14 7 2 12.9 4 19.9 6 10.9 2 21.9 1 31.1 6.7"/><text transform="matrix(-0.2714 0.9625 -0.9625 -0.2714 465.3091 753.5137)" fill="#8A4E21" font-family="'ArialMT'" font-size="3.1">7</text><text transform="matrix(-0.2714 0.9625 -0.9625 -0.2714 464.8423 755.1688)" fill="#8A4E21" font-family="'ArialMT'" font-size="3.1">6</text><text transform="matrix(-0.2714 0.9625 -0.9625 -0.2714 464.3774 756.823)" fill="#8A4E21" font-family="'ArialMT'" font-size="3.1">0</text><text transform="matrix(-0.2714 0.9625 -0.9625 -0.2714 463.9106 758.4776)" fill="#8A4E21" font-family="'ArialMT'" font-size="3.1">0</text><text transform="matrix(-0.444 0.896 -0.896 -0.444 451.0763 745.29)" fill="#8A4E21" font-family="'ArialMT'" font-size="3.1">7</text><text transform="matrix(-0.444 0.896 -0.896 -0.444 450.3127 746.8296)" fill="#8A4E21" font-family="'ArialMT'" font-size="3.1">5</text><text transform="matrix(-0.444 0.896 -0.896 -0.444 449.549 748.3701)" fill="#8A4E21" font-family="'ArialMT'" font-size="3.1">0</text><text transform="matrix(-0.444 0.896 -0.896 -0.444 448.7853 749.9102)" fill="#8A4E21" font-family="'ArialMT'" font-size="3.1">0</text><text transform="matrix(-0.5428 0.8399 -0.8399 -0.5428 439.7174 738.8521)" fill="#8A4E21" font-family="'ArialMT'" font-size="3.1">7</text><text transform="matrix(-0.5428 0.8399 -0.8399 -0.5428 438.7836 740.2958)" fill="#8A4E21" font-family="'ArialMT'" font-size="3.1">4</text><text transform="matrix(-0.5428 0.8399 -0.8399 -0.5428 437.852 741.7401)" fill="#8A4E21" font-family="'ArialMT'" font-size="3.1">0</text><text transform="matrix(-0.5428 0.8399 -0.8399 -0.5428 436.9184 743.1834)" fill="#8A4E21" font-family="'ArialMT'" font-size="3.1">0</text><text transform="matrix(-0.5421 0.8403 -0.8403 -0.5421 429.0613 732.9446)" fill="#8A4E21" font-family="'ArialMT'" font-size="3.1">7</text><text transform="matrix(-0.5421 0.8403 -0.8403 -0.5421 428.1296 734.389)" fill="#8A4E21" font-family="'ArialMT'" font-size="3.1">3</text><text transform="matrix(-0.5421 0.8403 -0.8403 -0.5421 427.196 735.8333)" fill="#8A4E21" font-family="'ArialMT'" font-size="3.1">0</text><text transform="matrix(-0.5421 0.8403 -0.8403 -0.5421 426.2644 737.2781)" fill="#8A4E21" font-family="'ArialMT'" font-size="3.1">0</text><text transform="matrix(0.6832 0.7302 -0.7302 0.6832 555.1991 955.4461)" fill="#8A4E21" font-family="'ArialMT'" font-size="3.1">7</text><text transform="matrix(0.6832 0.7302 -0.7302 0.6832 556.3719 956.7012)" fill="#8A4E21" font-family="'ArialMT'" font-size="3.1">8</text><text transform="matrix(0.6832 0.7302 -0.7302 0.6832 557.5468 957.9561)" fill="#8A4E21" font-family="'ArialMT'" font-size="3.1">0</text><text transform="matrix(0.6832 0.7302 -0.7302 0.6832 558.7206 959.2112)" fill="#8A4E21" font-family="'ArialMT'" font-size="3.1">0</text><text transform="matrix(0.7554 0.6553 -0.6553 0.7554 528.528 982.4559)" fill="#8A4E21" font-family="'ArialMT'" font-size="3.1">7</text><text transform="matrix(0.7554 0.6553 -0.6553 0.7554 529.8268 983.5829)" fill="#8A4E21" font-family="'ArialMT'" font-size="3.1">7</text><text transform="matrix(0.7554 0.6553 -0.6553 0.7554 531.1252 984.7091)" fill="#8A4E21" font-family="'ArialMT'" font-size="3.1">0</text><text transform="matrix(0.7554 0.6553 -0.6553 0.7554 532.424 985.8353)" fill="#8A4E21" font-family="'ArialMT'" font-size="3.1">0</text><text transform="matrix(-0.8344 0.5511 -0.5511 -0.8344 277.635 781.1998)" fill="#8A4E21" font-family="'ArialMT'" font-size="3.1">7</text><text transform="matrix(-0.8344 0.5511 -0.5511 -0.8344 276.1994 782.1472)" fill="#8A4E21" font-family="'ArialMT'" font-size="3.1">2</text><text transform="matrix(-0.8344 0.5511 -0.5511 -0.8344 274.7658 783.0944)" fill="#8A4E21" font-family="'ArialMT'" font-size="3.1">0</text><text transform="matrix(-0.8344 0.5511 -0.5511 -0.8344 273.3322 784.0417)" fill="#8A4E21" font-family="'ArialMT'" font-size="3.1">0</text><text transform="matrix(-0.8663 0.4996 -0.4996 -0.8663 271.4307 762.8405)" fill="#8A4E21" font-family="'ArialMT'" font-size="3.1">7</text><text transform="matrix(-0.8663 0.4996 -0.4996 -0.8663 269.9424 763.6999)" fill="#8A4E21" font-family="'ArialMT'" font-size="3.1">1</text><text transform="matrix(-0.8663 0.4996 -0.4996 -0.8663 268.4522 764.5582)" fill="#8A4E21" font-family="'ArialMT'" font-size="3.1">0</text><text transform="matrix(-0.8663 0.4996 -0.4996 -0.8663 266.964 765.4166)" fill="#8A4E21" font-family="'ArialMT'" font-size="3.1">0</text><text transform="matrix(-0.3649 -0.931 0.931 -0.3649 584.2556 758.9695)" fill="#8A4E21" font-family="'ArialMT'" font-size="3.1">7</text><text transform="matrix(-0.3649 -0.931 0.931 -0.3649 583.6285 757.3699)" fill="#8A4E21" font-family="'ArialMT'" font-size="3.1">5</text><text transform="matrix(-0.3649 -0.931 0.931 -0.3649 583.0009 755.7682)" fill="#8A4E21" font-family="'ArialMT'" font-size="3.1">0</text><text transform="matrix(-0.3649 -0.931 0.931 -0.3649 582.3738 754.1686)" fill="#8A4E21" font-family="'ArialMT'" font-size="3.1">0</text><text transform="matrix(-0.6356 -0.772 0.772 -0.6356 594.4692 750.073)" fill="#8A4E21" font-family="'ArialMT'" font-size="3.1">7</text><text transform="matrix(-0.6356 -0.772 0.772 -0.6356 593.3765 748.7468)" fill="#8A4E21" font-family="'ArialMT'" font-size="3.1">4</text><text transform="matrix(-0.6356 -0.772 0.772 -0.6356 592.2842 747.4207)" fill="#8A4E21" font-family="'ArialMT'" font-size="3.1">0</text><text transform="matrix(-0.6356 -0.772 0.772 -0.6356 591.1909 746.0925)" fill="#8A4E21" font-family="'ArialMT'" font-size="3.1">0</text><text transform="matrix(-0.6575 -0.7535 0.7535 -0.6575 602.765 742.9752)" fill="#8A4E21" font-family="'ArialMT'" font-size="3.1">7</text><text transform="matrix(-0.6575 -0.7535 0.7535 -0.6575 601.6357 741.6802)" fill="#8A4E21" font-family="'ArialMT'" font-size="3.1">3</text><text transform="matrix(-0.6575 -0.7535 0.7535 -0.6575 600.5048 740.3854)" fill="#8A4E21" font-family="'ArialMT'" font-size="3.1">0</text><text transform="matrix(-0.6575 -0.7535 0.7535 -0.6575 599.375 739.0905)" fill="#8A4E21" font-family="'ArialMT'" font-size="3.1">0</text><text transform="matrix(-0.6545 -0.7561 0.7561 -0.6545 611.1052 735.8853)" fill="#8A4E21" font-family="'ArialMT'" font-size="3.1">7</text><text transform="matrix(-0.6545 -0.7561 0.7561 -0.6545 609.9802 734.5864)" fill="#8A4E21" font-family="'ArialMT'" font-size="3.1">2</text><text transform="matrix(-0.6545 -0.7561 0.7561 -0.6545 608.8552 733.2856)" fill="#8A4E21" font-family="'ArialMT'" font-size="3.1">0</text><text transform="matrix(-0.6545 -0.7561 0.7561 -0.6545 607.7297 731.9868)" fill="#8A4E21" font-family="'ArialMT'" font-size="3.1">0</text><text transform="matrix(-0.9816 0.1908 -0.1908 -0.9816 74.9672 1026.7023)" fill="#8A4E21" font-family="'ArialMT'" font-size="3.1">7</text><text transform="matrix(-0.9816 0.1908 -0.1908 -0.9816 73.2778 1027.0294)" fill="#8A4E21" font-family="'ArialMT'" font-size="3.1">8</text><text transform="matrix(-0.9816 0.1908 -0.1908 -0.9816 71.5903 1027.3585)" fill="#8A4E21" font-family="'ArialMT'" font-size="3.1">0</text><text transform="matrix(-0.9816 0.1908 -0.1908 -0.9816 69.9028 1027.6857)" fill="#8A4E21" font-family="'ArialMT'" font-size="3.1">0</text><text transform="matrix(-0.9669 0.2552 -0.2552 -0.9669 73.4335 1013.3287)" fill="#8A4E21" font-family="'ArialMT'" font-size="3.1">7</text><text transform="matrix(-0.9669 0.2552 -0.2552 -0.9669 71.7714 1013.7672)" fill="#8A4E21" font-family="'ArialMT'" font-size="3.1">7</text><text transform="matrix(-0.9669 0.2552 -0.2552 -0.9669 70.1074 1014.2056)" fill="#8A4E21" font-family="'ArialMT'" font-size="3.1">0</text><text transform="matrix(-0.9669 0.2552 -0.2552 -0.9669 68.4453 1014.6441)" fill="#8A4E21" font-family="'ArialMT'" font-size="3.1">0</text><text transform="matrix(-0.9276 0.3737 -0.3737 -0.9276 71.7315 999.5871)" fill="#8A4E21" font-family="'ArialMT'" font-size="3.1">7</text><text transform="matrix(-0.9276 0.3737 -0.3737 -0.9276 70.1378 1000.2287)" fill="#8A4E21" font-family="'ArialMT'" font-size="3.1">6</text><text transform="matrix(-0.9276 0.3737 -0.3737 -0.9276 68.5442 1000.8712)" fill="#8A4E21" font-family="'ArialMT'" font-size="3.1">0</text><text transform="matrix(-0.9276 0.3737 -0.3737 -0.9276 66.9485 1001.5138)" fill="#8A4E21" font-family="'ArialMT'" font-size="3.1">0</text><text transform="matrix(-0.465 -0.8853 0.8853 -0.465 73.5734 783.7098)" fill="#8A4E21" font-family="'ArialMT'" font-size="3.1">7</text><text transform="matrix(-0.465 -0.8853 0.8853 -0.465 72.7741 782.1863)" fill="#8A4E21" font-family="'ArialMT'" font-size="3.1">0</text><text transform="matrix(-0.465 -0.8853 0.8853 -0.465 71.9745 780.6649)" fill="#8A4E21" font-family="'ArialMT'" font-size="3.1">0</text><text transform="matrix(-0.465 -0.8853 0.8853 -0.465 71.1752 779.1434)" fill="#8A4E21" font-family="'ArialMT'" font-size="3.1">0</text><text transform="matrix(-0.2211 0.9753 -0.9753 -0.2211 191.3218 770.2692)" fill="#8A4E21" font-family="'ArialMT'" font-size="3.1">6</text><text transform="matrix(-0.2211 0.9753 -0.9753 -0.2211 190.9429 771.9462)" fill="#8A4E21" font-family="'ArialMT'" font-size="3.1">9</text><text transform="matrix(-0.2211 0.9753 -0.9753 -0.2211 190.5621 773.6223)" fill="#8A4E21" font-family="'ArialMT'" font-size="3.1">0</text><text transform="matrix(-0.2211 0.9753 -0.9753 -0.2211 190.1812 775.2983)" fill="#8A4E21" font-family="'ArialMT'" font-size="3.1">0</text><text transform="matrix(0.1912 -0.9815 0.9815 0.1912 24.7735 968.7941)" fill="#8A4E21" font-family="'ArialMT'" font-size="3.1">7</text><text transform="matrix(0.1912 -0.9815 0.9815 0.1912 25.102 967.1074)" fill="#8A4E21" font-family="'ArialMT'" font-size="3.1">5</text><text transform="matrix(0.1912 -0.9815 0.9815 0.1912 25.43 965.4189)" fill="#8A4E21" font-family="'ArialMT'" font-size="3.1">0</text><text transform="matrix(0.1912 -0.9815 0.9815 0.1912 25.7591 963.7342)" fill="#8A4E21" font-family="'ArialMT'" font-size="3.1">0</text><text transform="matrix(-0.9422 0.3351 -0.3351 -0.9422 479.1009 817.23)" fill="#8A4E21" font-family="'ArialMT'" font-size="3.1">7</text><text transform="matrix(-0.9422 0.3351 -0.3351 -0.9422 477.4818 817.8062)" fill="#8A4E21" font-family="'ArialMT'" font-size="3.1">7</text><text transform="matrix(-0.9422 0.3351 -0.3351 -0.9422 475.8607 818.3824)" fill="#8A4E21" font-family="'ArialMT'" font-size="3.1">0</text><text transform="matrix(-0.9422 0.3351 -0.3351 -0.9422 474.2415 818.9586)" fill="#8A4E21" font-family="'ArialMT'" font-size="3.1">0</text><text transform="matrix(-0.9916 0.1294 -0.1294 -0.9916 219.0296 1028.3778)" fill="#8A4E21" font-family="'ArialMT'" font-size="3.1">7</text><text transform="matrix(-0.9916 0.1294 -0.1294 -0.9916 217.3245 1028.6005)" fill="#8A4E21" font-family="'ArialMT'" font-size="3.1">7</text><text transform="matrix(-0.9916 0.1294 -0.1294 -0.9916 215.6214 1028.8221)" fill="#8A4E21" font-family="'ArialMT'" font-size="3.1">0</text><text transform="matrix(-0.9916 0.1294 -0.1294 -0.9916 213.9163 1029.0448)" fill="#8A4E21" font-family="'ArialMT'" font-size="3.1">0</text><text transform="matrix(0.7831 0.6219 -0.6219 0.7831 158.1522 879.3421)" fill="#60371C" font-family="'Arial-BoldMT'" font-size="3.1">C</text><text transform="matrix(0.7831 0.6219 -0.6219 0.7831 159.9003 880.7305)" fill="#60371C" font-family="'Arial-BoldMT'" font-size="3.1">a</text><text transform="matrix(0.7831 0.6219 -0.6219 0.7831 161.2464 881.7994)" fill="#60371C" font-family="'Arial-BoldMT'" font-size="3.1">n</text><text transform="matrix(0.7831 0.6219 -0.6219 0.7831 162.7254 882.9739)" fill="#60371C" font-family="'Arial-BoldMT'" font-size="3.1">y</text><text transform="matrix(0.7831 0.6219 -0.6219 0.7831 164.0712 884.0428)" fill="#60371C" font-family="'Arial-BoldMT'" font-size="3.1">o</text><text transform="matrix(0.7831 0.6219 -0.6219 0.7831 165.5502 885.2173)" fill="#60371C" font-family="'Arial-BoldMT'" font-size="3.1">n</text><text transform="matrix(0.9406 0.3395 -0.3395 0.9406 168.1331 886.8843)" fill="#60371C" font-family="'Arial-BoldMT'" font-size="3.1">C</text><text transform="matrix(0.9406 0.3395 -0.3395 0.9406 170.2329 887.6421)" fill="#60371C" font-family="'Arial-BoldMT'" font-size="3.1">a</text><text transform="matrix(0.9406 0.3395 -0.3395 0.9406 171.8501 888.2258)" fill="#60371C" font-family="'Arial-BoldMT'" font-size="3.1">m</text><text transform="matrix(0.9406 0.3395 -0.3395 0.9406 174.4346 889.1587)" fill="#60371C" font-family="'Arial-BoldMT'" font-size="3.1">p</text><text transform="matrix(0.9406 0.3395 -0.3395 0.9406 177.0721 890.1106)" fill="#60371C" font-family="'Arial-BoldMT'" font-size="3.1">W</text><text transform="matrix(0.9406 0.3395 -0.3395 0.9406 179.6548 891.0427)" fill="#60371C" font-family="'Arial-BoldMT'" font-size="3.1">a</text><text transform="matrix(0.9406 0.3395 -0.3395 0.9406 181.2713 891.6262)" fill="#60371C" font-family="'Arial-BoldMT'" font-size="3.1">y</text><text transform="matrix(0.9984 5.574337e-002 -5.574337e-002 0.9984 120.7572 802.3123)" fill="#60371C" font-family="'Arial-BoldMT'" font-size="3.1">R</text><text transform="matrix(0.9984 5.573976e-002 -5.573976e-002 0.9984 122.9861 802.4362)" fill="#60371C" font-family="'Arial-BoldMT'" font-size="3.1">e</text><text transform="matrix(0.9984 5.573072e-002 -5.573072e-002 0.9984 124.7043 802.5327)" fill="#60371C" font-family="'Arial-BoldMT'" font-size="3.1">d</text><text transform="matrix(0.9984 5.574337e-002 -5.574337e-002 0.9984 127.4441 802.6851)" fill="#60371C" font-family="'Arial-BoldMT'" font-size="3.1">H</text><text transform="matrix(0.9962 8.742216e-002 -8.742216e-002 0.9962 129.6388 802.8074)" fill="#60371C" font-family="'Arial-BoldMT'" font-size="3.1">o</text><text transform="matrix(0.9934 0.1151 -0.1151 0.9934 131.488 802.9699)" fill="#60371C" font-family="'Arial-BoldMT'" font-size="3.1">u</text><text transform="matrix(0.9934 0.1151 -0.1151 0.9934 133.3642 803.1873)" fill="#60371C" font-family="'Arial-BoldMT'" font-size="3.1">s</text><text transform="matrix(0.9934 0.1151 -0.1151 0.9934 135.0715 803.3851)" fill="#60371C" font-family="'Arial-BoldMT'" font-size="3.1">e</text><text transform="matrix(0.8089 0.5879 -0.5879 0.8089 315.9236 887.1196)" fill="#60371C" font-family="'Arial-BoldMT'" font-size="3.1">C</text><text transform="matrix(0.7698 0.6383 -0.6383 0.7698 317.6734 888.3894)" fill="#60371C" font-family="'Arial-BoldMT'" font-size="3.1">a</text><text transform="matrix(0.7698 0.6383 -0.6383 0.7698 318.9981 889.4873)" fill="#60371C" font-family="'Arial-BoldMT'" font-size="3.1">n</text><text transform="matrix(0.7698 0.6383 -0.6383 0.7698 320.4508 890.6921)" fill="#60371C" font-family="'Arial-BoldMT'" font-size="3.1">y</text><text transform="matrix(0.7431 0.6692 -0.6692 0.7431 321.7396 891.7599)" fill="#60371C" font-family="'Arial-BoldMT'" font-size="3.1">o</text><text transform="matrix(0.7067 0.7075 -0.7075 0.7067 323.0998 892.9832)" fill="#60371C" font-family="'Arial-BoldMT'" font-size="3.1">n</text><text transform="matrix(0.7067 0.7075 -0.7075 0.7067 325.4533 895.3387)" fill="#60371C" font-family="'Arial-BoldMT'" font-size="3.1">L</text><text transform="matrix(0.7067 0.7075 -0.7075 0.7067 326.7883 896.6746)" fill="#60371C" font-family="'Arial-BoldMT'" font-size="3.1">o</text><text transform="matrix(0.7067 0.7075 -0.7075 0.7067 328.1233 898.0103)" fill="#60371C" font-family="'Arial-BoldMT'" font-size="3.1">o</text><text transform="matrix(0.7964 0.6048 -0.6048 0.7964 329.5703 899.4453)" fill="#60371C" font-family="'Arial-BoldMT'" font-size="3.1">m</text></svg>