<svg version="1.1" xmlns="http://www.w3.org/2000/svg" xmlns:xlink="http://www.w3.org/1999/xlink" x="0px" y="0px" viewBox="0 0 1584 792" enable-background="new 0 0 1584 792" xml:space="preserve">
<g id="Minor">
	<path fill="none" stroke="#8A4E21" stroke-width="0.1" stroke-linecap="round" stroke-linejoin="round" stroke-miterlimit="10" d="
		M510.5,1018.5h0.1l0.2-0.1l0.3-0.3l0.6-0.7l0.7-0.9l0.5-0.8l0.7-1.3l0.4-0.9l0.3-0.9l0.3-0.9l0.2-0.9l0.1-0.8v-0.7l-0.1-0.7
		l-0.2-0.9l-0.3-0.9l-0.3-0.9l-0.3-0.6l-0.3-0.6l-0.6-0.7l-0.7-0.7l-0.5-0.4l-0.4-0.3l-0.9-0.5l-0.8-0.3l-0.9-0.3l-0.9-0.2l-1-0.1
		h-0.9h-0.5l-0.8,0.1l-1.2,0.3l-0.7,0.3l-0.6,0.3l-0.6,0.3l-0.6,0.4l-0.7,0.6l-0.3,0.3l-0.3,0.3l-0.3,0.5l-0.2,0.3l-0.2,0.8
		l-0.1,0.8v0.9v0.8l0.2,0.9l0.2,0.7l0.2,0.6l0.4,0.9l0.5,0.7l0.5,0.7l0.3,0.5l0.7,0.8l0.9,0.9l0.8,0.7l0.6,0.4l0.6,0.4l0.9,0.5
		l1.3,0.6l0.8,0.3l1.4,0.4l0.8,0.2L510.5,1018.5"/>
	<path fill="none" stroke="#8A4E21" stroke-width="0.1" stroke-linecap="round" stroke-linejoin="round" stroke-miterlimit="10" d="
		M181.2,972.3l-0.5,0.3l-0.4,0.2l-1,0.4l-0.6,0.2l-0.9,0.3l-2,0.4l-0.9,0.2l-2.2,0.2l-4.2,0.3L167,975l-1.4,0.2l-1.3,0.2l-1.4,0.3
		L162,976l-1.4,0.5l-0.7,0.3l-1.7,0.8l-1.8,1l-1.7,1.1l-1.6,1.1l-1.5,1.1l-1.2,1l-2.1,1.7l-6.5,5.6l-1,0.9l-0.9,0.7l-1.5,0.9
		l-0.5,0.3l-1.6,0.7l-1.2,0.3h-0.3h-0.8l-0.7-0.1l-0.8-0.2l-1-0.4l-0.9-0.5l-0.8-0.6l-0.5-0.5l-1.2-1.3l-1.1-1.5l-3.4-5.1l-1.3-1.7
		l-1.3-1.6l-1.3-1.4l-1.3-1.2l-1.7-1.4l-1.1-0.9l-1.1-0.7l-2.7-1.6l-1.2-0.7"/>
	<path fill="none" stroke="#8A4E21" stroke-width="0.1" stroke-linecap="round" stroke-linejoin="round" stroke-miterlimit="10" d="
		M198.7,972.2l-0.5,1.1l-0.6,1.2l-0.8,1.4l-1.1,1.7l-1.7,2.3l-1.3,1.6l-1.9,2.3l-2.1,2.4l-1.9,2l-1.9,1.7l-1.1,1l-1.9,1.5l-1.3,0.9
		l-1.8,1.2l-1.8,1l-2.2,1.1l-4.5,2.1l-2.3,1.2l-1.8,1.1l-0.9,0.6l-0.9,0.7l-1.4,1.2l-1.6,1.6l-1.7,2l-3.4,4.3l-1.7,2l-1.1,1.1
		l-1.1,1l-1.1,0.9l-1.2,0.7l-1.2,0.6l-1.1,0.4l-1.7,0.5l-0.6,0.2l-1.5,0.2l-1.1,0.1h-1.1l-1.1-0.1l-1.5-0.2l-1.7-0.4l-0.8-0.2
		l-1.4-0.5l-0.7-0.2l-1.9-0.8l-1.3-0.6l-1.8-1l-2.5-1.5l-2.7-1.9l-2.9-2.2l-3-2.5l-1.9-1.7l-1-1l-1.8-1.9l-2-2.3l-4.6-5.3l-1.9-2
		l-1.5-1.5l-1.6-1.4l-1.6-1.3l-2.6-1.9l-3.5-2.6l-1.6-1.2l-1.1-0.9l-1-0.9l-0.9-0.9l-1.4-1.5l-1.2-1.5l-0.8-1.1l-0.4-0.7l-0.8-1.5
		l-0.5-1l-0.1-0.2"/>
	<path fill="none" stroke="#8A4E21" stroke-width="0.1" stroke-linecap="round" stroke-linejoin="round" stroke-miterlimit="10" d="
		M212.8,972.2l-0.2,0.5l-0.6,1.1l-0.5,0.7l-0.8,1.1l-1,1.2l-1.4,1.5l-1.4,1.3l-6.1,5.4l-2.3,2.2l-1.2,1.2l-2.2,2.4l-1.8,2.1l-0.9,1
		l-2.5,3.2l-1,1.5l-1.3,1.9l-1.9,3l-0.9,1.5l-1.5,2.6l-1.2,2.2l-2,3.8l-0.7,1.3l-0.8,1.3l-0.8,1.2l-0.9,1.2l-1.5,1.9l-1.7,1.9
		l-0.9,0.8l-1.4,1.3l-2,1.6l-2.1,1.6l-1.7,1.2l-1.8,1.2l-2.3,1.5l-1.9,1l-1.5,0.8l-1,0.4l-0.8,0.3l-1.1,0.3l-1,0.2l-0.8,0.1
		l-1.3,0.1h-1.4l-1.4-0.2l-0.5-0.1l-0.7-0.2l-1.4-0.4l-1.8-0.7l-1.4-0.6l-2.2-1.1l-1.9-1l-1.3-0.7l-3.7-2.2l-7.4-4.7l-4.3-2.6
		l-4.6-2.6l-7.9-4.2l-1.6-0.9l-2.6-1.6l-1.9-1.3l-1.2-0.9l-1-0.9l-1.9-1.7l-2.3-2.3l-8.5-9l-1.4-1.5l-1.7-2l-0.9-1l-1.8-2.3
		l-1.1-1.5l-1.2-1.9l-1.3-2.2l-0.7-1.3l-1.5-3.2l-1.5-3.4l-0.9-2.2"/>
	<path fill="none" stroke="#8A4E21" stroke-width="0.1" stroke-linecap="round" stroke-linejoin="round" stroke-miterlimit="10" d="
		M236,973c-3.1,5.1-6.6,10-11.5,13.6c-4.8,3.4-10.4,5.5-15,9.2s-6.9,9-7.5,14.9c-0.6,5.8-0.2,11.9-1.9,17.6
		c-1.7,5.6-5.2,10.9-9.5,14.8c-4.3,4-9.5,6.4-14.2,9.8s-8.8,8.3-14.9,9.2c-5.7,0.8-11.6-1.5-16.6-4c-5.4-2.7-10.3-6.1-14.5-10.4
		c-4.2-4.3-8-8.7-12.8-12.4c-4.7-3.7-10-6.1-15.3-8.7c-5.3-2.6-10.3-5.5-14.3-9.9c-4.2-4.6-7.6-9.9-11.1-15
		c-3.2-4.7-5.8-9.5-7.7-14.9c-1.6-4.7-3.2-9.3-5.3-13.9"/>
	<path fill="none" stroke="#8A4E21" stroke-width="0.1" stroke-linecap="round" stroke-linejoin="round" stroke-miterlimit="10" d="
		M413.6,1158.5v-0.3l-0.3-1l-0.3-0.9l-0.7-1.5l-0.3-0.6l-0.6-1l-0.8-1l-0.5-0.6l-0.6-0.6l-0.8-0.7l-0.9-0.7l-0.6-0.4l-1.3-0.7
		l-0.8-0.4l-0.8-0.3l-0.8-0.3l-0.6-0.2l-0.9-0.3l-0.8-0.1h-0.7h-0.7l-0.8,0.2l-0.8,0.2l-0.5,0.2l-0.4,0.2l-0.5,0.3l-0.6,0.6
		l-0.3,0.5l-0.3,0.5l-0.3,0.6l-0.3,1l-0.1,0.6v0.8l0.1,0.9l0.2,0.6l0.3,1l0.3,0.6l0.3,0.6l0.3,0.6l0.5,0.7l0.8,0.8l0.8,0.6l0.8,0.6
		l0.9,0.5l0.9,0.4l0.8,0.3l0.5,0.2l0.9,0.2l0.7,0.1l0.6,0.1h1.2h0.8l0.7-0.1l1.3-0.3l0.7-0.2l0.8-0.3l0.8-0.3l0.8-0.4l0.7-0.4
		l0.7-0.5L413.6,1158.5"/>
	<path fill="none" stroke="#8A4E21" stroke-width="0.1" stroke-linecap="round" stroke-linejoin="round" stroke-miterlimit="10" d="
		M247,973c-3.8,4.7-7.7,9.3-12.2,13.3c-4.6,4-9.9,6.9-15.1,10c-5.1,3-9,6.9-10.4,12.8c-1.3,5.7-0.6,11.7-1.6,17.5
		c-1,5.8-3.6,10.9-6.7,15.8c-3.2,5.1-6.5,10-10,14.8c-2,2.7-3.9,5.3-5.9,8c-1.6,2.3-3.3,4.6-5.5,6.4c-4.9,3.9-11.2,3.1-16.8,1.9
		c-6.2-1.4-12.3-3.5-18.4-5.4c-5.2-1.6-10.6-3.1-15-6.4c-4.8-3.6-7.5-8.8-10.9-13.6c-3.5-4.8-7.8-8.8-12.8-12.1
		c-4.9-3.1-10.2-5.6-14.9-9.1c-4.7-3.6-8.2-8.2-11.4-13.1c-3.3-5.1-6.7-10.2-9.6-15.6c-2.8-5.2-4.3-10.7-6.1-16.3
		c-1-3.1-2.2-6.1-3.6-9"/>
	<path fill="none" stroke="#8A4E21" stroke-width="0.1" stroke-linecap="round" stroke-linejoin="round" stroke-miterlimit="10" d="
		M258.5,973.2c-4.6,4-8.8,8.3-13.5,12.1c-4.3,3.6-8.8,6.8-13.5,9.9c-4.9,3.2-10.9,6.4-14,11.6c-3.1,5.1-3,11.2-3.8,17
		c-0.9,6-2.8,11.4-5.6,16.8c-2.7,5.3-5.7,10.5-8.2,15.9c-2.5,5.4-4.6,10.9-7.2,16.2c-2.7,5.5-6.3,9.8-12.8,10.2
		c-5.9,0.4-12-1.6-17.7-2.9c-5.7-1.3-11.4-2.2-17.1-2.7c-5.8-0.6-11.7-1-17-3.6c-5.4-2.6-9.3-7-12.2-12.2c-2.9-5.2-5.4-10.5-9.5-15
		c-4.1-4.5-9.3-7.5-14.2-11.1c-4.8-3.5-8.8-7.6-12.2-12.4c-3.6-5.2-6.6-10.8-9.7-16.3c-2.8-4.8-5.5-9.5-7.2-14.8
		c-1.8-5.7-3-11.5-5.4-17c-0.3-0.6-0.6-1.2-0.8-1.8"/>
	<path fill="none" stroke="#8A4E21" stroke-width="0.1" stroke-linecap="round" stroke-linejoin="round" stroke-miterlimit="10" d="
		M270.1,973.2c-1.6,0.9-2.8,2-4.3,2.8c-11.2,9.3-22.1,16.2-34.1,24.8c-3.9,3.1-7.3,6.2-9.3,10.8c-3.5,8.5-4.6,17.8-8.1,26.4
		c-1.5,3.9-3.9,7-5.8,10.8c-1.2,2.3-1.5,4.3-2.7,6.6c-1.5,4.3-2.3,8.5-3.1,12.8c-0.8,6.6,0.8,13.1,0,19.7c-3.1,4.6-8.9,3.9-13.5,3.5
		c-7.7-0.8-15.1-2.7-22.5-5c-0.8,0-1.2,0-1.9,0c-9.7-2.7-18.9,0-28.3,0.8c-5.8,0.4-11.2-1.5-16.2-4.6c-7.7-5.4-11.6-13.1-14.7-21.7
		c-1.5-3.5-3.1-6.6-5.4-9.7c-3.9-4.6-8.5-8.1-13.1-12c-2.7-2.3-5-5.4-7.3-8.1c-0.4-0.8-1.2-1.9-1.9-2.7c-7-11.6-13.5-22.1-17.8-34.5
		c-1.5-4.6-2.7-8.9-4.3-13.5c-0.8-2.3-0.8-5-2.6-7.1"/>
	<path fill="none" stroke="#8A4E21" stroke-width="0.1" stroke-linecap="round" stroke-linejoin="round" stroke-miterlimit="10" d="
		M294.5,973c-7.9,2.9-14.5,7.5-21.5,12.5c-1.5,0.8-3.1,1.9-4.6,2.7c-0.8,0.8-1.5,1.5-2.7,2.3c-3.9,2.3-7,4.6-10.8,6.6
		c-4.6,2.3-8.9,4.6-13.1,7.3c-3.5,2.7-6.2,5.4-8.5,9.3c-1.9,3.5-3.9,7-5.4,10.8c-3.5,10-8.1,19.3-11.6,29.5
		c-2.3,6.6-2.7,13.9,0,20.6c1.5,3.5,3.5,6.6,5.8,9.3c3.5,3.5,7,6.6,10.8,9.7c2.7,2.3,5.8,5.4,5,9.3c-0.4,1.5-1.5,2.7-2.7,3.1
		c-14.3,5-28.3-2.7-43-5c-8.9-1.5-17.8-3.5-26.4-0.4c-5.4,2.3-10,5.8-15.1,9.3c-11.2,7.3-25.6,7-36.4,0c-10.4-9.7-18.2-21.7-21.7-36
		c-1.5-7.7-1.5-15.8-6.6-22.1c-4.6-5.4-10-9.7-13.9-15.8c-6.6-12-11.2-24.1-17-36c-3.1-7-3.9-14.3-5.8-21.7
		c-0.8-1.5-1.5-3.5-2.2-5.1"/>
	<path fill="none" stroke="#8A4E21" stroke-width="0.1" stroke-linecap="round" stroke-linejoin="round" stroke-miterlimit="10" d="
		M311.8,973c-5.6,1-11.2,2.7-16.4,5.1c-5.4,2.5-10.6,5.7-15.6,9c-5,3.4-9.8,7-15,10c-5.1,3-10.6,5.3-15.6,8.3
		c-5.1,3-9.2,7.1-12.3,12.1c-3,4.7-5.1,9.9-7.2,15c-2.4,5.8-4.9,11.6-7,17.5c-1.9,5.7-3.1,11.7-1.9,17.7c1.2,5.7,4.6,10.6,8.7,14.6
		c4.3,4.1,9.3,7.5,13.7,11.6c3.4,3.2,9.5,9.8,5.6,14.7c-3.6,4.5-11.4,4.1-16.5,4.1c-5.8,0-11.4-0.6-17-2c-5.7-1.5-11.3-3.4-17.1-4.6
		c-5.8-1.2-11.9-2.2-17.7-0.7c-5.9,1.5-9.7,6-13.9,10.2c-4.3,4.2-9.2,7.3-14.7,9.4c-5.4,2.2-11.2,3.9-17.1,3.7
		c-5.7-0.2-11.5-2.2-16.8-4.2c-5.5-2.2-10.3-5.4-13.8-10.4c-3.5-5-6.2-10.6-9-16.1c-2.6-5.2-5.1-10.5-6.6-16.2
		c-1.6-5.7-1.6-11.4-2.2-17.3c-0.7-6.1-3.4-10.7-7.5-15c-4.3-4.4-8.3-8.7-11.1-14.3c-2.6-5.4-4.6-11.1-6.8-16.7
		c-2.2-5.4-4.9-10.6-7.2-16c-2.6-5.8-3.8-11.7-5.1-17.8c-0.8-3.9-1.9-8-3.7-11.6"/>
	<path fill="none" stroke="#8A4E21" stroke-width="0.1" stroke-linecap="round" stroke-linejoin="round" stroke-miterlimit="10" d="
		M333.3,973c-9.5,1.7-18.7,2.9-28.1,5.6c-5.8,1.5-10.4,4.3-15.5,7.3c-6.2,3.9-11.6,8.1-17.8,12.4c-6.2,3.9-12.4,6.6-18.9,10
		c-5.8,3.5-10.4,7.3-13.5,13.1c-7,14.7-17.8,30.2-12.4,46.9c1.2,5,4.6,8.9,8.5,12.4c8.9,7.3,18.2,13.9,23.7,24.1
		c1.2,2.7,1.5,5.8,0,8.5c-2.7,3.9-7.7,3.5-11.6,3.9c-9.7,0-19.3,0-29.5-1.2c-5.8-0.8-10.8-3.1-16.6-4.6c-7.7-1.9-15.8-1.9-21.7,3.9
		c-0.4,0.8-1.2,1.2-1.9,1.9c-0.4,0.4-0.4,1.2-0.8,1.5c-2.7,2.7-4.6,5.8-7.7,8.1c-10.8,7.7-22.9,12.8-35.6,12.8
		c-8.1,0.4-15.1-3.9-22.5-7c-2.7-1.2-5-2.7-7.3-4.6c-2.7-2.3-5-5.4-6.6-8.5c-5-11.2-9.7-22.5-13.9-34.1c-2.3-7-2.3-13.9-2.7-21.4
		c-0.4-4.3-2.3-8.1-5-11.2c-3.5-3.1-6.6-6.2-9.3-9.7c-1.5-2.3-2.7-4.6-3.9-7.3c-2.3-7-4.3-14.3-7.3-21.4c-1.9-4.6-3.9-9.7-5.8-14.3
		c-3.1-6.6-3.9-13.5-5.4-21c-0.4-2.3-1.5-4.3-2.4-6.3"/>
	<path fill="none" stroke="#8A4E21" stroke-width="0.1" stroke-linecap="round" stroke-linejoin="round" stroke-miterlimit="10" d="
		M590.4,1188.1L590.4,1188.1l0.1-0.3l-0.2-0.4l-0.4-0.5l-0.6-0.5l-1.2-0.8l-2.4-1.5l-0.8-0.4l-0.5-0.2l-0.4-0.1l-0.8-0.1h-1.3h-0.3
		l-0.3,0.1l-0.2,0.1l-0.2,0.2l-0.2,0.3l-0.2,0.3l-0.3,0.9l-0.2,0.7v0.4v0.3l0.2,0.4l0.4,0.5l0.8,0.7l2,1.5l0.8,0.5l0.6,0.2l0.5,0.1
		h0.5l0.5-0.1l1.2-0.4l1-0.5l0.9-0.5l0.7-0.5L590.4,1188.1L590.4,1188.1"/>
	<path fill="none" stroke="#8A4E21" stroke-width="0.1" stroke-linecap="round" stroke-linejoin="round" stroke-miterlimit="10" d="
		M349.6,973c-12.6,2.1-24.3,4.4-37.4,7.5c-15.8,3.1-26.4,13.5-39.5,22.5c-5.4,3.5-10.8,5.4-16.2,8.5c-4.3,2.3-7.7,5.4-10.8,9.3
		c-6.2,8.1-9.7,17-13.1,26.4c-1.5,4.6-2.3,9.3-1.9,13.9c0.8,4.3,1.9,8.5,5,12c6.2,7.7,13.5,12.8,21,18.9c4.2,4.3,8.1,8.5,10.8,13.9
		c0.4,0.8,0.8,1.9,1.2,2.7c1.5,3.9,3.1,9.3-1.2,11.6c-7.3,4.3-15.8,1.2-24.1,0.8c-9.3-0.8-18.5,0.4-27.9-0.8
		c-5-0.8-9.3-2.3-14.3-3.1c-2.7-0.4-5.8-0.4-8.5,0.8c-0.8,0.4-1.9,0.8-2.7,1.2c-7.3,5-11.2,12.4-18.9,16.6c-10,5-20.6,9.7-31.4,12.8
		c-12,1.2-22.9-5-33.7-10c-3.9-1.9-7-4.6-9.7-8.1c-7.3-10.7-8.9-22.8-13.5-34.4c-2.7-6.6-5-13.1-6.2-20.1c-0.4-4.3-0.8-8.5-1.2-12.8
		c-0.4-3.1-2.3-5.8-4.3-8.1c-2.7-3.1-5.4-5.4-8.1-8.5c-2.3-3.1-3.9-6.6-5-10.4c-2.7-10-4.6-20.1-9.3-29.5c-0.4-0.8,0-1.2-0.4-1.9
		c-1.9-3.1-2.7-6.2-3.9-9.7c-1.9-7.3-2.3-14.7-5.6-21.9"/>
	<path fill="none" stroke="#8A4E21" stroke-width="0.1" stroke-linecap="round" stroke-linejoin="round" stroke-miterlimit="10" d="
		M380.2,973c-5.8,1.4-12,0.5-17.8,0"/>
	<path fill="none" stroke="#8A4E21" stroke-width="0.1" stroke-linecap="round" stroke-linejoin="round" stroke-miterlimit="10" d="
		M396.4,973c-5.1,4.4-11.3,6.3-17.5,6.7c-8.1,0-16.2-2.3-24.8-1.5c-2.3,0.4-4.6,0.4-7,0.8c-10.4,2.3-19.7,3.5-30.2,5.8
		c-7,1.9-13.1,4.2-19.3,8.5c-5.4,3.9-10,7.7-15.1,12c-5.8,4.6-12,7.7-18.5,11.6c-1.9,1.2-3.1,2.3-5,3.5c-8.5,5.8-12,14.7-15.8,23.7
		c-1.2,3.1-2.3,6.2-2.7,9.3c0,2.7-0.4,5.4,0,8.1c1.5,8.1,7.3,14.3,14.3,18.9c0.8,0.8,1.5,1.5,2.3,2.3c6.6,3.9,13.1,7.3,17,13.9
		c5,8.1,8.1,16.2,12,24.4c1.2,3.1,2.7,6.6,0.4,9.3c-5,5.4-12.4,3.1-18.5,1.9c-11.6-1.5-22.5-5-34.1-3.9c-3.5,0.8-7,1.5-10.4,2.7
		c-6.6,2.3-13.9,1.9-20.6,3.9c-6.6,2.3-12.4,5.8-18.5,10c-3.1,1.9-6.2,3.1-9.3,4.6c-9.3,3.9-18.2,7-27.5,11.2
		c-4.3,1.9-8.9,2.7-13.5,2.3c-2.7-0.4-5-1.2-7.7-1.9c-8.9-4.3-17.4-8.5-26.4-12c-1.5-0.8-3.5-1.9-5-3.1c-1.2-0.8-1.9-2.3-2.7-3.1
		c-5-6.6-8.5-13.5-10.8-21c-2.3-7.3-3.5-15.1-5.8-22.5c-2.3-6.2-5-12.8-7.3-18.9c-1.9-5.4-2.3-11.2-4.2-16.6
		c-0.8-1.5-1.2-3.1-2.3-4.6c-0.8-0.8-1.2-1.5-1.9-2.7c-4.6-5.4-8.9-11.2-10-18.5c-1.2-8.5-1.5-16.2-3.9-24.4
		c-1.9-5.4-4.3-10.8-6.2-16.2c-1.5-5.4-2.3-10.8-3.5-16.6c-0.4-2.7-0.8-5.4-2.6-7.8"/>
	<path fill="none" stroke="#8A4E21" stroke-width="0.1" stroke-linecap="round" stroke-linejoin="round" stroke-miterlimit="10" d="
		M601.9,1208.8l0.7-5.4l0.3-3.6l0.1-3.2v-1l-0.1-1.9l-0.2-1.6l-0.2-1.1l-0.5-2.2l-0.3-0.9l-0.5-1l-0.5-0.9l-0.3-0.4l-1-1.4l-0.8-0.9
		l-1.4-1.5l-1.4-1.2l-1.3-1l-2.8-2l-5.5-3.7l-6.6-4.6l-1.5-0.9l-1.5-0.8l-1.2-0.5l-1.3-0.4l-0.7-0.1h-0.7h-0.7l-1.5,0.4l-0.7,0.3
		l-1,0.7l-0.6,0.6l-0.7,0.9l-0.5,0.8l-0.3,0.5l-0.5,1.2l-0.3,0.8l-0.4,1.5l-0.2,1.6l-0.1,1.5v0.6l0.1,1.7l0.2,1.5l0.3,1.5l0.6,1.9
		l0.4,1l0.5,1.2l0.5,1.1l0.7,1.3l0.7,1.2l1,1.6l1.3,1.7l1.7,2l1,1l1,1l2,1.8l1.3,1.1l1.9,1.5l1.1,0.8l1.2,0.7l1.4,0.8l1,0.5l1,0.5
		l1.8,0.7l1.9,0.7l2.3,0.7l2.4,0.6l1.2,0.2l2.3,0.4l1.2,0.1l1.5,0.1h0.8L601.9,1208.8L601.9,1208.8L601.9,1208.8"/>
	<path fill="none" stroke="#8A4E21" stroke-width="0.1" stroke-linecap="round" stroke-linejoin="round" stroke-miterlimit="10" d="
		M107.5,1279.5c-5.6-2.9-11.4-1.3-16.9,0"/>
	<path fill="none" stroke="#8A4E21" stroke-width="0.1" stroke-linecap="round" stroke-linejoin="round" stroke-miterlimit="10" d="
		M120.8,1279.4c-2.3-5.2-9.5-7.3-14.6-8c-5.9-0.8-11.5-0.1-17.3,1.2c-6.2,1.4-12.3,2.6-18.6,3.6c-4.5,0.7-8.8,1.9-13.2,3.2"/>
	<path fill="none" stroke="#8A4E21" stroke-width="0.1" stroke-linecap="round" stroke-linejoin="round" stroke-miterlimit="10" d="
		M115.3,1279.4c-4.5-5.1-11.4-5.9-18-5.1c-8.9,1.2-17.4,4.6-26.2,5.2"/>
	<path fill="none" stroke="#8A4E21" stroke-width="0.1" stroke-linecap="round" stroke-linejoin="round" stroke-miterlimit="10" d="
		M164.7,1279.5c-0.9-0.5-1.6-0.9-2.4-1.7c-0.4-0.8-1.2-1.2-1.9-1.9c-3.5-5-6.2-9.7-10.8-13.9c-2.7-2.3-5.8-3.9-8.9-4.6
		c-11.6-4.3-22.9-7.3-34.5-10.8c-6.2-1.9-12.4-4.6-18.9-3.5c-2.7,0.4-5.4,1.2-7.7,2.3c-11.6,4.6-22.9,8.9-34.5,12.8
		c-7.7,2.3-16.2,2.3-24.1-0.8c-0.4-0.4-0.8-0.8-1.2-1.2c-6.6-3.9-10-10.8-12.4-17.8c-3.1-8.1-5-16.6-3.5-25.6
		c1.2-6.2,3.9-11.2,7-16.6c2.7-5,5-10,4.2-15.8c-1.2-7.3-8.5-10-14.8-11.1"/>
	<path fill="none" stroke="#8A4E21" stroke-width="0.1" stroke-linecap="round" stroke-linejoin="round" stroke-miterlimit="10" d="
		M376.1,1279.4c-4.7-4-10.1-6.7-15.5-9.4c-2.3-1.5-4.6-2.7-7-4.3c-6.2-3.9-10.4-8.5-16.6-12.4c-5.8-3.5-11.6-6.2-17.4-9.7
		c-0.8-0.8-1.5-1.5-2.7-1.9c-0.4-0.4-0.8-0.8-1.2-1.2s-1.2-0.4-1.5-0.8c-6.6-5.4-10.8-13.1-18.9-16.2c-8.9-3.1-17.4,1.5-26,4.6
		c-8.5,2.7-16.6,3.9-24.4,8.9c-2.7,1.9-4.6,4.3-7,7c-4.3,5.8-7,12.4-13.5,15.8c-0.8,0.4-1.9,0.8-2.7,1.2c-1.5,0.8-3.1,0.8-4.6,1.2
		c-7.3,0.4-15.1,1.2-21.7,4.6c-4.6,2.7-7.7,6.6-12,10c-1.2,0.8-2.3,1.5-3.6,2.5"/>
	<path fill="none" stroke="#8A4E21" stroke-width="0.1" stroke-linecap="round" stroke-linejoin="round" stroke-miterlimit="10" d="
		M409.5,1279.5c-6.3-6-15.1-7.1-22.6-10.6c-1.2-0.4-2.3-0.4-3.5-0.8c-2.7-1.2-5.4-1.9-8.1-3.1c-1.2-0.4-1.9-1.2-3.1-1.5
		c-0.8-0.4-1.2,0-1.9-0.4c-7-3.5-13.5-7.3-19.7-12.8c-6.2-4.6-12.4-8.5-18.9-12.8c-2.7-1.9-5-4.3-7.7-6.2c-5-4.6-7.7-10.8-12.4-15.8
		c-0.8-0.4-1.2-1.2-1.9-1.9c-10.4-10.8-26.8-8.1-38.7-1.5c-7.7,2.7-15.5,5.4-23.3,8.5c-3.9,1.5-7,3.5-10.4,6.2
		c-7.3,5.8-11.2,13.1-17.8,19.3c-1.9,1.5-3.9,3.1-6.2,3.9c-8.9,3.1-18.5,3.9-27.5,7c-2.3,0.8-4.3,1.9-6.6,2.3
		c-2.3,0-4.6,0.4-6.6-0.4c-5-2.7-9.3-5.4-13.9-8.9c-2.3-1.5-5-1.9-7.3-3.1c-8.9-2.7-17.8-2.7-27.1-5c-10-2.3-18.9-5.8-27.9-10
		c-4.6-1.9-10-2.3-14.7-0.8c-6.2,2.3-11.2,5.8-17,8.9c-11.2,5.8-25.6,12.7-36.8,3.1c-10.8-9.3-12.8-25.2-8.1-38.4
		c7.3-11.6,12.4-26.8,5.8-39.9c-0.4-0.4-0.8-0.4-1.2-0.8c-2.3-3.9-6.2-6.2-10.4-7.3c-0.4,0-0.4-0.8-0.8-0.8
		c-3.5-1.2-7.3-2.3-9.3-5.4c-3.9-7,1.2-13.9,3.9-20.6c1.9-5.8,2.3-12.8-2.3-17.4c-0.8-0.4-1.2-1.2-1.9-1.9c-0.7-0.7-1.9-1.2-2.8-2"
		/>
	<path fill="none" stroke="#8A4E21" stroke-width="0.1" stroke-linecap="round" stroke-linejoin="round" stroke-miterlimit="10" d="
		M613.7,1045.3c-1.7-0.7-2.5-1.9-3.7-2.7c-2.3-2.3-4.3-4.3-6.6-6.6c-0.8-0.8-1.2-1.5-1.9-2.3c-3.1-2.7-5.8-5.4-9.3-7.3
		c-3.9-2.7-7-5.8-9.7-9.3c-3.1-8.1-2.7-17.8-9.3-24.1c-1.9-1.9-4.6-2.7-7.3-3.5c-7-1.5-13.9-0.8-20.6-3.1
		c-23.3-8.5-48.4-16.2-72.8-7.7c-10.8,3.5-15.5,14.3-19.3,24.4c-3.1,8.1-1.5,17-1.9,25.6c-0.4,3.5-1.5,7-3.9,10
		c-1.5,1.9-3.5,3.5-5.4,5c-9.7,6.6-20.1,9.7-30.6,13.5c-1.9,0.8-3.9,1.9-5.8,3.1c-3.9,1.5-7.7,3.5-9.7,7.7
		c-2.7,6.2-0.8,13.1-1.2,19.7c-0.4,2.7-1.2,5-2.7,7c-2.7,3.1-6.2,5.4-8.9,8.5c-2.7,3.5-3.5,7.3-2.7,11.6c1.2,5.8,3.9,10.8,3.1,16.6
		c-1.2,7-5,13.1-4.3,20.6c1.2,7.7,6.6,13.9,12.4,19.3c3.9,3.9,6.2,8.9,6.2,14.3c-0.4,5-2.3,9.7-3.1,14.7c-1.2,6.2-0.8,12.4,0.8,18.5
		c1.5,5.4,3.5,10.8,7.3,15.1c0.8,0.4,1.2,1.2,1.9,1.9c11.2,11.2,27.1,4.6,41.4,7c6.6,1.2,12,3.9,17.4,7.3c7,5,12,10.4,17,17.4
		c2.3,3.5,3.5,7.3,4.4,11.3"/>
	<path fill="none" stroke="#8A4E21" stroke-width="0.1" stroke-linecap="round" stroke-linejoin="round" stroke-miterlimit="10" d="
		M613.6,1048c-6.9-4.6-12.2-10.9-18.7-15.9c-5.6-4.3-12.6-7.9-15.8-14.5c-3.1-6.2-1.6-13.7-5.5-19.5c-4.2-6.2-11.9-6.7-18.7-7.3
		c-4.1-0.3-8.2-1.1-12.1-2.3c-4.1-1.2-7.9-3-11.9-4.5c-8.1-3.1-16.3-5-25.1-5.6c-8.3-0.7-17-0.7-25.4,1c-7.5,1.6-13.7,5.5-17.8,12.1
		c-4.1,6.7-6.7,15-6.6,22.9c0.1,7.9,3.4,15.7-1.6,23c-4.2,6.1-11.4,10.2-18,13.2c-7.7,3.5-16,5.8-23.8,9.3
		c-6.1,2.7-12.4,6.4-13.8,13.5c-1.4,7.6,3.6,16.5-0.8,23.7c-1.9,3.2-5.1,5.3-7.7,7.8c-2.9,2.8-4.5,6.2-4.3,10.3
		c0.2,4.3,2.1,8.2,2.4,12.5c0.3,4.2-1.2,7.8-2.8,11.6c-1.5,3.4-3,6.8-3.1,10.6c-0.1,3.7,1.2,7.3,3.2,10.4c3.7,6,9.9,9.9,13.9,15.7
		c2.1,3.1,3.1,6.4,2.5,10.1c-0.5,3.8-2.1,7.4-3,11.1c-2,8.2-1.3,17,1.8,24.9c2.7,7,7.7,12.7,15.1,14.7c8.1,2.2,16.5,0,24.8,0.3
		c17,0.5,31.7,9.4,43.6,21.1c6.2,6,10.6,12.7,12.4,21.4"/>
	<path fill="none" stroke="#8A4E21" stroke-width="0.1" stroke-linecap="round" stroke-linejoin="round" stroke-miterlimit="10" d="
		M613.6,1051c-4.4-3.4-9-6.8-13.3-10.7c-6.2-5-12.4-8.9-18.9-13.5c-2.3-1.9-4.6-3.9-5.8-6.6c-0.4-0.8-0.8-1.9-1.2-2.7
		c-1.2-5-0.8-10-2.3-14.7c-1.5-4.3-5-8.1-10-8.5c-13.9-0.4-26.4-6.6-39.5-10.4c-14.3-4.6-29.9-5.8-44.1-1.2
		c-6.6,2.3-12,7.3-14.7,13.9c-0.4,0.8-0.8,1.9-1.2,2.7c-2.7,8.5-1.5,17.4,0,26.4c0.8,5.4-0.4,10.4-3.9,14.7
		c-10.8,12-27.1,14.7-41.4,20.1c-1.9,0.8-3.9,1.5-5.8,2.7c-0.8,0.8-1.5,1.2-2.7,1.9c-2.3,1.5-4.3,3.5-5.4,5.8
		c-2.3,5-1.2,10.4,0.8,15.5c2.3,5.4,4.6,12.4,0,17c-3.1,2.7-7.3,4.3-10,7.3c-2.3,3.1-1.9,7-0.4,10.4c0.4,0.8,0.8,1.5,1.2,2.7
		c0,0.4,0.4,0.8,0.8,1.2c1.5,3.9,1.2,8.5-1.5,11.6c-3.9,3.9-7.3,7.7-8.1,13.1c-0.8,9.3,7.3,15.5,14.7,20.6c3.5,2.3,6.2,5,7.7,8.9
		c1.2,2.7,0.8,6.2-0.4,8.9c-3.5,7.3-6.6,14.7-5,22.9c1.5,9.3,7.3,17.8,17,18.9c13.1,1.9,26-1.2,38.4,3.5
		c15.1,5.4,28.7,13.5,39.9,25.6c5.4,5.8,8.9,12.4,10.2,20.2"/>
	<path fill="none" stroke="#8A4E21" stroke-width="0.1" stroke-linecap="round" stroke-linejoin="round" stroke-miterlimit="10" d="
		M614,1161.1c-1.3-2.2-2.9-3.7-4.4-5.7c-1.2-1.9-1.9-4.3-2.7-6.6c-1.5-7.3,1.5-14.3,4.6-21c3.1-6.2,1.2-13.1-1.9-19.3
		c-2.3-4.3-3.1-8.9-2.3-13.9c0.8-4.3,2.7-8.1,4.3-12.4c1.9-5.4,2.3-12.4-3.5-16.2c-3.9-2.7-7.7-4.6-11.6-7.7
		c-4.6-3.9-7.7-8.1-12.8-11.6c-5-3.1-9.7-5.8-15.1-8.5c-3.5-1.5-7-3.5-9.7-6.2c-7.7-8.5-15.1-17-22.9-26c-2.3-2.7-4.6-5-7.3-7.3
		c-10-8.9-24.1-12-36.4-7.3c-3.5,1.5-6.6,3.5-8.9,6.6c-1.5,1.9-2.3,4.6-2.7,7c-0.4,7,2.3,13.5,5,20.1c2.3,6.6,3.9,14.3-1.5,19.7
		c-0.8,0.4-1.2,1.2-1.9,1.9c-3.5,3.1-7.7,4.3-12,6.6c-1.9,1.2-3.9,2.3-5.8,3.5c-1.2,0.4-1.9,1.2-2.7,1.9c-4.6,2.7-8.9,4.6-13.9,6.2
		c-8.5,2.7-18.5,1.9-25.6,8.1c-1.5,1.2-1.9,3.5-1.9,5c0.4,3.9,2.7,7,5.8,8.9c11.6,7.3,24.1,10,37.6,13.1c3.1,0.8,6.6,1.2,9.7,1.5
		c7.7,1.2,15.5,1.9,22.9,4.3c1.2,0.4,1.9,1.5,3.1,2.3c0.4,0.8,1.2,1.2,1.9,1.9c3.1,4.6,2.7,9.7,1.9,15.1c-0.8,4.6-3.1,8.5-4.6,12.8
		c-0.4,0.4-0.8,0.8-1.2,1.2c-1.2,2.7-2.3,4.6-4.3,7c-1.5,1.5-2.7,3.1-4.3,5c-4.3,4.3-8.1,8.1-12,12.8c-0.4,0.8-1.2,1.9-1.9,2.7
		c-3.5,5.4-6.2,10.4-7.7,16.6c-1.2,5.4-1.5,10.4,0.4,15.8c0.8,2.7,1.9,5,3.5,7.3c10.8,13.5,26,20.1,41.1,26.4
		c4.6,1.9,8.5,4.6,11.6,8.5c8.5,12,14.7,24.8,19.7,38.2"/>
	<path fill="none" stroke="#8A4E21" stroke-width="0.1" stroke-linecap="round" stroke-linejoin="round" stroke-miterlimit="10" d="
		M614,1164.7c-5.2-4.7-10.2-10.4-10.7-17.7c-0.5-7.9,3.2-15.5,5.2-23c0.6-2.2,1-3.6,0.5-5.9c-0.4-2-1-3.9-1.6-5.9
		c-1.2-3.8-2.7-7.7-3.2-11.7c-0.5-4.2,0.1-8.5,0.8-12.6c0.6-3.5,1.2-7,0.5-10.5c-0.8-3.6-2.9-5.6-5.7-7.7c-3.1-2.3-6-4.7-8.7-7.5
		c-2.7-2.9-4.8-6.1-7.6-9c-2.8-2.9-5.8-5.4-9.2-7.5c-3.4-2-7-3.8-10.5-5.5c-3.6-1.7-6.7-3.8-9.9-6.1c-6-4.1-11.8-8.5-16.4-14.1
		c-4.5-5.5-7.3-12.1-11.7-17.7c-4.7-5.9-11.1-9.6-18.7-10c-6.7-0.4-14.4,1.2-18.3,7.3c-4.1,6.5-1.5,14.5,1.3,21
		c3,6.7,7.5,14.1,6.3,21.8c-1.2,8.2-10.3,11-16.8,13.3c-3.7,1.3-8.4,2.6-11.3,5.3c-1.4,1.3-3.6,2.2-5.3,3.2c-1.8,1.1-3.6,2.1-5.5,3
		c-3.8,1.8-7.7,3.5-11.8,4.3c-3.9,0.7-7.8,0.9-11.6,2.2c-2.7,1-4.6,2.9-3.6,6c0.8,2.5,3.5,3.7,5.8,4.6c7.1,2.9,14.4,4.7,22,6.2
		c8.3,1.7,16.7,3.8,25.3,3.4c4.3-0.2,8.5-0.8,12.8-1.5c3.8-0.6,7.6-1.4,11.4-0.4c1.7,0.4,3.3,1.1,4.6,2.1c1.3,1,2.8,2.5,3.6,3.9
		c1.7,3.1,2.9,6.5,3.5,10c1.2,6.9,0.3,14-2,20.7c-2.5,7-6.5,13.1-11.6,18.4c-5.5,5.8-11.8,10.7-17.5,16.2c-10.9,10.7-16.8,28-8,41.7
		c6.9,10.8,19,16.1,30.5,20.6c6,2.3,12.6,4.1,17.2,8.8c2.7,2.8,4.4,6.2,6.1,9.6c2,3.9,4,7.8,5.9,11.7c3.8,7.8,7.5,15.6,10.9,23.7"/>
	<path fill="none" stroke="#8A4E21" stroke-width="0.1" stroke-linecap="round" stroke-linejoin="round" stroke-miterlimit="10" d="
		M614.1,1267c-0.5,4.1-1.1,8.3-1.8,12.4"/>
	<path fill="none" stroke="#8A4E21" stroke-width="0.1" stroke-linecap="round" stroke-linejoin="round" stroke-miterlimit="10" d="
		M614,1230.7c-2.2,4.7-0.8,10.2,0,15.1"/>
	<path fill="none" stroke="#8A4E21" stroke-width="0.1" stroke-linecap="round" stroke-linejoin="round" stroke-miterlimit="10" d="
		M614,1213c-4.4-1.4-11.3-3.2-13.5,2.4c-3.1,7.8,0.5,17.3,3,24.9c2,6,4.5,12.1,4.7,18.5c0.2,6.9-0.5,13.8-1.5,20.7"/>
	<path fill="none" stroke="#8A4E21" stroke-width="0.1" stroke-linecap="round" stroke-linejoin="round" stroke-miterlimit="10" d="
		M614,1200.8c-1.4-1.2-2.2-3.7-2.9-5.4c-0.8-1.9-1.5-3.7-2.4-5.5c-1.7-3.7-3.8-6.8-6.8-9.5c-2.8-2.5-6-4.6-9.1-6.6s-5.8-4.4-8.1-7.2
		c-2.2-2.8-4-5.8-5.8-8.9c-1.6-2.7-3.4-7.2-7.1-7.5c-3.1-0.3-6.4,3.7-8.1,5.9c-2.1,2.7-3.7,5.8-5.1,8.9c-1.6,3.6-2.8,7.2-2.8,11.2
		c0,3.8,0.9,7.7,2.4,11.2c2.5,5.9,6.8,10.9,11.3,15.3c4.6,4.6,10.1,8.8,13.9,14.2c4.8,7,8,14.8,11.2,22.7c2.6,6.3,5,12.7,6.3,19.4
		c1.3,6.8,0.8,13.6-0.2,20.5"/>
	<path fill="none" stroke="#8A4E21" stroke-width="0.1" stroke-linecap="round" stroke-linejoin="round" stroke-miterlimit="10" d="
		M614,1183.8c-4-6.8-11-10.7-17.5-15.3c-2.7-1.9-4.6-3.9-6.6-6.6c-1.9-2.3-2.3-4.6-2.7-7.3c-2.3-10,1.2-19.3,2.7-29.5
		c1.9-9.7-1.9-18.5-8.9-25.2c-3.5-2.7-7.7-5-12.4-4.3c-5.4,0.8-7.3,5.4-8.5,10.4c-1.2,7.7-0.8,15.1-1.9,22.9
		c-1.2,7.3-3.5,14.3-6.6,21c-5,9.7-13.1,15.8-18.9,25.2c-1.2,2.7-2.7,5-2.3,8.1c1.5,10.4,12,14.3,20.1,19.3c4.6,3.1,8.5,6.2,12,10
		c3.5,4.3,6.6,8.1,8.1,13.1c4.6,12,10,23.3,14.7,35.3c1.9,5.8,2.7,12,2.4,18.3"/>
	<path fill="none" stroke="#8A4E21" stroke-width="0.1" stroke-linecap="round" stroke-linejoin="round" stroke-miterlimit="10" d="
		M614,1179c-4.9-5.7-11.6-9.2-17.1-14.3c-5.8-5.4-7.7-12.6-6.9-20.5c0.8-8.3,4.6-16.2,4.3-24.7c-0.3-7.6-3.3-15.8-8.2-21.8
		c-5.1-6.1-12.6-10.2-19-14.8c-2.3-1.6-5.4-4.6-8.3-4.7c-3.4-0.1-3.9,5.3-4.2,7.8c-1.1,8.7-1.4,17.4-1.7,26.3
		c-0.3,8.6-0.8,17.3-3.3,25.8c-2.3,7.7-6.4,14.4-12.2,20c-5.7,5.4-12.6,9.4-18.6,14.4c-5.3,4.4-10.2,11-6.6,18
		c3.4,6.6,11.8,9.6,18.4,11.9c7.5,2.6,15.4,4.5,21.9,9.4c6.3,4.8,10,11.5,12.4,18.9c1.3,3.9,2.2,8,3.6,11.9c1.4,3.9,3,7.8,4.8,11.5
		c3.7,7.5,6.8,15.6,7.8,24.1c0,0.3,0.1,0.7,0.1,1"/>
	<path fill="none" stroke="#8A4E21" stroke-width="0.1" stroke-linecap="round" stroke-linejoin="round" stroke-miterlimit="10" d="
		M614,1175.2c-2.9-2.8-6.1-5.2-9.2-7.6c-3-2.3-6.1-4.8-8.2-8c-4-6.1-4.2-13.9-2.5-21c1-4.1,2.4-8.2,3.2-12.3c0.8-4.2,0.9-8.2,0-12.4
		c-0.8-4-2-8.1-3.5-11.9c-1.4-3.4-3-7.4-5.5-10.2c-2.6-2.9-6-5.1-9-7.6c-2.9-2.4-5.4-5.3-7.3-8.5c-1-1.6-1.9-3.3-2.5-5.1
		c-0.6-1.6-1.2-2.9-1.8-4.4c-1.2-3.4-3.3-6.8-6.1-9.1c-4.6-3.6-11.7-2.8-14.4,2.6c-3.6,7.3-2,15.9-1.6,23.7
		c0.5,8.5,0.8,17.1,0.6,25.8c-0.2,8.3-0.7,17-2.8,25.1c-1.7,6.5-4.8,12.7-9.4,17.6c-3.9,4.3-8.8,7.3-13.7,10.4
		c-8.2,5.2-18.9,11.6-20,22.4c-1.5,13.8,12.6,20.8,23.8,24.1c6.1,1.8,12.7,2.7,18.4,5.6c6.1,3.2,11.2,8.5,13.3,15.2
		c1.2,4,2,8.1,3.1,12.1c1.2,4.2,3,8.1,4.8,12.1c3.4,7.4,7.1,14.8,9.5,22.7c0.3,1,0.6,2,0.9,3.1"/>
	<path fill="none" stroke="#8A4E21" stroke-width="0.1" stroke-linecap="round" stroke-linejoin="round" stroke-miterlimit="10" d="
		M614,1171.5c-5.5-5.1-12.5-9.2-15.6-16.3c-3.2-7.4-1.3-15.2,0.8-22.7c1.2-4.1,2.3-8.2,2.2-12.4c-0.1-4.3-1.3-8.3-2.2-12.5
		c-1.8-7.7-3.1-15.8-8.5-22.1c-2.4-2.7-5.3-5.1-7.7-7.8c-2.5-2.7-4.3-5.9-6-9.2c-1.6-3.2-2.8-6.6-4.8-9.7c-1.9-2.9-4.3-5.4-7.1-7.4
		c-5.7-4.1-13.7-7.2-20.8-5.2c-6.8,1.9-9.5,8.3-10,14.8c-0.6,8.5,1.7,17,3.1,25.4c1.5,8.7,1.8,17.4,1.2,26.4
		c-0.5,8.3-1.4,16.9-4.6,24.7c-3,7.3-8.3,13.1-14.5,17.9c-11.4,8.7-30.4,18.4-27.4,35.9c1.3,7.5,6.7,13.2,13,17.1
		c6.9,4.3,14.9,6,22.6,8.3c7.2,2.2,14,5.3,17.9,12.1c3.9,6.8,4.8,14.9,7.7,22.2c3.9,9.8,10.3,18.5,13.4,28.7"/>
	<path fill="none" stroke="#8A4E21" stroke-width="0.1" stroke-linecap="round" stroke-linejoin="round" stroke-miterlimit="10" d="
		M401.5,973c-4.4,4.1-9.2,7.4-15.2,8.7c-5.9,1.2-11.9,0.5-17.8-0.2c-5.9-0.6-11.7-0.9-17.5-0.2c-5.6,0.7-11,2-16.5,3
		c-6.1,1.1-12.3,2-18.3,3.7c-5.8,1.7-11.2,4.2-16.2,7.5c-5.1,3.3-9.7,7.4-14.3,11.4c-4.2,3.7-8.7,6.8-13.5,9.7
		c-5.2,3.1-10.3,6.1-14.4,10.6c-3.9,4.3-6.9,9.5-9.2,14.8c-2.4,5.4-4.5,11.3-3.9,17.3c0.6,5.8,3.6,10.9,7.7,15
		c4.3,4.4,9.6,7.4,14.8,10.5c5,2.9,9.9,5.9,12.8,11.2c2.9,5.3,4.2,11.3,6.9,16.7c2.7,5.3,6.5,9.9,8.7,15.4c1,2.6,1.6,5.8-0.9,7.8
		c-2.2,1.7-5.5,2-8.2,2.2c-5.6,0.3-11.3-0.6-16.8-1.7c-6-1.2-12-2.6-18-3.4c-6-0.9-12-1.2-17.9,0.5c-5.7,1.7-10.7,4.9-16.5,6.4
		c-5.7,1.5-11.6,1.9-17.1,4c-5.6,2.1-10.8,5.2-16.1,7.9c-5.4,2.7-11.1,4.8-16.7,7c-5.3,2.1-10.4,4.6-15.7,6.7
		c-5.4,2.2-11.3,3.9-17.2,3.3c-6-0.7-11.2-3.5-16.3-6.5c-5.2-3-10.3-5.4-16.1-7.1c-2.9-0.8-5.8-1.5-8.4-3.1
		c-2.5-1.5-4.3-3.6-5.6-6.2c-2.7-5.2-5-10.9-7.5-16.2c-2.6-5.7-4.1-11.5-5.4-17.6c-1.2-5.7-3-11.2-5.2-16.7
		c-2.2-5.4-4.8-10.7-6.8-16.3c-2-5.5-3.1-11.5-5.9-16.7c-2.8-5.2-7-9.5-9.1-15.1c-2.2-5.6-2.5-11.7-2.9-17.7
		c-0.5-5.8-0.9-11.5-2.5-17c-1.7-5.7-4.5-10.9-6-16.7c-1.5-5.8-1.5-11.9-3.3-17.7c-0.6-1.8-1.4-3.6-2.2-5.2"/>
	<path fill="none" stroke="#8A4E21" stroke-width="0.1" stroke-linecap="round" stroke-linejoin="round" stroke-miterlimit="10" d="
		M614.2,975.5c-0.7-0.8-1.5-1.6-2.2-2.4"/>
	<path fill="none" stroke="#8A4E21" stroke-width="0.1" stroke-linecap="round" stroke-linejoin="round" stroke-miterlimit="10" d="
		M406.5,973c-6,6.3-12.9,11-21.5,11.7c-10,0.8-20.1-1.5-30.2-1.2c-8.1,0.4-15.8,2.7-24.4,3.9c-6.6,1.2-13.1,2.7-19.3,5
		c-5.4,2.3-9.7,5.4-14.3,8.9c-7.3,6.6-13.5,13.1-22.1,18.2c-7,3.9-13.5,8.5-17.8,15.5c-0.4,0.4-0.8,0.8-1.2,1.2
		c-4.3,7.7-8.1,15.5-7,24.4c0.8,5.4,3.9,10,7.7,13.9c0.4,0.4,1.2,0.4,1.5,0.8c0.8,0.8,1.5,1.5,2.3,2.3c9.3,5.8,21.4,8.1,24.8,18.5
		c2.7,7.7,4.3,15.5,8.9,22.5c3.9,5.4,7.7,9.7,10,15.5c0.8,1.2,1.2,2.7,0.8,4.3c-1.2,3.5-5,4.3-8.1,4.3c-12.4,1.2-24.4-1.9-36.8-4.3
		c-5.8-1.2-11.2-1.5-17-1.2c-8.1,0.8-14.3,7-21.7,10c-1.9,0.8-4.3,1.2-6.2,1.5c-7,0.4-14.3,1.5-21,3.9c-3.1,1.5-6.6,3.1-9.7,4.6
		c-10.4,4.3-20.6,8.5-31,13.1c-6.6,2.7-13.5,4.3-21,3.5c-3.5-0.4-6.2-1.9-9.3-3.1c-5.8-2.7-10.8-7-17-9.3c-3.5-1.2-7.3-1.5-11.2-2.3
		c-4.6-0.8-9.7-2.3-11.2-7c-1.5-5.4-2.7-10.4-4.6-15.5c-2.3-5-4.6-9.7-6.6-15.1c-1.5-5-1.9-10.4-3.5-15.5c-1.2-3.9-2.7-7.3-4.3-11.2
		c-4.6-8.9-8.1-18.2-12-27.5c-1.5-4.3-4.3-8.5-6.6-12.8c-2.7-4.6-4.6-9.7-5-15.1c-0.4-7-0.4-13.9-1.2-21.4c-1.2-6.2-3.5-12-5.4-17.8
		c-2.3-6.2-3.1-12.4-3.9-18.5c-0.4-3.1-1.5-6.2-3.4-9"/>
	<path fill="none" stroke="#8A4E21" stroke-width="0.1" stroke-linecap="round" stroke-linejoin="round" stroke-miterlimit="10" d="
		M614.2,979.5c-1.7-2.3-3.6-4.5-5.8-6.5"/>
	<path fill="none" stroke="#8A4E21" stroke-width="0.1" stroke-linecap="round" stroke-linejoin="round" stroke-miterlimit="10" d="
		M411.4,973c-3.8,4.4-8.4,8.5-13.6,11.1c-5.2,2.6-10.9,3.5-16.7,3.4c-6.1-0.2-12.1-1-18.1-1.2c-5.7-0.2-11.4,0.4-17,1.4
		c-6.4,1.1-12.7,2.2-19,3.4c-5.4,1-10.8,2.5-15.8,4.9c-5.4,2.7-10.2,6.3-14.5,10.4c-4.3,4.1-8.3,8.3-13.1,11.7
		c-4.9,3.5-10.4,6.1-15,9.9c-4.6,3.7-8.2,8.3-10.9,13.5c-2.7,5.2-4.9,11-4.7,17s3.3,11.2,7.8,15c4.6,3.9,10.4,6.1,15.9,8.4
		c5.1,2.1,10.8,4.6,13.2,10c2.5,5.4,1.7,11.8,3.5,17.4s5.2,10.3,8.9,14.8c3.7,4.5,8.2,8.8,10.9,14.1c1.2,2.3,2.4,6-0.3,7.8
		c-2.4,1.6-5.8,1.7-8.5,1.7c-6,0-11.9-0.5-17.8-1.3c-6.4-0.8-12.7-2-19-3.1c-5.5-1-11.1-1.8-16.7-1.6c-6,0.2-11.2,2.3-15.9,6.1
		c-4.5,3.7-8.6,8.1-14.7,8.9c-5.9,0.7-11.7-0.9-17.6-0.3c-5.3,0.6-10.4,2.4-15.4,4.3c-6.1,2.4-12.3,4.6-18.4,7.2
		c-5.5,2.4-10.9,5.1-16.5,7.1c-5.4,2-11.3,3.4-17.2,3.1c-6-0.3-11.4-3.1-16.5-6.1c-4.9-2.9-9.8-6.2-15.5-7.4
		c-2.8-0.6-5.6-0.7-8.5-0.6c-3,0.1-6.3,0.4-9.2-0.4c-6.5-1.8-6.1-9.7-6.6-15c-0.7-6.1-2.9-11.4-5.5-16.9c-2.5-5.3-4.1-10.6-5.4-16.3
		c-1.3-5.8-2.9-11.5-5.4-16.9c-2.5-5.5-5.4-10.8-7.9-16.3c-2.5-5.5-4.3-11.2-7-16.6c-2.6-5.3-5.8-10.4-7.6-16.1
		c-1.7-5.3-2.2-10.9-2.4-16.5c-0.2-6.1-0.1-12.3-1.2-18.4c-1.2-6-3.8-11.4-5.5-17.2c-1.7-5.6-1.5-11.5-3-17.1
		c-0.7-2.7-1.7-5.2-3.3-7.5"/>
	<path fill="none" stroke="#8A4E21" stroke-width="0.1" stroke-linecap="round" stroke-linejoin="round" stroke-miterlimit="10" d="
		M613.7,987.6c-3.1-5.5-7-10.6-12-14.4"/>
	<path fill="none" stroke="#8A4E21" stroke-width="0.1" stroke-linecap="round" stroke-linejoin="round" stroke-miterlimit="10" d="
		M420.4,973c-3.5,4.7-7.4,9.1-12,12.8c-4.7,3.7-10.2,6-16.1,6.9s-11.9,0.2-17.9-0.1c-6-0.4-11.9-0.6-17.9-0.1
		c-5.7,0.5-11.4,1.5-17,2.5c-5.8,1-11.8,2-17.5,4c-5.6,2-10.7,5-15.3,8.9c-4.4,3.9-8.2,8.6-12.7,12.4c-4.5,3.8-9.7,6.3-14.7,9.3
		c-5.1,3-9.7,6.8-13,11.8c-3.2,4.8-5.7,10.5-5.7,16.3c0,6.2,3.6,11.3,8.8,14.5c5.1,3.1,11,4.4,16.7,6c5.1,1.5,12.1,3.1,15.5,7.5
		c3.8,4.9-0.5,11.8-1.4,17.1c-1,5.8,0.7,11.5,4,16.3c3.3,4.7,7.5,8.5,11.6,12.4c4.5,4.2,9.3,8.2,12.9,13.1c1.8,2.4,3.2,5,4,7.8
		c0.7,2.6,1.1,6.2-0.8,8.3c-1.9,2.2-5.3,1.7-7.8,1.1c-3.2-0.8-6.3-1.9-9.4-2.9c-5.4-1.7-10.9-2.8-16.4-3.7c-6.5-1-13.1-1.9-19.7-2.8
		c-5.3-0.7-10.7-1.4-16-1.4c-5.8,0.1-11.5,1.5-16.3,4.9c-4.9,3.4-9,8-14.1,11.2c-5,3.2-10.7,4.7-16.7,3.6c-5.9-1-11.3-3.2-17.4-3.2
		c-5.8,0-11.6,1.4-17.1,3.2c-6.1,1.9-11.9,4.4-17.7,6.9c-5.1,2.2-10.4,4.2-15.7,5.8c-5.7,1.7-11.7,3-17.6,1.7
		c-5.9-1.2-11.1-4.8-16.2-8c-4.9-3-10-5.6-15.9-5.6c-5.9,0.1-11.3,2.8-17.1,3.1c-2.9,0.1-5.7-0.7-7.5-3.1c-1.7-2.3-2.2-5.3-2.3-8.1
		c-0.3-5.9,1.2-11.8,0.3-17.7c-0.9-5.9-4.4-11-6.7-16.4c-2.4-5.5-3.1-11.5-4.5-17.2c-1.4-5.8-3.7-11.1-6.4-16.4
		c-2.7-5.3-5.7-10.5-8.2-16c-2.5-5.6-4.8-11.2-7.3-16.8c-2.2-5.1-4.2-10.5-5.3-16.1c-1.1-5.8-1.4-11.6-1.7-17.5
		c-0.2-5.9-0.4-11.8-1.6-17.5c-1.3-5.8-3.5-11.4-4.6-17.2c-1.2-5.9-1.1-12.2-4.1-17.5c-0.8-1.5-1.9-2.8-3.1-4"/>
	<path fill="none" stroke="#8A4E21" stroke-width="0.1" stroke-linecap="round" stroke-linejoin="round" stroke-miterlimit="10" d="
		M613.7,992.6c-3.9-7.5-8.5-14.5-15.6-19.4"/>
	<path fill="none" stroke="#8A4E21" stroke-width="0.1" stroke-linecap="round" stroke-linejoin="round" stroke-miterlimit="10" d="
		M424.1,973.2c-5.8,7.8-12,15.6-21,20.2c-0.8,0.4-1.9,0.8-2.7,1.2c-1.9,0.8-3.9,1.2-6.2,1.5c-3.5,0.4-6.6,0.8-10,0.4
		c-6.6-0.8-13.5-1.2-20.1-0.8c-17.8,0.4-37.2,1.5-52.3,13.5c-4.6,3.9-8.1,8.5-12.8,12.8c-3.5,3.1-7.3,5-11.2,7.3
		c-1.9,1.2-4.3,1.9-6.2,2.7c-2.3,1.2-4.3,2.7-6.2,4.3c-8.9,7.3-16.2,20.6-7.7,30.6c1.9,1.9,4.3,3.5,6.6,4.6c5,2.3,10.4,3.5,15.8,5
		c1.2,0.4,2.3,0.4,3.5,0.4c6.6,1.9,15.8,2.3,17.4,10c0.8,3.9-2.3,7-4.6,10c-1.5,2.7-3.1,5.8-3.5,8.9c-0.8,6.6,2.7,12.8,7,17.4
		c8.1,8.1,17.4,13.9,24.4,23.3c1.9,3.1,3.1,6.2,4.3,9.7c0.8,3.5,1.9,6.6,0.8,10c-2.3,5.4-9.3,4.3-13.5,2.3c-5-2.3-9.7-4.6-14.7-6.6
		c-9.7-3.1-18.9-3.9-29.1-5.4c-5-0.4-10-1.2-15.1-1.2c-4.6,0.4-9.3,1.2-13.9,3.1c-5,2.3-8.9,5.8-13.1,9.3c-0.8,0.4-1.9,1.2-2.7,1.9
		c-4.6,3.1-8.9,5.4-14.3,7c-3.9,0.8-7.7,0.8-11.2-0.8c-12-4.3-24.4-3.9-36.4,0.4c-13.5,5-26.8,12-41.4,13.5c-2.3,0-5-0.4-7.3-1.2
		c-8.1-3.5-14.7-9.3-22.9-12.4c-8.1-2.7-15.8,1.5-23.7,3.5c-2.7,0.8-6.2,0.8-8.5-1.2c-2.7-2.3-3.9-5.8-4.3-8.9
		c-0.8-9.3,1.9-18.5-1.2-27.5c-1.9-5-4.6-9.3-6.6-14.3c-1.9-7-2.7-13.5-4.6-20.6c-3.5-10-10-18.5-14.3-28.3
		c-3.5-7.7-6.6-15.5-9.3-23.7c-1.2-3.5-1.5-7-2.3-10.8c-1.5-9.7-0.8-18.5-2.7-28.3c-1.9-11.6-4.2-22.5-7-34.1
		c-0.8-2.3-1.5-4.3-2.7-6.2c-0.8-0.4-1.2-1.2-1.9-1.9c-0.4-0.4-1.2-0.8-1.7-1.4"/>
	<path fill="none" stroke="#8A4E21" stroke-width="0.1" stroke-linecap="round" stroke-linejoin="round" stroke-miterlimit="10" d="
		M613.7,997.6c-4.1-9.5-10.2-18.4-19.3-24.4"/>
	<path fill="none" stroke="#8A4E21" stroke-width="0.1" stroke-linecap="round" stroke-linejoin="round" stroke-miterlimit="10" d="
		M427.4,973c-3.3,5-6.7,9.7-10.9,14c-4.2,4.2-8.8,8.1-14.3,10.4c-5.4,2.3-11.5,2.4-17.3,2.2c-6-0.2-11.9-0.8-17.9-0.8
		s-11.9,0.4-17.9,1.2c-5.9,0.8-11.8,1.7-17.5,3.4c-5.7,1.7-11,4.3-15.6,8.1c-4.6,3.7-8.2,8.6-12.7,12.6c-4.5,4.1-10,6.5-15.5,9.1
		c-5.2,2.5-10.2,5.4-14,9.9c-3.7,4.4-6.4,10.4-5.1,16.2c1.3,6,6.7,9.4,12.1,11.4c5.3,2,11,3.2,16.7,4.3c5.9,1.2,12.5,1.9,17.9,4.7
		c2.5,1.3,5,3.3,4.6,6.4c-0.4,2.7-2.3,4.9-4.2,6.8c-4.2,4.3-9.2,8.7-9.8,15c-0.5,6,3.1,11.3,7.1,15.5c4.1,4.3,8.9,8,13.5,11.8
		c4.5,3.7,8.9,7.5,11.9,12.6c2.9,5,4.9,11.1,6.3,16.7c0.7,2.7,1.3,5.8-0.3,8.3c-1.6,2.5-5.1,2.7-7.8,2.6c-6-0.3-11.5-3.1-16.8-5.7
		c-5.4-2.6-10.9-4.8-16.7-6.3c-5.6-1.4-11.3-2.2-17-2.9c-6.1-0.7-12.1-1.3-18.2-0.9c-5.9,0.4-11.4,2.4-16.5,5.3
		c-5.1,2.9-9.7,6.5-14.7,9.5c-5.1,3.1-10.5,6.1-16.4,7.2c-6.1,1.3-11.3-0.9-17-2.9c-5.7-2-11.5-2.6-17.5-1.7
		c-5.4,0.7-10.7,2.4-15.8,4.3c-6.1,2.3-12.3,4.6-18.4,6.8c-5.4,2-11,4.3-16.8,5c-6.1,0.8-11.5-1.6-16.5-4.8c-4.9-3.1-9.5-7-15.1-8.7
		c-5.6-1.7-11.2-0.5-16.5,1.6c-4.9,1.9-12.2,6-17.3,2.7c-4.9-3.3-4.8-11.4-4.9-16.7c-0.1-5.8,0.7-11.7,0-17.5
		c-0.7-6.1-3.9-11-6.5-16.5c-2.5-5.4-3.1-11.1-4.1-16.9c-0.9-5.7-2.6-11.2-5.2-16.3c-2.8-5.5-6.3-10.6-9.1-16.1
		c-2.6-5-4.4-10.5-6.3-15.8c-2.1-5.9-4.1-11.7-5.5-17.8c-1.3-5.5-2.1-11.1-2.4-16.7c-0.4-6.2-0.6-12.4-1.4-18.6
		c-0.8-5.9-2.5-11.6-3.7-17.4c-1.3-5.6-1.4-11.7-4-16.9c-1.9-3.4-4.7-5.9-8-7.6"/>
	<path fill="none" stroke="#8A4E21" stroke-width="0.1" stroke-linecap="round" stroke-linejoin="round" stroke-miterlimit="10" d="
		M613.7,1002.1c-5.2-11.4-11.7-22.7-23.2-29"/>
	<path fill="none" stroke="#8A4E21" stroke-width="0.1" stroke-linecap="round" stroke-linejoin="round" stroke-miterlimit="10" d="
		M430.5,973.3c-4.8,7.3-9.4,14.3-16,20.6c-0.4,0.4-1.2,0.4-1.5,0.8c-4.6,5-11.2,8.1-17.8,8.5c-14.3,1.2-28.7-1.5-43.4,0
		c-8.1,1.2-16.6,1.2-24.1,5.4c-0.4,0.4-1.2,0-1.5,0.4c-8.5,4.6-13.5,12.8-20.6,18.9c-0.8,0.8-1.9,1.2-2.7,1.9
		c-9.7,6.2-21.7,7.7-28.3,17.8c-2.7,5-3.9,11.2,0.4,15.8c0.8,0.4,1.2,1.2,1.9,1.9c1.2,0.8,2.3,1.5,3.5,2.3c4.6,1.9,9.3,3.9,14.3,4.6
		c8.9,1.2,17.4,1.9,26,4.3c2.7,0.8,5.4,2.3,6.6,4.6c1.9,3.9-0.8,8.5-4.6,10.8c-0.4,0.4-0.4,0.8-0.8,1.2c-3.9,3.1-8.1,5.4-10.8,9.7
		c-0.4,0.8-0.8,1.9-1.2,2.7c-1.9,4.3-1.2,8.9,1.5,12.8c6.6,8.9,15.5,13.5,23.7,20.6c1.2,1.2,2.3,2.3,3.5,3.5
		c0.4,1.2,1.2,1.9,1.9,2.7c4.3,7.3,7,15.1,9.3,22.9c1.2,2.7,1.5,5.8,0,8.5c-5,6.2-13.5,3.1-20.1,1.2c-7.3-2.3-13.5-6.6-20.6-9.3
		c-12.8-4.3-26.4-5.8-39.5-5.4c-4.6,0.4-9.3,1.9-13.5,3.9c-5.8,3.1-10.8,6.6-16.2,9.7c-7.3,4.3-13.9,8.9-22.5,10.8
		c-3.5,0.8-7,0.4-10-0.8c-5.4-2.3-10.4-5-16.2-5.8c-3.1-0.4-6.2,0-9.7,0.4c-15.1,3.1-27.9,9.7-42.2,14.7c-6.2,1.9-13.1,1.9-18.9-1.5
		c-5-3.5-9.3-7.3-14.7-10c-4.3-1.9-8.5-2.3-13.1-1.5c-8.1,1.9-14.3,7.3-22.5,7.3c-1.5,0-3.1-1.2-4.6-2.3c-2.7-2.3-3.1-5.8-3.5-8.9
		c-1.5-11.2,1.5-22.9-2.7-33.7c-2.3-6.6-6.6-12-7.7-18.9c-1.2-8.5-1.9-17-5.4-24.8c-3.5-7-8.5-12.8-11.6-19.7
		c-3.5-7.7-5.4-15.8-8.1-24.1c-1.5-5-1.5-10-3.1-15.1c-0.8-1.5-0.4-3.5-0.8-5c-0.4-7.7-0.8-15.5-1.5-23.7
		c-0.8-5.8-2.7-11.6-3.9-17.4c-0.8-8.1-2.3-16.2-9.7-21c-2.3-1.2-4.6-2.3-7.5-2.4"/>
	<path fill="none" stroke="#8A4E21" stroke-width="0.1" stroke-linecap="round" stroke-linejoin="round" stroke-miterlimit="10" d="
		M613.7,1010.3c-3.2-6.4-7.1-12.2-10.2-18.8c-1.2-1.9-2.3-3.5-3.5-5.4c-4.6-6.2-10.8-10.4-17.7-12.9"/>
	<path fill="none" stroke="#8A4E21" stroke-width="0.1" stroke-linecap="round" stroke-linejoin="round" stroke-miterlimit="10" d="
		M436.5,973.2c-3.9,6.6-7.7,12.4-12.8,18.2c-0.4,0.4-0.4,1.2-0.8,1.5c-3.9,4.3-8.1,8.1-12.8,12c-0.8,0.4-1.9,1.2-2.7,1.9
		c-4.3,2.7-8.5,4.6-13.5,5.4c-5,0.4-10,0.4-15.1-0.4c-14.3-2.7-28.3-3.9-42.6-0.4c-0.4,0-0.4,0.8-0.8,0.8c-3.9,1.5-8.1,2.7-10.8,5.8
		c-0.4,0.4-1.2,0.4-1.5,0.8c-3.5,3.5-6.2,7-8.9,11.2c-3.5,4.6-8.1,7-13.1,8.5c-7.7,2.7-16.6,5.4-18.9,13.9c-1.2,2.7-0.4,5.4,1.2,8.1
		c1.5,2.3,3.9,3.1,6.2,4.6c1.9,1.2,4.3,1.2,6.6,1.9c10,2.3,20.1,1.9,30.2,2.7c4.3,0.4,8.1,1.2,12,3.5s5.8,7.3,3.5,11.2
		c-1.5,2.3-2.7,4.6-5.4,6.2c-0.4,0.4-0.4,0.8-0.8,1.2c-6.6,5.4-15.5,7.3-19.3,15.1c-1.2,2.3-0.8,4.6-0.4,7c0.4,0.8,0.8,1.9,1.2,2.7
		c5.8,8.9,15.1,13.1,23.3,19.7c2.7,2.3,5.4,5,7,8.5c3.9,10.4,9.3,20.1,13.1,30.6c1.5,4.6,0.8,10.8-4.3,12c-11.2,2.7-21.7-3.9-32.2-7
		c-15.1-7.7-31.8-13.5-49.2-11.2c-13.1,1.9-24.4,8.1-36,14.3c-7,3.9-12.8,8.1-19.3,12c-4.6,2.7-9.3,4.6-14.3,2.3
		c-4.3-2.3-7.3-5.8-11.6-7.7c-5.4-2.3-11.6-2.7-17.4-2.3c-6.6,0.8-12.4,3.1-18.5,5.4c-8.9,3.9-16.6,9.3-26.8,11.6
		c-8.5,1.5-15.1-4.3-20.6-10c-5-4.6-11.2-8.1-18.5-6.6c-7.3,1.9-13.1,6.6-20.1,9.3c-2.7,0.8-5.4,2.3-8.5,1.5
		c-3.9-1.2-5.8-4.6-6.2-8.5c-0.8-13.9,2.3-28.3-2.7-41.4c-2.7-6.6-6.6-12.4-8.9-18.9c-1.2-9.7-1.2-19.7-5.8-28.7
		c-3.9-7.3-10-13.1-12.4-21.4c-5.4-20.1-10.4-40.3-10.4-60.8c-2.3-11.6-1.9-24.1-8.1-34.9c-1.9-2.7-4.6-5.4-7.9-6.1"/>
	<path fill="none" stroke="#8A4E21" stroke-width="0.1" stroke-linecap="round" stroke-linejoin="round" stroke-miterlimit="10" d="
		M613.6,1014.1c-1.3-1.4-2-2.9-2.8-4.4c-7.3-15.1-15.8-32.2-33.2-36.6"/>
	<path fill="none" stroke="#8A4E21" stroke-width="0.1" stroke-linecap="round" stroke-linejoin="round" stroke-miterlimit="10" d="
		M439.1,973.2c-1.8,2.4-2.9,5.1-4.9,7.4c-0.8,1.2-1.5,2.7-2.3,4.3c-7,10.4-15.5,18.2-24.1,27.1c-1.9,1.9-4.3,3.1-6.6,4.3
		c-5,1.9-10.4,2.7-15.8,1.9c-14.3-2.7-27.9-6.6-42.6-4.6c-5.8,0.8-10.8,2.7-15.5,6.6c-4.6,3.9-7,9.3-10.8,13.9
		c-0.8,0.4-1.2,1.2-1.9,1.9c-4.6,4.6-11.2,5.8-17,8.1c-4.3,1.9-9.3,4.3-10.8,8.9c-1.9,5,2.7,8.5,6.6,10.4c3.1,1.2,6.2,1.5,9.3,2.3
		c6.6,0.8,12.8,1.2,18.9,1.5c8.9,0.8,20.1-0.8,25.6,7.7c1.5,3.1,1.2,7-0.8,10c-5.8,9.3-15.1,13.1-23.3,19.7
		c-1.5,1.5-2.7,3.5-3.1,5.8c-0.8,5.4,1.9,9.3,5.4,12.8c7.7,7,18.9,9.7,24.1,19.3c2.3,4.6,3.1,10,4.6,15.1c0,0.4,0.8,0.4,0.8,0.8
		c0.4,1.2,0.8,2.3,1.2,3.5c6.2,10,14.7,23.7,4.6,33.3c-2.7,1.2-5.8,0-8.5-0.8c-1.9-1.2-3.9-2.3-5.8-3.1c-10-3.9-19.7-7.3-29.5-11.6
		c-5.8-2.3-11.2-4.3-17-5.8c-7.3-1.5-14.3-1.9-21.7-1.5c-23.3,4.6-43.4,16.2-63.2,31c-2.7,1.9-5.8,2.7-8.9,1.9
		c-1.9-0.8-3.9-1.9-5.4-3.1c-3.1-3.1-6.2-5-9.3-7.7c-0.4-0.4-1.2,0-1.5-0.4c-6.6-4.3-13.9-3.1-21-1.5c-4.3,1.2-8.1,2.3-12,3.9
		c-7.7,3.1-15.1,7.7-22.9,11.2c-6.2,2.7-13.1,1.9-18.5-2.3c-6.2-5-10.8-12.8-19.3-13.9c-9.7-0.8-17.4,6.2-26,9.7
		c-3.9,1.9-8.9,4.6-13.1,1.5c-3.9-3.1-3.9-8.1-3.5-12.8c1.2-10.4,1.5-21,0-31.4c-1.5-8.5-7-15.1-10.4-22.5c-1.2-2.3-1.9-5-1.9-7.7
		c0-4.3-0.4-8.9-0.8-13.1c-0.4-5.4-1.9-10.8-5.4-15.5c-2.7-3.5-5-6.2-7-9.7c-5.8-10.4-6.6-21.4-9.3-32.9c-0.8-3.1-1.9-6.2-2.3-9.3
		c0-1.5-0.4-3.5-0.4-5c0-0.8-0.8-1.9-0.8-2.7c0-1.2,0.4-2.3,0-3.5c-0.4-1.5-0.4-3.1-0.4-4.6c-0.8-13.5-2.3-26.8-6.2-39.5
		c-1.2-3.5-2.3-7-5.4-9.3c-0.8-0.4-1.9-0.4-2.9-1.5"/>
	<path fill="none" stroke="#8A4E21" stroke-width="0.1" stroke-linecap="round" stroke-linejoin="round" stroke-miterlimit="10" d="
		M613.7,1018.2c-6.4-8.5-9.5-18.1-16-27.5c-6.2-8.9-15.1-15.5-25.9-17.6"/>
	<path fill="none" stroke="#8A4E21" stroke-width="0.1" stroke-linecap="round" stroke-linejoin="round" stroke-miterlimit="10" d="
		M442,973.2c-7.8,14-18.2,25.7-28.7,38.4c-1.5,2.3-3.1,4.3-4.6,6.2c-3.5,3.5-7,6.6-12,7.3c-9.7,1.2-18.5-2.7-27.5-5.8
		c-0.4,0-1.2,0-1.5,0c-7.7-2.7-15.8-3.9-24.4-2.7c-4.6,0.8-8.5,2.3-12.4,5.4c-5,4.3-7.3,9.7-11.2,14.7c-1.5,1.9-3.5,3.5-5.8,4.6
		c-0.4,0.4-0.8,0.8-1.2,1.2c-5,2.7-10.4,3.9-15.5,6.2c-2.7,1.5-5.4,3.9-5,7.3c0.4,1.5,1.5,2.7,3.1,3.9c0.8,0.4,1.2,0.8,1.9,1.2
		c3.1,1.2,6.2,1.5,9.3,1.9c9.3,0.4,18.5,0.8,27.9,1.2c7.7,0.8,17,3.5,18.2,12c1.5,8.5-5,15.1-12,20.1c-0.4,0.4-0.4,0.8-0.8,1.2
		c-4.6,3.1-8.5,6.2-12.4,9.7c-1.9,1.9-3.1,4.3-2.7,7c2.3,10.8,13.5,13.5,21.4,19.3c2.7,2.3,5,4.3,5.8,7.3
		c3.1,13.5,8.5,24.8,15.1,36.4c2.7,5.4,3.1,11.2,2.3,17.4c-1.2,5-1.5,9.7-5,13.5c-7.7,3.1-11.6-6.2-16.6-10.4
		c-0.8-0.4-1.5-0.4-2.3-1.2c-1.9-2.3-4.6-3.9-7.3-5.4c-10.8-5.4-22.1-9.3-33.7-13.1c-3.9-1.2-7.7-1.9-12-2.3
		c-10.8-0.8-21.4,1.2-31,5.8c-0.8,0.4-1.2,0-1.9,0.4c-10.4,4.6-20.6,8.5-30.6,15.5c-7,5-11.6,11.2-18.9,14.7c-3.5,1.5-7,0-9.7-2.3
		c-4.3-4.6-7.7-10.4-13.5-12.8c-8.5-3.9-17.8-1.9-26.4,1.5c-1.9,0.8-4.3,1.2-6.6,2.3c-5,3.1-10,6.2-15.1,8.9
		c-3.1,1.9-6.6,3.1-10,3.9c-11.2,1.5-18.5-7.7-25.6-15.1c-1.9-1.9-5-2.7-7.7-3.5c-5.4-0.8-10,1.2-14.7,3.9
		c-7,4.6-13.5,8.9-22.1,10.4c-3.5,0.8-5.4-2.3-6.6-4.6c-1.9-3.5-1.5-7.3-1.2-11.2c1.2-8.1,2.3-16.2,1.9-24.4
		c-0.4-5-0.8-10.4-3.1-15.1c-1.9-4.3-4.6-8.5-7-12.8c-0.4-0.4-0.8-0.8-1.2-1.2c-0.4-0.4,0-1.2-0.4-1.5c-1.5-2.3-2.3-4.6-2.7-7.3
		c-0.4-7,0.4-13.5-1.2-20.6c-1.2-3.9-3.1-6.6-5-10c-0.8-0.8-1.5-1.5-2.3-2.7c-1.5-2.7-3.5-5-5-7.7c-2.3-4.3-3.9-8.5-4.6-13.5
		c-0.8-5.8-1.5-11.6-3.5-17.4c-4.6-16.2-3.9-32.9-5.8-49.6c-0.8-4.6-1.5-8.9-3.1-13.1c-1.5-3.1-2.7-6.2-5-8.9
		c-0.8-0.4-1.5-1.2-2.1-1.9"/>
	<path fill="none" stroke="#8A4E21" stroke-width="0.1" stroke-linecap="round" stroke-linejoin="round" stroke-miterlimit="10" d="
		M613.6,1021.4c-5.1-6.4-8.9-13.6-12.7-20.8c-1.8-3.4-3.4-7-5.8-10.1c-2-2.7-4.4-5.2-7.1-7.3c-7-5.5-15.5-8.7-24.3-10.1"/>
	<path fill="none" stroke="#8A4E21" stroke-width="0.1" stroke-linecap="round" stroke-linejoin="round" stroke-miterlimit="10" d="
		M445,973c-4.9,6.8-8.7,14.3-13.8,21c-5.1,6.6-10.7,12.8-15,20.1c-3.6,6.1-7,13.1-13.6,16.4c-7.1,3.5-15.1,1.5-22.2-1.4
		c-7.6-3.2-14.9-7.1-23.3-8.6c-7.4-1.4-15.8-1.2-22.2,3.5c-5.7,4.3-7.9,11.1-12.2,16.5c-2.2,2.6-4.8,4.9-7.8,6.5
		c-3.5,1.9-7.6,2.8-10.9,5c-1.2,0.8-3.1,2.2-2,3.8c1,1.4,3.3,1.9,4.8,2.2c4.1,0.9,8.4,1.1,12.6,1.4c8.2,0.6,16.7,0.8,24.8,3.3
		c6.5,2,13.8,6.5,13.4,14.2c-0.2,3.7-2,7-4.1,10c-2.2,3.4-4.9,6.5-7.8,9.4c-2.9,3.1-6.1,5.9-9.2,8.8c-2.5,2.4-5.6,5.4-5.6,9.1
		c0,6.9,8,10.9,13.2,13.7c3,1.6,6.1,3.4,8.3,6.1c2.3,2.8,3.2,6.3,3.7,9.9c0.5,3.7,0.9,7.3,2.1,10.9c1.2,3.8,3.1,7.5,5.1,10.9
		c4,7,8.4,13.6,9,22c0.3,4.3-0.1,8.6-0.5,12.9c-0.3,4-0.6,8.1-1.7,12c-0.9,2.9-2.7,6-6,6.2c-2.9,0.2-5.7-1.5-7.8-3.3
		c-5.5-4.4-8.6-10.7-13.2-15.8c-5.3-5.9-12.7-9.2-19.8-12.2c-7.9-3.3-16.1-6.4-24.6-7.9c-8.3-1.5-17.1-1.3-25.4,0.9
		c-8.2,2.1-15.9,6-23.8,9.2c-7.6,3.2-15.2,6.6-21.9,11.7c-6.1,4.9-10.7,11.9-17.6,15.7c-2.8,1.5-6.2,2.4-9.3,1.2
		c-3.3-1.3-5.4-4.6-7.2-7.5c-1.9-3-3.6-6.1-6.3-8.4c-2.7-2.4-6.2-3.9-9.9-4.4c-7.8-1-16.1,1.9-23,5.4c-7.2,3.7-13.5,9.6-21.4,12.2
		c-7.3,2.4-15.1,1.5-21.6-2.7c-5.5-3.7-8.8-10.3-14.9-13.2c-7.2-3.4-15.2,1.5-21.4,5.1c-3.6,2.1-7,4.4-10.7,6.2
		c-3.5,1.7-7.7,3.8-11.7,3.1c-8.1-1.5-6.6-12.6-5.5-18.4c1.5-8.4,3.2-16.8,2.7-25.5c-0.5-8.3-3-15.7-7.7-22.7
		c-2.2-3.2-4.6-6.3-6-9.9c-1.4-3.6-1.7-7.4-1.7-11.2c0-4,0.2-8-0.4-12c-0.7-4-2-7.7-4.2-11.2c-4.1-6.7-9.7-12.1-11.8-19.9
		c-1.1-3.9-1.4-7.8-2-11.8c-0.6-4.3-1.5-8.6-2.4-12.9c-1-4.3-2-8.5-2.7-12.8c-0.7-4.4-1-8.8-1.1-13.2c-0.3-7.9-0.5-15.8-2.1-23.7
		c-1.5-6.4-3.2-13.8-7.6-18.8"/>
	<path fill="none" stroke="#8A4E21" stroke-width="0.1" stroke-linecap="round" stroke-linejoin="round" stroke-miterlimit="10" d="
		M613.6,1028.1c-5.1-5.5-9.3-10.9-13.2-17.1c-5-8.9-7.7-18.9-16.2-25.6c-8.5-7-18.9-8.5-29.5-9.7c-2.7-0.4-5-1.2-7.7-2.3
		c-0.4,0-1.2,0-1.5-0.2"/>
	<path fill="none" stroke="#8A4E21" stroke-width="0.1" stroke-linecap="round" stroke-linejoin="round" stroke-miterlimit="10" d="
		M451.3,973c-5.4,5.8-8.7,13.4-13.1,19.9c-4.6,6.8-9.9,13.3-13.5,20.8c-3.4,7-4.9,14.7-10.3,20.7c-5.1,5.6-12.3,9.5-19.9,9.5
		c-16.5,0-27.1-17.9-44-16.3c-6.6,0.6-12.2,5.1-12.7,12.1c-0.5,7.8,5.6,12.8,11.7,16.5c5.9,3.6,12.7,7,16.4,13.2
		c1.8,2.9,2.4,6.4,1.5,9.7c-1,3.3-3.2,6-5.4,8.6c-5,5.8-10.4,11.8-13.4,19c-1.3,3-2.1,6.4-1,9.6c1.1,3.2,4.1,5.3,6.6,7.4
		c2.4,2,4.9,4.2,6.4,7c1.8,3.5,1.9,7.6,1.9,11.4c0,4.1-0.2,8.1,0.9,12.1c1,3.8,2.7,7.4,4.8,10.8c4,6.6,9.4,12.6,10.3,20.7
		c0.5,4.2,0,8.4-0.2,12.6c-0.2,4.4,0,8.8,0.3,13.2c0.2,3.6,0.6,7.2,0.9,10.9c0.3,3,0.4,6.3-0.7,9.2c-2.6,7-10.2,4.6-15.2,1.9
		c-6.6-3.6-13.1-8.2-17.9-14c-4.9-5.9-7.7-13.3-13.1-18.8c-5.5-5.6-12.9-9-20.3-11.4c-8.2-2.7-16.7-4.1-25.4-3.4
		c-8.7,0.7-16.7,3.6-24.8,6.8c-7.8,3.2-16,5.8-23.6,9.9c-7.1,3.8-12.6,9.2-17.9,15.1c-5,5.6-10.6,11.9-18.3,13.4
		c-3.2,0.7-6.8,0.4-9.7-1.4c-2.5-1.6-4.1-4.2-5.3-6.8c-2.5-5.4-3.6-12.2-9.3-15.2c-7-3.7-15.6-0.1-21.9,3.6
		c-6.8,4.2-12.8,9.6-20.8,11.7c-7.8,2.1-16.4,1.1-23.9-2.2c-3.6-1.6-6.6-3.9-9.6-6.3s-6.1-5.1-9.9-6.2c-8-2.4-15.6,2.7-22,7
		c-6.3,4.2-13.5,9.9-21.5,9.5c-6.6-0.3-10.1-6.4-10.2-12.5c0-4.2,1.1-8.3,2.3-12.2c1.2-4.1,2.4-8.2,3.2-12.4
		c1.6-8.2,2.2-16.9-0.4-25.1c-2.4-7.6-8.2-12.7-12.8-19c-2.4-3.4-3.6-7.1-3.4-11.2c0.2-4.3,1.1-8.4,1.1-12.6
		c0-8.4-4.3-14.8-9.5-21.1c-2.4-2.8-4.8-5.6-6.6-8.8c-1.9-3.5-2.6-7.1-2.8-11.1c-0.3-4.4-0.2-8.9-0.7-13.3s-1.5-8.7-2.2-13
		c-1.5-8.3-1.8-16.5-1.8-25c0-7.9-0.7-16.3-4.1-23.7"/>
	<path fill="none" stroke="#8A4E21" stroke-width="0.1" stroke-linecap="round" stroke-linejoin="round" stroke-miterlimit="10" d="
		M613.7,1031.3c-6-6.5-11.4-12.6-16-20.5c-3.1-5.4-5-10.8-8.1-16.2c-5.4-8.9-14.3-13.5-24.4-15.5c-8.9-1.5-17.4-2.7-26.1-5.9"/>
	<path fill="none" stroke="#8A4E21" stroke-width="0.1" stroke-linecap="round" stroke-linejoin="round" stroke-miterlimit="10" d="
		M455,973c-5.8,5.4-9.2,12.9-13.3,19.5c-4.4,7-9.6,13.7-12.8,21.5c-3,7.2-3.9,15.1-9.2,21.3c-4.9,5.8-12.1,10.1-19.5,11.7
		c-8,1.7-15.6-0.3-22.5-4.4c-6.3-3.7-12.5-8.8-20-9.9c-5.1-0.7-11.5,0.7-12.4,6.6c-1.1,7,6.1,12.4,11,16.1c6,4.5,13.3,9.2,15.9,16.6
		c2.7,7.6-2.5,13.3-7.5,18.3c-5.1,5-10.4,11.2-10.7,18.7c-0.3,7.3,5.7,11.4,9,17.2c3.9,7,1.9,14.7,2.3,22.4
		c0.2,4.1,1.1,8.1,2.9,11.9c1.7,3.6,4,6.9,6.3,10.1c2.2,3.1,4.3,6.2,5.6,9.9c1.3,3.7,1.5,7.3,1.3,11.1c-0.5,9-0.6,17.7,0.7,26.7
		c0.6,4.4,1.6,8.7,2.4,13.1c0.7,3.6,2,8.1,0.7,11.6c-1.9,4.9-9.1,2-12.4,0.6c-6.6-2.9-12.5-7-18.4-11.2c-6.6-4.7-12.6-9.6-17-16.6
		c-2-3.3-3.8-6.8-6.1-10c-2.2-3-4.8-5.5-7.8-7.6c-6.5-4.5-14.6-7.3-22.5-8.4c-8.5-1.3-17.4-0.5-25.8,1.9c-8.4,2.5-16.5,6.2-24.7,9.4
		c-7.7,3-15.1,6.5-21.4,12.2c-5.8,5.3-10.3,11.9-16.4,16.8c-5.8,4.7-13.9,7.5-21.4,5.2c-6.4-2-8.3-8.3-10.4-14
		c-2.2-5.9-6.4-10.7-13.2-9.7c-7.7,1.1-13.8,6.9-20.3,10.7c-7.3,4.3-15.3,5.8-23.7,4.9c-7.9-0.9-15.4-3.7-22-8.3
		c-2.9-2-5.7-4.3-9-5.7c-3.5-1.5-7.2-1.7-10.8-0.7c-7.6,2.2-13.5,8.2-20.2,12.1c-5.8,3.4-14.1,6.8-20.7,3.2c-6-3.3-7.3-10.8-6.5-17
		c0.5-4.1,2-8,3.4-11.9c1.4-4,2.6-8,3.4-12.2c1.5-8.1,2-16.7-1-24.6c-2.8-7.5-9-11.9-13.7-18.1c-2.6-3.4-3.5-7.2-3.1-11.5
		s1.5-8.4,1.6-12.7c0.1-8.3-4.5-14.5-9.9-20.5c-2.4-2.7-5-5.3-7-8.3c-2.1-3.2-3.2-6.7-3.5-10.5c-0.3-4.3,0.2-8.7,0.1-13
		c-0.1-4.4-0.8-8.8-1.4-13.1c-0.6-4.4-1.3-8.8-1.5-13.2c-0.2-4.4-0.2-8.8-0.2-13.3c0-4.9-0.2-9.7-1.2-14.5"/>
	<path fill="none" stroke="#8A4E21" stroke-width="0.1" stroke-linecap="round" stroke-linejoin="round" stroke-miterlimit="10" d="
		M613.7,1042.6c-0.9-0.4-1.7-0.8-2.5-1.5c-7.7-8.5-16.2-15.1-24.1-23.7c-0.8-1.2-1.9-2.7-2.3-4.3c-1.2-5-2.3-9.7-4.3-14.3
		c-2.7-5.4-7.3-9.7-13.5-10.8c-0.4,0-0.8-0.8-1.2-0.8c-7.3-0.8-14.3-1.2-21.7-3.1c-0.4,0-1.2-0.8-1.5-0.8c-1.2-0.4-2.7-0.4-3.9-0.8
		c-7-2.7-13.5-5.4-21-7c-10.4-1.9-20.6-3.1-31-2.7c-5,0.4-9.7,1.2-14.3,2.7c-0.4,0-0.8,0.8-1.2,0.8c-6.6,1.5-11.2,6.2-14.7,12
		c-4.6,8.5-9.3,16.6-10,26.4c-0.8,4.3-0.8,8.9-0.8,13.1c-0.4,3.5-1.5,7-3.5,9.7c-5,6.2-12,9.3-18.9,12.4c-2.7,1.2-5.4,1.9-8.1,3.5
		c-0.8,0.4-1.2,0-1.9,0.4c-1.2,0.4-1.9,1.2-3.1,1.5c-7.3,2.7-17.4,5-19.3,13.9c-0.8,5,0,10-0.4,15.1c-0.4,3.1-1.5,5.8-3.5,8.5
		c-2.7,3.5-6.2,5-8.9,8.1c-1.9,2.3-3.1,5-3.1,8.1c0,5,1.9,9.7,3.9,14.7c0.8,2.3,1.2,5,0.8,7.7c-0.8,6.6-4.3,12.8-3.5,19.3
		c0.8,5.4,2.7,10,6.6,14.3c3.5,4.3,7,8.5,10,13.5c1.5,3.1,1.2,6.6,0.8,9.7c-0.8,5.4-2.3,10.8-2.7,16.2c-0.8,9.3,1.2,18.5,6.2,26.8
		c2.3,4.3,5,8.9,10,10.8c0.8,0.4,1.2,1.2,1.9,1.5c10,4.3,21.4,3.5,32.2,4.3c7.3,0.8,13.9,4.3,19.3,9.7c5.8,6.2,11.2,12.8,12.4,21.5"
		/>
	<path fill="none" stroke="#8A4E21" stroke-width="0.1" stroke-linecap="round" stroke-linejoin="round" stroke-miterlimit="10" d="
		M416.4,1279.5c-5.1-6.5-13.4-8.2-21-10.5c-8.3-2.5-16.3-5.3-24.2-8.9c-7.5-3.5-14.1-7.9-20.6-13c-6-4.7-12.7-8.5-18.8-13.1
		c-3-2.2-6-4.8-8.2-7.8c-2.2-3-4.5-5.8-6.5-8.9c-3.9-6.2-9.7-11.4-16.8-13.4c-17-4.9-32.9,6.1-48.3,11.4c-7.7,2.7-15.2,6.8-21,12.6
		c-4.8,4.9-8.6,10.7-13.8,15.3c-2.9,2.5-6,4.4-9.8,5.4c-2,0.5-4,1.1-6,1.4s-3.9,0.3-5.9,0.8c-7.5,1.8-15.2,5-22.8,1.7
		c-3.3-1.4-6.2-3.7-9.2-5.7c-3.3-2.2-6.7-3.4-10.6-4.2c-4.1-0.8-8.4-1-12.6-1.4c-4.2-0.5-8.3-1-12.5-1.7c-8.2-1.4-16.4-3.4-24.1-7
		c-3.6-1.7-7.3-3.4-11.1-4.6c-4.1-1.3-7.9-1.5-12.1,0.1c-3.9,1.5-7.7,4-11.3,6.1c-3.7,2.1-7.3,4.3-11.1,6.1
		c-7,3.3-14.3,5.4-22.1,3.2c-10.4-3-15.5-13.5-16-23.8c-0.2-5.2,0.6-10.4,2.7-15.2c1.5-3.5,3.3-6.7,4.7-10.3
		c1.4-3.7,2.5-7.5,3.1-11.4c1-7.3,0.3-14.9-4.2-21c-2-2.7-4.5-4.7-7.5-6.2c-2.6-1.4-5.3-2.5-7.6-4.3c-6.3-5-3.8-13.1-1.3-19.5
		c2.6-6.7,3.5-14.5-1.5-20.6c-2.3-2.7-5.3-4.6-8.1-6.7"/>
	<path fill="none" stroke="#8A4E21" stroke-width="0.1" stroke-linecap="round" stroke-linejoin="round" stroke-miterlimit="10" d="
		M319.7,1279.5c-4.8-2.9-10.5-4-15.8-5.1c-6.2-1.2-12.4-2.4-18.4-4.4c-5.4-1.9-11.1-4.4-16.8-2.4c-5.6,2-8.4,7.4-11.8,11.9"/>
	<path fill="none" stroke="#8A4E21" stroke-width="0.1" stroke-linecap="round" stroke-linejoin="round" stroke-miterlimit="10" d="
		M3.1,1279.5c-1-0.7-1.9-1.4-2.8-2.1"/>
	<path fill="none" stroke="#8A4E21" stroke-width="0.1" stroke-linecap="round" stroke-linejoin="round" stroke-miterlimit="10" d="
		M133.7,1279.2c-1.6-7.7-9.4-11.2-16.3-13.5c-8.5-2.3-17-3.5-26-2.3c-21.4,1.9-40.7,10.4-60.7,16"/>
	<path fill="none" stroke="#8A4E21" stroke-width="0.1" stroke-linecap="round" stroke-linejoin="round" stroke-miterlimit="10" d="
		M300.1,1279.5c-8.5-1-17.4-2.5-26.1,0"/>
	<path fill="none" stroke="#8A4E21" stroke-width="0.1" stroke-linecap="round" stroke-linejoin="round" stroke-miterlimit="10" d="
		M129.7,1279.5c-4.2-10.2-15.4-11.7-25.2-13.7c-5-0.8-9.3-0.4-14.3,0.4c-15.1,3.1-29.1,5-42.6,10.8c-2.3,1.2-4.6,1.9-7.4,2.5"/>
	<path fill="none" stroke="#8A4E21" stroke-width="0.1" stroke-linecap="round" stroke-linejoin="round" stroke-miterlimit="10" d="
		M333.3,1279.4c-4.5-3.7-9.8-6.5-15.5-8.1c-5.8-1.6-11.9-2.4-17.7-4.2c-5.8-1.8-10.6-5.1-16-7.6c-5.5-2.5-11.3-2.6-17-0.5
		c-5.7,2.2-9.6,6.2-13.2,11c-3.1,4.1-6,7.8-11,9.4"/>
	<path fill="none" stroke="#8A4E21" stroke-width="0.1" stroke-linecap="round" stroke-linejoin="round" stroke-miterlimit="10" d="
		M137.7,1279.4c-5.6-15.9-24.7-15.9-39-19c-4.3-1.2-8.5,0-12.8,0.8c-20.1,3.5-37.6,10.4-56.9,16.6c-10,2.7-22.5,2.7-28.8-6.8"/>
	<path fill="none" stroke="#8A4E21" stroke-width="0.1" stroke-linecap="round" stroke-linejoin="round" stroke-miterlimit="10" d="
		M343.9,1279.5c-4.6-3.6-9.4-7.1-14.5-9.9c-5.4-2.9-11.2-4.1-17-5.6c-5.6-1.5-10.8-3.5-15.7-6.6c-5-3.1-10-6.9-16-7.5
		s-12,1.7-17.2,4.3c-5.4,2.7-9.4,6.6-13.1,11.1c-3.9,4.7-7.7,8.7-13.8,10c-5.8,1.2-11.9,0.8-17.8,1.4c-3.9,0.4-7.8,1.1-11.4,2.7"/>
	<path fill="none" stroke="#8A4E21" stroke-width="0.1" stroke-linecap="round" stroke-linejoin="round" stroke-miterlimit="10" d="
		M141.8,1279.4c-1.3-3.9-2.8-7.4-6.3-10.1c-11.2-7.7-23.7-9.3-36.4-11.2c-9.3-1.5-17.8,1.5-27.1,3.5c-1.2,0.4-1.9,0.8-3.1,1.2
		c-1.9,0.4-3.5,0.8-5.4,1.2c-13.9,4.6-27.1,10-41.8,12.4c-2.7,0.4-5,0-7.7-0.4c-6.2-1.9-11.2-6.6-13.7-12.9"/>
	<path fill="none" stroke="#8A4E21" stroke-width="0.1" stroke-linecap="round" stroke-linejoin="round" stroke-miterlimit="10" d="
		M358.6,1279.5c-4.4-3.7-9.4-6.6-14.1-9.9c-5-3.5-10-7.1-15.5-9.8c-5.5-2.6-11.2-4.4-16.7-7.2c-5.3-2.7-9.9-6.5-14.9-9.8
		c-4.9-3.2-10.2-5.6-16.2-4.9c-5.8,0.7-11.4,2.7-16.8,4.8c-5.6,2.1-10.9,4.6-15.1,8.9c-4.1,4.3-7.1,9.6-11.7,13.3
		c-4.4,3.6-10.1,4.7-15.6,5.4c-6.1,0.7-12.4,1.1-18.1,3.7c-3,1.4-5.6,3.2-8,5.4"/>
	<path fill="none" stroke="#8A4E21" stroke-width="0.1" stroke-linecap="round" stroke-linejoin="round" stroke-miterlimit="10" d="
		M150.1,1279.5c-1.7-4.8-4.1-9-7.9-12.1c-0.8-0.4-1.9-1.2-2.7-1.9c-7.7-5.4-16.2-6.2-24.8-8.5c-1.5-0.8-3.5-1.2-5-1.9
		c-3.1-1.2-6.2-1.5-9.3-1.9c-0.4,0-1.2-0.8-1.5-0.8c-8.1-1.5-15.1,0.8-22.5,2.7c-13.1,3.9-24.8,8.9-38,12.4
		c-8.1,1.9-16.6,3.1-24.4-0.8s-10.8-12.8-13.7-21.1"/>
	<path fill="none" stroke="#8A4E21" stroke-width="0.1" stroke-linecap="round" stroke-linejoin="round" stroke-miterlimit="10" d="
		M364.4,1279.4c-4.1-3.6-8.4-6.3-13.4-9.4c-10.4-6.6-19.3-13.9-30.6-17.8c-6.6-3.9-12.8-8.1-18.9-13.1c-3.9-3.1-7.7-5.8-12.4-6.6
		c-5-0.8-9.7,0.8-14.3,1.9c-6.2,2.3-12.4,3.9-18.5,6.2c-4.6,1.9-8.1,5-11.6,8.9c-3.9,4.6-6.2,9.7-11.2,13.5c-7.7,5.4-17,4.6-26,6.6
		c-6.6,1.2-12,4.6-16.7,9.9"/>
	<path fill="none" stroke="#8A4E21" stroke-width="0.1" stroke-linecap="round" stroke-linejoin="round" stroke-miterlimit="10" d="
		M154.6,1279.4c-2-3.1-3.8-6.3-5.9-9.3c-2.3-3.1-5.1-5.4-8.5-7.2c-6.8-3.7-14.6-5.5-22-7.7c-4.1-1.2-8.1-2.5-12.1-3.6
		c-4.1-1.1-8.3-2.4-12.6-2.6c-8.7-0.4-17.2,3.4-25.3,6.2c-8.3,2.8-16.7,5.7-25.2,8.2c-7.4,2.1-15.5,3.8-23.2,1.5
		c-3.1-0.9-5.4-2.4-7.5-4.8c-2-2.1-3.6-4.5-5-7c-2.9-5.1-4.8-10.5-7-16"/>
	<path fill="none" stroke="#8A4E21" stroke-width="0.1" stroke-linecap="round" stroke-linejoin="round" stroke-miterlimit="10" d="
		M0.2,1198.6c2.4-4.9,6-11.5,1.8-16.5c-0.5-0.6-1.1-1.1-1.7-1.5"/>
	<path fill="none" stroke="#8A4E21" stroke-width="0.1" stroke-linecap="round" stroke-linejoin="round" stroke-miterlimit="10" d="
		M369.9,1279.5c-4.7-4.4-10.5-7.1-16.3-10.6c-11.6-8.1-21.4-15.5-33.7-21c-0.4-0.4-0.8-0.8-1.2-1.2c-2.7-1.2-5-3.1-7.3-4.6
		c-4.6-3.9-8.5-8.1-13.5-11.6c-2.3-1.5-4.6-2.7-7.3-3.1c-5.8-0.8-10.8,0.8-16.2,2.7c-7,2.7-13.9,4.3-21,7c-4.6,1.9-8.5,4.6-11.6,8.5
		c-2.3,3.5-4.3,7-7,10.4c-3.9,4.6-9.3,7.3-15.1,8.5c-7.3,1.2-14.7,1.2-21.7,4.6c-4.6,2.7-8.1,6.6-12.2,10.2"/>
	<path fill="none" stroke="#8A4E21" stroke-width="0.1" stroke-linecap="round" stroke-linejoin="round" stroke-miterlimit="10" d="
		M0.2,1212.4c0.7-6.3,3.6-11.5,6.6-17c2.6-4.9,5.2-10.9,1.8-16.1c-1.8-2.8-5.1-4.4-8.3-5.1"/>
	<path fill="none" stroke="#8A4E21" stroke-width="0.1" stroke-linecap="round" stroke-linejoin="round" stroke-miterlimit="10" d="
		M159,1279.5c-0.6-1-1.4-1.7-2.2-2.5c-3.5-5.4-6.2-10.4-11.2-14.3c-3.1-1.9-5.8-3.5-8.9-4.6c-12-3.9-24.4-6.6-36.4-10.8
		c-2.7-0.8-5-1.2-7.7-1.5c-4.6,0-8.9,1.2-13.1,2.3c-16.6,5.4-31.8,14.3-49.2,14.7c-5.4,0.4-10.8-0.8-14.7-4.6
		c-9.7-10-14.7-24.4-15.3-38"/>
	<path fill="none" stroke="#8A4E21" stroke-width="0.1" stroke-linecap="round" stroke-linejoin="round" stroke-miterlimit="10" d="
		M393,1279.4c-1.8-0.9-3.3-2.4-5.3-3.2c-10.4-4.3-20.1-8.1-30.2-13.9c-7.3-4.6-12.8-10-20.1-15.1c-3.9-2.3-7-3.9-10.8-6.2
		c-5.4-3.5-9.7-7.3-13.5-12.4c-4.3-5-8.5-10-14.7-12.8c-5.8-2.7-12.4-1.9-18.5,0c-5,1.9-10,4.6-15.1,6.6c-10,3.1-21,4.6-28.3,13.1
		c-0.8,0.8-1.5,1.2-2.3,1.9c-0.8,0.8-1.2,1.5-1.9,2.3c-2.3,4.2-4.6,7.7-7.7,11.2c-1.5,1.5-3.1,2.7-5,3.5c-0.8,0.4-1.9,0.8-2.7,1.2
		c-3.5,1.2-7.3,1.5-11.2,2.3c-3.5,0.4-7,0.8-10.4,1.9c-6.2,2.7-11.2,7.7-17.4,11.2c-1.2,0.4-2.7,1.2-4.3,1.2
		c-3.5-0.4-6.6-1.9-8.5-4.3c-5-6.2-9.7-12-17-14.3c-15.5-5.4-31-8.5-46.1-14.3c-5-1.9-10-3.5-15.5-2.7c-9.3,1.5-16.6,7-25.2,10.4
		c-2.3,0.8-4.3,1.5-6.6,2.7c-8.5,3.1-17.8,5.8-26.8,1.9c-5.8-2.7-9.7-7.3-12.8-12.8c-3.9-8.1-5-16.6-3.9-25.6
		c1.2-8.5,6.2-15.1,9.7-22.9c3.1-7.7,3.1-17-2.3-23.7c-0.8-0.4-1.2-1.2-1.9-1.9c-5-2.7-10.4-3.9-16-4.4"/>
	<path fill="none" stroke="#8A4E21" stroke-width="0.1" stroke-linecap="round" stroke-linejoin="round" stroke-miterlimit="10" d="
		M0.2,1131.2c1.3-3.7,1.8-7.6,0-11.2"/>
	<path fill="none" stroke="#8A4E21" stroke-width="0.1" stroke-linecap="round" stroke-linejoin="round" stroke-miterlimit="10" d="
		M401.7,1279.4c-1.2-0.9-2.3-2-3.9-2.8c-13.9-5.4-27.1-9.3-40.3-17.8c-5.8-3.5-10.4-7.7-15.8-11.6c-6.2-4.3-12-7.7-17.8-12
		c-2.3-2.3-4.6-4.3-7-6.6c-2.3-3.1-5-6.2-7.3-9.3c-2.7-3.1-5.8-5.8-9.7-7.3c-4.3-1.5-8.9-2.3-13.5-1.5c-9.3,1.5-17.4,6.6-26.4,9.3
		c-2.7,1.2-5.4,1.9-8.1,2.7c-3.5,1.5-7,2.7-10,4.6c-0.4,0.4-0.8,0.8-1.2,1.2c-3.1,1.2-5,3.5-7.3,5.8c-4.6,5.4-7.7,11.6-13.9,15.8
		c-7.7,5.4-16.6,5-25.2,7.3c-7.3,1.9-13.1,9.3-21.4,8.1c-6.2-1.2-9.7-6.2-14.3-10c-10.8-7.3-22.9-8.1-35.3-11.2
		c-8.5-2.3-16.2-5.4-24.4-8.5c-6.2-2.3-13.5-2.7-19.7,0c-16.2,7-33.7,20.6-51.9,12c-10.4-7.3-13.9-21-13.1-32.9
		c0.4-1.5,0.4-3.5,1.2-5c0.4-1.5,0.4-3.5,1.2-5c2.3-5,5.4-9.7,7.3-15.1c2.7-8.5,3.1-18.5-3.5-25.6c-4.6-4.6-10.8-5.4-17-7
		c-1.2-0.4-1.9-0.8-2.9-1.5"/>
	<path fill="none" stroke="#8A4E21" stroke-width="0.1" stroke-linecap="round" stroke-linejoin="round" stroke-miterlimit="10" d="
		M0.2,1138.6c2.5-5.1,5.4-10.7,4.9-16.7c-0.3-3.4-2.2-6.6-4.9-8.8"/>
	<path fill="none" stroke="#8A4E21" stroke-width="0.1" stroke-linecap="round" stroke-linejoin="round" stroke-miterlimit="10" d="
		M614,1148.7c-0.8-3.2-0.7-6.3,0-9.5"/>
	<path fill="none" stroke="#8A4E21" stroke-width="0.1" stroke-linecap="round" stroke-linejoin="round" stroke-miterlimit="10" d="
		M614.1,1103c-1-3.1-0.7-6.5,0-9.7"/>
	<path fill="none" stroke="#8A4E21" stroke-width="0.1" stroke-linecap="round" stroke-linejoin="round" stroke-miterlimit="10" d="
		M614.1,1058.5c-3.4-2.2-7-4.3-10.3-6.6c-3.3-2.4-6.3-5.2-9.5-7.8c-3.1-2.6-6.5-4.8-10-6.6c-3.4-1.8-6.9-3.4-10-5.5
		c-3.1-2-5.7-4.6-7.4-7.8c-1.6-3.1-2.3-6.5-2.9-9.8c-0.6-3.3-1-7.2-3.8-9.5c-2.8-2.4-6.8-2.7-10.1-3.6c-7.9-2.3-14.4-6.9-21.7-10.6
		c-7.6-3.8-15.7-5.7-24.3-5.9c-7.8-0.2-16.4,0.3-23.4,4.3c-6.6,3.7-10.2,10.3-10.3,17.9c-0.1,4,0.7,8,1.9,11.7
		c1.2,3.8,2.5,7.6,2.7,11.7c0.3,7.3-5.1,11.9-10.5,15.9c-6.8,5-13.9,9.5-22,12.2c-7.7,2.6-15.9,3.5-23.3,7.1
		c-6.1,3.1-10.8,8.8-8.5,15.9c2.3,7.1,8.8,12.1,13.8,17.3c5.8,6.1,9.9,12.9,13.4,20.7c3.4,7.5,6.6,15,5.9,23.6
		c-0.3,4.3-1.2,8.5-1.7,12.8c-0.5,4.4-0.3,8.7-0.4,13.1c0,4.3-0.3,8.6-1.4,12.8c-1,3.9-2.6,7.7-3.7,11.7c-1.1,4-1.5,8.2,0.9,11.9
		c2,3.2,5.4,5.6,8.6,7.5c7.2,4.3,15.2,7.1,22.7,10.9c7.8,3.9,15,8.6,22.6,12.9c7,4.1,14.4,7.7,20.3,13.4c8.2,8,13.9,18.2,17,29.3"/>
	<path fill="none" stroke="#8A4E21" stroke-width="0.1" stroke-linecap="round" stroke-linejoin="round" stroke-miterlimit="10" d="
		M614.1,1156.2c-3.4-5-4.8-10.7-3.5-16.7c0.7-3.1,2.1-6,3.5-8.8"/>
	<path fill="none" stroke="#8A4E21" stroke-width="0.1" stroke-linecap="round" stroke-linejoin="round" stroke-miterlimit="10" d="
		M614,1110.6c-1.4-2.7-2.7-5.3-3.3-8.3c-0.6-2.9-0.4-5.9,0.2-8.8c0.7-2.9,1.9-5.7,3.1-8.4"/>
	<path fill="none" stroke="#8A4E21" stroke-width="0.1" stroke-linecap="round" stroke-linejoin="round" stroke-miterlimit="10" d="
		M614,1063.7c-2.9-2.7-6.6-4.4-9.9-6.5c-3.4-2.2-6.4-4.9-9.5-7.6c-3-2.7-6.1-5.2-9.5-7.2c-3.6-2.1-7.4-3.8-11-5.8
		c-6.6-3.6-11.7-8.5-15.2-15.1c-1.9-3.6-3.5-7.1-6.5-9.9c-3-2.8-6.6-5-9.9-7.4c-6.6-4.9-12.7-10.4-20.3-13.6
		c-7.7-3.2-16.1-4.2-24.5-3.3c-7.1,0.8-14.8,3.1-19,9.3c-4.4,6.5-3.1,14.6-0.9,21.8c2.2,7.1,6.1,15.4,1.2,22.4
		c-3.9,5.6-11.1,8.6-16.7,12.2c-3.5,2.2-7,4.5-10.8,6.3s-7.8,3-11.9,3.9c-7.1,1.7-15.2,2.4-21,7.3c-5.9,5.1-3.1,12.5,1.5,17.3
		c5.5,5.7,12.9,9.9,19.8,13.7c7.6,4.2,15.4,7.6,23.6,10.6c5.9,2.1,13.7,3.9,17.1,9.8c3.6,6.3,0.5,14.4-2.9,20.1
		c-4.1,7-9.8,12.9-13.8,19.9c-4.1,7.2-7.2,15.3-8.7,23.6c-1.5,7.9-0.5,15.7,4.8,22.2c5.1,6.2,12.4,10.5,19,14.8
		c7.2,4.6,14.4,9,22.2,12.7c3.6,1.7,7.3,3.4,10.6,5.6c3.2,2.1,6,4.8,8.4,7.8c5,6.2,9.4,13.5,12.6,20.9c1.4,3.2,2.6,6.6,3.7,10"/>
	<path fill="none" stroke="#8A4E21" stroke-width="0.1" stroke-linecap="round" stroke-linejoin="round" stroke-miterlimit="10" d="
		M613.7,1037.1c-3.1-2.9-5.8-6-8.7-9.1c-2.7-2.9-5.4-5.8-8.1-8.8c-2.5-2.9-4.8-6.1-6.4-9.7c-1.6-3.6-2.7-7.3-4.4-10.8
		c-3.2-6.6-9-11.5-15.9-14c-7.9-2.8-16.6-2.3-24.8-4.6c-6.8-1.9-13.2-4.8-19.9-6.8"/>
	<path fill="none" stroke="#8A4E21" stroke-width="0.1" stroke-linecap="round" stroke-linejoin="round" stroke-miterlimit="10" d="
		M464.2,973.2c-3.7,1.7-6.8,4.4-9.1,7.8c-9.3,14.3-18.5,28.3-20.1,45.3c-0.4,7.3-5.8,12.4-11.6,16.6c-10.8,7.3-22.1,10-34.9,12.4
		c-2.7,0.4-6.2,0.8-7.7,3.1c-0.8,1.5-1.5,3.5-1.2,5.4c1.2,5.8,2.7,11.2,2.3,17c-0.4,4.3-3.9,7-6.2,10c-7.3,4.6-14.3,13.1-10.4,22.1
		c2.7,5.8,6.2,10.8,7,17.4c0.4,3.9-0.4,7.3-1.2,11.2c-1.2,7-0.4,13.9,3.1,20.1c3.5,5.8,8.1,10.4,11.2,16.2
		c2.7,6.2,1.5,12.4,0.8,18.9c-1.9,18.2,1.9,38,15.8,50.7c0.4,0.4,1.2,0.4,1.5,0.8c7.7,7.3,18.2,9.3,28.3,12
		c7.3,2.3,13.9,8.1,12.4,16.2c-0.8,2.7-3.9,3.1-5.8,1.5c-7.3-5.4-13.9-11.6-23.3-13.1c-10.4-1.2-20.6-2.7-30.6-6.2
		c-6.6-2.3-12-5.8-18.2-8.9c-0.4-0.4-0.8-0.8-1.2-1.2c-10-6.2-18.2-12.8-27.9-19.7c-2.3-1.9-3.9-3.5-5.8-5.8c-2.7-3.5-4.6-7-7-10.8
		c-2.3-3.1-4.3-6.2-7.3-8.9c-4.3-3.5-8.9-5.8-14.3-6.6c-1.5-0.4-3.5-0.8-5-1.2c-9.3-0.8-18.2,0.4-26.8,3.9
		c-8.9,3.9-17.8,7-26.8,10.8c-1.9,1.2-3.9,1.9-5.8,3.1c-0.8,0.8-1.5,1.5-2.7,1.9c-0.4,0.4-0.8,0.8-1.2,1.2c-0.4,0.4-1.2,0.4-1.5,0.8
		c-3.9,3.5-7.3,7.3-10.8,11.6c-4.6,5.4-9.7,10.4-16.6,12.8c-8.9,2.7-19.7,5-27.9-1.5c-3.5-3.1-5.4-7.7-9.3-10.8
		c-3.9-3.1-8.5-1.9-12.8-0.4c-7.7,3.5-15.8,5-24.4,4.6c-7.3-0.8-15.1-1.9-22.1-5c-0.8-0.4-1.2,0-1.9-0.4c-5.4-2.7-10.4-5.8-15.8-8.1
		c-5.8-2.3-11.6-0.4-17,3.1c-9.7,6.6-18.9,13.9-30.6,13.9c-3.5,0-7.3-1.2-10-3.5c-0.4-0.8-1.2-1.2-1.9-1.9c-3.1-3.9-4.3-8.1-5-12.8
		c-0.4-3.5,0-7,1.2-10.4c1.2-5,3.5-9.7,5.4-14.7c3.9-11.6,5.8-25.2-2.3-36c-3.9-4.6-8.9-7.7-12.8-12c-5.8-6.6-1.2-15.1,0-22.9
		c1.5-10.8-6.6-18.9-14.7-25.2c-1.2-1.2-2.3-1.9-3.3-3.4"/>
	<path fill="none" stroke="#8A4E21" stroke-width="0.1" stroke-linecap="round" stroke-linejoin="round" stroke-miterlimit="10" d="
		M613.7,1034.1c-4.4-5.4-9.5-9.7-13.7-15.1c-0.4-0.8-1.2-1.9-1.9-2.7c-2.3-3.5-4.6-7-5.8-10.8c-3.9-11.6-13.1-22.5-25.6-23.7
		c-12-1.5-22.9-5-33.9-8.7"/>
	<path fill="none" stroke="#8A4E21" stroke-width="0.1" stroke-linecap="round" stroke-linejoin="round" stroke-miterlimit="10" d="
		M0.2,1071.8c0.3-3.6,0.3-7.1,0-10.7"/>
	<path fill="none" stroke="#8A4E21" stroke-width="0.1" stroke-linecap="round" stroke-linejoin="round" stroke-miterlimit="10" d="
		M459.2,973c-3.3,2.1-5.6,5.6-8.3,9c-3.5,5.4-5.4,10.4-8.9,15.8c-1.2,1.2-1.9,2.7-2.7,4.3c-0.4,0.4-0.8,0.8-1.2,1.2
		c-5,8.1-6.6,17-9.3,26c-2.3,8.5-10.4,13.1-17.8,17c-9.3,5-20.1,6.6-29.9,3.1c-7-2.7-12.8-7.7-19.7-10c-1.9-0.4-4.3,0-5.8,1.2
		c-0.8,0.8-1.5,1.9-1.2,3.5c1.5,5,5.4,8.5,9.7,11.6c0.4,0.4,0.4,0.8,0.8,1.2c6.2,4.3,11.2,10,12.8,17.4c1.9,10.8-8.5,15.8-14.7,22.9
		c-5.4,6.6-5,15.5,0.4,22.1c4.6,5.4,6.6,11.6,5.4,18.5c-1.2,5.8-1.5,11.6-0.4,17.4c1.9,8.5,8.5,13.9,13.1,21.4
		c2.7,4.6,3.1,9.3,2.3,14.3c-3.1,21.7,1.5,42.2,14.3,60.8c1.2,1.9,0.4,4.3-1.9,5c-3.5,1.2-7-0.8-10-1.9c-0.4,0-1.2,0-1.5,0
		c-5.4-2.3-10.4-4.6-15.5-7.3c-0.4-0.4-0.8-0.8-1.2-1.2c-11.2-6.6-21.4-13.1-30.2-22.5c-5-4.6-7.3-10.8-11.2-16.6
		c-12.8-17.4-36.4-17.4-54.6-11.2c-1.9,0.8-3.5,1.5-5,2.3c-9.3,3.1-17.8,6.6-26.8,10.8c-7.3,3.9-13.1,9.3-18.2,15.8
		c-4.6,7-11.2,12-18.9,14.3c-5.4,1.5-11.2,1.5-16.6,0c-6.2-2.3-8.1-9.7-11.2-15.5c-1.2-1.9-2.3-3.5-3.9-4.6c-2.7-1.5-5.8-1.2-8.5,0
		c-7,2.7-12.8,7.7-19.7,10c-18.9,5.8-36.8-4.3-53-12.8c-4.6-2.3-10-0.4-14.3,2.3c-0.4,0.4-0.8,0.8-1.2,1.2c-1.2,0.8-1.9,0.8-3.1,1.5
		c-8.5,6.2-16.6,12.8-27.1,12c-3.5-0.4-7-1.5-9.3-3.9c-5.4-6.2-6.2-15.1-3.1-22.5c7-17.8,14.3-41.1-2.7-55.7c-3.1-2.7-7-5-8.5-8.9
		c-2.7-6.6-0.4-13.5,0.8-20.6c1.9-12.4-8.9-19.7-16.6-27.9c-2.3-2.7-4.3-5.4-4.4-8.8"/>
</g>
<g id="Major">
	<path fill="none" stroke="#8A4E21" stroke-width="0.8" stroke-linejoin="round" stroke-miterlimit="10" d="M473.3,1064.9
		c-7.3,2.4-11.8,11.8-4.5,17.1c5.1,3.7,13.1,3.7,18.9,2.1"/>
	<path fill="none" stroke="#8A4E21" stroke-width="0.8" stroke-linejoin="round" stroke-miterlimit="10" d="M487.7,1084.1
		c4.9-1.9,13.5-9.8,12.4-15.7c-1.4-6.9-12.6-7.4-17.9-6.5"/>
	<path fill="none" stroke="#8A4E21" stroke-width="0.8" stroke-linejoin="round" stroke-miterlimit="10" d="M191.3,1021.6
		c-4.8,14.4-19.8,20.5-31.9,27.5c-5,3-11,1-16-3c-13-11-26.1-20-41.1-27.1c-12-6-21.1-17-26.1-29.1c-3-6-6-11-7.7-17.3"/>
	<path fill="none" stroke="#8A4E21" stroke-width="0.8" stroke-linejoin="round" stroke-miterlimit="10" d="M225.6,972
		c-5,9.8-16,13.8-24.1,21.9c-5,5-9,12-8.3,18.9"/>
	<path fill="none" stroke="#8A4E21" stroke-width="0.8" stroke-linejoin="round" stroke-miterlimit="10" d="M68.4,1020.4
		c-9.2-14.4-13.2-31.5-18.5-47.2"/>
	<path fill="none" stroke="#8A4E21" stroke-width="0.8" stroke-linejoin="round" stroke-miterlimit="10" d="M281.8,973.2
		c-16.1,9.7-32.2,21.8-48.2,31.8c-7,9-10,20-14,31.1c-8,16-17,33.1-4,50.1c2,4,5,12-2,13c-6,1-13,1-19-1c-8-3-17-3-25.1-6
		c-4-1-8-1-12,0c-8,2-14,8-22.1,9c-23.1,2-33.1-24.1-40.1-42.1c-3-9-11-16-18-24.1c-2-2-3-4-4.5-6.4"/>
	<path fill="none" stroke="#8A4E21" stroke-width="0.8" stroke-linejoin="round" stroke-miterlimit="10" d="M266.1,1011.4
		c-15.4,5.6-22.5,19.6-28.5,33.7c-3,9-4,20,3,28.1c8,8,17,14,24.1,22.1c8,8,16,17,13,30.1c-11,7-25.1,0-37.1-1c-7,0-13,0-20,2
		c-7,1-13,0-20,0c-3,0-6,3-9,4c-3,3-7,4-10,7c-1,1-2,2-3,3c-15,8-32.1,17-49.1,16c-10-5-21.1-8-31.1-15c-6-5-9-11-12-18
		c-8-21.1-12-42.1-18-63.2c-6-7-12-14-15-23.1c-2-7-2-15-4-22.1c-3-8-7-15-9-23.1c0-7-3-13-4.3-18.8"/>
	<path fill="none" stroke="#8A4E21" stroke-width="0.8" stroke-linejoin="round" stroke-miterlimit="10" d="M390.2,973
		c-8.6,5.8-18.6,3-28.2,2.5c-11.4-0.6-21.7,2.5-32.8,4.2c-10.3,1.6-20.3,3.7-29.7,8.8c-8.9,5-16.8,11.7-25.3,17.5
		c-0.2,0.1-0.3,0.2-0.5,0.3"/>
	<path fill="none" stroke="#8A4E21" stroke-width="0.8" stroke-linejoin="round" stroke-miterlimit="10" d="M606.8,974.7
		c-0.6-0.6-1.2-1.1-1.8-1.6"/>
	<path fill="none" stroke="#8A4E21" stroke-width="0.8" stroke-linejoin="round" stroke-miterlimit="10" d="M613.6,983
		c-0.6-0.9-1.2-1.8-1.9-2.7"/>
	<path fill="none" stroke="#8A4E21" stroke-width="0.8" stroke-linejoin="round" stroke-miterlimit="10" d="M271.9,1030.2
		c-8.2,7.9-17.2,17.9-15.2,31c3,16,22.1,17,34.1,23.1c4,2,6,7,6,11c0,9-1,19,5,26.1c8,9,17,15,23.1,25.1c1,3,0,8-4,8
		c-18,0-35.1-4-53.1-7c-8-1-17,0-24.1,3c-5,3-9,8-14,12c-4,4-9,4-13,3c-12-4-24.1-2-36.1,2c-16,6-31.1,18-50.1,15c-9-2-16-9-24.1-12
		c-8-4-16,0-24.1,0c-5-1-8-4-8-9c0-7,1-15-2-22.1c-1-3-3-5-4-8c-7-30.1-22.1-54.1-33.1-82.2c-1-12-2-23.1-3-35.1c-1-8-4-14-6-22.1
		c0-3-1-7-1-10c-1-3-2-6-4.4-8.8"/>
	<path fill="none" stroke="#8A4E21" stroke-width="0.8" stroke-linejoin="round" stroke-miterlimit="10" d="M416.2,973
		c-6.8,7.6-13.7,14.5-24.2,16.6c-9.8,2-20-0.2-30-0.2c-11-0.1-22,1.3-32.6,3.9c-10.1,2.4-19.5,5.5-27.2,12.7
		c-3.6,3.4-7,7.1-10.7,10.5c-3.7,3.4-8.4,5.3-12.1,8.5"/>
	<path fill="none" stroke="#8A4E21" stroke-width="0.8" stroke-linejoin="round" stroke-miterlimit="10" d="M598.1,981.3
		c-3.4-3.3-7.3-6.1-11.5-8.2"/>
	<path fill="none" stroke="#8A4E21" stroke-width="0.8" stroke-linejoin="round" stroke-miterlimit="10" d="M613.6,1006.4
		c-3.5-5.8-5.9-12.2-9.6-17.9"/>
	<path fill="none" stroke="#8A4E21" stroke-width="0.8" stroke-linejoin="round" stroke-miterlimit="10" d="M426.7,984.1
		c-7.7,10.9-18.7,23-32.8,24c-20,1-40.1-5-59.1,1c-2,1-4,2-7,3c-2,1-9,7-11,9c-4,5-8,11-14,14c-2,1-10,4-11,4c-5,2-10,5-13,9
		c-7,10,2,18,12,21.1c14,4,30.1-1,42.1,8c6,5,0,13-5,17c-6,4-12,6-15,12c-3,7,2,14,7,19c9,8,21.1,12,25.1,23.1c4,11,12,21.1,11,32.1
		c-3,1-5,5-9,4c-16-2-29.1-10-43.1-15c-13-4-27.1-5-40.1-1c-15,6-28.1,15-43.1,23.1c-5,2-9,2-14,1c-6-2-11-7-18-8
		c-17-1-33.1,7-48.1,14c-6,2-11,4-17,2c-9-4-15-14-25.1-15s-18,6-27.1,9c-7,2-12-2-12-9c0-16,3-34.1-8-47.1c-3-12-5-23.1-8-35.1
		C21,1073.2,21,1035.1,15,999c-1-9-4-21.1-14.7-23"/>
	<path fill="none" stroke="#8A4E21" stroke-width="0.8" stroke-linejoin="round" stroke-miterlimit="10" d="M433.7,973
		c-0.6,0.9-1.2,1.8-1.8,2.8"/>
	<path fill="none" stroke="#8A4E21" stroke-width="0.8" stroke-linejoin="round" stroke-miterlimit="10" d="M590.2,988.5
		c-9.8-10.9-23.4-12.1-36.9-15.3"/>
	<path fill="none" stroke="#8A4E21" stroke-width="0.8" stroke-linejoin="round" stroke-miterlimit="10" d="M613.5,1024.8
		c-7-8.7-13-18.7-18.3-29.6"/>
	<path fill="none" stroke="#8A4E21" stroke-width="0.8" stroke-linejoin="round" stroke-miterlimit="10" d="M437.6,989.5
		C428,1003,420,1016,412,1030.1c-6,9-18,11-28.1,7c-13-6-24.1-16-39.1-13c-2,0-7,3-8,4c-6,6-11,16-6,24.1c5,6,13,7,21.1,10
		c7,2,12,9,11,16c-3,13-15,19-22.1,30.1c-6,9,2,16,10,20c10,5,7,18,10,28.1c2,7,7,13,11,19c1,2,2,5,3,7c3,13,0,26.1,0,39.1
		c-1,3-4,7-7,6c-17-1-23.1-20-35.1-30.1c-12-12-29.1-16-46.1-14c-26.1,3-52.1,13-70.2,35.1c-6,6-16,13-23.1,5c-4-5-5-12-9-17
		c-5-5-12-5-18-3c-10,3-19,9-29.1,15c-13,8-28.1,0-39.1-10c-4-4-9-7-16-4c-11,5-20,17-33.1,15c-4-1-7-6-7-10c1-12,6-23.1,6-35.1
		c0-9-3-18-9-26.1c-3-3-5-6-7-10c-4-10,2-20-3-30.1s-15-17-16-29.1c0-10-2-18-4-28.1c-3-16-1-31.1-5-46.1c-1-3-3-5-3.7-8"/>
	<path fill="none" stroke="#8A4E21" stroke-width="0.8" stroke-linejoin="round" stroke-miterlimit="10" d="M448,973.2
		c-2.2,2.8-4.1,5.7-5.9,8.7"/>
	<path fill="none" stroke="#8A4E21" stroke-width="0.8" stroke-linejoin="round" stroke-miterlimit="10" d="M581.7,996
		c-9.1-13.7-26.1-10.1-39.8-14.7c-9.4-3.1-18.4-6.7-28.3-8.5"/>
	<path fill="none" stroke="#8A4E21" stroke-width="0.8" stroke-linejoin="round" stroke-miterlimit="10" d="M613.7,1039.9
		c-10.2-10.8-24.3-20.9-28.5-36.3"/>
	<path fill="none" stroke="#8A4E21" stroke-width="0.8" stroke-linejoin="round" stroke-miterlimit="10" d="M449.3,996.4
		c-3.5,6.6-7,13.3-8,20.9c-1,7.4-0.6,14.5-5.9,20.5c-10,11.2-26.4,14.8-39.7,20.1c-3.3,1.3-6.8,3-8.4,6.4c-1.6,3.3-1.1,7.3-1,10.8
		c0.4,8-1.4,13.5-7.5,18.9c-5.9,5.1-10.9,10.2-8.5,18.6c2.1,7.3,6.4,13.1,5.4,21.2c-0.9,7.3-3.5,14-1.4,21.5
		c2.1,7.5,7.5,12.7,11.9,18.9c4.7,6.6,4.4,12.8,3.2,20.5c-1.2,7.4-1.3,14.8,0,22.4c2.7,15.1,10.5,28.6,25.8,33.5
		c7.1,2.3,14.4,2,21.7,3.3c7.5,1.4,13.9,5.3,18.4,11.5c3.1,4.3,5.3,9.4,5.8,14.8"/>
	<path fill="none" stroke="#8A4E21" stroke-width="0.8" stroke-linejoin="round" stroke-miterlimit="10" d="M473,972.7
		c-9,2.5-15.1,7.8-19.5,16"/>
	<path fill="none" stroke="#8A4E21" stroke-width="0.8" stroke-linejoin="round" stroke-miterlimit="10" d="M25.6,1205.2
		c5.5-10.7,9.5-22.8,7.5-35.8c-2-9-9-14-17-19c-2-2-5-5-5-9c0-6,3-12,4-18c1-11-8-18-15.2-24"/>
	<path fill="none" stroke="#8A4E21" stroke-width="0.8" stroke-linejoin="round" stroke-miterlimit="10" d="M424.6,1279.9
		c-2.6-3.2-4.6-7.2-8.6-8.2c-19-6-38.1-9-55.1-21.1c-10-7-17-13-27.1-19c-10-7-13-18-21.1-26.1c-8-7-19-8-29.1-5
		c-20,5-41.1,11-55.1,26.1c-5,5-9,9-13,14c-3,3-7,4-10,5c-9,3-20,6-29.1,2c-5-3-9-8-15-10c-9-3-17,0-26.1,0c-14-1-27.1-5-39.1-12
		c-12-6-23.1,2-33.1,9c-8,5-17,8-26.1,5c-10-3-15-15-13.5-26.1"/>
	<path fill="none" stroke="#8A4E21" stroke-width="0.8" stroke-linejoin="round" stroke-miterlimit="10" d="M67.7,1273.6
		c-6.5,1.4-12.6,3.6-18.9,5.8"/>
	<path fill="none" stroke="#8A4E21" stroke-width="0.8" stroke-linejoin="round" stroke-miterlimit="10" d="M125.4,1279.5
		c-1.7-7.1-11.5-9.4-17.6-10.5c-10.9-1.9-21,1.2-31.6,3"/>
	<path fill="none" stroke="#8A4E21" stroke-width="0.8" stroke-linejoin="round" stroke-miterlimit="10" d="M211.9,1274.6
		c-3.9,0.7-8.2,2.5-11.4,4.8"/>
	<path fill="none" stroke="#8A4E21" stroke-width="0.8" stroke-linejoin="round" stroke-miterlimit="10" d="M352,1279.5
		c-7.1-6.8-15.1-11.8-23.2-15.8c-13-5-25.1-10-38.1-17c-21.1-10-39.1,9-52.1,23.1c-6,2-12,4-18.3,3.9"/>
	<path fill="none" stroke="#8A4E21" stroke-width="0.8" stroke-linejoin="round" stroke-miterlimit="10" d="M66.2,1260.5
		c-12.9,3.8-25.4,9.6-38.7,11.7s-24-5.2-27.2-18.3"/>
	<path fill="none" stroke="#8A4E21" stroke-width="0.8" stroke-linejoin="round" stroke-miterlimit="10" d="M145.9,1279.4
		c-5.5-16.7-25.6-18.7-40.6-23.8c-10-3-20,0-30.2,2.5"/>
	<path fill="none" stroke="#8A4E21" stroke-width="0.8" stroke-linejoin="round" stroke-miterlimit="10" d="M64.7,1248.1
		c-14.3,6.4-37.6,15.4-48.9-1c-5.4-7.8-8-17.1-8.7-26.8c-0.8-10.7,4.5-18.1,8.8-27.4c2.8-5.9,4.5-12.7,1.7-19
		c-3-6.6-10.4-9.5-17.3-9.2"/>
	<path fill="none" stroke="#8A4E21" stroke-width="0.8" stroke-linejoin="round" stroke-miterlimit="10" d="M383.4,1279.4
		c-2.5-0.7-4.5-3.7-6.5-4.7c-17-7-31.1-18-47.1-29.1c-5-3-10-5-14-8c-6-7-11-14-19-18c-12-5-24.1,4-36.1,8c-4,1-8,1-12,3
		c-10,5-15,16-23.1,24.1c-2,2-4,3-7,4c-11,2-21.1,2-30.1,9c-6,6-14,14-22.1,8c-6-6-10-13-17-18c-12-7-26.1-8-39.1-13
		c-8-2-16-5-24.1-5c-5,1-9,3-12.8,4.7"/>
	<path fill="none" stroke="#8A4E21" stroke-width="0.8" stroke-linejoin="round" stroke-miterlimit="10" d="M465.6,1005.5
		c0.5,12.5,8.5,26.6-1.5,36.6c-12,11-28.1,15-43.1,19c-6,2-13,6-15,14c-1,7,4,12,7,17c2,5,6,9,4,15c-2,4-7,6-10,9c-1,1-2,4-1,5
		c5,5,19,12,10,18c-7,5-17,0-23.1,6c-7,9,2,18,10,22.1c7,3,20,5,18,15c-2,8-8,12-10,20c-2,9,4,16,12,18c8,2,16,2,25.1,3
		c14,3,26.1,9,38.1,16c15,10,30.1,22.1,33.3,39.7"/>
	<path fill="none" stroke="#8A4E21" stroke-width="0.8" stroke-linejoin="round" stroke-miterlimit="10" d="M614,1054.6
		c-8.7-4.9-15.4-12.5-23.9-17.9c-6.3-4.1-14.2-7-18.3-13.7c-4.4-7.1,0-18.5-7.6-23.7c-3.7-2.5-8.3-2.2-12.6-2.8
		c-4.9-0.7-9.4-2.5-13.9-4.5c-13-5.8-25.9-10.5-40.5-9.8c-11.1,0.5-24.1,3.6-29.4,14.5"/>
	<path fill="none" stroke="#8A4E21" stroke-width="0.8" stroke-linejoin="round" stroke-miterlimit="10" d="M563,1204.5
		c13.4,14,21.5,31.1,28.5,49.1c3,8,3,17,3.1,25.8"/>
	<path fill="none" stroke="#8A4E21" stroke-width="0.8" stroke-linejoin="round" stroke-miterlimit="10" d="M614,1190.5
		c-4.2-8.4-11.3-14.5-19.1-19.5c-8.7-5.5-13.1-13.8-12.9-24.3c0.2-9.7,5.8-20.7,2.6-30.2c-1.3-3.9-4.3-8.4-8.7-9
		c-4.9-0.7-6.8,4.1-7.9,8.1c-2.1,7.4-1.5,15-3.9,22.4c-2.4,7.1-6.1,13.6-9.8,20.1c-3.6,6.4-8.8,13.9-8.5,21.6
		c0.3,7.5,6.1,13.8,11.2,18.7"/>
	<path fill="none" stroke="#8A4E21" stroke-width="0.8" stroke-linejoin="round" stroke-miterlimit="10" d="M536.5,1231
		c3.8,7.6,6.8,15.6,9.8,24.7c3,8,8,16,12.3,23.9"/>
	<path fill="none" stroke="#8A4E21" stroke-width="0.8" stroke-linejoin="round" stroke-miterlimit="10" d="M614,1168.1
		c-6.5-5.7-13.5-11.7-14.5-20.8c0-11,7-20,5-31.1c-3-10-3-20-5-30.1c-3-9-11-14-16-22.1c-1-2-2-5-4-7c-12-14-30.1-18-46.1-24.1
		c-8-4-9-14-10-22.1c-1-5-4-9-7-12c-1-1-3-2-5-3c-7-2-17,0-18,8c-3,14,10,23.1,17,34.1c4,8,1,18,2,27.1c1,2,2,5,3,7
		c6,9,14,17,15,28.1c2,18-2,37.1-16,49.1c-12,12-32.1,21.1-31.1,41.1c2,17,19,26.1,35.1,31.1c4,1,8,1,11.4,3.8"/>
</g>
<g id="Trail">
	
		<path fill="none" stroke="#60371C" stroke-width="1.8" stroke-linecap="square" stroke-linejoin="round" stroke-miterlimit="10" stroke-dasharray="5,7" d="
		M316.2,1129.2c-6.4-5.9-15.4-8.9-21.5-14.9c-4-5,1-11,5-14c5-3,12-6,13-12c0-2-2-3-3-4c-14-6-29.1-6-43.1-13c-6-4-9-10-8-17
		c2-8,6-14,11-20c6-5,13-8,19-13c8-6,14-13,21.1-20c5-4,11-7,17-8c4,0,8,0,12,0c8-1,14-6,22.1-5c21.1,5,46.1,6,57.2-14.8"/>
	
		<path fill="none" stroke="#60371C" stroke-width="1.8" stroke-linecap="square" stroke-linejoin="round" stroke-miterlimit="10" stroke-dasharray="5,7" d="
		M453,1279.5c-1.9-3.8-4.9-5.8-6.9-8.8c-6-5-14-9-20-14c-8-1-17,0-24.1-3c-29.1-15-32.1-48.1-41.1-76.2c-3-8-12-9-18-14
		c-6-5-5-12-8.7-17.5"/>
	
		<path fill="none" stroke="#60371C" stroke-width="1.8" stroke-linecap="square" stroke-linejoin="round" stroke-miterlimit="10" stroke-dasharray="5,7" d="
		M139.5,1046.1c19.7,2,39.4,5.4,59.3,5.5c20,0.1,40.2-0.3,60.2,1"/>
	
		<path fill="none" stroke="#60371C" stroke-width="1.8" stroke-linecap="square" stroke-linejoin="round" stroke-miterlimit="10" stroke-dasharray="5,7" d="
		M-0.9,1052.5c8.8,1.3,16.8,2.3,25.9,0.3c32.1-6,62.2-12,93.7-8.4"/>
	
		<path fill="none" stroke="#60371C" stroke-width="1.8" stroke-linecap="square" stroke-linejoin="round" stroke-miterlimit="10" stroke-dasharray="5,7" d="
		M185.1,1135.8c17.4,5.5,34.5,4.5,51.5,1.5c5-1,7-7,11-10c2-1,4-2,6-2c15-2,28.1-6,41.9-11.1"/>
	
		<path fill="none" stroke="#60371C" stroke-width="1.8" stroke-linecap="square" stroke-linejoin="round" stroke-miterlimit="10" stroke-dasharray="5,7" d="
		M69.7,1045.4c-2.5,18.7,4.5,35.8,16.4,49.8c6,6,12.9,11,21,14c7,2,12.9,4,19.9,6c10.9,2,22,1,31.2,6.7"/>
</g>
<g id="MajorText">
	
		<text transform="matrix(-0.2714 0.9625 -0.9625 -0.2714 466.4507 997.0972)" fill="#8A4E21" font-family="'Arial-BoldMT'" font-size="3.0989">7</text>
	
		<text transform="matrix(-0.2714 0.9625 -0.9625 -0.2714 465.9839 998.757)" fill="#8A4E21" font-family="'Arial-BoldMT'" font-size="3.0989">6</text>
	
		<text transform="matrix(-0.2714 0.9625 -0.9625 -0.2714 465.5171 1000.4152)" fill="#8A4E21" font-family="'Arial-BoldMT'" font-size="3.0989">0</text>
	
		<text transform="matrix(-0.2714 0.9625 -0.9625 -0.2714 465.0483 1002.0739)" fill="#8A4E21" font-family="'Arial-BoldMT'" font-size="3.0989">0</text>
	
		<text transform="matrix(-0.444 0.896 -0.896 -0.444 452.1815 988.8522)" fill="#8A4E21" font-family="'Arial-BoldMT'" font-size="3.0983">7</text>
	
		<text transform="matrix(-0.444 0.896 -0.896 -0.444 451.4158 990.3958)" fill="#8A4E21" font-family="'Arial-BoldMT'" font-size="3.0983">5</text>
	
		<text transform="matrix(-0.444 0.896 -0.896 -0.444 450.6503 991.94)" fill="#8A4E21" font-family="'Arial-BoldMT'" font-size="3.0983">0</text>
	
		<text transform="matrix(-0.444 0.896 -0.896 -0.444 449.8847 993.4839)" fill="#8A4E21" font-family="'Arial-BoldMT'" font-size="3.0983">0</text>
	
		<text transform="matrix(-0.5428 0.8399 -0.8399 -0.5428 440.7968 982.3998)" fill="#8A4E21" font-family="'Arial-BoldMT'" font-size="3.0989">7</text>
	
		<text transform="matrix(-0.5428 0.8399 -0.8399 -0.5428 439.8615 983.8468)" fill="#8A4E21" font-family="'Arial-BoldMT'" font-size="3.0989">4</text>
	
		<text transform="matrix(-0.5428 0.8399 -0.8399 -0.5428 438.9279 985.2947)" fill="#8A4E21" font-family="'Arial-BoldMT'" font-size="3.0989">0</text>
	
		<text transform="matrix(-0.5428 0.8399 -0.8399 -0.5428 437.9922 986.7415)" fill="#8A4E21" font-family="'Arial-BoldMT'" font-size="3.0989">0</text>
	
		<text transform="matrix(-0.5421 0.8403 -0.8403 -0.5421 430.1142 976.4775)" fill="#8A4E21" font-family="'Arial-BoldMT'" font-size="3.0985">7</text>
	
		<text transform="matrix(-0.5421 0.8403 -0.8403 -0.5421 429.1805 977.9254)" fill="#8A4E21" font-family="'Arial-BoldMT'" font-size="3.0985">3</text>
	
		<text transform="matrix(-0.5421 0.8403 -0.8403 -0.5421 428.2451 979.3729)" fill="#8A4E21" font-family="'Arial-BoldMT'" font-size="3.0985">0</text>
	
		<text transform="matrix(-0.5421 0.8403 -0.8403 -0.5421 427.3095 980.8218)" fill="#8A4E21" font-family="'Arial-BoldMT'" font-size="3.0985">0</text>
	
		<text transform="matrix(0.6832 0.7302 -0.7302 0.6832 556.5613 1199.5261)" fill="#8A4E21" font-family="'Arial-BoldMT'" font-size="3.0983">7</text>
	
		<text transform="matrix(0.6832 0.7302 -0.7302 0.6832 557.7369 1200.7839)" fill="#8A4E21" font-family="'Arial-BoldMT'" font-size="3.0983">8</text>
	
		<text transform="matrix(0.6832 0.7302 -0.7302 0.6832 558.9152 1202.0426)" fill="#8A4E21" font-family="'Arial-BoldMT'" font-size="3.0983">0</text>
	
		<text transform="matrix(0.6832 0.7302 -0.7302 0.6832 560.0917 1203.3007)" fill="#8A4E21" font-family="'Arial-BoldMT'" font-size="3.0983">0</text>
	
		<text transform="matrix(0.7554 0.6553 -0.6553 0.7554 529.8242 1226.6021)" fill="#8A4E21" font-family="'Arial-BoldMT'" font-size="3.0987">7</text>
	
		<text transform="matrix(0.7554 0.6553 -0.6553 0.7554 531.1262 1227.7314)" fill="#8A4E21" font-family="'Arial-BoldMT'" font-size="3.0987">7</text>
	
		<text transform="matrix(0.7554 0.6553 -0.6553 0.7554 532.4279 1228.8611)" fill="#8A4E21" font-family="'Arial-BoldMT'" font-size="3.0987">0</text>
	
		<text transform="matrix(0.7554 0.6553 -0.6553 0.7554 533.7295 1229.9894)" fill="#8A4E21" font-family="'Arial-BoldMT'" font-size="3.0987">0</text>
	
		<text transform="matrix(-0.8344 0.5511 -0.5511 -0.8344 278.3148 1024.8499)" fill="#8A4E21" font-family="'Arial-BoldMT'" font-size="3.0981">7</text>
	
		<text transform="matrix(-0.8344 0.5511 -0.5511 -0.8344 276.8756 1025.7999)" fill="#8A4E21" font-family="'Arial-BoldMT'" font-size="3.0981">2</text>
	
		<text transform="matrix(-0.8344 0.5511 -0.5511 -0.8344 275.4383 1026.749)" fill="#8A4E21" font-family="'Arial-BoldMT'" font-size="3.0981">0</text>
	
		<text transform="matrix(-0.8344 0.5511 -0.5511 -0.8344 274.001 1027.6981)" fill="#8A4E21" font-family="'Arial-BoldMT'" font-size="3.0981">0</text>
	
		<text transform="matrix(-0.8663 0.4996 -0.4996 -0.8663 272.0946 1006.4465)" fill="#8A4E21" font-family="'Arial-BoldMT'" font-size="3.0989">7</text>
	
		<text transform="matrix(-0.8663 0.4996 -0.4996 -0.8663 270.6019 1007.308)" fill="#8A4E21" font-family="'Arial-BoldMT'" font-size="3.0989">1</text>
	
		<text transform="matrix(-0.8663 0.4996 -0.4996 -0.8663 269.11 1008.1682)" fill="#8A4E21" font-family="'Arial-BoldMT'" font-size="3.0989">0</text>
	
		<text transform="matrix(-0.8663 0.4996 -0.4996 -0.8663 267.6182 1009.0284)" fill="#8A4E21" font-family="'Arial-BoldMT'" font-size="3.0989">0</text>
	
		<text transform="matrix(-0.3649 -0.931 0.931 -0.3649 585.6893 1002.5649)" fill="#8A4E21" font-family="'Arial-BoldMT'" font-size="3.0981">7</text>
	
		<text transform="matrix(-0.3649 -0.931 0.931 -0.3649 585.0605 1000.9617)" fill="#8A4E21" font-family="'Arial-BoldMT'" font-size="3.0981">5</text>
	
		<text transform="matrix(-0.3649 -0.931 0.931 -0.3649 584.4317 999.3564)" fill="#8A4E21" font-family="'Arial-BoldMT'" font-size="3.0981">0</text>
	
		<text transform="matrix(-0.3649 -0.931 0.931 -0.3649 583.8033 997.7531)" fill="#8A4E21" font-family="'Arial-BoldMT'" font-size="3.0981">0</text>
	
		<text transform="matrix(-0.6356 -0.772 0.772 -0.6356 595.9268 993.6489)" fill="#8A4E21" font-family="'Arial-BoldMT'" font-size="3.0984">7</text>
	
		<text transform="matrix(-0.6356 -0.772 0.772 -0.6356 594.8318 992.319)" fill="#8A4E21" font-family="'Arial-BoldMT'" font-size="3.0984">4</text>
	
		<text transform="matrix(-0.6356 -0.772 0.772 -0.6356 593.7372 990.9891)" fill="#8A4E21" font-family="'Arial-BoldMT'" font-size="3.0984">0</text>
	
		<text transform="matrix(-0.6356 -0.772 0.772 -0.6356 592.6413 989.6593)" fill="#8A4E21" font-family="'Arial-BoldMT'" font-size="3.0984">0</text>
	
		<text transform="matrix(-0.6575 -0.7535 0.7535 -0.6575 604.2449 986.5322)" fill="#8A4E21" font-family="'Arial-BoldMT'" font-size="3.0989">7</text>
	
		<text transform="matrix(-0.6575 -0.7535 0.7535 -0.6575 603.1129 985.2357)" fill="#8A4E21" font-family="'Arial-BoldMT'" font-size="3.0989">3</text>
	
		<text transform="matrix(-0.6575 -0.7535 0.7535 -0.6575 601.9793 983.9371)" fill="#8A4E21" font-family="'Arial-BoldMT'" font-size="3.0989">0</text>
	
		<text transform="matrix(-0.6575 -0.7535 0.7535 -0.6575 600.8459 982.6371)" fill="#8A4E21" font-family="'Arial-BoldMT'" font-size="3.0989">0</text>
	
		<text transform="matrix(-0.6545 -0.7561 0.7561 -0.6545 612.6044 979.4235)" fill="#8A4E21" font-family="'Arial-BoldMT'" font-size="3.0987">7</text>
	
		<text transform="matrix(-0.6545 -0.7561 0.7561 -0.6545 611.4772 978.1229)" fill="#8A4E21" font-family="'Arial-BoldMT'" font-size="3.0987">2</text>
	
		<text transform="matrix(-0.6545 -0.7561 0.7561 -0.6545 610.3495 976.8185)" fill="#8A4E21" font-family="'Arial-BoldMT'" font-size="3.0987">0</text>
	
		<text transform="matrix(-0.6545 -0.7561 0.7561 -0.6545 609.2213 975.5161)" fill="#8A4E21" font-family="'Arial-BoldMT'" font-size="3.0987">0</text>
	
		<text transform="matrix(-0.9816 0.1908 -0.1908 -0.9816 75.1504 1270.957)" fill="#8A4E21" font-family="'Arial-BoldMT'" font-size="3.0983">7</text>
	
		<text transform="matrix(-0.9816 0.1908 -0.1908 -0.9816 73.4573 1271.285)" fill="#8A4E21" font-family="'Arial-BoldMT'" font-size="3.0983">8</text>
	
		<text transform="matrix(-0.9816 0.1908 -0.1908 -0.9816 71.7633 1271.6143)" fill="#8A4E21" font-family="'Arial-BoldMT'" font-size="3.0983">0</text>
	
		<text transform="matrix(-0.9816 0.1908 -0.1908 -0.9816 70.0721 1271.9424)" fill="#8A4E21" font-family="'Arial-BoldMT'" font-size="3.0983">0</text>
	
		<text transform="matrix(-0.9669 0.2552 -0.2552 -0.9669 73.6122 1257.5497)" fill="#8A4E21" font-family="'Arial-BoldMT'" font-size="3.0985">7</text>
	
		<text transform="matrix(-0.9669 0.2552 -0.2552 -0.9669 71.9465 1257.989)" fill="#8A4E21" font-family="'Arial-BoldMT'" font-size="3.0985">7</text>
	
		<text transform="matrix(-0.9669 0.2552 -0.2552 -0.9669 70.2769 1258.4285)" fill="#8A4E21" font-family="'Arial-BoldMT'" font-size="3.0985">0</text>
	
		<text transform="matrix(-0.9669 0.2552 -0.2552 -0.9669 68.6103 1258.868)" fill="#8A4E21" font-family="'Arial-BoldMT'" font-size="3.0985">0</text>
	
		<text transform="matrix(-0.9276 0.3737 -0.3737 -0.9276 71.9066 1243.7747)" fill="#8A4E21" font-family="'Arial-BoldMT'" font-size="3.099">7</text>
	
		<text transform="matrix(-0.9276 0.3737 -0.3737 -0.9276 70.3084 1244.4183)" fill="#8A4E21" font-family="'Arial-BoldMT'" font-size="3.099">6</text>
	
		<text transform="matrix(-0.9276 0.3737 -0.3737 -0.9276 68.7111 1245.0627)" fill="#8A4E21" font-family="'Arial-BoldMT'" font-size="3.099">0</text>
	
		<text transform="matrix(-0.9276 0.3737 -0.3737 -0.9276 67.1119 1245.7062)" fill="#8A4E21" font-family="'Arial-BoldMT'" font-size="3.099">0</text>
	
		<text transform="matrix(-0.465 -0.8853 0.8853 -0.465 73.7519 1027.3682)" fill="#8A4E21" font-family="'Arial-BoldMT'" font-size="3.0985">7</text>
	
		<text transform="matrix(-0.465 -0.8853 0.8853 -0.465 72.9507 1025.8411)" fill="#8A4E21" font-family="'Arial-BoldMT'" font-size="3.0985">0</text>
	
		<text transform="matrix(-0.465 -0.8853 0.8853 -0.465 72.1494 1024.316)" fill="#8A4E21" font-family="'Arial-BoldMT'" font-size="3.0985">0</text>
	
		<text transform="matrix(-0.465 -0.8853 0.8853 -0.465 71.3482 1022.7909)" fill="#8A4E21" font-family="'Arial-BoldMT'" font-size="3.0985">0</text>
	
		<text transform="matrix(-0.2211 0.9753 -0.9753 -0.2211 191.7888 1013.8931)" fill="#8A4E21" font-family="'Arial-BoldMT'" font-size="3.099">6</text>
	
		<text transform="matrix(-0.2211 0.9753 -0.9753 -0.2211 191.4079 1015.5746)" fill="#8A4E21" font-family="'Arial-BoldMT'" font-size="3.099">9</text>
	
		<text transform="matrix(-0.2211 0.9753 -0.9753 -0.2211 191.027 1017.2546)" fill="#8A4E21" font-family="'Arial-BoldMT'" font-size="3.099">0</text>
	
		<text transform="matrix(-0.2211 0.9753 -0.9753 -0.2211 190.6442 1018.9348)" fill="#8A4E21" font-family="'Arial-BoldMT'" font-size="3.099">0</text>
	
		<text transform="matrix(0.1912 -0.9815 0.9815 0.1912 24.8313 1212.9061)" fill="#8A4E21" font-family="'Arial-BoldMT'" font-size="3.0978">7</text>
	
		<text transform="matrix(0.1912 -0.9815 0.9815 0.1912 25.1615 1211.2162)" fill="#8A4E21" font-family="'Arial-BoldMT'" font-size="3.0978">5</text>
	
		<text transform="matrix(0.1912 -0.9815 0.9815 0.1912 25.4903 1209.5229)" fill="#8A4E21" font-family="'Arial-BoldMT'" font-size="3.0978">0</text>
	
		<text transform="matrix(0.1912 -0.9815 0.9815 0.1912 25.8194 1207.8336)" fill="#8A4E21" font-family="'Arial-BoldMT'" font-size="3.0978">0</text>
	
		<text transform="matrix(-0.9422 0.3351 -0.3351 -0.9422 480.276 1060.9702)" fill="#8A4E21" font-family="'Arial-BoldMT'" font-size="3.0986">7</text>
	
		<text transform="matrix(-0.9422 0.3351 -0.3351 -0.9422 478.6533 1061.5482)" fill="#8A4E21" font-family="'Arial-BoldMT'" font-size="3.0986">7</text>
	
		<text transform="matrix(-0.9422 0.3351 -0.3351 -0.9422 477.0286 1062.1252)" fill="#8A4E21" font-family="'Arial-BoldMT'" font-size="3.0986">0</text>
	
		<text transform="matrix(-0.9422 0.3351 -0.3351 -0.9422 475.405 1062.7036)" fill="#8A4E21" font-family="'Arial-BoldMT'" font-size="3.0986">0</text>
	
		<text transform="matrix(-0.9916 0.1294 -0.1294 -0.9916 219.5656 1272.6368)" fill="#8A4E21" font-family="'Arial-BoldMT'" font-size="3.0985">7</text>
	
		<text transform="matrix(-0.9916 0.1294 -0.1294 -0.9916 217.8569 1272.8594)" fill="#8A4E21" font-family="'Arial-BoldMT'" font-size="3.0985">7</text>
	
		<text transform="matrix(-0.9916 0.1294 -0.1294 -0.9916 216.1473 1273.0822)" fill="#8A4E21" font-family="'Arial-BoldMT'" font-size="3.0985">0</text>
	
		<text transform="matrix(-0.9916 0.1294 -0.1294 -0.9916 214.4386 1273.3048)" fill="#8A4E21" font-family="'Arial-BoldMT'" font-size="3.0985">0</text>
</g>
<g id="TrailText">
	
		<text transform="matrix(0.7831 0.6219 -0.6219 0.7831 158.5389 1123.2343)" fill="#60371C" font-family="'Arial-BoldMT'" font-size="3.0985">C</text>
	
		<text transform="matrix(0.7831 0.6219 -0.6219 0.7831 160.2916 1124.6263)" fill="#60371C" font-family="'Arial-BoldMT'" font-size="3.0985">a</text>
	
		<text transform="matrix(0.7831 0.6219 -0.6219 0.7831 161.6407 1125.6979)" fill="#60371C" font-family="'Arial-BoldMT'" font-size="3.0985">n</text>
	
		<text transform="matrix(0.7831 0.6219 -0.6219 0.7831 163.1236 1126.8751)" fill="#60371C" font-family="'Arial-BoldMT'" font-size="3.0985">y</text>
	
		<text transform="matrix(0.7831 0.6219 -0.6219 0.7831 164.4727 1127.9465)" fill="#60371C" font-family="'Arial-BoldMT'" font-size="3.0985">o</text>
	
		<text transform="matrix(0.7831 0.6219 -0.6219 0.7831 165.9553 1129.1243)" fill="#60371C" font-family="'Arial-BoldMT'" font-size="3.0985">n</text>
	
		<text transform="matrix(0.9406 0.3395 -0.3395 0.9406 168.5448 1130.7954)" fill="#60371C" font-family="'Arial-BoldMT'" font-size="3.0985">C</text>
	
		<text transform="matrix(0.9406 0.3395 -0.3395 0.9406 170.6492 1131.5549)" fill="#60371C" font-family="'Arial-BoldMT'" font-size="3.0985">a</text>
	
		<text transform="matrix(0.9406 0.3395 -0.3395 0.9406 172.2704 1132.1403)" fill="#60371C" font-family="'Arial-BoldMT'" font-size="3.0985">m</text>
	
		<text transform="matrix(0.9406 0.3395 -0.3395 0.9406 174.8607 1133.0751)" fill="#60371C" font-family="'Arial-BoldMT'" font-size="3.0985">p</text>
	
		<text transform="matrix(0.9406 0.3395 -0.3395 0.9406 177.5053 1134.0297)" fill="#60371C" font-family="'Arial-BoldMT'" font-size="3.0985">W</text>
	
		<text transform="matrix(0.9406 0.3395 -0.3395 0.9406 180.0948 1134.9642)" fill="#60371C" font-family="'Arial-BoldMT'" font-size="3.0985">a</text>
	
		<text transform="matrix(0.9406 0.3395 -0.3395 0.9406 181.7151 1135.5492)" fill="#60371C" font-family="'Arial-BoldMT'" font-size="3.0985">y</text>
	
		<text transform="matrix(0.9984 5.574588e-002 -5.574588e-002 0.9984 121.0517 1046.0157)" fill="#60371C" font-family="'Arial-BoldMT'" font-size="3.0981">R</text>
	
		<text transform="matrix(0.9984 5.574228e-002 -5.574228e-002 0.9984 123.2869 1046.1395)" fill="#60371C" font-family="'Arial-BoldMT'" font-size="3.0981">e</text>
	
		<text transform="matrix(0.9984 5.573327e-002 -5.573327e-002 0.9984 125.009 1046.2369)" fill="#60371C" font-family="'Arial-BoldMT'" font-size="3.0981">d</text>
	
		<text transform="matrix(0.9984 5.574588e-002 -5.574588e-002 0.9984 127.7552 1046.389)" fill="#60371C" font-family="'Arial-BoldMT'" font-size="3.0981">H</text>
	
		<text transform="matrix(0.9962 8.741967e-002 -8.741967e-002 0.9962 129.9557 1046.512)" fill="#60371C" font-family="'Arial-BoldMT'" font-size="3.0987">o</text>
	
		<text transform="matrix(0.9934 0.1151 -0.1151 0.9934 131.8092 1046.6747)" fill="#60371C" font-family="'Arial-BoldMT'" font-size="3.099">u</text>
	
		<text transform="matrix(0.9934 0.1151 -0.1151 0.9934 133.6901 1046.8927)" fill="#60371C" font-family="'Arial-BoldMT'" font-size="3.099">s</text>
	
		<text transform="matrix(0.9934 0.1151 -0.1151 0.9934 135.4013 1047.0909)" fill="#60371C" font-family="'Arial-BoldMT'" font-size="3.099">e</text>
	
		<text transform="matrix(0.8089 0.5879 -0.5879 0.8089 316.6984 1131.0306)" fill="#60371C" font-family="'Arial-BoldMT'" font-size="3.0983">C</text>
	
		<text transform="matrix(0.7698 0.6383 -0.6383 0.7698 318.452 1132.3036)" fill="#60371C" font-family="'Arial-BoldMT'" font-size="3.0985">a</text>
	
		<text transform="matrix(0.7698 0.6383 -0.6383 0.7698 319.7806 1133.4045)" fill="#60371C" font-family="'Arial-BoldMT'" font-size="3.0985">n</text>
	
		<text transform="matrix(0.7698 0.6383 -0.6383 0.7698 321.2365 1134.6122)" fill="#60371C" font-family="'Arial-BoldMT'" font-size="3.0985">y</text>
	
		<text transform="matrix(0.7431 0.6692 -0.6692 0.7431 322.5274 1135.6829)" fill="#60371C" font-family="'Arial-BoldMT'" font-size="3.0985">o</text>
	
		<text transform="matrix(0.7067 0.7075 -0.7075 0.7067 323.8912 1136.91)" fill="#60371C" font-family="'Arial-BoldMT'" font-size="3.0985">n</text>
	
		<text transform="matrix(0.7067 0.7075 -0.7075 0.7067 326.2503 1139.2711)" fill="#60371C" font-family="'Arial-BoldMT'" font-size="3.0985">L</text>
	
		<text transform="matrix(0.7067 0.7075 -0.7075 0.7067 327.5894 1140.6104)" fill="#60371C" font-family="'Arial-BoldMT'" font-size="3.0985">o</text>
	
		<text transform="matrix(0.7067 0.7075 -0.7075 0.7067 328.9271 1141.9491)" fill="#60371C" font-family="'Arial-BoldMT'" font-size="3.0985">o</text>
	
		<text transform="matrix(0.7964 0.6048 -0.6048 0.7964 330.3777 1143.3868)" fill="#60371C" font-family="'Arial-BoldMT'" font-size="3.0987">m</text>
</g>
</svg>