<svg version="1.1" id="Layer_1" xmlns="http://www.w3.org/2000/svg" xmlns:xlink="http://www.w3.org/1999/xlink" x="0px" y="0px" viewBox="0.4 1461.1 612.1 304.1" enable-background="new 0.4 1461.1 612.1 304.1" width="2500px" height="1300px" xml:space="preserve">
    <g id="Minor">
        <path fill="none" stroke="#8A4E21" stroke-width="0.1" stroke-linecap="round" stroke-linejoin="round" stroke-miterlimit="10" d="
		M509.6,1505.5L509.6,1505.5l0.3-0.1l0.3-0.3l0.6-0.7l0.7-0.9l0.5-0.8l0.7-1.3l0.4-0.9l0.3-0.9l0.3-0.9l0.2-0.9l0.1-0.8v-0.7
		l-0.1-0.7l-0.2-0.9l-0.3-0.9l-0.3-0.9l-0.3-0.6l-0.3-0.6l-0.6-0.7l-0.7-0.7l-0.5-0.4l-0.4-0.3l-0.9-0.5l-0.8-0.3l-0.9-0.3l-0.9-0.2
		l-1-0.1h-0.9h-0.5l-0.8,0.1l-1.2,0.3l-0.7,0.3l-0.6,0.3l-0.6,0.3l-0.6,0.4l-0.7,0.6l-0.3,0.3l-0.3,0.3l-0.3,0.5l-0.2,0.3l-0.2,0.8
		l-0.1,0.8v0.9v0.8l0.2,0.9l0.2,0.7l0.2,0.6l0.4,0.9l0.5,0.7l0.5,0.7l0.3,0.5l0.7,0.8l0.9,0.9l0.8,0.7l0.6,0.4l0.6,0.4l0.9,0.5
		l1.3,0.6l0.8,0.3l1.4,0.4l0.8,0.2L509.6,1505.5 M180.9,1459.3l-0.5,0.3l-0.4,0.2l-1,0.4l-0.6,0.2l-0.9,0.3l-2,0.4l-0.9,0.2
		l-2.2,0.2l-4.2,0.3l-1.5,0.2l-1.4,0.2l-1.3,0.2l-1.4,0.3l-0.9,0.3l-1.4,0.5l-0.7,0.3l-1.7,0.8l-1.8,1l-1.7,1.1l-1.6,1.1l-1.5,1.1
		l-1.2,1l-2.1,1.7l-6.5,5.6l-1,0.9l-0.9,0.7l-1.5,0.9l-0.5,0.3l-1.6,0.7l-1.2,0.3h-0.3h-0.8l-0.7-0.1l-0.8-0.2l-1-0.4l-0.9-0.5
		l-0.8-0.6l-0.5-0.5l-1.2-1.3l-1.1-1.5l-3.4-5.1l-1.3-1.7l-1.3-1.6l-1.3-1.4l-1.3-1.2l-1.7-1.4l-1.1-0.9l-1.1-0.7l-2.7-1.6l-1.2-0.7
		 M198.3,1459.2l-0.5,1.1l-0.6,1.2l-0.8,1.4l-1.1,1.7l-1.7,2.3l-1.3,1.6l-1.9,2.3l-2.1,2.4l-1.9,2l-1.9,1.7l-1.1,1l-1.9,1.5
		l-1.3,0.9l-1.8,1.2l-1.8,1l-2.2,1.1l-4.5,2.1l-2.3,1.2l-1.8,1.1l-0.9,0.6l-0.9,0.7l-1.4,1.2l-1.6,1.6l-1.7,2l-3.4,4.3l-1.7,2
		l-1.1,1.1l-1.1,1l-1.1,0.9l-1.2,0.7l-1.2,0.6l-1.1,0.4l-1.7,0.5l-0.6,0.2l-1.5,0.2l-1.1,0.1h-1.1l-1.1-0.1l-1.5-0.2l-1.7-0.4
		l-0.8-0.2l-1.4-0.5l-0.7-0.2l-1.9-0.8l-1.3-0.6l-1.8-1l-2.5-1.5l-2.7-1.9l-2.9-2.2l-3-2.5l-1.9-1.7l-1-1l-1.8-1.9l-2-2.3l-4.6-5.3
		l-1.9-2l-1.5-1.5l-1.6-1.4l-1.6-1.3l-2.6-1.9l-3.5-2.6l-1.6-1.2l-1.1-0.9l-1-0.9l-0.9-0.9l-1.4-1.5l-1.2-1.5l-0.8-1.1l-0.4-0.7
		l-0.8-1.5l-0.5-1l-0.1-0.2 M212.4,1459.2l-0.2,0.5l-0.6,1.1l-0.5,0.7l-0.8,1.1l-1,1.2l-1.4,1.5l-1.4,1.3l-6.1,5.4l-2.3,2.2
		l-1.2,1.2l-2.2,2.4l-1.8,2.1l-0.9,1l-2.5,3.2l-1,1.5l-1.3,1.9l-1.9,3l-0.9,1.5l-1.5,2.6l-1.2,2.2l-2,3.8l-0.7,1.3l-0.8,1.3
		l-0.8,1.2l-0.9,1.2l-1.5,1.9l-1.7,1.9l-0.9,0.8l-1.4,1.3l-2,1.6l-2.1,1.6l-1.7,1.2l-1.8,1.2l-2.3,1.5l-1.9,1l-1.5,0.8l-1,0.4
		l-0.8,0.3l-1.1,0.3l-1,0.2l-0.8,0.1l-1.3,0.1h-1.4l-1.4-0.2l-0.5-0.1l-0.7-0.2l-1.4-0.4l-1.8-0.7l-1.4-0.6l-2.2-1.1l-1.9-1
		l-1.3-0.7l-3.7-2.2l-7.4-4.7l-4.3-2.6l-4.6-2.6l-7.9-4.2l-1.6-0.9l-2.6-1.6l-1.9-1.3l-1.2-0.9l-1-0.9l-1.9-1.7l-2.3-2.3l-8.5-9
		l-1.4-1.5l-1.7-2l-0.9-1l-1.8-2.3l-1.1-1.5l-1.2-1.9l-1.3-2.2l-0.7-1.3l-1.5-3.2l-1.5-3.4l-0.9-2.2 M235.6,1460.1
		c-3.1,5.1-6.6,10-11.5,13.6c-4.8,3.4-10.4,5.5-15,9.2s-6.9,9-7.5,14.9c-0.6,5.8-0.2,11.9-1.9,17.6c-1.7,5.6-5.2,10.9-9.5,14.8
		c-4.3,4-9.5,6.4-14.2,9.8c-4.7,3.4-8.8,8.3-14.9,9.2c-5.7,0.8-11.6-1.5-16.6-4c-5.4-2.7-10.3-6.1-14.5-10.4s-8-8.7-12.8-12.4
		c-4.7-3.7-10-6.1-15.3-8.7c-5.3-2.6-10.3-5.5-14.3-9.9c-4.2-4.6-7.6-9.9-11.1-15c-3.2-4.7-5.8-9.5-7.7-14.9
		c-1.6-4.7-3.2-9.3-5.3-13.9 M412.9,1645.2v-0.3l-0.3-1l-0.3-0.9l-0.7-1.5l-0.3-0.6l-0.6-1l-0.8-1l-0.5-0.6l-0.6-0.6l-0.8-0.7
		l-0.9-0.7l-0.6-0.4l-1.3-0.7l-0.8-0.4l-0.8-0.3l-0.8-0.3l-0.6-0.2l-0.9-0.3l-0.8-0.1h-0.7h-0.7l-0.8,0.2l-0.8,0.2l-0.5,0.2
		l-0.4,0.2l-0.5,0.3l-0.6,0.6l-0.3,0.5l-0.3,0.5l-0.3,0.6l-0.3,1l-0.1,0.6v0.8l0.1,0.9l0.2,0.6l0.3,1l0.3,0.6l0.3,0.6l0.3,0.6
		l0.5,0.7l0.8,0.8l0.8,0.6l0.8,0.6l0.9,0.5l0.9,0.4l0.8,0.3l0.5,0.2l0.9,0.2l0.7,0.1l0.6,0.1h1.2h0.8l0.7-0.1l1.3-0.3l0.7-0.2
		l0.8-0.3l0.8-0.3l0.8-0.4l0.7-0.4l0.7-0.5L412.9,1645.2 M246.6,1460.1c-3.8,4.7-7.7,9.3-12.2,13.3c-4.6,4-9.9,6.9-15.1,10
		c-5.1,3-9,6.9-10.4,12.8c-1.3,5.7-0.6,11.7-1.6,17.5s-3.6,10.9-6.7,15.8c-3.2,5.1-6.5,10-10,14.8c-2,2.7-3.9,5.3-5.9,8
		c-1.6,2.3-3.3,4.6-5.5,6.4c-4.9,3.9-11.2,3.1-16.8,1.9c-6.2-1.4-12.3-3.5-18.4-5.4c-5.2-1.6-10.6-3.1-15-6.4
		c-4.8-3.6-7.5-8.8-10.9-13.6c-3.5-4.8-7.8-8.8-12.8-12.1c-4.9-3.1-10.2-5.6-14.9-9.1c-4.7-3.6-8.2-8.2-11.4-13.1
		c-3.3-5.1-6.7-10.2-9.6-15.6c-2.8-5.2-4.3-10.7-6.1-16.3c-1-3.1-2.2-6.1-3.6-9 M258.1,1460.3c-4.6,4-8.8,8.3-13.5,12.1
		c-4.3,3.6-8.8,6.8-13.5,9.9c-4.9,3.2-10.9,6.4-14,11.6c-3.1,5.1-3,11.2-3.8,17c-0.9,6-2.8,11.4-5.6,16.8
		c-2.7,5.3-5.7,10.5-8.2,15.9s-4.6,10.9-7.2,16.2c-2.7,5.5-6.3,9.8-12.8,10.2c-5.9,0.4-12-1.6-17.7-2.9c-5.7-1.3-11.4-2.2-17.1-2.7
		c-5.8-0.6-11.7-1-17-3.6c-5.4-2.6-9.3-7-12.2-12.2c-2.9-5.2-5.4-10.5-9.5-15c-4.1-4.5-9.3-7.5-14.2-11.1
		c-4.8-3.5-8.8-7.6-12.2-12.4c-3.6-5.2-6.6-10.8-9.7-16.3c-2.8-4.8-5.5-9.5-7.2-14.8c-1.8-5.7-3-11.5-5.4-17
		c-0.3-0.6-0.6-1.2-0.8-1.8 M269.6,1460.3c-1.6,0.9-2.8,2-4.3,2.8c-11.2,9.3-22,16.2-34,24.7c-3.9,3.1-7.3,6.2-9.3,10.8
		c-3.5,8.5-4.6,17.8-8.1,26.3c-1.5,3.9-3.9,7-5.8,10.8c-1.2,2.3-1.5,4.3-2.7,6.6c-1.5,4.3-2.3,8.5-3.1,12.8
		c-0.8,6.6,0.8,13.1,0,19.7c-3.1,4.6-8.9,3.9-13.5,3.5c-7.7-0.8-15.1-2.7-22.4-5c-0.8,0-1.2,0-1.9,0c-9.7-2.7-18.9,0-28.2,0.8
		c-5.8,0.4-11.2-1.5-16.2-4.6c-7.7-5.4-11.6-13.1-14.7-21.6c-1.5-3.5-3.1-6.6-5.4-9.7c-3.9-4.6-8.5-8.1-13.1-12
		c-2.7-2.3-5-5.4-7.3-8.1c-0.4-0.8-1.2-1.9-1.9-2.7c-7-11.6-13.5-22-17.8-34.4c-1.5-4.6-2.7-8.9-4.3-13.5c-0.8-2.3-0.8-5-2.6-7.1
		 M294,1460.1c-7.9,2.9-14.5,7.5-21.4,12.5c-1.5,0.8-3.1,1.9-4.6,2.7c-0.8,0.8-1.5,1.5-2.7,2.3c-3.9,2.3-7,4.6-10.8,6.6
		c-4.6,2.3-8.9,4.6-13.1,7.3c-3.5,2.7-6.2,5.4-8.5,9.3c-1.9,3.5-3.9,7-5.4,10.8c-3.5,10-8.1,19.3-11.6,29.4
		c-2.3,6.6-2.7,13.9,0,20.5c1.5,3.5,3.5,6.6,5.8,9.3c3.5,3.5,7,6.6,10.8,9.7c2.7,2.3,5.8,5.4,5,9.3c-0.4,1.5-1.5,2.7-2.7,3.1
		c-14.3,5-28.2-2.7-42.9-5c-8.9-1.5-17.8-3.5-26.3-0.4c-5.4,2.3-10,5.8-15.1,9.3c-11.2,7.3-25.5,7-36.3,0
		c-10.4-9.7-18.2-21.6-21.6-35.9c-1.5-7.7-1.5-15.8-6.6-22c-4.6-5.4-10-9.7-13.9-15.8c-6.6-12-11.2-24-17-35.9
		c-3.1-7-3.9-14.3-5.8-21.6c-0.8-1.5-1.5-3.5-2.2-5.1 M311.2,1460.1c-5.6,1-11.2,2.7-16.4,5.1c-5.4,2.5-10.6,5.7-15.6,9
		c-5,3.4-9.8,7-15,10c-5.1,3-10.6,5.3-15.6,8.3c-5.1,3-9.2,7.1-12.3,12.1c-3,4.7-5.1,9.9-7.2,15c-2.4,5.8-4.9,11.6-7,17.5
		c-1.9,5.7-3.1,11.7-1.9,17.7c1.2,5.7,4.6,10.6,8.7,14.6c4.3,4.1,9.3,7.5,13.7,11.6c3.4,3.2,9.5,9.8,5.6,14.7
		c-3.6,4.5-11.4,4.1-16.5,4.1c-5.8,0-11.4-0.6-17-2c-5.7-1.5-11.3-3.4-17.1-4.6c-5.8-1.2-11.9-2.2-17.7-0.7
		c-5.9,1.5-9.7,6-13.9,10.2c-4.3,4.2-9.2,7.3-14.7,9.4c-5.4,2.2-11.2,3.9-17.1,3.7c-5.7-0.2-11.5-2.2-16.8-4.2
		c-5.5-2.2-10.3-5.4-13.8-10.4s-6.2-10.6-9-16.1c-2.6-5.2-5.1-10.5-6.6-16.2c-1.6-5.7-1.6-11.4-2.2-17.3c-0.7-6.1-3.4-10.7-7.5-15
		c-4.3-4.4-8.3-8.7-11.1-14.3c-2.6-5.4-4.6-11.1-6.8-16.7c-2.2-5.4-4.9-10.6-7.2-16c-2.6-5.8-3.8-11.7-5.1-17.8
		c-0.8-3.9-1.9-8-3.7-11.6 M332.7,1460.1c-9.5,1.7-18.7,2.9-28,5.6c-5.8,1.5-10.4,4.3-15.5,7.3c-6.2,3.9-11.6,8.1-17.8,12.4
		c-6.2,3.9-12.4,6.6-18.9,10c-5.8,3.5-10.4,7.3-13.5,13.1c-7,14.7-17.8,30.1-12.4,46.8c1.2,5,4.6,8.9,8.5,12.4
		c8.9,7.3,18.2,13.9,23.6,24c1.2,2.7,1.5,5.8,0,8.5c-2.7,3.9-7.7,3.5-11.6,3.9c-9.7,0-19.3,0-29.4-1.2c-5.8-0.8-10.8-3.1-16.6-4.6
		c-7.7-1.9-15.8-1.9-21.6,3.9c-0.4,0.8-1.2,1.2-1.9,1.9c-0.4,0.4-0.4,1.2-0.8,1.5c-2.7,2.7-4.6,5.8-7.7,8.1
		c-10.8,7.7-22.8,12.8-35.5,12.8c-8.1,0.4-15.1-3.9-22.4-7c-2.7-1.2-5-2.7-7.3-4.6c-2.7-2.3-5-5.4-6.6-8.5c-5-11.2-9.7-22.4-13.9-34
		c-2.3-7-2.3-13.9-2.7-21.3c-0.4-4.3-2.3-8.1-5-11.2c-3.5-3.1-6.6-6.2-9.3-9.7c-1.5-2.3-2.7-4.6-3.9-7.3c-2.3-7-4.3-14.3-7.3-21.3
		c-1.9-4.6-3.9-9.7-5.8-14.3c-3.1-6.6-3.9-13.5-5.4-20.9c-0.4-2.3-1.5-4.3-2.4-6.3 M589.4,1674.7L589.4,1674.7l0.1-0.3l-0.2-0.4
		l-0.4-0.5l-0.6-0.5l-1.2-0.8l-2.4-1.5l-0.8-0.4l-0.5-0.2l-0.4-0.1l-0.8-0.1h-1.3h-0.3l-0.3,0.1l-0.2,0.1l-0.2,0.2l-0.2,0.3
		l-0.2,0.3l-0.3,0.9l-0.2,0.7v0.4v0.3l0.2,0.4l0.4,0.5l0.8,0.7l2,1.5l0.8,0.5l0.6,0.2l0.5,0.1h0.5l0.5-0.1l1.2-0.4l1-0.5l0.9-0.5
		l0.7-0.5L589.4,1674.7L589.4,1674.7 M348.9,1460.1c-12.6,2.1-24.2,4.4-37.3,7.5c-15.8,3.1-26.3,13.5-39.4,22.4
		c-5.4,3.5-10.8,5.4-16.2,8.5c-4.3,2.3-7.7,5.4-10.8,9.3c-6.2,8.1-9.7,17-13.1,26.3c-1.5,4.6-2.3,9.3-1.9,13.9c0.8,4.3,1.9,8.5,5,12
		c6.2,7.7,13.5,12.8,20.9,18.9c4.2,4.3,8.1,8.5,10.8,13.9c0.4,0.8,0.8,1.9,1.2,2.7c1.5,3.9,3.1,9.3-1.2,11.6
		c-7.3,4.3-15.8,1.2-24,0.8c-9.3-0.8-18.5,0.4-27.8-0.8c-5-0.8-9.3-2.3-14.3-3.1c-2.7-0.4-5.8-0.4-8.5,0.8c-0.8,0.4-1.9,0.8-2.7,1.2
		c-7.3,5-11.2,12.4-18.9,16.6c-10,5-20.5,9.7-31.3,12.8c-12,1.2-22.8-5-33.6-10c-3.9-1.9-7-4.6-9.7-8.1
		c-7.3-10.7-8.9-22.7-13.5-34.3c-2.7-6.6-5-13.1-6.2-20.1c-0.4-4.3-0.8-8.5-1.2-12.8c-0.4-3.1-2.3-5.8-4.3-8.1
		c-2.7-3.1-5.4-5.4-8.1-8.5c-2.3-3.1-3.9-6.6-5-10.4c-2.7-10-4.6-20.1-9.3-29.4c-0.4-0.8,0-1.2-0.4-1.9c-1.9-3.1-2.7-6.2-3.9-9.7
		c-1.9-7.3-2.3-14.7-5.6-21.8 M379.5,1460.1c-5.8,1.4-12,0.5-17.8,0 M395.7,1460.1c-5.1,4.4-11.3,6.3-17.5,6.7
		c-8.1,0-16.2-2.3-24.7-1.5c-2.3,0.4-4.6,0.4-7,0.8c-10.4,2.3-19.7,3.5-30.1,5.8c-7,1.9-13.1,4.2-19.3,8.5c-5.4,3.9-10,7.7-15.1,12
		c-5.8,4.6-12,7.7-18.5,11.6c-1.9,1.2-3.1,2.3-5,3.5c-8.5,5.8-12,14.7-15.8,23.6c-1.2,3.1-2.3,6.2-2.7,9.3c0,2.7-0.4,5.4,0,8.1
		c1.5,8.1,7.3,14.3,14.3,18.9c0.8,0.8,1.5,1.5,2.3,2.3c6.6,3.9,13.1,7.3,17,13.9c5,8.1,8.1,16.2,12,24.3c1.2,3.1,2.7,6.6,0.4,9.3
		c-5,5.4-12.4,3.1-18.5,1.9c-11.6-1.5-22.4-5-34-3.9c-3.5,0.8-7,1.5-10.4,2.7c-6.6,2.3-13.9,1.9-20.5,3.9c-6.6,2.3-12.4,5.8-18.5,10
		c-3.1,1.9-6.2,3.1-9.3,4.6c-9.3,3.9-18.2,7-27.4,11.2c-4.3,1.9-8.9,2.7-13.5,2.3c-2.7-0.4-5-1.2-7.7-1.9c-8.9-4.3-17.4-8.5-26.3-12
		c-1.5-0.8-3.5-1.9-5-3.1c-1.2-0.8-1.9-2.3-2.7-3.1c-5-6.6-8.5-13.5-10.8-20.9c-2.3-7.3-3.5-15.1-5.8-22.4c-2.3-6.2-5-12.8-7.3-18.9
		c-1.9-5.4-2.3-11.2-4.2-16.6c-0.8-1.5-1.2-3.1-2.3-4.6c-0.8-0.8-1.2-1.5-1.9-2.7c-4.6-5.4-8.9-11.2-10-18.5
		c-1.2-8.5-1.5-16.2-3.9-24.3c-1.9-5.4-4.3-10.8-6.2-16.2c-1.5-5.4-2.3-10.8-3.5-16.6c-0.4-2.7-0.8-5.4-2.6-7.8 M600.8,1695.4
		l0.7-5.4l0.3-3.6l0.1-3.2v-1l-0.1-1.9l-0.2-1.6l-0.2-1.1l-0.5-2.2l-0.3-0.9l-0.5-1l-0.5-0.9l-0.3-0.4l-1-1.4l-0.8-0.9l-1.4-1.5
		l-1.4-1.2l-1.3-1l-2.8-2l-5.5-3.7l-6.6-4.6l-1.5-0.9l-1.5-0.8l-1.2-0.5l-1.3-0.4l-0.7-0.1h-0.7h-0.7l-1.5,0.4l-0.7,0.3l-1,0.7
		l-0.6,0.6l-0.7,0.9l-0.5,0.8l-0.3,0.5l-0.5,1.2l-0.3,0.8l-0.4,1.5l-0.2,1.6l-0.1,1.5v0.6l0.1,1.7l0.2,1.5l0.3,1.5l0.6,1.9l0.4,1
		l0.5,1.2l0.5,1.1l0.7,1.3l0.7,1.2l1,1.6l1.3,1.7l1.7,2l1,1l1,1l2,1.8l1.3,1.1l1.9,1.5l1.1,0.8l1.2,0.7l1.4,0.8l1,0.5l1,0.5l1.8,0.7
		l1.9,0.7l2.3,0.7l2.4,0.6l1.2,0.2l2.3,0.4l1.2,0.1l1.5,0.1h0.8L600.8,1695.4L600.8,1695.4L600.8,1695.4 M107.3,1765.9
		c-5.6-2.9-11.4-1.3-16.9,0 M120.6,1765.8c-2.3-5.2-9.5-7.3-14.6-8c-5.9-0.8-11.5-0.1-17.3,1.2c-6.2,1.4-12.3,2.6-18.6,3.6
		c-4.5,0.7-8.8,1.9-13.2,3.2 M115.1,1765.8c-4.5-5.1-11.4-5.9-18-5.1c-8.9,1.2-17.4,4.6-26.1,5.2 M164.4,1765.9
		c-0.9-0.5-1.6-0.9-2.4-1.7c-0.4-0.8-1.2-1.2-1.9-1.9c-3.5-5-6.2-9.7-10.8-13.9c-2.7-2.3-5.8-3.9-8.9-4.6
		c-11.6-4.3-22.8-7.3-34.4-10.8c-6.2-1.9-12.4-4.6-18.9-3.5c-2.7,0.4-5.4,1.2-7.7,2.3c-11.6,4.6-22.8,8.9-34.4,12.8
		c-7.7,2.3-16.2,2.3-24-0.8c-0.4-0.4-0.8-0.8-1.2-1.2c-6.6-3.9-10-10.8-12.4-17.8c-3.1-8.1-5-16.6-3.5-25.5c1.2-6.2,3.9-11.2,7-16.6
		c2.7-5,5-10,4.2-15.8c-1.2-7.3-8.5-10-14.8-11.1 M375.4,1765.8c-4.7-4-10.1-6.7-15.5-9.4c-2.3-1.5-4.6-2.7-7-4.3
		c-6.2-3.9-10.4-8.5-16.6-12.4c-5.8-3.5-11.6-6.2-17.4-9.7c-0.8-0.8-1.5-1.5-2.7-1.9c-0.4-0.4-0.8-0.8-1.2-1.2
		c-0.4-0.4-1.2-0.4-1.5-0.8c-6.6-5.4-10.8-13.1-18.9-16.2c-8.9-3.1-17.4,1.5-25.9,4.6c-8.5,2.7-16.6,3.9-24.3,8.9
		c-2.7,1.9-4.6,4.3-7,7c-4.3,5.8-7,12.4-13.5,15.8c-0.8,0.4-1.9,0.8-2.7,1.2c-1.5,0.8-3.1,0.8-4.6,1.2c-7.3,0.4-15.1,1.2-21.6,4.6
		c-4.6,2.7-7.7,6.6-12,10c-1.2,0.8-2.3,1.5-3.6,2.5 M408.8,1765.9c-6.3-6-15.1-7.1-22.5-10.6c-1.2-0.4-2.3-0.4-3.5-0.8
		c-2.7-1.2-5.4-1.9-8.1-3.1c-1.2-0.4-1.9-1.2-3.1-1.5c-0.8-0.4-1.2,0-1.9-0.4c-7-3.5-13.5-7.3-19.7-12.8
		c-6.2-4.6-12.4-8.5-18.9-12.8c-2.7-1.9-5-4.3-7.7-6.2c-5-4.6-7.7-10.8-12.4-15.8c-0.8-0.4-1.2-1.2-1.9-1.9
		c-10.4-10.8-26.7-8.1-38.6-1.5c-7.7,2.7-15.5,5.4-23.2,8.5c-3.9,1.5-7,3.5-10.4,6.2c-7.3,5.8-11.2,13.1-17.8,19.3
		c-1.9,1.5-3.9,3.1-6.2,3.9c-8.9,3.1-18.5,3.9-27.4,7c-2.3,0.8-4.3,1.9-6.6,2.3c-2.3,0-4.6,0.4-6.6-0.4c-5-2.7-9.3-5.4-13.9-8.9
		c-2.3-1.5-5-1.9-7.3-3.1c-8.9-2.7-17.8-2.7-27-5c-10-2.3-18.9-5.8-27.8-10c-4.6-1.9-10-2.3-14.7-0.8c-6.2,2.3-11.2,5.8-17,8.9
		c-11.2,5.8-25.5,12.7-36.7,3.1c-10.8-9.3-12.8-25.1-8.1-38.3c7.3-11.6,12.4-26.7,5.8-39.8c-0.4-0.4-0.8-0.4-1.2-0.8
		c-2.3-3.9-6.2-6.2-10.4-7.3c-0.4,0-0.4-0.8-0.8-0.8c-3.5-1.2-7.3-2.3-9.3-5.4c-3.9-7,1.2-13.9,3.9-20.5c1.9-5.8,2.3-12.8-2.3-17.4
		c-0.8-0.4-1.2-1.2-1.9-1.9c-0.7-0.7-1.9-1.2-2.8-2 M612.6,1532.2c-1.7-0.7-2.5-1.9-3.7-2.7c-2.3-2.3-4.3-4.3-6.6-6.6
		c-0.8-0.8-1.2-1.5-1.9-2.3c-3.1-2.7-5.8-5.4-9.3-7.3c-3.9-2.7-7-5.8-9.7-9.3c-3.1-8.1-2.7-17.8-9.3-24c-1.9-1.9-4.6-2.7-7.3-3.5
		c-7-1.5-13.9-0.8-20.5-3.1c-23.2-8.5-48.3-16.2-72.6-7.7c-10.8,3.5-15.5,14.3-19.3,24.3c-3.1,8.1-1.5,17-1.9,25.5
		c-0.4,3.5-1.5,7-3.9,10c-1.5,1.9-3.5,3.5-5.4,5c-9.7,6.6-20.1,9.7-30.5,13.5c-1.9,0.8-3.9,1.9-5.8,3.1c-3.9,1.5-7.7,3.5-9.7,7.7
		c-2.7,6.2-0.8,13.1-1.2,19.7c-0.4,2.7-1.2,5-2.7,7c-2.7,3.1-6.2,5.4-8.9,8.5c-2.7,3.5-3.5,7.3-2.7,11.6c1.2,5.8,3.9,10.8,3.1,16.6
		c-1.2,7-5,13.1-4.3,20.5c1.2,7.7,6.6,13.9,12.4,19.3c3.9,3.9,6.2,8.9,6.2,14.3c-0.4,5-2.3,9.7-3.1,14.7c-1.2,6.2-0.8,12.4,0.8,18.5
		c1.5,5.4,3.5,10.8,7.3,15.1c0.8,0.4,1.2,1.2,1.9,1.9c11.2,11.2,27,4.6,41.3,7c6.6,1.2,12,3.9,17.4,7.3c7,5,12,10.4,17,17.4
		c2.3,3.5,3.5,7.3,4.4,11.3 M612.5,1534.9c-6.9-4.6-12.2-10.9-18.7-15.9c-5.6-4.3-12.6-7.9-15.8-14.5c-3.1-6.2-1.6-13.7-5.5-19.5
		c-4.2-6.2-11.9-6.7-18.7-7.3c-4.1-0.3-8.2-1.1-12.1-2.3c-4.1-1.2-7.9-3-11.9-4.5c-8.1-3.1-16.3-5-25-5.6c-8.3-0.7-17-0.7-25.3,1
		c-7.5,1.6-13.7,5.5-17.8,12.1c-4.1,6.7-6.7,15-6.6,22.8c0.1,7.9,3.4,15.7-1.6,22.9c-4.2,6.1-11.4,10.2-18,13.2
		c-7.7,3.5-16,5.8-23.7,9.3c-6.1,2.7-12.4,6.4-13.8,13.5c-1.4,7.6,3.6,16.5-0.8,23.6c-1.9,3.2-5.1,5.3-7.7,7.8
		c-2.9,2.8-4.5,6.2-4.3,10.3c0.2,4.3,2.1,8.2,2.4,12.5c0.3,4.2-1.2,7.8-2.8,11.6c-1.5,3.4-3,6.8-3.1,10.6c-0.1,3.7,1.2,7.3,3.2,10.4
		c3.7,6,9.9,9.9,13.9,15.7c2.1,3.1,3.1,6.4,2.5,10.1c-0.5,3.8-2.1,7.4-3,11.1c-2,8.2-1.3,17,1.8,24.8c2.7,7,7.7,12.7,15.1,14.7
		c8.1,2.2,16.5,0,24.7,0.3c17,0.5,31.6,9.4,43.5,21c6.2,6,10.6,12.7,12.4,21.3 M612.5,1537.9c-4.4-3.4-9-6.8-13.3-10.7
		c-6.2-5-12.4-8.9-18.9-13.5c-2.3-1.9-4.6-3.9-5.8-6.6c-0.4-0.8-0.8-1.9-1.2-2.7c-1.2-5-0.8-10-2.3-14.7c-1.5-4.3-5-8.1-10-8.5
		c-13.9-0.4-26.3-6.6-39.4-10.4c-14.3-4.6-29.8-5.8-44-1.2c-6.6,2.3-12,7.3-14.7,13.9c-0.4,0.8-0.8,1.9-1.2,2.7
		c-2.7,8.5-1.5,17.4,0,26.3c0.8,5.4-0.4,10.4-3.9,14.7c-10.8,12-27,14.7-41.3,20.1c-1.9,0.8-3.9,1.5-5.8,2.7
		c-0.8,0.8-1.5,1.2-2.7,1.9c-2.3,1.5-4.3,3.5-5.4,5.8c-2.3,5-1.2,10.4,0.8,15.5c2.3,5.4,4.6,12.4,0,17c-3.1,2.7-7.3,4.3-10,7.3
		c-2.3,3.1-1.9,7-0.4,10.4c0.4,0.8,0.8,1.5,1.2,2.7c0,0.4,0.4,0.8,0.8,1.2c1.5,3.9,1.2,8.5-1.5,11.6c-3.9,3.9-7.3,7.7-8.1,13.1
		c-0.8,9.3,7.3,15.5,14.7,20.5c3.5,2.3,6.2,5,7.7,8.9c1.2,2.7,0.8,6.2-0.4,8.9c-3.5,7.3-6.6,14.7-5,22.8c1.5,9.3,7.3,17.8,17,18.9
		c13.1,1.9,25.9-1.2,38.3,3.5c15.1,5.4,28.6,13.5,39.8,25.5c5.4,5.8,8.9,12.4,10.2,20.2 M612.9,1647.8c-1.3-2.2-2.9-3.7-4.4-5.7
		c-1.2-1.9-1.9-4.3-2.7-6.6c-1.5-7.3,1.5-14.3,4.6-20.9c3.1-6.2,1.2-13.1-1.9-19.3c-2.3-4.3-3.1-8.9-2.3-13.9
		c0.8-4.3,2.7-8.1,4.3-12.4c1.9-5.4,2.3-12.4-3.5-16.2c-3.9-2.7-7.7-4.6-11.6-7.7c-4.6-3.9-7.7-8.1-12.8-11.6
		c-5-3.1-9.7-5.8-15.1-8.5c-3.5-1.5-7-3.5-9.7-6.2c-7.7-8.5-15.1-17-22.8-25.9c-2.3-2.7-4.6-5-7.3-7.3c-10-8.9-24-12-36.3-7.3
		c-3.5,1.5-6.6,3.5-8.9,6.6c-1.5,1.9-2.3,4.6-2.7,7c-0.4,7,2.3,13.5,5,20.1c2.3,6.6,3.9,14.3-1.5,19.7c-0.8,0.4-1.2,1.2-1.9,1.9
		c-3.5,3.1-7.7,4.3-12,6.6c-1.9,1.2-3.9,2.3-5.8,3.5c-1.2,0.4-1.9,1.2-2.7,1.9c-4.6,2.7-8.9,4.6-13.9,6.2
		c-8.5,2.7-18.5,1.9-25.5,8.1c-1.5,1.2-1.9,3.5-1.9,5c0.4,3.9,2.7,7,5.8,8.9c11.6,7.3,24,10,37.5,13.1c3.1,0.8,6.6,1.2,9.7,1.5
		c7.7,1.2,15.5,1.9,22.8,4.3c1.2,0.4,1.9,1.5,3.1,2.3c0.4,0.8,1.2,1.2,1.9,1.9c3.1,4.6,2.7,9.7,1.9,15.1c-0.8,4.6-3.1,8.5-4.6,12.8
		c-0.4,0.4-0.8,0.8-1.2,1.2c-1.2,2.7-2.3,4.6-4.3,7c-1.5,1.5-2.7,3.1-4.3,5c-4.3,4.3-8.1,8.1-12,12.8c-0.4,0.8-1.2,1.9-1.9,2.7
		c-3.5,5.4-6.2,10.4-7.7,16.6c-1.2,5.4-1.5,10.4,0.4,15.8c0.8,2.7,1.9,5,3.5,7.3c10.8,13.5,25.9,20.1,41,26.3
		c4.6,1.9,8.5,4.6,11.6,8.5c8.5,12,14.7,24.7,19.7,38.1 M612.9,1651.4c-5.2-4.7-10.2-10.4-10.7-17.7c-0.5-7.9,3.2-15.5,5.2-22.9
		c0.6-2.2,1-3.6,0.5-5.9c-0.4-2-1-3.9-1.6-5.9c-1.2-3.8-2.7-7.7-3.2-11.7c-0.5-4.2,0.1-8.5,0.8-12.6c0.6-3.5,1.2-7,0.5-10.5
		c-0.8-3.6-2.9-5.6-5.7-7.7c-3.1-2.3-6-4.7-8.7-7.5c-2.7-2.9-4.8-6.1-7.6-9c-2.8-2.9-5.8-5.4-9.2-7.5c-3.4-2-7-3.8-10.5-5.5
		c-3.6-1.7-6.7-3.8-9.9-6.1c-6-4.1-11.8-8.5-16.4-14.1c-4.5-5.5-7.3-12.1-11.7-17.7c-4.7-5.9-11.1-9.6-18.7-10
		c-6.7-0.4-14.4,1.2-18.3,7.3c-4.1,6.5-1.5,14.5,1.3,20.9c3,6.7,7.5,14.1,6.3,21.7c-1.2,8.2-10.3,11-16.8,13.3
		c-3.7,1.3-8.4,2.6-11.3,5.3c-1.4,1.3-3.6,2.2-5.3,3.2c-1.8,1.1-3.6,2.1-5.5,3c-3.8,1.8-7.7,3.5-11.8,4.3c-3.9,0.7-7.8,0.9-11.6,2.2
		c-2.7,1-4.6,2.9-3.6,6c0.8,2.5,3.5,3.7,5.8,4.6c7.1,2.9,14.4,4.7,21.9,6.2c8.3,1.7,16.7,3.8,25.2,3.4c4.3-0.2,8.5-0.8,12.8-1.5
		c3.8-0.6,7.6-1.4,11.4-0.4c1.7,0.4,3.3,1.1,4.6,2.1c1.3,1,2.8,2.5,3.6,3.9c1.7,3.1,2.9,6.5,3.5,10c1.2,6.9,0.3,14-2,20.6
		c-2.5,7-6.5,13.1-11.6,18.4c-5.5,5.8-11.8,10.7-17.5,16.2c-10.9,10.7-16.8,27.9-8,41.6c6.9,10.8,19,16.1,30.4,20.5
		c6,2.3,12.6,4.1,17.2,8.8c2.7,2.8,4.4,6.2,6.1,9.6c2,3.9,4,7.8,5.9,11.7c3.8,7.8,7.5,15.6,10.9,23.6 M613,1753.5
		c-0.5,4.1-1.1,8.3-1.8,12.4 M612.9,1717.2c-2.2,4.7-0.8,10.2,0,15.1 M612.9,1699.6c-4.4-1.4-11.3-3.2-13.5,2.4
		c-3.1,7.8,0.5,17.3,3,24.8c2,6,4.5,12.1,4.7,18.5c0.2,6.9-0.5,13.8-1.5,20.6 M612.9,1687.4c-1.4-1.2-2.2-3.7-2.9-5.4
		c-0.8-1.9-1.5-3.7-2.4-5.5c-1.7-3.7-3.8-6.8-6.8-9.5c-2.8-2.5-6-4.6-9.1-6.6c-3.1-2-5.8-4.4-8.1-7.2c-2.2-2.8-4-5.8-5.8-8.9
		c-1.6-2.7-3.4-7.2-7.1-7.5c-3.1-0.3-6.4,3.7-8.1,5.9c-2.1,2.7-3.7,5.8-5.1,8.9c-1.6,3.6-2.8,7.2-2.8,11.2c0,3.8,0.9,7.7,2.4,11.2
		c2.5,5.9,6.8,10.9,11.3,15.3c4.6,4.6,10.1,8.8,13.9,14.2c4.8,7,8,14.8,11.2,22.6c2.6,6.3,5,12.7,6.3,19.4
		c1.3,6.8,0.8,13.6-0.2,20.4 M612.9,1670.5c-4-6.8-11-10.7-17.5-15.3c-2.7-1.9-4.6-3.9-6.6-6.6c-1.9-2.3-2.3-4.6-2.7-7.3
		c-2.3-10,1.2-19.3,2.7-29.4c1.9-9.7-1.9-18.5-8.9-25.1c-3.5-2.7-7.7-5-12.4-4.3c-5.4,0.8-7.3,5.4-8.5,10.4
		c-1.2,7.7-0.8,15.1-1.9,22.8c-1.2,7.3-3.5,14.3-6.6,20.9c-5,9.7-13.1,15.8-18.9,25.1c-1.2,2.7-2.7,5-2.3,8.1
		c1.5,10.4,12,14.3,20.1,19.3c4.6,3.1,8.5,6.2,12,10c3.5,4.3,6.6,8.1,8.1,13.1c4.6,12,10,23.2,14.7,35.2c1.9,5.8,2.7,12,2.4,18.3
		 M612.9,1665.7c-4.9-5.7-11.6-9.2-17.1-14.3c-5.8-5.4-7.7-12.6-6.9-20.4c0.8-8.3,4.6-16.2,4.3-24.6c-0.3-7.6-3.3-15.8-8.2-21.7
		c-5.1-6.1-12.6-10.2-19-14.8c-2.3-1.6-5.4-4.6-8.3-4.7c-3.4-0.1-3.9,5.3-4.2,7.8c-1.1,8.7-1.4,17.4-1.7,26.2
		c-0.3,8.6-0.8,17.3-3.3,25.7c-2.3,7.7-6.4,14.4-12.2,20c-5.7,5.4-12.6,9.4-18.6,14.4c-5.3,4.4-10.2,11-6.6,18
		c3.4,6.6,11.8,9.6,18.4,11.9c7.5,2.6,15.4,4.5,21.8,9.4c6.3,4.8,10,11.5,12.4,18.9c1.3,3.9,2.2,8,3.6,11.9c1.4,3.9,3,7.8,4.8,11.5
		c3.7,7.5,6.8,15.6,7.8,24c0,0.3,0.1,0.7,0.1,1 M612.9,1661.9c-2.9-2.8-6.1-5.2-9.2-7.6c-3-2.3-6.1-4.8-8.2-8
		c-4-6.1-4.2-13.9-2.5-20.9c1-4.1,2.4-8.2,3.2-12.3c0.8-4.2,0.9-8.2,0-12.4c-0.8-4-2-8.1-3.5-11.9c-1.4-3.4-3-7.4-5.5-10.2
		c-2.6-2.9-6-5.1-9-7.6c-2.9-2.4-5.4-5.3-7.3-8.5c-1-1.6-1.9-3.3-2.5-5.1c-0.6-1.6-1.2-2.9-1.8-4.4c-1.2-3.4-3.3-6.8-6.1-9.1
		c-4.6-3.6-11.7-2.8-14.4,2.6c-3.6,7.3-2,15.9-1.6,23.6c0.5,8.5,0.8,17.1,0.6,25.7c-0.2,8.3-0.7,17-2.8,25
		c-1.7,6.5-4.8,12.7-9.4,17.6c-3.9,4.3-8.8,7.3-13.7,10.4c-8.2,5.2-18.9,11.6-20,22.3c-1.5,13.8,12.6,20.7,23.7,24
		c6.1,1.8,12.7,2.7,18.4,5.6c6.1,3.2,11.2,8.5,13.3,15.2c1.2,4,2,8.1,3.1,12.1c1.2,4.2,3,8.1,4.8,12.1c3.4,7.4,7.1,14.8,9.5,22.6
		c0.3,1,0.6,2,0.9,3.1 M612.9,1658.2c-5.5-5.1-12.5-9.2-15.6-16.3c-3.2-7.4-1.3-15.2,0.8-22.6c1.2-4.1,2.3-8.2,2.2-12.4
		c-0.1-4.3-1.3-8.3-2.2-12.5c-1.8-7.7-3.1-15.8-8.5-22c-2.4-2.7-5.3-5.1-7.7-7.8c-2.5-2.7-4.3-5.9-6-9.2c-1.6-3.2-2.8-6.6-4.8-9.7
		c-1.9-2.9-4.3-5.4-7.1-7.4c-5.7-4.1-13.7-7.2-20.7-5.2c-6.8,1.9-9.5,8.3-10,14.8c-0.6,8.5,1.7,17,3.1,25.3
		c1.5,8.7,1.8,17.4,1.2,26.3c-0.5,8.3-1.4,16.9-4.6,24.6c-3,7.3-8.3,13.1-14.5,17.9c-11.4,8.7-30.3,18.4-27.3,35.8
		c1.3,7.5,6.7,13.2,13,17.1c6.9,4.3,14.9,6,22.5,8.3c7.2,2.2,14,5.3,17.9,12.1s4.8,14.9,7.7,22.1c3.9,9.8,10.3,18.5,13.4,28.6
		 M400.8,1460.1c-4.4,4.1-9.2,7.4-15.2,8.7c-5.9,1.2-11.9,0.5-17.8-0.2c-5.9-0.6-11.7-0.9-17.5-0.2c-5.6,0.7-11,2-16.5,3
		c-6.1,1.1-12.3,2-18.3,3.7c-5.8,1.7-11.2,4.2-16.2,7.5c-5.1,3.3-9.7,7.4-14.3,11.4c-4.2,3.7-8.7,6.8-13.5,9.7
		c-5.2,3.1-10.3,6.1-14.4,10.6c-3.9,4.3-6.9,9.5-9.2,14.8c-2.4,5.4-4.5,11.3-3.9,17.3c0.6,5.8,3.6,10.9,7.7,15
		c4.3,4.4,9.6,7.4,14.8,10.5c5,2.9,9.9,5.9,12.8,11.2c2.9,5.3,4.2,11.3,6.9,16.7c2.7,5.3,6.5,9.9,8.7,15.4c1,2.6,1.6,5.8-0.9,7.8
		c-2.2,1.7-5.5,2-8.2,2.2c-5.6,0.3-11.3-0.6-16.8-1.7c-6-1.2-12-2.6-18-3.4c-6-0.9-12-1.2-17.9,0.5c-5.7,1.7-10.7,4.9-16.5,6.4
		c-5.7,1.5-11.6,1.9-17.1,4c-5.6,2.1-10.8,5.2-16.1,7.9c-5.4,2.7-11.1,4.8-16.7,7c-5.3,2.1-10.4,4.6-15.7,6.7
		c-5.4,2.2-11.3,3.9-17.2,3.3c-6-0.7-11.2-3.5-16.3-6.5c-5.2-3-10.3-5.4-16.1-7.1c-2.9-0.8-5.8-1.5-8.4-3.1
		c-2.5-1.5-4.3-3.6-5.6-6.2c-2.7-5.2-5-10.9-7.5-16.2c-2.6-5.7-4.1-11.5-5.4-17.6c-1.2-5.7-3-11.2-5.2-16.7
		c-2.2-5.4-4.8-10.7-6.8-16.3c-2-5.5-3.1-11.5-5.9-16.7c-2.8-5.2-7-9.5-9.1-15.1c-2.2-5.6-2.5-11.7-2.9-17.7
		c-0.5-5.8-0.9-11.5-2.5-17c-1.7-5.7-4.5-10.9-6-16.7c-1.5-5.8-1.5-11.9-3.3-17.7c-0.6-1.8-1.4-3.6-2.2-5.2 M613.1,1462.6
		c-0.7-0.8-1.5-1.6-2.2-2.4 M405.8,1460.1c-6,6.3-12.9,11-21.4,11.7c-10,0.8-20.1-1.5-30.1-1.2c-8.1,0.4-15.8,2.7-24.3,3.9
		c-6.6,1.2-13.1,2.7-19.3,5c-5.4,2.3-9.7,5.4-14.3,8.9c-7.3,6.6-13.5,13.1-22,18.2c-7,3.9-13.5,8.5-17.8,15.5
		c-0.4,0.4-0.8,0.8-1.2,1.2c-4.3,7.7-8.1,15.5-7,24.3c0.8,5.4,3.9,10,7.7,13.9c0.4,0.4,1.2,0.4,1.5,0.8c0.8,0.8,1.5,1.5,2.3,2.3
		c9.3,5.8,21.3,8.1,24.7,18.5c2.7,7.7,4.3,15.5,8.9,22.4c3.9,5.4,7.7,9.7,10,15.5c0.8,1.2,1.2,2.7,0.8,4.3c-1.2,3.5-5,4.3-8.1,4.3
		c-12.4,1.2-24.3-1.9-36.7-4.3c-5.8-1.2-11.2-1.5-17-1.2c-8.1,0.8-14.3,7-21.6,10c-1.9,0.8-4.3,1.2-6.2,1.5
		c-7,0.4-14.3,1.5-20.9,3.9c-3.1,1.5-6.6,3.1-9.7,4.6c-10.4,4.3-20.5,8.5-30.9,13.1c-6.6,2.7-13.5,4.3-20.9,3.5
		c-3.5-0.4-6.2-1.9-9.3-3.1c-5.8-2.7-10.8-7-17-9.3c-3.5-1.2-7.3-1.5-11.2-2.3c-4.6-0.8-9.7-2.3-11.2-7c-1.5-5.4-2.7-10.4-4.6-15.5
		c-2.3-5-4.6-9.7-6.6-15.1c-1.5-5-1.9-10.4-3.5-15.5c-1.2-3.9-2.7-7.3-4.3-11.2c-4.6-8.9-8.1-18.2-12-27.4
		c-1.5-4.3-4.3-8.5-6.6-12.8c-2.7-4.6-4.6-9.7-5-15.1c-0.4-7-0.4-13.9-1.2-21.3c-1.2-6.2-3.5-12-5.4-17.8
		c-2.3-6.2-3.1-12.4-3.9-18.5c-0.4-3.1-1.5-6.2-3.4-9 M613.1,1466.6c-1.7-2.3-3.6-4.5-5.8-6.5 M410.7,1460.1
		c-3.8,4.4-8.4,8.5-13.6,11.1c-5.2,2.6-10.9,3.5-16.7,3.4c-6.1-0.2-12.1-1-18.1-1.2c-5.7-0.2-11.4,0.4-17,1.4
		c-6.4,1.1-12.7,2.2-19,3.4c-5.4,1-10.8,2.5-15.8,4.9c-5.4,2.7-10.2,6.3-14.5,10.4c-4.3,4.1-8.3,8.3-13.1,11.7
		c-4.9,3.5-10.4,6.1-15,9.9c-4.6,3.7-8.2,8.3-10.9,13.5s-4.9,11-4.7,17c0.2,6,3.3,11.2,7.8,15c4.6,3.9,10.4,6.1,15.9,8.4
		c5.1,2.1,10.8,4.6,13.2,10c2.5,5.4,1.7,11.8,3.5,17.4c1.8,5.6,5.2,10.3,8.9,14.8c3.7,4.5,8.2,8.8,10.9,14.1c1.2,2.3,2.4,6-0.3,7.8
		c-2.4,1.6-5.8,1.7-8.5,1.7c-6,0-11.9-0.5-17.8-1.3c-6.4-0.8-12.7-2-19-3.1c-5.5-1-11.1-1.8-16.7-1.6c-6,0.2-11.2,2.3-15.9,6.1
		c-4.5,3.7-8.6,8.1-14.7,8.9c-5.9,0.7-11.7-0.9-17.6-0.3c-5.3,0.6-10.4,2.4-15.4,4.3c-6.1,2.4-12.3,4.6-18.4,7.2
		c-5.5,2.4-10.9,5.1-16.5,7.1c-5.4,2-11.3,3.4-17.2,3.1c-6-0.3-11.4-3.1-16.5-6.1c-4.9-2.9-9.8-6.2-15.5-7.4
		c-2.8-0.6-5.6-0.7-8.5-0.6c-3,0.1-6.3,0.4-9.2-0.4c-6.5-1.8-6.1-9.7-6.6-15c-0.7-6.1-2.9-11.4-5.5-16.9c-2.5-5.3-4.1-10.6-5.4-16.3
		c-1.3-5.8-2.9-11.5-5.4-16.9c-2.5-5.5-5.4-10.8-7.9-16.3c-2.5-5.5-4.3-11.2-7-16.6c-2.6-5.3-5.8-10.4-7.6-16.1
		c-1.7-5.3-2.2-10.9-2.4-16.5c-0.2-6.1-0.1-12.3-1.2-18.4c-1.2-6-3.8-11.4-5.5-17.2c-1.7-5.6-1.5-11.5-3-17.1
		c-0.7-2.7-1.7-5.2-3.3-7.5 M612.6,1474.6c-3.1-5.5-7-10.6-12-14.4 M419.7,1460.1c-3.5,4.7-7.4,9.1-12,12.8
		c-4.7,3.7-10.2,6-16.1,6.9c-5.9,0.9-11.9,0.2-17.9-0.1c-6-0.4-11.9-0.6-17.9-0.1c-5.7,0.5-11.4,1.5-17,2.5c-5.8,1-11.8,2-17.5,4
		c-5.6,2-10.7,5-15.3,8.9c-4.4,3.9-8.2,8.6-12.7,12.4c-4.5,3.8-9.7,6.3-14.7,9.3c-5.1,3-9.7,6.8-13,11.8c-3.2,4.8-5.7,10.5-5.7,16.3
		c0,6.2,3.6,11.3,8.8,14.5c5.1,3.1,11,4.4,16.7,6c5.1,1.5,12.1,3.1,15.5,7.5c3.8,4.9-0.5,11.8-1.4,17.1c-1,5.8,0.7,11.5,4,16.3
		c3.3,4.7,7.5,8.5,11.6,12.4c4.5,4.2,9.3,8.2,12.9,13.1c1.8,2.4,3.2,5,4,7.8c0.7,2.6,1.1,6.2-0.8,8.3c-1.9,2.2-5.3,1.7-7.8,1.1
		c-3.2-0.8-6.3-1.9-9.4-2.9c-5.4-1.7-10.9-2.8-16.4-3.7c-6.5-1-13.1-1.9-19.7-2.8c-5.3-0.7-10.7-1.4-16-1.4
		c-5.8,0.1-11.5,1.5-16.3,4.9c-4.9,3.4-9,8-14.1,11.2c-5,3.2-10.7,4.7-16.7,3.6c-5.9-1-11.3-3.2-17.4-3.2c-5.8,0-11.6,1.4-17.1,3.2
		c-6.1,1.9-11.9,4.4-17.7,6.9c-5.1,2.2-10.4,4.2-15.7,5.8c-5.7,1.7-11.7,3-17.6,1.7c-5.9-1.2-11.1-4.8-16.2-8
		c-4.9-3-10-5.6-15.9-5.6c-5.9,0.1-11.3,2.8-17.1,3.1c-2.9,0.1-5.7-0.7-7.5-3.1c-1.7-2.3-2.2-5.3-2.3-8.1
		c-0.3-5.9,1.2-11.8,0.3-17.7c-0.9-5.9-4.4-11-6.7-16.4c-2.4-5.5-3.1-11.5-4.5-17.2c-1.4-5.8-3.7-11.1-6.4-16.4
		c-2.7-5.3-5.7-10.5-8.2-16c-2.5-5.6-4.8-11.2-7.3-16.8c-2.2-5.1-4.2-10.5-5.3-16.1c-1.1-5.8-1.4-11.6-1.7-17.5
		c-0.2-5.9-0.4-11.8-1.6-17.5c-1.3-5.8-3.5-11.4-4.6-17.2c-1.2-5.9-1.1-12.2-4.1-17.5c-0.8-1.5-1.9-2.8-3.1-4 M612.6,1479.6
		c-3.9-7.5-8.5-14.5-15.6-19.4 M423.4,1460.3c-5.8,7.8-12,15.6-20.9,20.2c-0.8,0.4-1.9,0.8-2.7,1.2c-1.9,0.8-3.9,1.2-6.2,1.5
		c-3.5,0.4-6.6,0.8-10,0.4c-6.6-0.8-13.5-1.2-20.1-0.8c-17.8,0.4-37.1,1.5-52.2,13.5c-4.6,3.9-8.1,8.5-12.8,12.8
		c-3.5,3.1-7.3,5-11.2,7.3c-1.9,1.2-4.3,1.9-6.2,2.7c-2.3,1.2-4.3,2.7-6.2,4.3c-8.9,7.3-16.2,20.5-7.7,30.5c1.9,1.9,4.3,3.5,6.6,4.6
		c5,2.3,10.4,3.5,15.8,5c1.2,0.4,2.3,0.4,3.5,0.4c6.6,1.9,15.8,2.3,17.4,10c0.8,3.9-2.3,7-4.6,10c-1.5,2.7-3.1,5.8-3.5,8.9
		c-0.8,6.6,2.7,12.8,7,17.4c8.1,8.1,17.4,13.9,24.3,23.2c1.9,3.1,3.1,6.2,4.3,9.7c0.8,3.5,1.9,6.6,0.8,10c-2.3,5.4-9.3,4.3-13.5,2.3
		c-5-2.3-9.7-4.6-14.7-6.6c-9.7-3.1-18.9-3.9-29-5.4c-5-0.4-10-1.2-15.1-1.2c-4.6,0.4-9.3,1.2-13.9,3.1c-5,2.3-8.9,5.8-13.1,9.3
		c-0.8,0.4-1.9,1.2-2.7,1.9c-4.6,3.1-8.9,5.4-14.3,7c-3.9,0.8-7.7,0.8-11.2-0.8c-12-4.3-24.3-3.9-36.3,0.4
		c-13.5,5-26.7,12-41.3,13.5c-2.3,0-5-0.4-7.3-1.2c-8.1-3.5-14.7-9.3-22.8-12.4c-8.1-2.7-15.8,1.5-23.6,3.5
		c-2.7,0.8-6.2,0.8-8.5-1.2c-2.7-2.3-3.9-5.8-4.3-8.9c-0.8-9.3,1.9-18.5-1.2-27.4c-1.9-5-4.6-9.3-6.6-14.3c-1.9-7-2.7-13.5-4.6-20.5
		c-3.5-10-10-18.5-14.3-28.2c-3.5-7.7-6.6-15.5-9.3-23.6c-1.2-3.5-1.5-7-2.3-10.8c-1.5-9.7-0.8-18.5-2.7-28.2
		c-1.9-11.6-4.2-22.4-7-34c-0.8-2.3-1.5-4.3-2.7-6.2c-0.8-0.4-1.2-1.2-1.9-1.9c-0.4-0.4-1.2-0.8-1.7-1.4 M612.6,1484.6
		c-4.1-9.5-10.2-18.4-19.3-24.3 M426.7,1460.1c-3.3,5-6.7,9.7-10.9,14c-4.2,4.2-8.8,8.1-14.3,10.4c-5.4,2.3-11.5,2.4-17.3,2.2
		c-6-0.2-11.9-0.8-17.9-0.8c-6,0-11.9,0.4-17.9,1.2c-5.9,0.8-11.8,1.7-17.5,3.4c-5.7,1.7-11,4.3-15.6,8.1
		c-4.6,3.7-8.2,8.6-12.7,12.6c-4.5,4.1-10,6.5-15.5,9.1c-5.2,2.5-10.2,5.4-14,9.9c-3.7,4.4-6.4,10.4-5.1,16.2
		c1.3,6,6.7,9.4,12.1,11.4c5.3,2,11,3.2,16.7,4.3c5.9,1.2,12.5,1.9,17.9,4.7c2.5,1.3,5,3.3,4.6,6.4c-0.4,2.7-2.3,4.9-4.2,6.8
		c-4.2,4.3-9.2,8.7-9.8,15c-0.5,6,3.1,11.3,7.1,15.5c4.1,4.3,8.9,8,13.5,11.8c4.5,3.7,8.9,7.5,11.9,12.6c2.9,5,4.9,11.1,6.3,16.7
		c0.7,2.7,1.3,5.8-0.3,8.3c-1.6,2.5-5.1,2.7-7.8,2.6c-6-0.3-11.5-3.1-16.8-5.7c-5.4-2.6-10.9-4.8-16.7-6.3c-5.6-1.4-11.3-2.2-17-2.9
		c-6.1-0.7-12.1-1.3-18.2-0.9c-5.9,0.4-11.4,2.4-16.5,5.3c-5.1,2.9-9.7,6.5-14.7,9.5c-5.1,3.1-10.5,6.1-16.4,7.2
		c-6.1,1.3-11.3-0.9-17-2.9c-5.7-2-11.5-2.6-17.5-1.7c-5.4,0.7-10.7,2.4-15.8,4.3c-6.1,2.3-12.3,4.6-18.4,6.8c-5.4,2-11,4.3-16.8,5
		c-6.1,0.8-11.5-1.6-16.5-4.8c-4.9-3.1-9.5-7-15.1-8.7s-11.2-0.5-16.5,1.6c-4.9,1.9-12.2,6-17.3,2.7c-4.9-3.3-4.8-11.4-4.9-16.7
		c-0.1-5.8,0.7-11.7,0-17.5c-0.7-6.1-3.9-11-6.5-16.5c-2.5-5.4-3.1-11.1-4.1-16.9c-0.9-5.7-2.6-11.2-5.2-16.3
		c-2.8-5.5-6.3-10.6-9.1-16.1c-2.6-5-4.4-10.5-6.3-15.8c-2.1-5.9-4.1-11.7-5.5-17.8c-1.3-5.5-2.1-11.1-2.4-16.7
		c-0.4-6.2-0.6-12.4-1.4-18.6c-0.8-5.9-2.5-11.6-3.7-17.4c-1.3-5.6-1.4-11.7-4-16.9c-1.9-3.4-4.7-5.9-8-7.6 M612.6,1489.1
		c-5.2-11.4-11.7-22.6-23.1-28.9 M429.7,1460.4c-4.8,7.3-9.4,14.3-16,20.5c-0.4,0.4-1.2,0.4-1.5,0.8c-4.6,5-11.2,8.1-17.8,8.5
		c-14.3,1.2-28.6-1.5-43.3,0c-8.1,1.2-16.6,1.2-24,5.4c-0.4,0.4-1.2,0-1.5,0.4c-8.5,4.6-13.5,12.8-20.5,18.9
		c-0.8,0.8-1.9,1.2-2.7,1.9c-9.7,6.2-21.6,7.7-28.2,17.8c-2.7,5-3.9,11.2,0.4,15.8c0.8,0.4,1.2,1.2,1.9,1.9c1.2,0.8,2.3,1.5,3.5,2.3
		c4.6,1.9,9.3,3.9,14.3,4.6c8.9,1.2,17.4,1.9,25.9,4.3c2.7,0.8,5.4,2.3,6.6,4.6c1.9,3.9-0.8,8.5-4.6,10.8c-0.4,0.4-0.4,0.8-0.8,1.2
		c-3.9,3.1-8.1,5.4-10.8,9.7c-0.4,0.8-0.8,1.9-1.2,2.7c-1.9,4.3-1.2,8.9,1.5,12.8c6.6,8.9,15.5,13.5,23.6,20.5
		c1.2,1.2,2.3,2.3,3.5,3.5c0.4,1.2,1.2,1.9,1.9,2.7c4.3,7.3,7,15.1,9.3,22.8c1.2,2.7,1.5,5.8,0,8.5c-5,6.2-13.5,3.1-20.1,1.2
		c-7.3-2.3-13.5-6.6-20.5-9.3c-12.8-4.3-26.3-5.8-39.4-5.4c-4.6,0.4-9.3,1.9-13.5,3.9c-5.8,3.1-10.8,6.6-16.2,9.7
		c-7.3,4.3-13.9,8.9-22.4,10.8c-3.5,0.8-7,0.4-10-0.8c-5.4-2.3-10.4-5-16.2-5.8c-3.1-0.4-6.2,0-9.7,0.4
		c-15.1,3.1-27.8,9.7-42.1,14.7c-6.2,1.9-13.1,1.9-18.9-1.5c-5-3.5-9.3-7.3-14.7-10c-4.3-1.9-8.5-2.3-13.1-1.5
		c-8.1,1.9-14.3,7.3-22.4,7.3c-1.5,0-3.1-1.2-4.6-2.3c-2.7-2.3-3.1-5.8-3.5-8.9c-1.5-11.2,1.5-22.8-2.7-33.6
		c-2.3-6.6-6.6-12-7.7-18.9c-1.2-8.5-1.9-17-5.4-24.7c-3.5-7-8.5-12.8-11.6-19.7c-3.5-7.7-5.4-15.8-8.1-24c-1.5-5-1.5-10-3.1-15.1
		c-0.8-1.5-0.4-3.5-0.8-5c-0.4-7.7-0.8-15.5-1.5-23.6c-0.8-5.8-2.7-11.6-3.9-17.4c-0.8-8.1-2.3-16.2-9.7-20.9
		c-2.3-1.2-4.6-2.3-7.5-2.4 M612.6,1497.3c-3.2-6.4-7.1-12.2-10.2-18.8c-1.2-1.9-2.3-3.5-3.5-5.4c-4.6-6.2-10.8-10.4-17.7-12.9
		 M435.7,1460.3c-3.9,6.6-7.7,12.4-12.8,18.2c-0.4,0.4-0.4,1.2-0.8,1.5c-3.9,4.3-8.1,8.1-12.8,12c-0.8,0.4-1.9,1.2-2.7,1.9
		c-4.3,2.7-8.5,4.6-13.5,5.4c-5,0.4-10,0.4-15.1-0.4c-14.3-2.7-28.2-3.9-42.5-0.4c-0.4,0-0.4,0.8-0.8,0.8c-3.9,1.5-8.1,2.7-10.8,5.8
		c-0.4,0.4-1.2,0.4-1.5,0.8c-3.5,3.5-6.2,7-8.9,11.2c-3.5,4.6-8.1,7-13.1,8.5c-7.7,2.7-16.6,5.4-18.9,13.9c-1.2,2.7-0.4,5.4,1.2,8.1
		c1.5,2.3,3.9,3.1,6.2,4.6c1.9,1.2,4.3,1.2,6.6,1.9c10,2.3,20.1,1.9,30.1,2.7c4.3,0.4,8.1,1.2,12,3.5c3.9,2.3,5.8,7.3,3.5,11.2
		c-1.5,2.3-2.7,4.6-5.4,6.2c-0.4,0.4-0.4,0.8-0.8,1.2c-6.6,5.4-15.5,7.3-19.3,15.1c-1.2,2.3-0.8,4.6-0.4,7c0.4,0.8,0.8,1.9,1.2,2.7
		c5.8,8.9,15.1,13.1,23.2,19.7c2.7,2.3,5.4,5,7,8.5c3.9,10.4,9.3,20.1,13.1,30.5c1.5,4.6,0.8,10.8-4.3,12c-11.2,2.7-21.6-3.9-32.1-7
		c-15.1-7.7-31.7-13.5-49.1-11.2c-13.1,1.9-24.3,8.1-35.9,14.3c-7,3.9-12.8,8.1-19.3,12c-4.6,2.7-9.3,4.6-14.3,2.3
		c-4.3-2.3-7.3-5.8-11.6-7.7c-5.4-2.3-11.6-2.7-17.4-2.3c-6.6,0.8-12.4,3.1-18.5,5.4c-8.9,3.9-16.6,9.3-26.7,11.6
		c-8.5,1.5-15.1-4.3-20.5-10c-5-4.6-11.2-8.1-18.5-6.6c-7.3,1.9-13.1,6.6-20.1,9.3c-2.7,0.8-5.4,2.3-8.5,1.5
		c-3.9-1.2-5.8-4.6-6.2-8.5c-0.8-13.9,2.3-28.2-2.7-41.3c-2.7-6.6-6.6-12.4-8.9-18.9c-1.2-9.7-1.2-19.7-5.8-28.6
		c-3.9-7.3-10-13.1-12.4-21.3c-5.4-20.1-10.4-40.2-10.4-60.7c-2.3-11.6-1.9-24-8.1-34.8c-1.9-2.7-4.6-5.4-7.9-6.1 M612.5,1501.1
		c-1.3-1.4-2-2.9-2.8-4.4c-7.3-15.1-15.8-32.1-33.1-36.5 M438.3,1460.3c-1.8,2.4-2.9,5.1-4.9,7.4c-0.8,1.2-1.5,2.7-2.3,4.3
		c-7,10.4-15.5,18.2-24,27c-1.9,1.9-4.3,3.1-6.6,4.3c-5,1.9-10.4,2.7-15.8,1.9c-14.3-2.7-27.8-6.6-42.5-4.6
		c-5.8,0.8-10.8,2.7-15.5,6.6c-4.6,3.9-7,9.3-10.8,13.9c-0.8,0.4-1.2,1.2-1.9,1.9c-4.6,4.6-11.2,5.8-17,8.1
		c-4.3,1.9-9.3,4.3-10.8,8.9c-1.9,5,2.7,8.5,6.6,10.4c3.1,1.2,6.2,1.5,9.3,2.3c6.6,0.8,12.8,1.2,18.9,1.5c8.9,0.8,20.1-0.8,25.5,7.7
		c1.5,3.1,1.2,7-0.8,10c-5.8,9.3-15.1,13.1-23.2,19.7c-1.5,1.5-2.7,3.5-3.1,5.8c-0.8,5.4,1.9,9.3,5.4,12.8c7.7,7,18.9,9.7,24,19.3
		c2.3,4.6,3.1,10,4.6,15.1c0,0.4,0.8,0.4,0.8,0.8c0.4,1.2,0.8,2.3,1.2,3.5c6.2,10,14.7,23.6,4.6,33.2c-2.7,1.2-5.8,0-8.5-0.8
		c-1.9-1.2-3.9-2.3-5.8-3.1c-10-3.9-19.7-7.3-29.4-11.6c-5.8-2.3-11.2-4.3-17-5.8c-7.3-1.5-14.3-1.9-21.6-1.5
		c-23.2,4.6-43.3,16.2-63,30.9c-2.7,1.9-5.8,2.7-8.9,1.9c-1.9-0.8-3.9-1.9-5.4-3.1c-3.1-3.1-6.2-5-9.3-7.7c-0.4-0.4-1.2,0-1.5-0.4
		c-6.6-4.3-13.9-3.1-20.9-1.5c-4.3,1.2-8.1,2.3-12,3.9c-7.7,3.1-15.1,7.7-22.8,11.2c-6.2,2.7-13.1,1.9-18.5-2.3
		c-6.2-5-10.8-12.8-19.3-13.9c-9.7-0.8-17.4,6.2-25.9,9.7c-3.9,1.9-8.9,4.6-13.1,1.5c-3.9-3.1-3.9-8.1-3.5-12.8
		c1.2-10.4,1.5-20.9,0-31.3c-1.5-8.5-7-15.1-10.4-22.4c-1.2-2.3-1.9-5-1.9-7.7c0-4.3-0.4-8.9-0.8-13.1c-0.4-5.4-1.9-10.8-5.4-15.5
		c-2.7-3.5-5-6.2-7-9.7c-5.8-10.4-6.6-21.3-9.3-32.8c-0.8-3.1-1.9-6.2-2.3-9.3c0-1.5-0.4-3.5-0.4-5c0-0.8-0.8-1.9-0.8-2.7
		c0-1.2,0.4-2.3,0-3.5c-0.4-1.5-0.4-3.1-0.4-4.6c-0.8-13.5-2.3-26.7-6.2-39.4c-1.2-3.5-2.3-7-5.4-9.3c-0.8-0.4-1.9-0.4-2.9-1.5
		 M612.6,1505.2c-6.4-8.5-9.5-18.1-16-27.4c-6.2-8.9-15.1-15.5-25.8-17.6 M441.2,1460.3c-7.8,14-18.2,25.6-28.6,38.3
		c-1.5,2.3-3.1,4.3-4.6,6.2c-3.5,3.5-7,6.6-12,7.3c-9.7,1.2-18.5-2.7-27.4-5.8c-0.4,0-1.2,0-1.5,0c-7.7-2.7-15.8-3.9-24.3-2.7
		c-4.6,0.8-8.5,2.3-12.4,5.4c-5,4.3-7.3,9.7-11.2,14.7c-1.5,1.9-3.5,3.5-5.8,4.6c-0.4,0.4-0.8,0.8-1.2,1.2c-5,2.7-10.4,3.9-15.5,6.2
		c-2.7,1.5-5.4,3.9-5,7.3c0.4,1.5,1.5,2.7,3.1,3.9c0.8,0.4,1.2,0.8,1.9,1.2c3.1,1.2,6.2,1.5,9.3,1.9c9.3,0.4,18.5,0.8,27.8,1.2
		c7.7,0.8,17,3.5,18.2,12c1.5,8.5-5,15.1-12,20.1c-0.4,0.4-0.4,0.8-0.8,1.2c-4.6,3.1-8.5,6.2-12.4,9.7c-1.9,1.9-3.1,4.3-2.7,7
		c2.3,10.8,13.5,13.5,21.3,19.3c2.7,2.3,5,4.3,5.8,7.3c3.1,13.5,8.5,24.7,15.1,36.3c2.7,5.4,3.1,11.2,2.3,17.4
		c-1.2,5-1.5,9.7-5,13.5c-7.7,3.1-11.6-6.2-16.6-10.4c-0.8-0.4-1.5-0.4-2.3-1.2c-1.9-2.3-4.6-3.9-7.3-5.4
		c-10.8-5.4-22-9.3-33.6-13.1c-3.9-1.2-7.7-1.9-12-2.3c-10.8-0.8-21.3,1.2-30.9,5.8c-0.8,0.4-1.2,0-1.9,0.4
		c-10.4,4.6-20.5,8.5-30.5,15.5c-7,5-11.6,11.2-18.9,14.7c-3.5,1.5-7,0-9.7-2.3c-4.3-4.6-7.7-10.4-13.5-12.8
		c-8.5-3.9-17.8-1.9-26.3,1.5c-1.9,0.8-4.3,1.2-6.6,2.3c-5,3.1-10,6.2-15.1,8.9c-3.1,1.9-6.6,3.1-10,3.9
		c-11.2,1.5-18.5-7.7-25.5-15.1c-1.9-1.9-5-2.7-7.7-3.5c-5.4-0.8-10,1.2-14.7,3.9c-7,4.6-13.5,8.9-22,10.4c-3.5,0.8-5.4-2.3-6.6-4.6
		c-1.9-3.5-1.5-7.3-1.2-11.2c1.2-8.1,2.3-16.2,1.9-24.3c-0.4-5-0.8-10.4-3.1-15.1c-1.9-4.3-4.6-8.5-7-12.8c-0.4-0.4-0.8-0.8-1.2-1.2
		c-0.4-0.4,0-1.2-0.4-1.5c-1.5-2.3-2.3-4.6-2.7-7.3c-0.4-7,0.4-13.5-1.2-20.5c-1.2-3.9-3.1-6.6-5-10c-0.8-0.8-1.5-1.5-2.3-2.7
		c-1.5-2.7-3.5-5-5-7.7c-2.3-4.3-3.9-8.5-4.6-13.5c-0.8-5.8-1.5-11.6-3.5-17.4c-4.6-16.2-3.9-32.8-5.8-49.5
		c-0.8-4.6-1.5-8.9-3.1-13.1c-1.5-3.1-2.7-6.2-5-8.9c-0.8-0.4-1.5-1.2-2.1-1.9 M612.5,1508.4c-5.1-6.4-8.9-13.6-12.7-20.7
		c-1.8-3.4-3.4-7-5.8-10.1c-2-2.7-4.4-5.2-7.1-7.3c-7-5.5-15.5-8.7-24.2-10.1 M444.2,1460.1c-4.9,6.8-8.7,14.3-13.8,20.9
		c-5.1,6.6-10.7,12.8-15,20.1c-3.6,6.1-7,13.1-13.6,16.4c-7.1,3.5-15.1,1.5-22.1-1.4c-7.6-3.2-14.9-7.1-23.2-8.6
		c-7.4-1.4-15.8-1.2-22.1,3.5c-5.7,4.3-7.9,11.1-12.2,16.5c-2.2,2.6-4.8,4.9-7.8,6.5c-3.5,1.9-7.6,2.8-10.9,5
		c-1.2,0.8-3.1,2.2-2,3.8c1,1.4,3.3,1.9,4.8,2.2c4.1,0.9,8.4,1.1,12.6,1.4c8.2,0.6,16.7,0.8,24.7,3.3c6.5,2,13.8,6.5,13.4,14.2
		c-0.2,3.7-2,7-4.1,10c-2.2,3.4-4.9,6.5-7.8,9.4c-2.9,3.1-6.1,5.9-9.2,8.8c-2.5,2.4-5.6,5.4-5.6,9.1c0,6.9,8,10.9,13.2,13.7
		c3,1.6,6.1,3.4,8.3,6.1c2.3,2.8,3.2,6.3,3.7,9.9c0.5,3.7,0.9,7.3,2.1,10.9c1.2,3.8,3.1,7.5,5.1,10.9c4,7,8.4,13.6,9,21.9
		c0.3,4.3-0.1,8.6-0.5,12.9c-0.3,4-0.6,8.1-1.7,12c-0.9,2.9-2.7,6-6,6.2c-2.9,0.2-5.7-1.5-7.8-3.3c-5.5-4.4-8.6-10.7-13.2-15.8
		c-5.3-5.9-12.7-9.2-19.8-12.2c-7.9-3.3-16.1-6.4-24.5-7.9c-8.3-1.5-17.1-1.3-25.3,0.9c-8.2,2.1-15.9,6-23.7,9.2
		c-7.6,3.2-15.2,6.6-21.8,11.7c-6.1,4.9-10.7,11.9-17.6,15.7c-2.8,1.5-6.2,2.4-9.3,1.2c-3.3-1.3-5.4-4.6-7.2-7.5
		c-1.9-3-3.6-6.1-6.3-8.4c-2.7-2.4-6.2-3.9-9.9-4.4c-7.8-1-16.1,1.9-22.9,5.4c-7.2,3.7-13.5,9.6-21.3,12.2
		c-7.3,2.4-15.1,1.5-21.5-2.7c-5.5-3.7-8.8-10.3-14.9-13.2c-7.2-3.4-15.2,1.5-21.3,5.1c-3.6,2.1-7,4.4-10.7,6.2
		c-3.5,1.7-7.7,3.8-11.7,3.1c-8.1-1.5-6.6-12.6-5.5-18.4c1.5-8.4,3.2-16.8,2.7-25.4c-0.5-8.3-3-15.7-7.7-22.6
		c-2.2-3.2-4.6-6.3-6-9.9s-1.7-7.4-1.7-11.2c0-4,0.2-8-0.4-12c-0.7-4-2-7.7-4.2-11.2c-4.1-6.7-9.7-12.1-11.8-19.9
		c-1.1-3.9-1.4-7.8-2-11.8c-0.6-4.3-1.5-8.6-2.4-12.9c-1-4.3-2-8.5-2.7-12.8c-0.7-4.4-1-8.8-1.1-13.2c-0.3-7.9-0.5-15.8-2.1-23.6
		c-1.5-6.4-3.2-13.8-7.6-18.8 M612.5,1515c-5.1-5.5-9.3-10.9-13.2-17.1c-5-8.9-7.7-18.9-16.2-25.5c-8.5-7-18.9-8.5-29.4-9.7
		c-2.7-0.4-5-1.2-7.7-2.3c-0.4,0-1.2,0-1.5-0.2 M450.5,1460.1c-5.4,5.8-8.7,13.4-13.1,19.9c-4.6,6.8-9.9,13.3-13.5,20.7
		c-3.4,7-4.9,14.7-10.3,20.6c-5.1,5.6-12.3,9.5-19.9,9.5c-16.5,0-27-17.9-43.9-16.3c-6.6,0.6-12.2,5.1-12.7,12.1
		c-0.5,7.8,5.6,12.8,11.7,16.5c5.9,3.6,12.7,7,16.4,13.2c1.8,2.9,2.4,6.4,1.5,9.7c-1,3.3-3.2,6-5.4,8.6c-5,5.8-10.4,11.8-13.4,19
		c-1.3,3-2.1,6.4-1,9.6c1.1,3.2,4.1,5.3,6.6,7.4c2.4,2,4.9,4.2,6.4,7c1.8,3.5,1.9,7.6,1.9,11.4c0,4.1-0.2,8.1,0.9,12.1
		c1,3.8,2.7,7.4,4.8,10.8c4,6.6,9.4,12.6,10.3,20.6c0.5,4.2,0,8.4-0.2,12.6c-0.2,4.4,0,8.8,0.3,13.2c0.2,3.6,0.6,7.2,0.9,10.9
		c0.3,3,0.4,6.3-0.7,9.2c-2.6,7-10.2,4.6-15.2,1.9c-6.6-3.6-13.1-8.2-17.9-14c-4.9-5.9-7.7-13.3-13.1-18.8
		c-5.5-5.6-12.9-9-20.3-11.4c-8.2-2.7-16.7-4.1-25.3-3.4c-8.7,0.7-16.7,3.6-24.7,6.8c-7.8,3.2-16,5.8-23.5,9.9
		c-7.1,3.8-12.6,9.2-17.9,15.1c-5,5.6-10.6,11.9-18.3,13.4c-3.2,0.7-6.8,0.4-9.7-1.4c-2.5-1.6-4.1-4.2-5.3-6.8
		c-2.5-5.4-3.6-12.2-9.3-15.2c-7-3.7-15.6-0.1-21.8,3.6c-6.8,4.2-12.8,9.6-20.7,11.7c-7.8,2.1-16.4,1.1-23.8-2.2
		c-3.6-1.6-6.6-3.9-9.6-6.3s-6.1-5.1-9.9-6.2c-8-2.4-15.6,2.7-21.9,7c-6.3,4.2-13.5,9.9-21.4,9.5c-6.6-0.3-10.1-6.4-10.2-12.5
		c0-4.2,1.1-8.3,2.3-12.2c1.2-4.1,2.4-8.2,3.2-12.4c1.6-8.2,2.2-16.9-0.4-25c-2.4-7.6-8.2-12.7-12.8-19c-2.4-3.4-3.6-7.1-3.4-11.2
		c0.2-4.3,1.1-8.4,1.1-12.6c0-8.4-4.3-14.8-9.5-21c-2.4-2.8-4.8-5.6-6.6-8.8c-1.9-3.5-2.6-7.1-2.8-11.1c-0.3-4.4-0.2-8.9-0.7-13.3
		s-1.5-8.7-2.2-13c-1.5-8.3-1.8-16.5-1.8-24.9c0-7.9-0.7-16.3-4.1-23.6 M612.6,1518.2c-6-6.5-11.4-12.6-16-20.4
		c-3.1-5.4-5-10.8-8.1-16.2c-5.4-8.9-14.3-13.5-24.3-15.5c-8.9-1.5-17.4-2.7-26-5.9 M454.2,1460.1c-5.8,5.4-9.2,12.9-13.3,19.5
		c-4.4,7-9.6,13.7-12.8,21.4c-3,7.2-3.9,15.1-9.2,21.2c-4.9,5.8-12.1,10.1-19.5,11.7c-8,1.7-15.6-0.3-22.4-4.4
		c-6.3-3.7-12.5-8.8-20-9.9c-5.1-0.7-11.5,0.7-12.4,6.6c-1.1,7,6.1,12.4,11,16.1c6,4.5,13.3,9.2,15.9,16.6
		c2.7,7.6-2.5,13.3-7.5,18.3c-5.1,5-10.4,11.2-10.7,18.7c-0.3,7.3,5.7,11.4,9,17.2c3.9,7,1.9,14.7,2.3,22.3
		c0.2,4.1,1.1,8.1,2.9,11.9c1.7,3.6,4,6.9,6.3,10.1c2.2,3.1,4.3,6.2,5.6,9.9s1.5,7.3,1.3,11.1c-0.5,9-0.6,17.7,0.7,26.6
		c0.6,4.4,1.6,8.7,2.4,13.1c0.7,3.6,2,8.1,0.7,11.6c-1.9,4.9-9.1,2-12.4,0.6c-6.6-2.9-12.5-7-18.4-11.2c-6.6-4.7-12.6-9.6-17-16.6
		c-2-3.3-3.8-6.8-6.1-10c-2.2-3-4.8-5.5-7.8-7.6c-6.5-4.5-14.6-7.3-22.4-8.4c-8.5-1.3-17.4-0.5-25.7,1.9c-8.4,2.5-16.5,6.2-24.6,9.4
		c-7.7,3-15.1,6.5-21.3,12.2c-5.8,5.3-10.3,11.9-16.4,16.8c-5.8,4.7-13.9,7.5-21.3,5.2c-6.4-2-8.3-8.3-10.4-14
		c-2.2-5.9-6.4-10.7-13.2-9.7c-7.7,1.1-13.8,6.9-20.3,10.7c-7.3,4.3-15.3,5.8-23.6,4.9c-7.9-0.9-15.4-3.7-21.9-8.3
		c-2.9-2-5.7-4.3-9-5.7c-3.5-1.5-7.2-1.7-10.8-0.7c-7.6,2.2-13.5,8.2-20.2,12.1c-5.8,3.4-14.1,6.8-20.6,3.2c-6-3.3-7.3-10.8-6.5-17
		c0.5-4.1,2-8,3.4-11.9c1.4-4,2.6-8,3.4-12.2c1.5-8.1,2-16.7-1-24.5c-2.8-7.5-9-11.9-13.7-18.1c-2.6-3.4-3.5-7.2-3.1-11.5
		s1.5-8.4,1.6-12.7c0.1-8.3-4.5-14.5-9.9-20.4c-2.4-2.7-5-5.3-7-8.3c-2.1-3.2-3.2-6.7-3.5-10.5c-0.3-4.3,0.2-8.7,0.1-13
		c-0.1-4.4-0.8-8.8-1.4-13.1c-0.6-4.4-1.3-8.8-1.5-13.2s-0.2-8.8-0.2-13.3c0-4.9-0.2-9.7-1.2-14.5 M612.6,1529.5
		c-0.9-0.4-1.7-0.8-2.5-1.5c-7.7-8.5-16.2-15.1-24-23.6c-0.8-1.2-1.9-2.7-2.3-4.3c-1.2-5-2.3-9.7-4.3-14.3
		c-2.7-5.4-7.3-9.7-13.5-10.8c-0.4,0-0.8-0.8-1.2-0.8c-7.3-0.8-14.3-1.2-21.6-3.1c-0.4,0-1.2-0.8-1.5-0.8c-1.2-0.4-2.7-0.4-3.9-0.8
		c-7-2.7-13.5-5.4-20.9-7c-10.4-1.9-20.5-3.1-30.9-2.7c-5,0.4-9.7,1.2-14.3,2.7c-0.4,0-0.8,0.8-1.2,0.8c-6.6,1.5-11.2,6.2-14.7,12
		c-4.6,8.5-9.3,16.6-10,26.3c-0.8,4.3-0.8,8.9-0.8,13.1c-0.4,3.5-1.5,7-3.5,9.7c-5,6.2-12,9.3-18.9,12.4c-2.7,1.2-5.4,1.9-8.1,3.5
		c-0.8,0.4-1.2,0-1.9,0.4c-1.2,0.4-1.9,1.2-3.1,1.5c-7.3,2.7-17.4,5-19.3,13.9c-0.8,5,0,10-0.4,15.1c-0.4,3.1-1.5,5.8-3.5,8.5
		c-2.7,3.5-6.2,5-8.9,8.1c-1.9,2.3-3.1,5-3.1,8.1c0,5,1.9,9.7,3.9,14.7c0.8,2.3,1.2,5,0.8,7.7c-0.8,6.6-4.3,12.8-3.5,19.3
		c0.8,5.4,2.7,10,6.6,14.3c3.5,4.3,7,8.5,10,13.5c1.5,3.1,1.2,6.6,0.8,9.7c-0.8,5.4-2.3,10.8-2.7,16.2c-0.8,9.3,1.2,18.5,6.2,26.7
		c2.3,4.3,5,8.9,10,10.8c0.8,0.4,1.2,1.2,1.9,1.5c10,4.3,21.3,3.5,32.1,4.3c7.3,0.8,13.9,4.3,19.3,9.7c5.8,6.2,11.2,12.8,12.4,21.4
		 M415.7,1765.9c-5.1-6.5-13.4-8.2-20.9-10.5c-8.3-2.5-16.3-5.3-24.1-8.9c-7.5-3.5-14.1-7.9-20.5-13c-6-4.7-12.7-8.5-18.8-13.1
		c-3-2.2-6-4.8-8.2-7.8s-4.5-5.8-6.5-8.9c-3.9-6.2-9.7-11.4-16.8-13.4c-17-4.9-32.8,6.1-48.2,11.4c-7.7,2.7-15.2,6.8-20.9,12.6
		c-4.8,4.9-8.6,10.7-13.8,15.3c-2.9,2.5-6,4.4-9.8,5.4c-2,0.5-4,1.1-6,1.4c-2,0.3-3.9,0.3-5.9,0.8c-7.5,1.8-15.2,5-22.7,1.7
		c-3.3-1.4-6.2-3.7-9.2-5.7c-3.3-2.2-6.7-3.4-10.6-4.2c-4.1-0.8-8.4-1-12.6-1.4c-4.2-0.5-8.3-1-12.5-1.7c-8.2-1.4-16.4-3.4-24-7
		c-3.6-1.7-7.3-3.4-11.1-4.6c-4.1-1.3-7.9-1.5-12.1,0.1c-3.9,1.5-7.7,4-11.3,6.1c-3.7,2.1-7.3,4.3-11.1,6.1c-7,3.3-14.3,5.4-22,3.2
		c-10.4-3-15.5-13.5-16-23.7c-0.2-5.2,0.6-10.4,2.7-15.2c1.5-3.5,3.3-6.7,4.7-10.3c1.4-3.7,2.5-7.5,3.1-11.4
		c1-7.3,0.3-14.9-4.2-20.9c-2-2.7-4.5-4.7-7.5-6.2c-2.6-1.4-5.3-2.5-7.6-4.3c-6.3-5-3.8-13.1-1.3-19.5c2.6-6.7,3.5-14.5-1.5-20.5
		c-2.3-2.7-5.3-4.6-8.1-6.7 M319.1,1765.9c-4.8-2.9-10.5-4-15.8-5.1c-6.2-1.2-12.4-2.4-18.4-4.4c-5.4-1.9-11.1-4.4-16.8-2.4
		c-5.6,2-8.4,7.4-11.8,11.9 M3.1,1765.9c-1-0.7-1.9-1.4-2.8-2.1 M133.5,1765.6c-1.6-7.7-9.4-11.2-16.3-13.5
		c-8.5-2.3-17-3.5-25.9-2.3c-21.3,1.9-40.6,10.4-60.6,16 M299.6,1765.9c-8.5-1-17.4-2.5-26,0 M129.5,1765.9
		c-4.2-10.2-15.4-11.7-25.1-13.7c-5-0.8-9.3-0.4-14.3,0.4c-15.1,3.1-29,5-42.5,10.8c-2.3,1.2-4.6,1.9-7.4,2.5 M332.7,1765.8
		c-4.5-3.7-9.8-6.5-15.5-8.1c-5.8-1.6-11.9-2.4-17.7-4.2s-10.6-5.1-16-7.6c-5.5-2.5-11.3-2.6-17-0.5c-5.7,2.2-9.6,6.2-13.2,11
		c-3.1,4.1-6,7.8-11,9.4 M137.5,1765.8c-5.6-15.9-24.6-15.9-38.9-19c-4.3-1.2-8.5,0-12.8,0.8c-20.1,3.5-37.5,10.4-56.8,16.6
		c-10,2.7-22.4,2.7-28.7-6.8 M343.3,1765.9c-4.6-3.6-9.4-7.1-14.5-9.9c-5.4-2.9-11.2-4.1-17-5.6c-5.6-1.5-10.8-3.5-15.7-6.6
		c-5-3.1-10-6.9-16-7.5c-6-0.6-12,1.7-17.2,4.3c-5.4,2.7-9.4,6.6-13.1,11.1c-3.9,4.7-7.7,8.7-13.8,10c-5.8,1.2-11.9,0.8-17.8,1.4
		c-3.9,0.4-7.8,1.1-11.4,2.7 M141.6,1765.8c-1.3-3.9-2.8-7.4-6.3-10.1c-11.2-7.7-23.6-9.3-36.3-11.2c-9.3-1.5-17.8,1.5-27,3.5
		c-1.2,0.4-1.9,0.8-3.1,1.2c-1.9,0.4-3.5,0.8-5.4,1.2c-13.9,4.6-27,10-41.7,12.4c-2.7,0.4-5,0-7.7-0.4c-6.2-1.9-11.2-6.6-13.7-12.9
		 M357.9,1765.9c-4.4-3.7-9.4-6.6-14.1-9.9c-5-3.5-10-7.1-15.5-9.8c-5.5-2.6-11.2-4.4-16.7-7.2c-5.3-2.7-9.9-6.5-14.9-9.8
		c-4.9-3.2-10.2-5.6-16.2-4.9c-5.8,0.7-11.4,2.7-16.8,4.8c-5.6,2.1-10.9,4.6-15.1,8.9c-4.1,4.3-7.1,9.6-11.7,13.3
		c-4.4,3.6-10.1,4.7-15.6,5.4c-6.1,0.7-12.4,1.1-18.1,3.7c-3,1.4-5.6,3.2-8,5.4 M149.8,1765.9c-1.7-4.8-4.1-9-7.9-12.1
		c-0.8-0.4-1.9-1.2-2.7-1.9c-7.7-5.4-16.2-6.2-24.7-8.5c-1.5-0.8-3.5-1.2-5-1.9c-3.1-1.2-6.2-1.5-9.3-1.9c-0.4,0-1.2-0.8-1.5-0.8
		c-8.1-1.5-15.1,0.8-22.4,2.7c-13.1,3.9-24.7,8.9-37.9,12.4c-8.1,1.9-16.6,3.1-24.3-0.8s-10.8-12.8-13.7-21 M363.7,1765.8
		c-4.1-3.6-8.4-6.3-13.4-9.4c-10.4-6.6-19.3-13.9-30.5-17.8c-6.6-3.9-12.8-8.1-18.9-13.1c-3.9-3.1-7.7-5.8-12.4-6.6
		c-5-0.8-9.7,0.8-14.3,1.9c-6.2,2.3-12.4,3.9-18.5,6.2c-4.6,1.9-8.1,5-11.6,8.9c-3.9,4.6-6.2,9.7-11.2,13.5
		c-7.7,5.4-17,4.6-25.9,6.6c-6.6,1.2-12,4.6-16.7,9.9 M154.3,1765.8c-2-3.1-3.8-6.3-5.9-9.3c-2.3-3.1-5.1-5.4-8.5-7.2
		c-6.8-3.7-14.6-5.5-21.9-7.7c-4.1-1.2-8.1-2.5-12.1-3.6c-4.1-1.1-8.3-2.4-12.6-2.6c-8.7-0.4-17.2,3.4-25.2,6.2
		c-8.3,2.8-16.7,5.7-25.1,8.2c-7.4,2.1-15.5,3.8-23.1,1.5c-3.1-0.9-5.4-2.4-7.5-4.8c-2-2.1-3.6-4.5-5-7c-2.9-5.1-4.8-10.5-7-16
		 M0.2,1685.2c2.4-4.9,6-11.5,1.8-16.5c-0.5-0.6-1.1-1.1-1.7-1.5 M369.2,1765.9c-4.7-4.4-10.5-7.1-16.3-10.6
		c-11.6-8.1-21.3-15.5-33.6-20.9c-0.4-0.4-0.8-0.8-1.2-1.2c-2.7-1.2-5-3.1-7.3-4.6c-4.6-3.9-8.5-8.1-13.5-11.6
		c-2.3-1.5-4.6-2.7-7.3-3.1c-5.8-0.8-10.8,0.8-16.2,2.7c-7,2.7-13.9,4.3-20.9,7c-4.6,1.9-8.5,4.6-11.6,8.5c-2.3,3.5-4.3,7-7,10.4
		c-3.9,4.6-9.3,7.3-15.1,8.5c-7.3,1.2-14.7,1.2-21.6,4.6c-4.6,2.7-8.1,6.6-12.2,10.2 M0.2,1699c0.7-6.3,3.6-11.5,6.6-17
		c2.6-4.9,5.2-10.9,1.8-16.1c-1.8-2.8-5.1-4.4-8.3-5.1 M158.7,1765.9c-0.6-1-1.4-1.7-2.2-2.5c-3.5-5.4-6.2-10.4-11.2-14.3
		c-3.1-1.9-5.8-3.5-8.9-4.6c-12-3.9-24.3-6.6-36.3-10.8c-2.7-0.8-5-1.2-7.7-1.5c-4.6,0-8.9,1.2-13.1,2.3
		c-16.6,5.4-31.7,14.3-49.1,14.7c-5.4,0.4-10.8-0.8-14.7-4.6c-9.7-10-14.7-24.3-15.3-37.9 M392.3,1765.8c-1.8-0.9-3.3-2.4-5.3-3.2
		c-10.4-4.3-20.1-8.1-30.1-13.9c-7.3-4.6-12.8-10-20.1-15.1c-3.9-2.3-7-3.9-10.8-6.2c-5.4-3.5-9.7-7.3-13.5-12.4
		c-4.3-5-8.5-10-14.7-12.8c-5.8-2.7-12.4-1.9-18.5,0c-5,1.9-10,4.6-15.1,6.6c-10,3.1-20.9,4.6-28.2,13.1c-0.8,0.8-1.5,1.2-2.3,1.9
		c-0.8,0.8-1.2,1.5-1.9,2.3c-2.3,4.2-4.6,7.7-7.7,11.2c-1.5,1.5-3.1,2.7-5,3.5c-0.8,0.4-1.9,0.8-2.7,1.2c-3.5,1.2-7.3,1.5-11.2,2.3
		c-3.5,0.4-7,0.8-10.4,1.9c-6.2,2.7-11.2,7.7-17.4,11.2c-1.2,0.4-2.7,1.2-4.3,1.2c-3.5-0.4-6.6-1.9-8.5-4.3c-5-6.2-9.7-12-17-14.3
		c-15.5-5.4-30.9-8.5-46-14.3c-5-1.9-10-3.5-15.5-2.7c-9.3,1.5-16.6,7-25.1,10.4c-2.3,0.8-4.3,1.5-6.6,2.7
		c-8.5,3.1-17.8,5.8-26.7,1.9c-5.8-2.7-9.7-7.3-12.8-12.8c-3.9-8.1-5-16.6-3.9-25.5c1.2-8.5,6.2-15.1,9.7-22.8
		c3.1-7.7,3.1-17-2.3-23.6c-0.8-0.4-1.2-1.2-1.9-1.9c-5-2.7-10.4-3.9-16-4.4 M0.2,1618c1.3-3.7,1.8-7.6,0-11.2 M401,1765.8
		c-1.2-0.9-2.3-2-3.9-2.8c-13.9-5.4-27-9.3-40.2-17.8c-5.8-3.5-10.4-7.7-15.8-11.6c-6.2-4.3-12-7.7-17.8-12c-2.3-2.3-4.6-4.3-7-6.6
		c-2.3-3.1-5-6.2-7.3-9.3c-2.7-3.1-5.8-5.8-9.7-7.3c-4.3-1.5-8.9-2.3-13.5-1.5c-9.3,1.5-17.4,6.6-26.3,9.3c-2.7,1.2-5.4,1.9-8.1,2.7
		c-3.5,1.5-7,2.7-10,4.6c-0.4,0.4-0.8,0.8-1.2,1.2c-3.1,1.2-5,3.5-7.3,5.8c-4.6,5.4-7.7,11.6-13.9,15.8c-7.7,5.4-16.6,5-25.1,7.3
		c-7.3,1.9-13.1,9.3-21.3,8.1c-6.2-1.2-9.7-6.2-14.3-10c-10.8-7.3-22.8-8.1-35.2-11.2c-8.5-2.3-16.2-5.4-24.3-8.5
		c-6.2-2.3-13.5-2.7-19.7,0c-16.2,7-33.6,20.5-51.8,12c-10.4-7.3-13.9-20.9-13.1-32.8c0.4-1.5,0.4-3.5,1.2-5c0.4-1.5,0.4-3.5,1.2-5
		c2.3-5,5.4-9.7,7.3-15.1c2.7-8.5,3.1-18.5-3.5-25.5c-4.6-4.6-10.8-5.4-17-7c-1.2-0.4-1.9-0.8-2.9-1.5 M0.2,1625.4
		c2.5-5.1,5.4-10.7,4.9-16.7c-0.3-3.4-2.2-6.6-4.9-8.8 M612.9,1635.4c-0.8-3.2-0.7-6.3,0-9.5 M613,1589.8c-1-3.1-0.7-6.5,0-9.7
		 M613,1545.4c-3.4-2.2-7-4.3-10.3-6.6c-3.3-2.4-6.3-5.2-9.5-7.8c-3.1-2.6-6.5-4.8-10-6.6c-3.4-1.8-6.9-3.4-10-5.5
		c-3.1-2-5.7-4.6-7.4-7.8c-1.6-3.1-2.3-6.5-2.9-9.8c-0.6-3.3-1-7.2-3.8-9.5c-2.8-2.4-6.8-2.7-10.1-3.6c-7.9-2.3-14.4-6.9-21.6-10.6
		c-7.6-3.8-15.7-5.7-24.2-5.9c-7.8-0.2-16.4,0.3-23.3,4.3c-6.6,3.7-10.2,10.3-10.3,17.9c-0.1,4,0.7,8,1.9,11.7
		c1.2,3.8,2.5,7.6,2.7,11.7c0.3,7.3-5.1,11.9-10.5,15.9c-6.8,5-13.9,9.5-21.9,12.2c-7.7,2.6-15.9,3.5-23.2,7.1
		c-6.1,3.1-10.8,8.8-8.5,15.9c2.3,7.1,8.8,12.1,13.8,17.3c5.8,6.1,9.9,12.9,13.4,20.6c3.4,7.5,6.6,15,5.9,23.5
		c-0.3,4.3-1.2,8.5-1.7,12.8c-0.5,4.4-0.3,8.7-0.4,13.1c0,4.3-0.3,8.6-1.4,12.8c-1,3.9-2.6,7.7-3.7,11.7c-1.1,4-1.5,8.2,0.9,11.9
		c2,3.2,5.4,5.6,8.6,7.5c7.2,4.3,15.2,7.1,22.6,10.9c7.8,3.9,15,8.6,22.5,12.9c7,4.1,14.4,7.7,20.3,13.4c8.2,8,13.9,18.2,17,29.2
		 M613,1642.9c-3.4-5-4.8-10.7-3.5-16.7c0.7-3.1,2.1-6,3.5-8.8 M612.9,1597.3c-1.4-2.7-2.7-5.3-3.3-8.3c-0.6-2.9-0.4-5.9,0.2-8.8
		c0.7-2.9,1.9-5.7,3.1-8.4 M612.9,1550.6c-2.9-2.7-6.6-4.4-9.9-6.5c-3.4-2.2-6.4-4.9-9.5-7.6c-3-2.7-6.1-5.2-9.5-7.2
		c-3.6-2.1-7.4-3.8-11-5.8c-6.6-3.6-11.7-8.5-15.2-15.1c-1.9-3.6-3.5-7.1-6.5-9.9c-3-2.8-6.6-5-9.9-7.4
		c-6.6-4.9-12.7-10.4-20.3-13.6c-7.7-3.2-16.1-4.2-24.4-3.3c-7.1,0.8-14.8,3.1-19,9.3c-4.4,6.5-3.1,14.6-0.9,21.7
		c2.2,7.1,6.1,15.4,1.2,22.3c-3.9,5.6-11.1,8.6-16.7,12.2c-3.5,2.2-7,4.5-10.8,6.3c-3.8,1.8-7.8,3-11.9,3.9
		c-7.1,1.7-15.2,2.4-20.9,7.3c-5.9,5.1-3.1,12.5,1.5,17.3c5.5,5.7,12.9,9.9,19.8,13.7c7.6,4.2,15.4,7.6,23.5,10.6
		c5.9,2.1,13.7,3.9,17.1,9.8c3.6,6.3,0.5,14.4-2.9,20.1c-4.1,7-9.8,12.9-13.8,19.9c-4.1,7.2-7.2,15.3-8.7,23.5
		c-1.5,7.9-0.5,15.7,4.8,22.1c5.1,6.2,12.4,10.5,19,14.8c7.2,4.6,14.4,9,22.1,12.7c3.6,1.7,7.3,3.4,10.6,5.6c3.2,2.1,6,4.8,8.4,7.8
		c5,6.2,9.4,13.5,12.6,20.8c1.4,3.2,2.6,6.6,3.7,10 M612.6,1524c-3.1-2.9-5.8-6-8.7-9.1c-2.7-2.9-5.4-5.8-8.1-8.8
		c-2.5-2.9-4.8-6.1-6.4-9.7c-1.6-3.6-2.7-7.3-4.4-10.8c-3.2-6.6-9-11.5-15.9-14c-7.9-2.8-16.6-2.3-24.7-4.6
		c-6.8-1.9-13.2-4.8-19.9-6.8 M463.4,1460.3c-3.7,1.7-6.8,4.4-9.1,7.8c-9.3,14.3-18.5,28.2-20.1,45.2c-0.4,7.3-5.8,12.4-11.6,16.6
		c-10.8,7.3-22,10-34.8,12.4c-2.7,0.4-6.2,0.8-7.7,3.1c-0.8,1.5-1.5,3.5-1.2,5.4c1.2,5.8,2.7,11.2,2.3,17c-0.4,4.3-3.9,7-6.2,10
		c-7.3,4.6-14.3,13.1-10.4,22c2.7,5.8,6.2,10.8,7,17.4c0.4,3.9-0.4,7.3-1.2,11.2c-1.2,7-0.4,13.9,3.1,20.1
		c3.5,5.8,8.1,10.4,11.2,16.2c2.7,6.2,1.5,12.4,0.8,18.9c-1.9,18.2,1.9,37.9,15.8,50.6c0.4,0.4,1.2,0.4,1.5,0.8
		c7.7,7.3,18.2,9.3,28.2,12c7.3,2.3,13.9,8.1,12.4,16.2c-0.8,2.7-3.9,3.1-5.8,1.5c-7.3-5.4-13.9-11.6-23.2-13.1
		c-10.4-1.2-20.5-2.7-30.5-6.2c-6.6-2.3-12-5.8-18.2-8.9c-0.4-0.4-0.8-0.8-1.2-1.2c-10-6.2-18.2-12.8-27.8-19.7
		c-2.3-1.9-3.9-3.5-5.8-5.8c-2.7-3.5-4.6-7-7-10.8c-2.3-3.1-4.3-6.2-7.3-8.9c-4.3-3.5-8.9-5.8-14.3-6.6c-1.5-0.4-3.5-0.8-5-1.2
		c-9.3-0.8-18.2,0.4-26.7,3.9c-8.9,3.9-17.8,7-26.7,10.8c-1.9,1.2-3.9,1.9-5.8,3.1c-0.8,0.8-1.5,1.5-2.7,1.9
		c-0.4,0.4-0.8,0.8-1.2,1.2c-0.4,0.4-1.2,0.4-1.5,0.8c-3.9,3.5-7.3,7.3-10.8,11.6c-4.6,5.4-9.7,10.4-16.6,12.8
		c-8.9,2.7-19.7,5-27.8-1.5c-3.5-3.1-5.4-7.7-9.3-10.8c-3.9-3.1-8.5-1.9-12.8-0.4c-7.7,3.5-15.8,5-24.3,4.6c-7.3-0.8-15.1-1.9-22-5
		c-0.8-0.4-1.2,0-1.9-0.4c-5.4-2.7-10.4-5.8-15.8-8.1c-5.8-2.3-11.6-0.4-17,3.1c-9.7,6.6-18.9,13.9-30.5,13.9c-3.5,0-7.3-1.2-10-3.5
		c-0.4-0.8-1.2-1.2-1.9-1.9c-3.1-3.9-4.3-8.1-5-12.8c-0.4-3.5,0-7,1.2-10.4c1.2-5,3.5-9.7,5.4-14.7c3.9-11.6,5.8-25.1-2.3-35.9
		c-3.9-4.6-8.9-7.7-12.8-12c-5.8-6.6-1.2-15.1,0-22.8c1.5-10.8-6.6-18.9-14.7-25.1c-1.2-1.2-2.3-1.9-3.3-3.4 M612.6,1521
		c-4.4-5.4-9.5-9.7-13.7-15.1c-0.4-0.8-1.2-1.9-1.9-2.7c-2.3-3.5-4.6-7-5.8-10.8c-3.9-11.6-13.1-22.4-25.5-23.6
		c-12-1.5-22.8-5-33.8-8.7 M0.2,1558.6c0.3-3.6,0.3-7.1,0-10.7 M458.4,1460.1c-3.3,2.1-5.6,5.6-8.3,9c-3.5,5.4-5.4,10.4-8.9,15.8
		c-1.2,1.2-1.9,2.7-2.7,4.3c-0.4,0.4-0.8,0.8-1.2,1.2c-5,8.1-6.6,17-9.3,25.9c-2.3,8.5-10.4,13.1-17.8,17c-9.3,5-20.1,6.6-29.8,3.1
		c-7-2.7-12.8-7.7-19.7-10c-1.9-0.4-4.3,0-5.8,1.2c-0.8,0.8-1.5,1.9-1.2,3.5c1.5,5,5.4,8.5,9.7,11.6c0.4,0.4,0.4,0.8,0.8,1.2
		c6.2,4.3,11.2,10,12.8,17.4c1.9,10.8-8.5,15.8-14.7,22.8c-5.4,6.6-5,15.5,0.4,22c4.6,5.4,6.6,11.6,5.4,18.5
		c-1.2,5.8-1.5,11.6-0.4,17.4c1.9,8.5,8.5,13.9,13.1,21.3c2.7,4.6,3.1,9.3,2.3,14.3c-3.1,21.6,1.5,42.1,14.3,60.7
		c1.2,1.9,0.4,4.3-1.9,5c-3.5,1.2-7-0.8-10-1.9c-0.4,0-1.2,0-1.5,0c-5.4-2.3-10.4-4.6-15.5-7.3c-0.4-0.4-0.8-0.8-1.2-1.2
		c-11.2-6.6-21.3-13.1-30.1-22.4c-5-4.6-7.3-10.8-11.2-16.6c-12.8-17.4-36.3-17.4-54.5-11.2c-1.9,0.8-3.5,1.5-5,2.3
		c-9.3,3.1-17.8,6.6-26.7,10.8c-7.3,3.9-13.1,9.3-18.2,15.8c-4.6,7-11.2,12-18.9,14.3c-5.4,1.5-11.2,1.5-16.6,0
		c-6.2-2.3-8.1-9.7-11.2-15.5c-1.2-1.9-2.3-3.5-3.9-4.6c-2.7-1.5-5.8-1.2-8.5,0c-7,2.7-12.8,7.7-19.7,10
		c-18.9,5.8-36.7-4.3-52.9-12.8c-4.6-2.3-10-0.4-14.3,2.3c-0.4,0.4-0.8,0.8-1.2,1.2c-1.2,0.8-1.9,0.8-3.1,1.5
		c-8.5,6.2-16.6,12.8-27,12c-3.5-0.4-7-1.5-9.3-3.9c-5.4-6.2-6.2-15.1-3.1-22.4c7-17.8,14.3-41-2.7-55.6c-3.1-2.7-7-5-8.5-8.9
		c-2.7-6.6-0.4-13.5,0.8-20.5c1.9-12.4-8.9-19.7-16.6-27.8c-2.3-2.7-4.3-5.4-4.4-8.8" />
    </g>
    <g id="Major">
        <path fill="none" stroke="#8A4E21" stroke-width="0.6" stroke-linejoin="round" stroke-miterlimit="10" d="M472.4,1551.7
		c-7.3,2.4-11.8,11.8-4.5,17.1c5.1,3.7,13.1,3.7,18.9,2.1 M486.8,1570.9c4.9-1.9,13.5-9.8,12.4-15.7c-1.4-6.9-12.6-7.4-17.9-6.5
		 M190.9,1508.6c-4.8,14.4-19.8,20.4-31.8,27.4c-5,3-11,1-16-3c-13-11-26-20-41-27c-12-6-21-17-26-29c-3-6-6-11-7.7-17.3
		 M225.1,1459c-5,9.8-16,13.8-24,21.8c-5,5-9,12-8.3,18.9 M68.2,1507.4C59,1493,55,1476,49.7,1460.3 M281.3,1460.3
		c-16.1,9.7-32.1,21.7-48.1,31.7c-7,9-10,20-14,31c-8,16-17,33-4,50c2,4,5,12-2,13c-6,1-13,1-19-1c-8-3-17-3-25-6c-4-1-8-1-12,0
		c-8,2-14,8-22,9c-23,2-33-24-40-42c-3-9-11-16-18-24c-2-2-3-4-4.5-6.4 M265.6,1498.4c-15.4,5.6-22.4,19.6-28.4,33.6c-3,9-4,20,3,28
		c8,8,17,14,24,22c8,8,16,17,13,30c-11,7-25,0-37-1c-7,0-13,0-20,2c-7,1-13,0-20,0c-3,0-6,3-9,4c-3,3-7,4-10,7c-1,1-2,2-3,3
		c-15,8-32,17-49,16c-10-5-21-8-31-15c-6-5-9-11-12-18c-8-21-12-42-18-63c-6-7-12-14-15-23c-2-7-2-15-4-22c-3-8-7-15-9-23
		c0-7-3-13-4.3-18.8 M389.5,1460.1c-8.6,5.8-18.6,3-28.1,2.5c-11.4-0.6-21.6,2.5-32.7,4.2c-10.3,1.6-20.3,3.7-29.6,8.8
		c-8.9,5-16.8,11.7-25.2,17.5c-0.2,0.1-0.3,0.2-0.5,0.3 M605.7,1461.8c-0.6-0.6-1.2-1.1-1.8-1.6 M612.5,1470.1
		c-0.6-0.9-1.2-1.8-1.9-2.7 M271.4,1517.1c-8.2,7.9-17.2,17.9-15.2,30.9c3,16,22,17,34,23c4,2,6,7,6,11c0,9-1,19,5,26
		c8,9,17,15,23,25c1,3,0,8-4,8c-18,0-35-4-53-7c-8-1-17,0-24,3c-5,3-9,8-14,12c-4,4-9,4-13,3c-12-4-24-2-36,2c-16,6-31,18-50,15
		c-9-2-16-9-24-12c-8-4-16,0-24,0c-5-1-8-4-8-9c0-7,1-15-2-22c-1-3-3-5-4-8c-7-30-22-54-33-82.1c-1-12-2-23-3-35c-1-8-4-14-6-22
		c0-3-1-7-1-10c-1-3-2-6-4.4-8.8 M415.5,1460.1c-6.8,7.6-13.7,14.5-24.1,16.6c-9.8,2-20-0.2-29.9-0.2c-11-0.1-21.9,1.3-32.5,3.9
		c-10.1,2.4-19.5,5.5-27.1,12.7c-3.6,3.4-7,7.1-10.7,10.5c-3.7,3.4-8.4,5.3-12.1,8.5 M597,1468.4c-3.4-3.3-7.3-6.1-11.5-8.2
		 M612.5,1493.4c-3.5-5.8-5.9-12.2-9.6-17.9 M426,1471.1c-7.7,10.9-18.7,22.9-32.7,23.9c-20,1-40-5-59,1c-2,1-4,2-7,3c-2,1-9,7-11,9
		c-4,5-8,11-14,14c-2,1-10,4-11,4c-5,2-10,5-13,9c-7,10,2,18,12,21c14,4,30-1,42,8c6,5,0,13-5,17c-6,4-12,6-15,12c-3,7,2,14,7,19
		c9,8,21,12,25,23c4,11,12,21,11,32c-3,1-5,5-9,4c-16-2-29-10-43-15c-13-4-27-5-40-1c-15,6-28,15-43,23c-5,2-9,2-14,1
		c-6-2-11-7-18-8c-17-1-33,7-48,14c-6,2-11,4-17,2c-9-4-15-14-25-15c-10-1-18,6-27,9c-7,2-12-2-12-9c0-16,3-34-8-47c-3-12-5-23-8-35
		c-22.3-30-22.3-68-28.3-104.1c-1-9-4-21-14.7-22.9 M432.9,1460.1c-0.6,0.9-1.2,1.8-1.8,2.8 M589.2,1475.5
		c-9.8-10.9-23.3-12.1-36.8-15.3 M612.4,1511.7c-7-8.7-13-18.7-18.3-29.5 M436.8,1476.5c-9.6,13.5-17.6,26.4-25.5,40.5
		c-6,9-18,11-28,7c-13-6-24-16-39-13c-2,0-7,3-8,4c-6,6-11,16-6,24c5,6,13,7,21,10c7,2,12,9,11,16c-3,13-15,19-22,30
		c-6,9,2,16,10,20c10,5,7,18,10,28c2,7,7,13,11,19c1,2,2,5,3,7c3,13,0,26,0,39c-1,3-4,7-7,6c-17-1-23-20-35-30c-12-12-29-16-46-14
		c-26,3-52,13-70,35c-6,6-16,13-23,5c-4-5-5-12-9-17c-5-5-12-5-18-3c-10,3-19,9-29,15c-13,8-28,0-39-10c-4-4-9-7-16-4
		c-11,5-20,17-33,15c-4-1-7-6-7-10c1-12,6-23,6-35c0-9-3-18-9-26c-3-3-5-6-7-10c-4-10,2-20-3-30c-5-10.1-15-17-16-29c0-10-2-18-4-28
		c-3-16-1-31-5-46c-1-3-3-5-3.7-8 M447.2,1460.3c-2.2,2.8-4.1,5.7-5.9,8.7 M580.7,1483c-9.1-13.7-26-10.1-39.7-14.7
		c-9.4-3.1-18.4-6.7-28.2-8.5 M612.6,1526.8c-10.2-10.8-24.2-20.8-28.4-36.2 M448.5,1483.4c-3.5,6.6-7,13.3-8,20.8
		c-1,7.4-0.6,14.5-5.9,20.4c-10,11.2-26.3,14.8-39.6,20.1c-3.3,1.3-6.8,3-8.4,6.4c-1.6,3.3-1.1,7.3-1,10.8c0.4,8-1.4,13.5-7.5,18.9
		c-5.9,5.1-10.9,10.2-8.5,18.6c2.1,7.3,6.4,13.1,5.4,21.1c-0.9,7.3-3.5,14-1.4,21.4s7.5,12.7,11.9,18.9c4.7,6.6,4.4,12.8,3.2,20.4
		c-1.2,7.4-1.3,14.8,0,22.3c2.7,15.1,10.5,28.5,25.7,33.4c7.1,2.3,14.4,2,21.6,3.3c7.5,1.4,13.9,5.3,18.4,11.5
		c3.1,4.3,5.3,9.4,5.8,14.8 M472.1,1459.7c-9,2.5-15.1,7.8-19.5,16 M25.5,1691.8c5.5-10.7,9.5-22.7,7.5-35.7c-2-9-9-14-17-19
		c-2-2-5-5-5-9c0-6,3-12,4-18c1-11-8-18-15.2-23.9 M423.9,1766.4c-2.6-3.2-4.6-7.2-8.6-8.2c-19-6-38-9-55-21c-10-7-17-13-27-19
		c-10-7-13-18-21-26c-8-7-19-8-29-5c-20,5-41,11-55,26c-5,5-9,9-13,14c-3,3-7,4-10,5c-9,3-20,6-29,2c-5-3-9-8-15-10c-9-3-17,0-26,0
		c-14-1-27-5-39-12c-12-6-23,2-33,9c-8,5-17,8-26,5c-10-3-15-15-13.5-26 M67.5,1760c-6.5,1.4-12.6,3.6-18.9,5.8 M125.2,1765.9
		c-1.7-7.1-11.5-9.4-17.6-10.5c-10.9-1.9-20.9,1.2-31.5,3 M211.5,1761c-3.9,0.7-8.2,2.5-11.4,4.8 M351.3,1765.9
		c-7.1-6.8-15.1-11.8-23.1-15.8c-13-5-25-10-38-17c-21-10-39,9-52,23c-6,2-12,4-18.3,3.9 M66,1747c-12.9,3.8-25.3,9.6-38.6,11.7
		c-13.3,2.1-23.9-5.2-27.1-18.3 M145.6,1765.8c-5.5-16.7-25.5-18.7-40.5-23.7c-10-3-20,0-30.1,2.5 M64.5,1734.6
		c-14.3,6.4-37.5,15.4-48.8-1c-5.4-7.8-8-17.1-8.7-26.7c-0.8-10.7,4.5-18.1,8.8-27.3c2.8-5.9,4.5-12.7,1.7-19
		c-3-6.6-10.4-9.5-17.3-9.2 M382.7,1765.8c-2.5-0.7-4.5-3.7-6.5-4.7c-17-7-31-18-47-29c-5-3-10-5-14-8c-6-7-11-14-19-18
		c-12-5-24,4-36,8c-4,1-8,1-12,3c-10,5-15,16-23,24c-2,2-4,3-7,4c-11,2-21,2-30,9c-6,6-14,14-22,8c-6-6-10-13-17-18
		c-12-7-26-8-39-13c-8-2-16-5-24-5c-5,1-9,3-12.8,4.7 M464.8,1492.5c0.5,12.5,8.5,26.5-1.5,36.5c-12,11-28,15-43,19c-6,2-13,6-15,14
		c-1,7,4,12,7,17c2,5,6,9,4,15c-2,4-7,6-10,9c-1,1-2,4-1,5c5,5,19,12,10,18c-7,5-17,0-23,6c-7,9,2,18,10,22c7,3,20,5,18,15
		c-2,8-8,12-10,20c-2,9,4,16,12,18c8,2,16,2,25,3c14,3,26,9,38,16c15,10,30,22,33.2,39.6 M612.9,1541.5
		c-8.7-4.9-15.4-12.5-23.8-17.9c-6.3-4.1-14.2-7-18.3-13.7c-4.4-7.1,0-18.5-7.6-23.6c-3.7-2.5-8.3-2.2-12.6-2.8
		c-4.9-0.7-9.4-2.5-13.9-4.5c-13-5.8-25.8-10.5-40.4-9.8c-11.1,0.5-24,3.6-29.3,14.5 M562,1691.1c13.4,14,21.4,31,28.4,49
		c3,8,3,17,3.1,25.7 M612.9,1677.1c-4.2-8.4-11.3-14.5-19.1-19.5c-8.7-5.5-13.1-13.8-12.9-24.2c0.2-9.7,5.8-20.6,2.6-30.1
		c-1.3-3.9-4.3-8.4-8.7-9c-4.9-0.7-6.8,4.1-7.9,8.1c-2.1,7.4-1.5,15-3.9,22.3c-2.4,7.1-6.1,13.6-9.8,20.1
		c-3.6,6.4-8.8,13.9-8.5,21.5c0.3,7.5,6.1,13.8,11.2,18.7 M535.5,1717.5c3.8,7.6,6.8,15.6,9.8,24.6c3,8,8,16,12.3,23.8
		 M612.9,1654.8c-6.5-5.7-13.5-11.7-14.5-20.7c0-11,7-20,5-31c-3-10-3-20-5-30c-3-9-11-14-16-22c-1-2-2-5-4-7c-12-14-30-18-46-24
		c-8-4-9-14-10-22c-1-5-4-9-7-12c-1-1-3-2-5-3c-7-2-17,0-18,8c-3,14,10,23,17,34c4,8,1,18,2,27c1,2,2,5,3,7c6,9,14,17,15,28
		c2,18-2,37-16,49c-12,12-32,21-31,41c2,17,19,26,35,31c4,1,8,1,11.4,3.8" />
    </g>
    <g id="Trail">
        <path fill="none" stroke="#60371C" stroke-width="0.8" stroke-linecap="square" stroke-linejoin="round" stroke-miterlimit="10" stroke-dasharray="3,4" d="
		M315.6,1616c-6.4-5.9-15.4-8.9-21.4-14.9c-4-5,1-11,5-14c5-3,12-6,13-12c0-2-2-3-3-4c-14-6-29-6-43-13c-6-4-9-10-8-17
		c2-8,6-14,11-20c6-5,13-8,19-13c8-6,14-13,21-20c5-4,11-7,17-8c4,0,8,0,12,0c8-1,14-6,22-5c21,5,46,6,57.1-14.8 M452.2,1765.9
		c-1.9-3.8-4.9-5.8-6.9-8.8c-6-5-14-9-20-14c-8-1-17,0-24-3c-29-15-32-48-41-76c-3-8-12-9-18-14c-6-5-5-12-8.7-17.5 M139.3,1533
		c19.7,2,39.3,5.4,59.2,5.5c20,0.1,40.1-0.3,60.1,1 M-0.9,1539.4c8.8,1.3,16.8,2.3,25.8,0.3c32-6,62-12,93.6-8.4 M184.7,1622.6
		c17.4,5.5,34.4,4.5,51.4,1.5c5-1,7-7,11-10c2-1,4-2,6-2c15-2,28-6,41.8-11.1 M69.5,1532.3C67,1551,74,1568,86,1582
		c6,6,12.9,11,20.9,14c7,2,12.9,4,19.9,6c10.9,2,21.9,1,31.1,6.7" />
    </g>
    <g id="MajorText">
        <text transform="matrix(-0.2714 0.9625 -0.9625 -0.2714 465.6138 1484.0774)" fill="#8A4E21" font-family="'Arial-BoldMT'" font-size="3.0935">7</text>
        <text transform="matrix(-0.2714 0.9625 -0.9625 -0.2714 465.1469 1485.7346)" fill="#8A4E21" font-family="'Arial-BoldMT'" font-size="3.0935">6</text>
        <text transform="matrix(-0.2714 0.9625 -0.9625 -0.2714 464.682 1487.3904)" fill="#8A4E21" font-family="'Arial-BoldMT'" font-size="3.0935">0</text>
        <text transform="matrix(-0.2714 0.9625 -0.9625 -0.2714 464.2134 1489.0455)" fill="#8A4E21" font-family="'Arial-BoldMT'" font-size="3.0935">0</text>
        <text transform="matrix(-0.444 0.896 -0.896 -0.444 451.3696 1475.8483)" fill="#8A4E21" font-family="'Arial-BoldMT'" font-size="3.0926">7</text>
        <text transform="matrix(-0.444 0.896 -0.896 -0.444 450.606 1477.3892)" fill="#8A4E21" font-family="'Arial-BoldMT'" font-size="3.0926">5</text>
        <text transform="matrix(-0.444 0.896 -0.896 -0.444 449.8423 1478.9301)" fill="#8A4E21" font-family="'Arial-BoldMT'" font-size="3.0926">0</text>
        <text transform="matrix(-0.444 0.896 -0.896 -0.444 449.0766 1480.4719)" fill="#8A4E21" font-family="'Arial-BoldMT'" font-size="3.0926">0</text>
        <text transform="matrix(-0.5428 0.8399 -0.8399 -0.5428 440.0081 1469.4077)" fill="#8A4E21" font-family="'Arial-BoldMT'" font-size="3.0935">7</text>
        <text transform="matrix(-0.5428 0.8399 -0.8399 -0.5428 439.0766 1470.8518)" fill="#8A4E21" font-family="'Arial-BoldMT'" font-size="3.0935">4</text>
        <text transform="matrix(-0.5428 0.8399 -0.8399 -0.5428 438.1432 1472.297)" fill="#8A4E21" font-family="'Arial-BoldMT'" font-size="3.0935">0</text>
        <text transform="matrix(-0.5428 0.8399 -0.8399 -0.5428 437.2094 1473.7416)" fill="#8A4E21" font-family="'Arial-BoldMT'" font-size="3.0935">0</text>
        <text transform="matrix(-0.5421 0.8403 -0.8403 -0.5421 429.343 1463.4972)" fill="#8A4E21" font-family="'Arial-BoldMT'" font-size="3.0929">7</text>
        <text transform="matrix(-0.5421 0.8403 -0.8403 -0.5421 428.4114 1464.9419)" fill="#8A4E21" font-family="'Arial-BoldMT'" font-size="3.0929">3</text>
        <text transform="matrix(-0.5421 0.8403 -0.8403 -0.5421 427.4798 1466.3871)" fill="#8A4E21" font-family="'Arial-BoldMT'" font-size="3.0929">0</text>
        <text transform="matrix(-0.5421 0.8403 -0.8403 -0.5421 426.5441 1467.8333)" fill="#8A4E21" font-family="'Arial-BoldMT'" font-size="3.0929">0</text>
        <text transform="matrix(0.6832 0.7302 -0.7302 0.6832 555.5634 1686.1439)" fill="#8A4E21" font-family="'Arial-BoldMT'" font-size="3.0927">7</text>
        <text transform="matrix(0.6832 0.7302 -0.7302 0.6832 556.7372 1687.3995)" fill="#8A4E21" font-family="'Arial-BoldMT'" font-size="3.0927">8</text>
        <text transform="matrix(0.6832 0.7302 -0.7302 0.6832 557.9128 1688.6555)" fill="#8A4E21" font-family="'Arial-BoldMT'" font-size="3.0927">0</text>
        <text transform="matrix(0.6832 0.7302 -0.7302 0.6832 559.0866 1689.9111)" fill="#8A4E21" font-family="'Arial-BoldMT'" font-size="3.0927">0</text>
        <text transform="matrix(0.7554 0.6553 -0.6553 0.7554 528.8742 1713.1715)" fill="#8A4E21" font-family="'Arial-BoldMT'" font-size="3.0933">7</text>
        <text transform="matrix(0.7554 0.6553 -0.6553 0.7554 530.1736 1714.2993)" fill="#8A4E21" font-family="'Arial-BoldMT'" font-size="3.0933">7</text>
        <text transform="matrix(0.7554 0.6553 -0.6553 0.7554 531.4731 1715.4271)" fill="#8A4E21" font-family="'Arial-BoldMT'" font-size="3.0933">0</text>
        <text transform="matrix(0.7554 0.6553 -0.6553 0.7554 532.772 1716.553)" fill="#8A4E21" font-family="'Arial-BoldMT'" font-size="3.0933">0</text>
        <text transform="matrix(-0.8344 0.5511 -0.5511 -0.8344 277.8141 1511.78)" fill="#8A4E21" font-family="'Arial-BoldMT'" font-size="3.0923">7</text>
        <text transform="matrix(-0.8344 0.5511 -0.5511 -0.8344 276.3766 1512.7292)" fill="#8A4E21" font-family="'Arial-BoldMT'" font-size="3.0923">2</text>
        <text transform="matrix(-0.8344 0.5511 -0.5511 -0.8344 274.9412 1513.6764)" fill="#8A4E21" font-family="'Arial-BoldMT'" font-size="3.0923">0</text>
        <text transform="matrix(-0.8344 0.5511 -0.5511 -0.8344 273.5077 1514.6237)" fill="#8A4E21" font-family="'Arial-BoldMT'" font-size="3.0923">0</text>
        <text transform="matrix(-0.8663 0.4996 -0.4996 -0.8663 271.606 1493.4116)" fill="#8A4E21" font-family="'Arial-BoldMT'" font-size="3.0935">7</text>
        <text transform="matrix(-0.8663 0.4996 -0.4996 -0.8663 270.116 1494.2709)" fill="#8A4E21" font-family="'Arial-BoldMT'" font-size="3.0935">1</text>
        <text transform="matrix(-0.8663 0.4996 -0.4996 -0.8663 268.6279 1495.1301)" fill="#8A4E21" font-family="'Arial-BoldMT'" font-size="3.0935">0</text>
        <text transform="matrix(-0.8663 0.4996 -0.4996 -0.8663 267.1398 1495.9875)" fill="#8A4E21" font-family="'Arial-BoldMT'" font-size="3.0935">0</text>
        <text transform="matrix(-0.3649 -0.931 0.931 -0.3649 584.6398 1489.5369)" fill="#8A4E21" font-family="'Arial-BoldMT'" font-size="3.0923">7</text>
        <text transform="matrix(-0.3649 -0.931 0.931 -0.3649 584.0128 1487.9382)" fill="#8A4E21" font-family="'Arial-BoldMT'" font-size="3.0923">5</text>
        <text transform="matrix(-0.3649 -0.931 0.931 -0.3649 583.384 1486.334)" fill="#8A4E21" font-family="'Arial-BoldMT'" font-size="3.0923">0</text>
        <text transform="matrix(-0.3649 -0.931 0.931 -0.3649 582.7565 1484.7314)" fill="#8A4E21" font-family="'Arial-BoldMT'" font-size="3.0923">0</text>
        <text transform="matrix(-0.6356 -0.772 0.772 -0.6356 594.8586 1480.6361)" fill="#8A4E21" font-family="'Arial-BoldMT'" font-size="3.0928">7</text>
        <text transform="matrix(-0.6356 -0.772 0.772 -0.6356 593.7661 1479.3088)" fill="#8A4E21" font-family="'Arial-BoldMT'" font-size="3.0928">4</text>
        <text transform="matrix(-0.6356 -0.772 0.772 -0.6356 592.6732 1477.9819)" fill="#8A4E21" font-family="'Arial-BoldMT'" font-size="3.0928">0</text>
        <text transform="matrix(-0.6356 -0.772 0.772 -0.6356 591.5794 1476.6532)" fill="#8A4E21" font-family="'Arial-BoldMT'" font-size="3.0928">0</text>
        <text transform="matrix(-0.6575 -0.7535 0.7535 -0.6575 603.1612 1473.5337)" fill="#8A4E21" font-family="'Arial-BoldMT'" font-size="3.0935">7</text>
        <text transform="matrix(-0.6575 -0.7535 0.7535 -0.6575 602.0308 1472.2383)" fill="#8A4E21" font-family="'Arial-BoldMT'" font-size="3.0935">3</text>
        <text transform="matrix(-0.6575 -0.7535 0.7535 -0.6575 600.8998 1470.9423)" fill="#8A4E21" font-family="'Arial-BoldMT'" font-size="3.0935">0</text>
        <text transform="matrix(-0.6575 -0.7535 0.7535 -0.6575 599.7689 1469.6448)" fill="#8A4E21" font-family="'Arial-BoldMT'" font-size="3.0935">0</text>
        <text transform="matrix(-0.6545 -0.7561 0.7561 -0.6545 611.5064 1466.4365)" fill="#8A4E21" font-family="'Arial-BoldMT'" font-size="3.0933">7</text>
        <text transform="matrix(-0.6545 -0.7561 0.7561 -0.6545 610.3818 1465.139)" fill="#8A4E21" font-family="'Arial-BoldMT'" font-size="3.0933">2</text>
        <text transform="matrix(-0.6545 -0.7561 0.7561 -0.6545 609.2554 1463.8357)" fill="#8A4E21" font-family="'Arial-BoldMT'" font-size="3.0933">0</text>
        <text transform="matrix(-0.6545 -0.7561 0.7561 -0.6545 608.1296 1462.5358)" fill="#8A4E21" font-family="'Arial-BoldMT'" font-size="3.0933">0</text>
        <text transform="matrix(-0.9816 0.1908 -0.1908 -0.9816 75.0146 1757.4475)" fill="#8A4E21" font-family="'Arial-BoldMT'" font-size="3.0925">7</text>
        <text transform="matrix(-0.9816 0.1908 -0.1908 -0.9816 73.3252 1757.7737)" fill="#8A4E21" font-family="'Arial-BoldMT'" font-size="3.0925">8</text>
        <text transform="matrix(-0.9816 0.1908 -0.1908 -0.9816 71.6339 1758.1038)" fill="#8A4E21" font-family="'Arial-BoldMT'" font-size="3.0925">0</text>
        <text transform="matrix(-0.9816 0.1908 -0.1908 -0.9816 69.9465 1758.4319)" fill="#8A4E21" font-family="'Arial-BoldMT'" font-size="3.0925">0</text>
        <text transform="matrix(-0.9669 0.2552 -0.2552 -0.9669 73.4807 1744.0632)" fill="#8A4E21" font-family="'Arial-BoldMT'" font-size="3.0931">7</text>
        <text transform="matrix(-0.9669 0.2552 -0.2552 -0.9669 71.8168 1744.5017)" fill="#8A4E21" font-family="'Arial-BoldMT'" font-size="3.0931">7</text>
        <text transform="matrix(-0.9669 0.2552 -0.2552 -0.9669 70.151 1744.9392)" fill="#8A4E21" font-family="'Arial-BoldMT'" font-size="3.0931">0</text>
        <text transform="matrix(-0.9669 0.2552 -0.2552 -0.9669 68.4871 1745.3785)" fill="#8A4E21" font-family="'Arial-BoldMT'" font-size="3.0931">0</text>
        <text transform="matrix(-0.9276 0.3737 -0.3737 -0.9276 71.7778 1730.3153)" fill="#8A4E21" font-family="'Arial-BoldMT'" font-size="3.0938">7</text>
        <text transform="matrix(-0.9276 0.3737 -0.3737 -0.9276 70.1804 1730.9578)" fill="#8A4E21" font-family="'Arial-BoldMT'" font-size="3.0938">6</text>
        <text transform="matrix(-0.9276 0.3737 -0.3737 -0.9276 68.5888 1731.6013)" fill="#8A4E21" font-family="'Arial-BoldMT'" font-size="3.0938">0</text>
        <text transform="matrix(-0.9276 0.3737 -0.3737 -0.9276 66.9924 1732.2432)" fill="#8A4E21" font-family="'Arial-BoldMT'" font-size="3.0938">0</text>
        <text transform="matrix(-0.465 -0.8853 0.8853 -0.465 72.9773 1514.0647)" fill="#8A4E21" font-family="'Arial-BoldMT'" font-size="3.0929">7</text>
        <text transform="matrix(-0.465 -0.8853 0.8853 -0.465 72.178 1512.5403)" fill="#8A4E21" font-family="'Arial-BoldMT'" font-size="3.0929">0</text>
        <text transform="matrix(-0.465 -0.8853 0.8853 -0.465 71.3783 1511.0181)" fill="#8A4E21" font-family="'Arial-BoldMT'" font-size="3.0929">0</text>
        <text transform="matrix(-0.465 -0.8853 0.8853 -0.465 70.5779 1509.4958)" fill="#8A4E21" font-family="'Arial-BoldMT'" font-size="3.0929">0</text>
        <text transform="matrix(-0.2211 0.9753 -0.9753 -0.2211 191.4436 1500.844)" fill="#8A4E21" font-family="'Arial-BoldMT'" font-size="3.0938">6</text>
        <text transform="matrix(-0.2211 0.9753 -0.9753 -0.2211 191.0647 1502.5225)" fill="#8A4E21" font-family="'Arial-BoldMT'" font-size="3.0938">9</text>
        <text transform="matrix(-0.2211 0.9753 -0.9753 -0.2211 190.6839 1504.1995)" fill="#8A4E21" font-family="'Arial-BoldMT'" font-size="3.0938">0</text>
        <text transform="matrix(-0.2211 0.9753 -0.9753 -0.2211 190.3011 1505.8766)" fill="#8A4E21" font-family="'Arial-BoldMT'" font-size="3.0938">0</text>
        <text transform="matrix(0.1912 -0.9815 0.9815 0.1912 24.7861 1699.5009)" fill="#8A4E21" font-family="'Arial-BoldMT'" font-size="3.092">7</text>
        <text transform="matrix(0.1912 -0.9815 0.9815 0.1912 25.1158 1697.8135)" fill="#8A4E21" font-family="'Arial-BoldMT'" font-size="3.092">5</text>
        <text transform="matrix(0.1912 -0.9815 0.9815 0.1912 25.4441 1696.123)" fill="#8A4E21" font-family="'Arial-BoldMT'" font-size="3.092">0</text>
        <text transform="matrix(0.1912 -0.9815 0.9815 0.1912 25.7726 1694.4366)" fill="#8A4E21" font-family="'Arial-BoldMT'" font-size="3.092">0</text>
        <text transform="matrix(-0.9422 0.3351 -0.3351 -0.9422 479.4149 1547.8368)" fill="#8A4E21" font-family="'Arial-BoldMT'" font-size="3.0932">7</text>
        <text transform="matrix(-0.9422 0.3351 -0.3351 -0.9422 477.796 1548.4139)" fill="#8A4E21" font-family="'Arial-BoldMT'" font-size="3.0932">7</text>
        <text transform="matrix(-0.9422 0.3351 -0.3351 -0.9422 476.1721 1548.9894)" fill="#8A4E21" font-family="'Arial-BoldMT'" font-size="3.0932">0</text>
        <text transform="matrix(-0.9422 0.3351 -0.3351 -0.9422 474.5512 1549.5675)" fill="#8A4E21" font-family="'Arial-BoldMT'" font-size="3.0932">0</text>
        <text transform="matrix(-0.9916 0.1294 -0.1294 -0.9916 219.1696 1759.124)" fill="#8A4E21" font-family="'Arial-BoldMT'" font-size="3.0929">7</text>
        <text transform="matrix(-0.9916 0.1294 -0.1294 -0.9916 217.4666 1759.3466)" fill="#8A4E21" font-family="'Arial-BoldMT'" font-size="3.0929">7</text>
        <text transform="matrix(-0.9916 0.1294 -0.1294 -0.9916 215.7598 1759.5673)" fill="#8A4E21" font-family="'Arial-BoldMT'" font-size="3.0929">0</text>
        <text transform="matrix(-0.9916 0.1294 -0.1294 -0.9916 214.0548 1759.7899)" fill="#8A4E21" font-family="'Arial-BoldMT'" font-size="3.0929">0</text>
    </g>
    <g id="TrailText">
        <text transform="matrix(0.7831 0.6219 -0.6219 0.7831 158.2539 1609.9899)" fill="#60371C" font-family="'Arial-BoldMT'" font-size="3.0929">C</text>
        <text transform="matrix(0.7831 0.6219 -0.6219 0.7831 160.0026 1611.379)" fill="#60371C" font-family="'Arial-BoldMT'" font-size="3.0929">a</text>
        <text transform="matrix(0.7831 0.6219 -0.6219 0.7831 161.35 1612.449)" fill="#60371C" font-family="'Arial-BoldMT'" font-size="3.0929">n</text>
        <text transform="matrix(0.7831 0.6219 -0.6219 0.7831 162.8302 1613.6239)" fill="#60371C" font-family="'Arial-BoldMT'" font-size="3.0929">y</text>
        <text transform="matrix(0.7831 0.6219 -0.6219 0.7831 164.1767 1614.6937)" fill="#60371C" font-family="'Arial-BoldMT'" font-size="3.0929">o</text>
        <text transform="matrix(0.7831 0.6219 -0.6219 0.7831 165.6573 1615.8694)" fill="#60371C" font-family="'Arial-BoldMT'" font-size="3.0929">n</text>
        <text transform="matrix(0.9406 0.3395 -0.3395 0.9406 168.2435 1617.5378)" fill="#60371C" font-family="'Arial-BoldMT'" font-size="3.0929">C</text>
        <text transform="matrix(0.9406 0.3395 -0.3395 0.9406 170.3425 1618.2954)" fill="#60371C" font-family="'Arial-BoldMT'" font-size="3.0929">a</text>
        <text transform="matrix(0.9406 0.3395 -0.3395 0.9406 171.9619 1618.88)" fill="#60371C" font-family="'Arial-BoldMT'" font-size="3.0929">m</text>
        <text transform="matrix(0.9406 0.3395 -0.3395 0.9406 174.5468 1619.8129)" fill="#60371C" font-family="'Arial-BoldMT'" font-size="3.0929">p</text>
        <text transform="matrix(0.9406 0.3395 -0.3395 0.9406 177.1866 1620.7657)" fill="#60371C" font-family="'Arial-BoldMT'" font-size="3.0929">W</text>
        <text transform="matrix(0.9406 0.3395 -0.3395 0.9406 179.7716 1621.6985)" fill="#60371C" font-family="'Arial-BoldMT'" font-size="3.0929">a</text>
        <text transform="matrix(0.9406 0.3395 -0.3395 0.9406 181.389 1622.2826)" fill="#60371C" font-family="'Arial-BoldMT'" font-size="3.0929">y</text>
        <text transform="matrix(0.9984 5.575088e-002 -5.575088e-002 0.9984 120.8338 1532.9091)" fill="#60371C" font-family="'Arial-BoldMT'" font-size="3.0923">R</text>
        <text transform="matrix(0.9984 5.574730e-002 -5.574730e-002 0.9984 123.0652 1533.0332)" fill="#60371C" font-family="'Arial-BoldMT'" font-size="3.0923">e</text>
        <text transform="matrix(0.9984 5.573836e-002 -5.573836e-002 0.9984 124.7852 1533.131)" fill="#60371C" font-family="'Arial-BoldMT'" font-size="3.0923">d</text>
        <text transform="matrix(0.9984 5.575088e-002 -5.575088e-002 0.9984 127.5266 1533.2819)" fill="#60371C" font-family="'Arial-BoldMT'" font-size="3.0923">H</text>
        <text transform="matrix(0.9962 8.741474e-002 -8.741474e-002 0.9962 129.7222 1533.4043)" fill="#60371C" font-family="'Arial-BoldMT'" font-size="3.0933">o</text>
        <text transform="matrix(0.9934 0.1151 -0.1151 0.9934 131.5716 1533.5667)" fill="#60371C" font-family="'Arial-BoldMT'" font-size="3.0938">u</text>
        <text transform="matrix(0.9934 0.1151 -0.1151 0.9934 133.4496 1533.7852)" fill="#60371C" font-family="'Arial-BoldMT'" font-size="3.0938">s</text>
        <text transform="matrix(0.9934 0.1151 -0.1151 0.9934 135.1581 1533.9822)" fill="#60371C" font-family="'Arial-BoldMT'" font-size="3.0938">e</text>
        <text transform="matrix(0.8089 0.5879 -0.5879 0.8089 316.1304 1617.7716)" fill="#60371C" font-family="'Arial-BoldMT'" font-size="3.0925">C</text>
        <text transform="matrix(0.7698 0.6383 -0.6383 0.7698 317.8813 1619.0441)" fill="#60371C" font-family="'Arial-BoldMT'" font-size="3.0931">a</text>
        <text transform="matrix(0.7698 0.6383 -0.6383 0.7698 319.2068 1620.1432)" fill="#60371C" font-family="'Arial-BoldMT'" font-size="3.0931">n</text>
        <text transform="matrix(0.7698 0.6383 -0.6383 0.7698 320.6612 1621.349)" fill="#60371C" font-family="'Arial-BoldMT'" font-size="3.0931">y</text>
        <text transform="matrix(0.7431 0.6692 -0.6692 0.7431 321.949 1622.4161)" fill="#60371C" font-family="'Arial-BoldMT'" font-size="3.0931">o</text>
        <text transform="matrix(0.7067 0.7075 -0.7075 0.7067 323.3105 1623.6409)" fill="#60371C" font-family="'Arial-BoldMT'" font-size="3.0929">n</text>
        <text transform="matrix(0.7067 0.7075 -0.7075 0.7067 325.6658 1625.9979)" fill="#60371C" font-family="'Arial-BoldMT'" font-size="3.0929">L</text>
        <text transform="matrix(0.7067 0.7075 -0.7075 0.7067 327.0026 1627.335)" fill="#60371C" font-family="'Arial-BoldMT'" font-size="3.0929">o</text>
        <text transform="matrix(0.7067 0.7075 -0.7075 0.7067 328.3373 1628.6711)" fill="#60371C" font-family="'Arial-BoldMT'" font-size="3.0929">o</text>
        <text transform="matrix(0.7964 0.6048 -0.6048 0.7964 329.786 1630.1057)" fill="#60371C" font-family="'Arial-BoldMT'" font-size="3.0933">m</text>
    </g>
</svg>
